<?xml version="1.0" standalone="no"?>
<!DOCTYPE svg PUBLIC "-//W3C//DTD SVG 1.1//EN"
    "https://www.w3.org/Graphics/SVG/1.1/DTD/svg11.dtd">
<svg width="100%" height="100%" viewBox="0 0 530 255"
    version="1.1" xmlns="https://www.w3.org/2000/svg">
    
    <!-- ** Ellipse *************** -->
    
    <g>
        <ellipse cx="60.00" cy="59.50" rx="49.00" ry="47.50"
            transform="
                translate(0.5 0.5)
                "
            fill="none"
            stroke-width="3.00"
            stroke-linecap="round"
            stroke-linejoin="round"
            stroke="rgb(82, 65, 253)"
            />
        
        
        <text x="21.10" y="49.76"
        >
            <tspan style="font-family:Gotham-Book; font-size:12px; font-style:normal; font-weight:normal;" fill="rgb(0, 0, 0)">User uploads
            </tspan>
        </text>
        <text x="37.85" y="63.25"
        >
            <tspan style="font-family:Gotham-Book; font-size:12px; font-style:normal; font-weight:normal;" fill="rgb(0, 0, 0)">video + </tspan>
        </text>
        <text x="31.52" y="76.75"
        >
            <tspan style="font-family:Gotham-Book; font-size:12px; font-style:normal; font-weight:normal;" fill="rgb(0, 0, 0)">metadata</tspan>
        </text>
    </g>
    
    
    <!-- ** Cylinder *************** -->
    
    <g>
        <path
            d="
                M61.00 240.00
                C61.00 240.00 12.00 240.00 12.00 216.00
                L12.00 169.00
                C12.00 169.00 12.00 145.00 61.00 145.00
                C61.00 145.00 110.00 145.00 110.00 169.00
                L110.00 216.00
                C110.00 240.00 61.00 240.00 61.00 240.00
                Z
                "
            transform="
                translate(0.5 0.5)
                "
            fill="none"
            stroke-width="3.00"
            stroke-linecap="round"
            stroke-linejoin="round"
            stroke="rgb(82, 65, 253)"
            />
        <path
            d="
                M95.65 152.03
                C114.78 161.40 114.78 176.60 95.65 185.97
                C76.51 195.34 45.49 195.34 26.35 185.97
                C7.22 176.60 7.22 161.40 26.35 152.03
                C45.49 142.66 76.51 142.66 95.65 152.03
                "
            fill="none"
            transform="translate(0.5 0.5)"
            stroke-width="3.00"
            stroke-linecap="round"
            stroke-linejoin="round"
            stroke="rgb(82, 65, 253)"
            />
        
        
        <text x="23.09" y="206.51"
        >
            <tspan style="font-family:Gotham-Book; font-size:12px; font-style:normal; font-weight:normal;" fill="rgb(0, 0, 0)">Intermediate
            </tspan>
        </text>
        <text x="28.56" y="220.00"
        >
            <tspan style="font-family:Gotham-Book; font-size:12px; font-style:normal; font-weight:normal;" fill="rgb(0, 0, 0)">Repository</tspan>
        </text>
    </g>
    
    
    <!-- ** Rounded Rectangle *************** -->
    
    <g>
        <path
            d="
                M217.50 245.00
                C203.97 245.00 193.00 234.03 193.00 220.50
                L193.00 174.50
                C193.00 160.97 203.97 150.00 217.50 150.00
                L266.50 150.00
                C280.03 150.00 291.00 160.97 291.00 174.50
                L291.00 220.50
                C291.00 234.03 280.03 245.00 266.50 245.00
                Z
                "
            transform="
                translate(0.5 0.5)
                "
            fill="none"
            stroke-width="3.00"
            stroke-linecap="round"
            stroke-linejoin="round"
            stroke="rgb(252, 142, 71)"
            />
        
        
        <text x="216.38" y="188.26"
        >
            <tspan style="font-family:Gotham-Book; font-size:12px; font-style:normal; font-weight:normal;" fill="rgb(0, 0, 0)">Dynamic </tspan>
        </text>
        <text x="224.17" y="201.75"
        >
            <tspan style="font-family:Gotham-Book; font-size:12px; font-style:normal; font-weight:normal;" fill="rgb(0, 0, 0)">Ingest
            </tspan>
        </text>
        <text x="220.80" y="215.25"
        >
            <tspan style="font-family:Gotham-Book; font-size:12px; font-style:normal; font-weight:normal;" fill="rgb(0, 0, 0)">System</tspan>
        </text>
    </g>
    
    
    <!-- ** Cloud SHADOW *************** -->
    
    <g>
        <defs>
            <filter id="fillShadow-F6FB0443-73FD-490E-848C-232E138B9EA3">
                <feGaussianBlur in="SourceAlpha" stdDeviation="2.4" />
                <feOffset dx="2.0" dy="2.0" />
                <!-- <feFlood flood-color="rgb(0, 0, 0);" flood-opacity="0.33" /> -->
                <feMerge>
                    <feMergeNode />
                    <feMergeNode in="SourceGraphic" />
                </feMerge>
            </filter>
        </defs>
        <path
            d="
                M371.54 191.80
                C363.59 179.45 373.13 159.50 382.67 168.05
                C384.26 152.85 408.11 144.30 420.83 163.30
                C424.01 150.00 454.22 141.45 468.53 161.40
                C476.48 150.95 493.97 151.90 501.92 169.00
                C513.05 159.50 527.36 179.45 517.82 193.70
                C525.77 200.35 516.23 225.05 505.10 218.40
                C500.33 235.50 487.61 247.85 463.76 235.50
                C457.40 248.80 411.29 247.85 408.11 233.60
                C404.93 243.10 373.13 253.55 373.13 219.35
                C362.00 224.10 355.64 193.70 371.54 191.80
                Z
                "
        fill="rgb(0, 0, 0)"
        filter="url(#fillShadow-F6FB0443-73FD-490E-848C-232E138B9EA3)"
        />
    </g>
    
    
    <!-- ** Cloud *************** -->
    
    <g>
        <defs>
            <linearGradient id="fillGradient-F6FB0443-73FD-490E-848C-232E138B9EA3" x1="0%" y1="0%" x2="100%" y2="0%"
                >
                <stop offset="0.00%" style="stop-color:rgb(183, 221, 230);stop-opacity:1.00;" />
                <stop offset="100.00%" style="stop-color:rgb(230, 230, 230);stop-opacity:1.00;" />
            </linearGradient>
        </defs>
        
        <path
            d="
                M371.54 191.80
                C363.59 179.45 373.13 159.50 382.67 168.05
                C384.26 152.85 408.11 144.30 420.83 163.30
                C424.01 150.00 454.22 141.45 468.53 161.40
                C476.48 150.95 493.97 151.90 501.92 169.00
                C513.05 159.50 527.36 179.45 517.82 193.70
                C525.77 200.35 516.23 225.05 505.10 218.40
                C500.33 235.50 487.61 247.85 463.76 235.50
                C457.40 248.80 411.29 247.85 408.11 233.60
                C404.93 243.10 373.13 253.55 373.13 219.35
                C362.00 224.10 355.64 193.70 371.54 191.80
                Z
                "
            transform="
                translate(0.5 0.5)
                "
            fill="url(#fillGradient-F6FB0443-73FD-490E-848C-232E138B9EA3)"
            stroke-width="3.00"
            stroke-linecap="round"
            stroke-linejoin="round"
            stroke="rgb(252, 142, 71)"
            />
        
        
        <text x="404.77" y="201.25"
        >
            <tspan style="font-family:Gotham-Book; font-size:12px; font-style:normal; font-weight:normal;" fill="rgb(0, 0, 0)">Video Cloud</tspan>
        </text>
    </g>
    
    
    <!-- ** Line *************** -->
    
    <g>
        <defs>
            <clipPath id="clipPath-1A128FD3-95F4-469F-BB11-DACA7CEC6F66">
                <path d="
                    M-10000,-10000 h100000 v100000 h-100000 v-100000
                    M60.50 134.50
                    L65.50 134.50
                    L65.50 156.50
                    L55.50 156.50
                    L55.50 134.50
                    Z
                    "
                clip-rule="evenodd"/>
            </clipPath>
        </defs>
        
        <path
            d="
                M60.00 109.00
                L60.00 146.00
                "
            clip-path="url(#clipPath-1A128FD3-95F4-469F-BB11-DACA7CEC6F66)"
            transform="
                translate(0.5 0.5)
                "
            fill="none"
            stroke-width="4.00"
            stroke-linecap="round"
            stroke-linejoin="round"
            stroke="rgb(107, 107, 107)"
            />
        
        
        <path
            d="
                M60.50 134.50
                L65.50 134.50
                L60.50 145.50
                L55.50 134.50
                Z
                "
            fill="rgb(107, 107, 107)"
            stroke-width="2.00"
            stroke-linecap="butt"
            stroke-linejoin="miter"
            stroke="rgb(107, 107, 107)"
            />
    </g>
    
    
    <!-- ** Line *************** -->
    
    <g>
        <defs>
            <clipPath id="clipPath-634CE957-CFE7-4203-A99F-BE46A8E7A0D8">
                <path d="
                    M-10000,-10000 h100000 v100000 h-100000 v-100000
                    M181.50 198.50
                    L181.50 193.50
                    L203.50 193.50
                    L203.50 203.50
                    L181.50 203.50
                    Z
                    "
                clip-rule="evenodd"/>
            </clipPath>
        </defs>
        
        <path
            d="
                M109.00 198.00
                L193.00 198.00
                "
            clip-path="url(#clipPath-634CE957-CFE7-4203-A99F-BE46A8E7A0D8)"
            transform="
                translate(0.5 0.5)
                "
            fill="none"
            stroke-width="4.00"
            stroke-linecap="round"
            stroke-linejoin="round"
            stroke="rgb(107, 107, 107)"
            />
        
        
        <path
            d="
                M181.50 198.50
                L181.50 193.50
                L192.50 198.50
                L181.50 203.50
                Z
                "
            fill="rgb(107, 107, 107)"
            stroke-width="2.00"
            stroke-linecap="butt"
            stroke-linejoin="miter"
            stroke="rgb(107, 107, 107)"
            />
    </g>
    
    
    <!-- ** Line *************** -->
    
    <g>
        <defs>
            <clipPath id="clipPath-24AB994D-EC78-4D45-8307-33D993F497D2">
                <path d="
                    M-10000,-10000 h100000 v100000 h-100000 v-100000
                    M349.50 198.50
                    L349.50 193.50
                    L371.50 193.50
                    L371.50 203.50
                    L349.50 203.50
                    Z
                    "
                clip-rule="evenodd"/>
            </clipPath>
        </defs>
        
        <path
            d="
                M291.00 198.00
                L361.00 198.00
                "
            clip-path="url(#clipPath-24AB994D-EC78-4D45-8307-33D993F497D2)"
            transform="
                translate(0.5 0.5)
                "
            fill="none"
            stroke-width="4.00"
            stroke-linecap="round"
            stroke-linejoin="round"
            stroke="rgb(107, 107, 107)"
            />
        
        
        <path
            d="
                M349.50 198.50
                L349.50 193.50
                L360.50 198.50
                L349.50 203.50
                Z
                "
            fill="rgb(107, 107, 107)"
            stroke-width="2.00"
            stroke-linecap="butt"
            stroke-linejoin="miter"
            stroke="rgb(107, 107, 107)"
            />
    </g>
    
</svg>

