<svg xmlns="https://www.w3.org/2000/svg" xmlns:xlink="https://www.w3.org/1999/xlink" xmlns:lucid="lucid" width="1355" height="740"><g transform="translate(-80 -46.89499999999998)" lucid:page-tab-id="0_0"><path d="M520 72.9c0-3.32 2.7-6 6-6h643c3.3 0 6 2.68 6 6v688c0 3.3-2.7 6-6 6H526c-3.3 0-6-2.7-6-6z" fill="#fff"/><path d="M540.88 66.9h5.96m11.9 0h5.96m11.9 0h5.96m11.9 0h5.96m11.9 0h5.96m11.9 0h5.96m11.9 0H654m11.9 0h5.97m11.9 0h5.96m11.9 0h5.96m11.9 0h5.95m11.9 0h5.96m11.92 0h5.95m11.9 0h5.96m11.9 0h5.96m11.9 0h5.95m11.9 0h5.97m11.9 0h5.96m11.9 0h5.96m11.9 0h5.96m11.9 0h5.96m11.9 0h5.96m11.9 0h5.96m11.9 0h5.96m11.9 0h5.96m11.9 0h5.97m11.9 0h5.96m11.9 0h5.96m11.9 0h5.95m11.9 0h5.96m11.92 0h5.95m11.9 0h5.96m11.9 0h5.96m11.9 0h5.95m11.9 0h5.97m11.9 0h2.98l3.03.8 2.15 2.17.82 3.02v3m0 12.08v6.04m0 12.07v6.02m0 12.07v6.03m0 12.07v6.03m0 12.07v6.04m0 12.07v6.04m0 12.07v6.05m0 12.07v6.03m0 12.07v6.04m0 12.07v6.04m0 12.07v6.03m0 12.07v6.04m0 12.07v6.03m0 12.07v6.04m0 12.06v6.03m0 12.06v6.04m0 12.07v6.03m0 12.07v6.04m0 12.08v6.03m0 12.08v6.04m0 12.07v6.02m0 12.07v6.03m0 12.07v6.03m0 12.07v6.04m0 12.07v6.04m0 12.07v6.05m0 12.07v6.03m0 12.07v6.04m0 12.07v6.04m0 12.07v6.03m0 12.07v6.04m0 12.07v6.03m0 12.07v6.04m0 12.06v6.03m0 12.06v6.04m0 12.07v6.03m0 12.07v6.04m0 12.08v3l-.82 3.04-2.15 2.16-3.03.8h-2.98m-11.9 0h-5.96m-11.9 0h-5.96m-11.9 0h-5.96m-11.9 0h-5.96m-11.9 0h-5.96m-11.9 0h-5.96m-11.9 0H1041m-11.9 0h-5.97m-11.9 0h-5.96m-11.9 0h-5.96m-11.9 0h-5.95m-11.9 0h-5.96m-11.92 0h-5.95m-11.9 0h-5.96m-11.9 0h-5.96m-11.9 0h-5.95m-11.9 0h-5.97m-11.9 0h-5.96m-11.9 0h-5.96m-11.9 0h-5.96m-11.9 0h-5.96m-11.9 0h-5.96m-11.9 0h-5.96m-11.9 0h-5.96m-11.9 0h-5.96m-11.9 0h-5.97m-11.9 0h-5.96m-11.9 0h-5.96m-11.9 0h-5.95m-11.9 0h-5.96m-11.92 0h-5.95m-11.9 0h-5.96m-11.9 0h-5.96m-11.9 0h-5.95m-11.9 0h-5.97m-11.9 0H526l-3.03-.8-2.15-2.16-.82-3.02v-3.02m0-12.07v-6.03m0-12.07v-6.03m0-12.07v-6.04m0-12.07v-6.04m0-12.07v-6.05m0-12.07v-6.03m0-12.07v-6.04m0-12.07v-6.03m0-12.07v-6.04m0-12.07v-6.04m0-12.07v-6.03m0-12.07v-6.04m0-12.06v-6.03m0-12.06v-6.04m0-12.07v-6.03m0-12.07v-6.04m0-12.08v-6.03m0-12.08v-6.04m0-12.07v-6.02m0-12.07v-6.03m0-12.07v-6.03m0-12.07v-6.04m0-12.07v-6.04m0-12.07v-6.05m0-12.07v-6.03m0-12.07v-6.04m0-12.07v-6.03m0-12.07v-6.04m0-12.07v-6.04m0-12.07v-6.03m0-12.07v-6.04m0-12.06v-6.03m0-12.06v-6.04m0-12.07v-6.03m0-12.07v-6.04m0-12.08v-6.03M520 94v-6.04m0-12.07v-3l.82-3.03 2.15-2.16 3.03-.8h2.98" stroke="#3a414a" stroke-width="3" fill="none"/><path d="M520 66.9h200v60H520z" fill="none"/><use xlink:href="#a" transform="matrix(1,0,0,1,520,66.89499999999998) translate(64.87654320987654 34.44444444444444)"/><path d="M997.9 271.1l-26.37-45.3c-2.05-3.64-5.63-5.7-9.86-5.8H909.2c-4.23.1-7.8 2.16-9.86 5.8l-26.37 45.18c-2.05 3.53-2.05 7.62 0 11.26l26.37 45.52c2.05 3.75 5.5 5.92 9.85 6.03h52.47c4.23-.12 7.8-2.3 9.86-6.04l26.37-45.18c2.05-3.75 2.05-7.85 0-11.5z" stroke="#000" stroke-opacity="0" fill="#4285f4"/><path d="M945.45 254.14l-10.43-1.8-9.55 10.43 5.78 5.7-4 4.72-6.2-6.2-12.1 6.92 3.53 12.87 47.4 46.96h1.86c4.25-.16 7.78-2.28 9.87-6.02l17.58-30.3z" stroke="#000" stroke-opacity="0" fill-opacity=".07"/><path d="M950.23 276.88l-14.8 14.65-14.8-14.65 14.8-14.65zm-14.8 9.5l9.6-9.5-9.6-9.5-9.6 9.5z" stroke="#000" stroke-opacity="0" fill="#fff"/><path d="M949.7 286.74h8.73l9.97-9.86-9.97-9.86h-8.73l9.97 9.86-9.97 9.86zM925.46 291v8.65l9.97 9.87 9.96-9.87V291l-9.97 9.88-9.97-9.87zM935.43 244.24l-9.97 9.87v8.65l9.97-9.87 9.96 9.87v-8.64l-9.97-9.86zM921.16 267.02h-8.74l-9.97 9.86 9.97 9.86h8.74l-9.97-9.86 9.96-9.86z" stroke="#000" stroke-opacity="0" fill="#fff"/><use xlink:href="#b" transform="matrix(1,0,0,1,871.4330708661416,338.78999999999996) translate(12.17901234567902 17.77777777777778)"/><use xlink:href="#c" transform="matrix(1,0,0,1,871.4330708661416,338.78999999999996) translate(80.0185185185185 17.77777777777778)"/><path d="M220 580.2v5.46c0 9.95-10.93 20.23-24.25 20.23h-71.5c-13.32 0-24.24-10.3-24.24-20.24v-5.47z" fill="#7d7c7c"/><path d="M146.2 526.9c12.35 0 22.8 6.8 27.95 18.07 7.08-4.86 16.8-3.06 21.6 4.1 1.8 2.54 2.64 5.16 2.76 8.22 12.13 1.03 21.5 12.76 21.5 22.1v2c0 10.02-10.93 20.17-24.25 20.17h-71.5c-13.33 0-24.25-10.15-24.25-20.16v-2c0-7.77 6.48-18.38 15.48-21v-.9c.12-16.94 13.8-30.68 30.72-30.6z" fill="#d2d3d3"/><path d="M171.65 591.86c-.94 0-1.75-.34-2.4-1-5.13-5.14-13.38-5.14-18.5 0-1.32 1.32-3.5 1.32-4.82 0-1.32-1.36-1.32-3.53 0-4.86 7.77-7.82 20.36-7.82 28.12 0 1.33 1.33 1.33 3.5 0 4.84-.66.67-1.47 1-2.4 1z" fill="#fff"/><path d="M180.92 582.55c-.97 0-1.74-.34-2.42-1-10.25-10.27-26.8-10.27-37 0-1.44 1.17-3.6.94-4.77-.54-1.02-1.25-1.02-2.97-.05-4.25 12.9-12.93 33.74-12.93 46.65 0 1.3 1.35 1.3 3.52-.05 4.85-.62.66-1.45 1-2.36 1z" fill="#fff"/><path d="M190.9 573.32c-.97 0-1.73-.33-2.4-1-15.73-15.84-41.26-15.84-56.97 0-1.38 1.34-3.5 1.34-4.8 0-1.38-1.35-1.38-3.52 0-4.86 18.38-18.5 48.17-18.5 66.56 0 1.36 1.34 1.36 3.5.06 4.86-.7.67-1.5 1-2.47 1z" fill="#fff"/><use xlink:href="#d" transform="matrix(1,0,0,1,100,605.895) translate(22.376543209876544 17.77777777777778)"/><path d="M354.93 290.2l-22.9 30.67-12.03-30.6 21.9-1.35 13.03 1.27zM384.82 290.2l23.16 30.85 11.77-30.78-21.66-1.35-13.28 1.28z" fill="#fbbf93"/><path d="M354.93 269.7l-22.9-30.76-12.03 30.8 22.08 1.3 12.85-1.34zM384.82 269.72L408 238.94l12 30.8-21.92 1.33-13.26-1.35z" fill="#6b3a19"/><path d="M384.82 269.7l23.16-1.72v-29.04l-23.16 5.96v24.8z" fill="#9d5025"/><path d="M420 269.74l-12-1.76v-29.04l12 5.97v24.84z" fill="#f58536"/><path d="M384.82 290.2l23.16 1.8v29.05L384.82 315v-24.8z" fill="#9d5025"/><path d="M419.76 290.28L408 292v29.05l11.76-5.87v-24.9zM354.93 269.7L332 267.98v-29.04l22.93 5.96v24.8z" fill="#f58536"/><path d="M320 269.74l12-1.76v-29.04l-12 5.97v24.84z" fill="#9d5025"/><path d="M354.93 290.2L332 292v29.05l22.93-6.04v-24.8z" fill="#f58536"/><path d="M320 290.25l12 1.75v29.05l-12-5.97v-24.83z" fill="#9d5025"/><path d="M393.86 294.04l-23.9-2.36-24.07 2.3 24.07 46 23.9-45.94z" fill="#fbbf93"/><path d="M393.86 265.94l-23.9 2.37-24.07-2.3 24.07-46 23.9 45.94z" fill="#6b3a19"/><path d="M393.86 265.96L370 262.5V220l23.86 11.9v34.06z" fill="#f58536"/><path d="M345.9 265.98l24.1-3.5V220l-24.1 12v33.98z" fill="#9d5025"/><path d="M393.86 294.03L370 297.48v42.5l23.86-11.9v-34.05z" fill="#f58536"/><path d="M345.9 294l24.1 3.5V340l-24.1-12v-34z" fill="#9d5025"/><use xlink:href="#e" transform="matrix(1,0,0,1,320,340) translate(17.96296296296297 17.77777777777778)"/><use xlink:href="#f" transform="matrix(1,0,0,1,320,340) translate(-4.814814814814817 44.44444444444444)"/><path d="M938 532.32l57.98 8.6v5.1c0 7.55-25.98 13.65-58 13.65-32 0-57.98-6.1-57.98-13.65v-5.52z" fill="#8c3123"/><path d="M938.02 569.02c24.2 0 44.93-3.53 53.58-8.5l2.88-4.77 1.15-4.4v5.45l-19 81c0 5.07-17.3 9.08-38.6 9.08-21.33 0-38.6-4-38.6-9.07l-19.02-81v-5.35l4.38 9.26c8.76 4.9 29.27 8.32 53.24 8.32z" fill="#8c3123"/><path d="M938 526.9c32 0 58 6.1 58 13.62 0 7.5-26 13.57-58 13.57s-58-6.02-58-13.58c0-7.56 26-13.63 58-13.63z" fill="#e05243"/><path d="M938 563.5c29.84 0 54.4-5.22 57.62-12.07l-19.02 81c0 5.06-17.3 9.1-38.6 9.1-21.33 0-38.6-4.04-38.6-9.1l-19.03-81c3.23 6.85 27.78 12.08 57.62 12.08z" fill="#e05243"/><use xlink:href="#g" transform="matrix(1,0,0,1,880,646.895) translate(27.16666666666667 17.77777777777778)"/><use xlink:href="#h" transform="matrix(1,0,0,1,880,646.895) translate(2.382716049382722 44.44444444444444)"/><use xlink:href="#i" transform="matrix(1,0,0,1,880,646.895) translate(67.75308641975309 44.44444444444444)"/><use xlink:href="#j" transform="matrix(1,0,0,1,880,646.895) translate(14.203703703703702 71.11111111111111)"/><path d="M1175 466.9h240v60h-240z" fill="none"/><use xlink:href="#k" transform="matrix(1,0,0,1,1175,466.895) translate(33.641975308641975 34.44444444444444)"/><use xlink:href="#l" transform="matrix(1,0,0,1,1175,466.895) translate(144.69135802469134 34.44444444444444)"/><path d="M1197.5 306.9h195v190h-195z" fill="none"/><path d="M1352.72 458.14h-115.44v-112.5h115.44v112.5zm-124.6 8.93h133.77l-.02-130.35h-133.77l.02 130.35zm116.8-37.62l-25.15-14.82-21.07 9.12-28.66-24.7-23.8 16.52v32.88h98.68v-19z" fill="#403f3f"/><path d="M999.9 276.9h107.85c3.32 0 6 2.68 6 6v128c0 3.3 2.7 6 6 6h91.98" stroke="#3a414a" fill="none"/><path d="M999.9 277.4h-.56l.1-.87-.03-.13h.5z" stroke="#3a414a" stroke-width=".05" fill="#3a414a"/><path d="M1226.5 416.9l-14.27 4.63v-9.27z" stroke="#3a414a" fill="#3a414a"/><path d="M600 456.9c-22.08 0-40-17.93-40-40 0-22.08 17.92-40 40-40s40 17.92 40 40c0 22.07-17.92 40-40 40zm0-76.8c-20.32 0-36.8 16.47-36.8 36.8 0 20.3 16.48 36.8 36.8 36.8 20.32 0 36.8-16.5 36.8-36.8 0-20.32-16.48-36.8-36.8-36.8z" stroke="#fff" stroke-opacity="0" stroke-width="3" fill="#693cc5"/><path d="M623.86 428.1h-3.06v-6.4c0-.9-.7-1.6-1.58-1.6h-4.83v-6.4c0-.9-.73-1.6-1.6-1.6h-11.2v-4.8h11.2c.87 0 1.6-.74 1.6-1.58v-14.44c0-.9-.73-1.58-1.6-1.58h-25.6c-.88 0-1.6.7-1.6 1.58v14.44c0 .84.72 1.58 1.6 1.58h11.2v4.8h-11.2c-.88 0-1.6.7-1.6 1.6v6.4h-4.78c-.9 0-1.63.7-1.63 1.6v6.4h-3.06c-.87 0-1.58.73-1.58 1.57v8.04c0 .9.7 1.6 1.58 1.6h7.84c.92 0 1.63-.7 1.63-1.6v-8.03c0-.84-.7-1.58-1.62-1.58h-1.58v-4.83h8v4.82h-1.58c-.92 0-1.63.73-1.63 1.57v8.04c0 .9.7 1.6 1.62 1.6h8c.86 0 1.57-.7 1.57-1.6v-8.03c0-.84-.72-1.58-1.58-1.58h-3.2v-6.4c0-.9-.73-1.6-1.64-1.6h-3.16v-4.8h22.36v4.8h-3.16c-.92 0-1.63.7-1.63 1.6v6.4h-3.22c-.86 0-1.58.73-1.58 1.57v8.04c0 .9.72 1.6 1.58 1.6h8c.9 0 1.63-.7 1.63-1.6v-8.03c0-.84-.7-1.58-1.62-1.58h-1.58v-4.83h8v4.82h-1.74c-.86 0-1.58.73-1.58 1.57v8.04c0 .9.72 1.6 1.58 1.6h8.05c.88 0 1.6-.7 1.6-1.6v-8.03-.05c-.06-.84-.78-1.53-1.64-1.53zm-41.46 7.97h-4.63v-4.76h4.63zm12.8-4.76v4.77h-4.8v-4.76zm-6.38-27.22v-11.16h22.36v11.16zm20.78 32h-4.8v-4.77h4.8zm12.63 0h-4.8v-4.77h4.8z" stroke="#fff" stroke-opacity="0" stroke-width="3" fill="#693cc5"/><use xlink:href="#m" transform="matrix(1,0,0,1,530,465.895) translate(15.7716049382716 17.77777777777778)"/><use xlink:href="#n" transform="matrix(1,0,0,1,530,465.895) translate(45.308641975308646 44.44444444444444)"/><use xlink:href="#o" transform="matrix(1,0,0,1,530,465.895) translate(26.234567901234563 71.11111111111111)"/><path d="M640.5 416.9h109.24c3.3 0 6-2.7 6-6v-128c0-3.32 2.7-6 6-6h93.36" stroke="#3a414a" fill="none"/><path d="M640.5 417.4h-.53l.03-.5-.02-.5h.53z" stroke="#3a414a" stroke-width=".05" fill="#3a414a"/><path d="M869.86 276.9l-14.26 4.63v-9.27z" stroke="#3a414a" fill="#3a414a"/><path d="M967.3 332.64v90.88c0 3.3-2.7 6-6 6H944c-3.3 0-6 2.68-6 6v75" stroke="#3a414a" fill="none"/><path d="M967.8 332.65h-1v-.2l1-.62z" stroke="#3a414a" stroke-width=".05" fill="#3a414a"/><path d="M938 525.28L933.36 511h9.28z" stroke="#3a414a" fill="#3a414a"/><path d="M160 529.7V296c0-3.3 2.68-6 6-6h141.83" stroke="#3a414a" fill="none"/><path d="M160.5 530.43l-1-.48v-.27h1z" stroke="#3a414a" stroke-width=".05" fill="#3a414a"/><path d="M322.6 290l-14.27 4.64v-9.28z" stroke="#3a414a" fill="#3a414a"/><path d="M416 290h65.74c3.32 0 6 2.7 6 6v114.9c0 3.3 2.7 6 6 6h49.88" stroke="#3a414a" fill="none"/><path d="M416 290.03l-3.5-.22v-.3h3.5z" stroke="#3a414a" stroke-width=".05" fill="#3a414a"/><path d="M558.38 416.9l-14.26 4.63v-9.27z" stroke="#3a414a" fill="#3a414a"/><path d="M540 74.9h41.72v44H540z" stroke="#000" stroke-opacity="0" fill-opacity="0"/><path d="M564.32 85.9l-1.7-3.66h-13.94v31.15h3.5v-12.85h8.68l1.75 3.7h12.15V85.88h-10.43zm6.97 14.65h-6.98l-1.7-3.66h-10.44v-11h8.68l1.75 3.65h8.7v11z" stroke="#000" stroke-opacity="0"/><defs><path fill="#3a414a" d="M233-177c-1 41-23 64-60 70L243 0h-38l-65-103H63V0H30v-248c88 3 205-21 203 71zM63-129c60-2 137 13 137-47 0-61-80-42-137-45v92" id="p"/><path fill="#3a414a" d="M100-194c63 0 86 42 84 106H49c0 40 14 67 53 68 26 1 43-12 49-29l28 8c-11 28-37 45-77 45C44 4 14-33 15-96c1-61 26-98 85-98zm52 81c6-60-76-77-97-28-3 7-6 17-6 28h103" id="q"/><path fill="#3a414a" d="M177-190C167-65 218 103 67 71c-23-6-38-20-44-43l32-5c15 47 100 32 89-28v-30C133-14 115 1 83 1 29 1 15-40 15-95c0-56 16-97 71-98 29-1 48 16 59 35 1-10 0-23 2-32h30zM94-22c36 0 50-32 50-73 0-42-14-75-50-75-39 0-46 34-46 75s6 73 46 73" id="r"/><path fill="#3a414a" d="M24-231v-30h32v30H24zM24 0v-190h32V0H24" id="s"/><path fill="#3a414a" d="M100-194c62-1 85 37 85 99 1 63-27 99-86 99S16-35 15-95c0-66 28-99 85-99zM99-20c44 1 53-31 53-75 0-43-8-75-51-75s-53 32-53 75 10 74 51 75" id="t"/><path fill="#3a414a" d="M117-194c89-4 53 116 60 194h-32v-121c0-31-8-49-39-48C34-167 62-67 57 0H25l-1-190h30c1 10-1 24 2 32 11-22 29-35 61-36" id="u"/><g id="a"><use transform="matrix(0.06172839506172839,0,0,0.06172839506172839,0,0)" xlink:href="#p"/><use transform="matrix(0.06172839506172839,0,0,0.06172839506172839,15.987654320987653,0)" xlink:href="#q"/><use transform="matrix(0.06172839506172839,0,0,0.06172839506172839,28.333333333333332,0)" xlink:href="#r"/><use transform="matrix(0.06172839506172839,0,0,0.06172839506172839,40.67901234567901,0)" xlink:href="#s"/><use transform="matrix(0.06172839506172839,0,0,0.06172839506172839,45.55555555555556,0)" xlink:href="#t"/><use transform="matrix(0.06172839506172839,0,0,0.06172839506172839,57.901234567901234,0)" xlink:href="#u"/></g><path fill="#3a414a" d="M33 0v-248h34V0H33" id="v"/><path fill="#3a414a" d="M210-169c-67 3-38 105-44 169h-31v-121c0-29-5-50-35-48C34-165 62-65 56 0H25l-1-190h30c1 10-1 24 2 32 10-44 99-50 107 0 11-21 27-35 58-36 85-2 47 119 55 194h-31v-121c0-29-5-49-35-48" id="w"/><path fill="#3a414a" d="M141-36C126-15 110 5 73 4 37 3 15-17 15-53c-1-64 63-63 125-63 3-35-9-54-41-54-24 1-41 7-42 31l-33-3c5-37 33-52 76-52 45 0 72 20 72 64v82c-1 20 7 32 28 27v20c-31 9-61-2-59-35zM48-53c0 20 12 33 32 33 41-3 63-29 60-74-43 2-92-5-92 41" id="x"/><g id="b"><use transform="matrix(0.06172839506172839,0,0,0.06172839506172839,0,0)" xlink:href="#v"/><use transform="matrix(0.06172839506172839,0,0,0.06172839506172839,6.172839506172839,0)" xlink:href="#w"/><use transform="matrix(0.06172839506172839,0,0,0.06172839506172839,24.629629629629626,0)" xlink:href="#x"/><use transform="matrix(0.06172839506172839,0,0,0.06172839506172839,36.9753086419753,0)" xlink:href="#r"/><use transform="matrix(0.06172839506172839,0,0,0.06172839506172839,49.32098765432098,0)" xlink:href="#q"/></g><path fill="#3a414a" d="M205 0l-28-72H64L36 0H1l101-248h38L239 0h-34zm-38-99l-47-123c-12 45-31 82-46 123h93" id="y"/><path fill="#3a414a" d="M30-248c87 1 191-15 191 75 0 78-77 80-158 76V0H30v-248zm33 125c57 0 124 11 124-50 0-59-68-47-124-48v98" id="z"/><g id="c"><use transform="matrix(0.06172839506172839,0,0,0.06172839506172839,0,0)" xlink:href="#y"/><use transform="matrix(0.06172839506172839,0,0,0.06172839506172839,14.814814814814813,0)" xlink:href="#z"/><use transform="matrix(0.06172839506172839,0,0,0.06172839506172839,29.629629629629626,0)" xlink:href="#v"/></g><path fill="#3a414a" d="M59-47c-2 24 18 29 38 22v24C64 9 27 4 27-40v-127H5v-23h24l9-43h21v43h35v23H59v120" id="A"/><path fill="#3a414a" d="M114-163C36-179 61-72 57 0H25l-1-190h30c1 12-1 29 2 39 6-27 23-49 58-41v29" id="B"/><g id="d"><use transform="matrix(0.06172839506172839,0,0,0.06172839506172839,0,0)" xlink:href="#v"/><use transform="matrix(0.06172839506172839,0,0,0.06172839506172839,6.172839506172839,0)" xlink:href="#u"/><use transform="matrix(0.06172839506172839,0,0,0.06172839506172839,18.51851851851852,0)" xlink:href="#A"/><use transform="matrix(0.06172839506172839,0,0,0.06172839506172839,24.691358024691358,0)" xlink:href="#q"/><use transform="matrix(0.06172839506172839,0,0,0.06172839506172839,37.03703703703704,0)" xlink:href="#B"/><use transform="matrix(0.06172839506172839,0,0,0.06172839506172839,44.382716049382715,0)" xlink:href="#u"/><use transform="matrix(0.06172839506172839,0,0,0.06172839506172839,56.72839506172839,0)" xlink:href="#q"/><use transform="matrix(0.06172839506172839,0,0,0.06172839506172839,69.07407407407408,0)" xlink:href="#A"/></g><path fill="#3a414a" d="M143 4C61 4 22-44 18-125c-5-107 100-154 193-111 17 8 29 25 37 43l-32 9c-13-25-37-40-76-40-61 0-88 39-88 99 0 61 29 100 91 101 35 0 62-11 79-27v-45h-74v-28h105v86C228-13 192 4 143 4" id="C"/><path fill="#3a414a" d="M24 0v-261h32V0H24" id="D"/><path fill="#3a414a" d="M115-194c53 0 69 39 70 98 0 66-23 100-70 100C84 3 66-7 56-30L54 0H23l1-261h32v101c10-23 28-34 59-34zm-8 174c40 0 45-34 45-75 0-40-5-75-45-74-42 0-51 32-51 76 0 43 10 73 51 73" id="E"/><g id="e"><use transform="matrix(0.06172839506172839,0,0,0.06172839506172839,0,0)" xlink:href="#C"/><use transform="matrix(0.06172839506172839,0,0,0.06172839506172839,17.28395061728395,0)" xlink:href="#D"/><use transform="matrix(0.06172839506172839,0,0,0.06172839506172839,22.160493827160494,0)" xlink:href="#t"/><use transform="matrix(0.06172839506172839,0,0,0.06172839506172839,34.50617283950617,0)" xlink:href="#E"/><use transform="matrix(0.06172839506172839,0,0,0.06172839506172839,46.85185185185185,0)" xlink:href="#x"/><use transform="matrix(0.06172839506172839,0,0,0.06172839506172839,59.197530864197525,0)" xlink:href="#D"/></g><path fill="#3a414a" d="M212-179c-10-28-35-45-73-45-59 0-87 40-87 99 0 60 29 101 89 101 43 0 62-24 78-52l27 14C228-24 195 4 139 4 59 4 22-46 18-125c-6-104 99-153 187-111 19 9 31 26 39 46" id="F"/><path fill="#3a414a" d="M84 4C-5 8 30-112 23-190h32v120c0 31 7 50 39 49 72-2 45-101 50-169h31l1 190h-30c-1-10 1-25-2-33-11 22-28 36-60 37" id="G"/><path fill="#3a414a" d="M85-194c31 0 48 13 60 33l-1-100h32l1 261h-30c-2-10 0-23-3-31C134-8 116 4 85 4 32 4 16-35 15-94c0-66 23-100 70-100zm9 24c-40 0-46 34-46 75 0 40 6 74 45 74 42 0 51-32 51-76 0-42-9-74-50-73" id="H"/><path fill="#3a414a" d="M63-220v92h138v28H63V0H30v-248h175v28H63" id="I"/><g id="f"><use transform="matrix(0.06172839506172839,0,0,0.06172839506172839,0,0)" xlink:href="#F"/><use transform="matrix(0.06172839506172839,0,0,0.06172839506172839,15.987654320987653,0)" xlink:href="#D"/><use transform="matrix(0.06172839506172839,0,0,0.06172839506172839,20.864197530864196,0)" xlink:href="#t"/><use transform="matrix(0.06172839506172839,0,0,0.06172839506172839,33.20987654320987,0)" xlink:href="#G"/><use transform="matrix(0.06172839506172839,0,0,0.06172839506172839,45.55555555555555,0)" xlink:href="#H"/><use transform="matrix(0.06172839506172839,0,0,0.06172839506172839,57.90123456790123,0)" xlink:href="#I"/><use transform="matrix(0.06172839506172839,0,0,0.06172839506172839,71.41975308641975,0)" xlink:href="#B"/><use transform="matrix(0.06172839506172839,0,0,0.06172839506172839,78.76543209876543,0)" xlink:href="#t"/><use transform="matrix(0.06172839506172839,0,0,0.06172839506172839,91.11111111111111,0)" xlink:href="#u"/><use transform="matrix(0.06172839506172839,0,0,0.06172839506172839,103.4567901234568,0)" xlink:href="#A"/></g><g id="g"><use transform="matrix(0.06172839506172839,0,0,0.06172839506172839,0,0)" xlink:href="#v"/><use transform="matrix(0.06172839506172839,0,0,0.06172839506172839,6.172839506172839,0)" xlink:href="#w"/><use transform="matrix(0.06172839506172839,0,0,0.06172839506172839,24.629629629629626,0)" xlink:href="#x"/><use transform="matrix(0.06172839506172839,0,0,0.06172839506172839,36.9753086419753,0)" xlink:href="#r"/><use transform="matrix(0.06172839506172839,0,0,0.06172839506172839,49.32098765432098,0)" xlink:href="#q"/></g><path fill="#3a414a" d="M127-220V0H93v-220H8v-28h204v28h-85" id="J"/><path fill="#3a414a" d="M143 0L79-87 56-68V0H24v-261h32v163l83-92h37l-77 82L181 0h-38" id="K"/><g id="h"><use transform="matrix(0.06172839506172839,0,0,0.06172839506172839,0,0)" xlink:href="#J"/><use transform="matrix(0.06172839506172839,0,0,0.06172839506172839,11.049382716049381,0)" xlink:href="#t"/><use transform="matrix(0.06172839506172839,0,0,0.06172839506172839,23.39506172839506,0)" xlink:href="#K"/><use transform="matrix(0.06172839506172839,0,0,0.06172839506172839,34.50617283950617,0)" xlink:href="#q"/><use transform="matrix(0.06172839506172839,0,0,0.06172839506172839,46.85185185185185,0)" xlink:href="#u"/></g><path fill="#3a414a" d="M87 75C49 33 22-17 22-94c0-76 28-126 65-167h31c-38 41-64 92-64 168S80 34 118 75H87" id="L"/><g id="i"><use transform="matrix(0.06172839506172839,0,0,0.06172839506172839,0,0)" xlink:href="#L"/><use transform="matrix(0.06172839506172839,0,0,0.06172839506172839,7.345679012345679,0)" xlink:href="#I"/><use transform="matrix(0.06172839506172839,0,0,0.06172839506172839,19.629629629629626,0)" xlink:href="#y"/><use transform="matrix(0.06172839506172839,0,0,0.06172839506172839,32.77777777777777,0)" xlink:href="#J"/></g><path fill="#3a414a" d="M96-169c-40 0-48 33-48 73s9 75 48 75c24 0 41-14 43-38l32 2c-6 37-31 61-74 61-59 0-76-41-82-99-10-93 101-131 147-64 4 7 5 14 7 22l-32 3c-4-21-16-35-41-35" id="M"/><path fill="#3a414a" d="M33-261c38 41 65 92 65 168S71 34 33 75H2C39 34 66-17 66-93S39-220 2-261h31" id="N"/><g id="j"><use transform="matrix(0.06172839506172839,0,0,0.06172839506172839,0,0)" xlink:href="#y"/><use transform="matrix(0.06172839506172839,0,0,0.06172839506172839,14.814814814814813,0)" xlink:href="#M"/><use transform="matrix(0.06172839506172839,0,0,0.06172839506172839,25.925925925925924,0)" xlink:href="#M"/><use transform="matrix(0.06172839506172839,0,0,0.06172839506172839,37.03703703703704,0)" xlink:href="#t"/><use transform="matrix(0.06172839506172839,0,0,0.06172839506172839,49.382716049382715,0)" xlink:href="#G"/><use transform="matrix(0.06172839506172839,0,0,0.06172839506172839,61.72839506172839,0)" xlink:href="#u"/><use transform="matrix(0.06172839506172839,0,0,0.06172839506172839,74.07407407407408,0)" xlink:href="#A"/><use transform="matrix(0.06172839506172839,0,0,0.06172839506172839,80.24691358024691,0)" xlink:href="#N"/></g><path fill="#3a414a" d="M135-143c-3-34-86-38-87 0 15 53 115 12 119 90S17 21 10-45l28-5c4 36 97 45 98 0-10-56-113-15-118-90-4-57 82-63 122-42 12 7 21 19 24 35" id="O"/><g id="k"><use transform="matrix(0.06172839506172839,0,0,0.06172839506172839,0,0)" xlink:href="#z"/><use transform="matrix(0.06172839506172839,0,0,0.06172839506172839,14.814814814814813,0)" xlink:href="#B"/><use transform="matrix(0.06172839506172839,0,0,0.06172839506172839,22.160493827160494,0)" xlink:href="#t"/><use transform="matrix(0.06172839506172839,0,0,0.06172839506172839,34.50617283950617,0)" xlink:href="#M"/><use transform="matrix(0.06172839506172839,0,0,0.06172839506172839,45.61728395061728,0)" xlink:href="#q"/><use transform="matrix(0.06172839506172839,0,0,0.06172839506172839,57.962962962962955,0)" xlink:href="#O"/><use transform="matrix(0.06172839506172839,0,0,0.06172839506172839,69.07407407407406,0)" xlink:href="#O"/><use transform="matrix(0.06172839506172839,0,0,0.06172839506172839,80.18518518518518,0)" xlink:href="#q"/><use transform="matrix(0.06172839506172839,0,0,0.06172839506172839,92.53086419753086,0)" xlink:href="#H"/></g><g id="l"><use transform="matrix(0.06172839506172839,0,0,0.06172839506172839,0,0)" xlink:href="#v"/><use transform="matrix(0.06172839506172839,0,0,0.06172839506172839,6.172839506172839,0)" xlink:href="#w"/><use transform="matrix(0.06172839506172839,0,0,0.06172839506172839,24.629629629629626,0)" xlink:href="#x"/><use transform="matrix(0.06172839506172839,0,0,0.06172839506172839,36.9753086419753,0)" xlink:href="#r"/><use transform="matrix(0.06172839506172839,0,0,0.06172839506172839,49.32098765432098,0)" xlink:href="#q"/></g><path fill="#3a414a" d="M115-194c55 1 70 41 70 98S169 2 115 4C84 4 66-9 55-30l1 105H24l-1-265h31l2 30c10-21 28-34 59-34zm-8 174c40 0 45-34 45-75s-6-73-45-74c-42 0-51 32-51 76 0 43 10 73 51 73" id="P"/><g id="m"><use transform="matrix(0.06172839506172839,0,0,0.06172839506172839,0,0)" xlink:href="#y"/><use transform="matrix(0.06172839506172839,0,0,0.06172839506172839,14.814814814814813,0)" xlink:href="#P"/><use transform="matrix(0.06172839506172839,0,0,0.06172839506172839,27.160493827160494,0)" xlink:href="#P"/><use transform="matrix(0.06172839506172839,0,0,0.06172839506172839,39.50617283950617,0)" xlink:href="#D"/><use transform="matrix(0.06172839506172839,0,0,0.06172839506172839,44.382716049382715,0)" xlink:href="#s"/><use transform="matrix(0.06172839506172839,0,0,0.06172839506172839,49.25925925925926,0)" xlink:href="#M"/><use transform="matrix(0.06172839506172839,0,0,0.06172839506172839,60.37037037037037,0)" xlink:href="#x"/><use transform="matrix(0.06172839506172839,0,0,0.06172839506172839,72.71604938271605,0)" xlink:href="#A"/><use transform="matrix(0.06172839506172839,0,0,0.06172839506172839,78.88888888888889,0)" xlink:href="#s"/><use transform="matrix(0.06172839506172839,0,0,0.06172839506172839,83.76543209876543,0)" xlink:href="#t"/><use transform="matrix(0.06172839506172839,0,0,0.06172839506172839,96.11111111111111,0)" xlink:href="#u"/></g><path fill="#3a414a" d="M30 0v-248h33v221h125V0H30" id="Q"/><g id="n"><use transform="matrix(0.06172839506172839,0,0,0.06172839506172839,0,0)" xlink:href="#Q"/><use transform="matrix(0.06172839506172839,0,0,0.06172839506172839,12.345679012345679,0)" xlink:href="#t"/><use transform="matrix(0.06172839506172839,0,0,0.06172839506172839,24.691358024691358,0)" xlink:href="#x"/><use transform="matrix(0.06172839506172839,0,0,0.06172839506172839,37.03703703703704,0)" xlink:href="#H"/></g><path fill="#3a414a" d="M160-131c35 5 61 23 61 61C221 17 115-2 30 0v-248c76 3 177-17 177 60 0 33-19 50-47 57zm-97-11c50-1 110 9 110-42 0-47-63-36-110-37v79zm0 115c55-2 124 14 124-45 0-56-70-42-124-44v89" id="R"/><g id="o"><use transform="matrix(0.06172839506172839,0,0,0.06172839506172839,0,0)" xlink:href="#R"/><use transform="matrix(0.06172839506172839,0,0,0.06172839506172839,14.814814814814813,0)" xlink:href="#x"/><use transform="matrix(0.06172839506172839,0,0,0.06172839506172839,27.160493827160494,0)" xlink:href="#D"/><use transform="matrix(0.06172839506172839,0,0,0.06172839506172839,32.03703703703704,0)" xlink:href="#x"/><use transform="matrix(0.06172839506172839,0,0,0.06172839506172839,44.382716049382715,0)" xlink:href="#u"/><use transform="matrix(0.06172839506172839,0,0,0.06172839506172839,56.72839506172839,0)" xlink:href="#M"/><use transform="matrix(0.06172839506172839,0,0,0.06172839506172839,67.8395061728395,0)" xlink:href="#q"/><use transform="matrix(0.06172839506172839,0,0,0.06172839506172839,80.18518518518519,0)" xlink:href="#B"/></g></defs></g></svg>