<?xml version="1.0" encoding="UTF-8"?>
<!DOCTYPE svg PUBLIC "-//W3C//DTD SVG 1.1//EN" "https://www.w3.org/Graphics/SVG/1.1/DTD/svg11.dtd">
<svg version="1.1" xmlns="https://www.w3.org/2000/svg" xmlns:xlink="https://www.w3.org/1999/xlink" x="0" y="0" width="600" height="405.882" viewBox="0, 0, 600, 405.882">
  <defs>
    <clipPath id="Clip_1">
      <path d="M100.471,88.118 L174.823,88.118 L174.823,155.412 L100.471,155.412 z M169.412,95.294 L105.882,95.294 L105.882,148.235 L169.412,148.235 L169.412,95.294 z"/>
    </clipPath>
    <filter id="Shadow_2">
      <feGaussianBlur in="SourceAlpha" stdDeviation="2.206"/>
      <feOffset dx="0" dy="1.765" result="offsetblur"/>
      <feFlood flood-color="#000000"/>
      <feComposite in2="offsetblur" operator="in"/>
    </filter>
    <clipPath id="Clip_3">
      <path d="M439.294,278.706 L513.647,278.706 L513.647,346 L439.294,346 z M508.235,285.882 L444.706,285.882 L444.706,338.823 L508.235,338.823 L508.235,285.882 z"/>
    </clipPath>
    <filter id="Shadow_4">
      <feGaussianBlur in="SourceAlpha" stdDeviation="2.206"/>
      <feOffset dx="0" dy="1.765" result="offsetblur"/>
      <feFlood flood-color="#000000"/>
      <feComposite in2="offsetblur" operator="in"/>
    </filter>
    <clipPath id="Clip_5">
      <path d="M439.294,88.118 L513.647,88.118 L513.647,155.412 L439.294,155.412 z M508.235,95.294 L444.706,95.294 L444.706,148.235 L508.235,148.235 L508.235,95.294 z"/>
    </clipPath>
    <filter id="Shadow_6">
      <feGaussianBlur in="SourceAlpha" stdDeviation="2.206"/>
      <feOffset dx="0" dy="1.765" result="offsetblur"/>
      <feFlood flood-color="#000000"/>
      <feComposite in2="offsetblur" operator="in"/>
    </filter>
    <clipPath id="Clip_7">
      <path d="M258.029,86.853 L357.088,86.853 L357.088,157.676 L258.029,157.676 z M348.147,97.559 L348.147,146.971 L266.971,146.971 L266.971,97.559 L348.147,97.559 z M351.677,94.029 L263.441,94.029 L263.441,150.5 L351.677,150.5 L351.677,94.029 z"/>
    </clipPath>
    <filter id="Shadow_8">
      <feGaussianBlur in="SourceAlpha" stdDeviation="2.206"/>
      <feOffset dx="0" dy="1.765" result="offsetblur"/>
      <feFlood flood-color="#000000"/>
      <feComposite in2="offsetblur" operator="in"/>
    </filter>
    <clipPath id="Clip_9">
      <path d="M111.118,3.471 L504,3.471 L504,50.471 L111.118,50.471 z M490.037,10.647 L125.081,10.647 C120.328,10.647 116.529,15.607 116.529,21.676 L116.529,32.265 C116.529,38.334 120.328,43.294 125.081,43.294 L490.037,43.294 C494.789,43.294 498.588,38.334 498.588,32.265 L498.588,21.676 C498.588,15.607 494.789,10.647 490.037,10.647 z"/>
    </clipPath>
    <filter id="Shadow_10">
      <feGaussianBlur in="SourceAlpha" stdDeviation="2.206"/>
      <feOffset dx="0" dy="1.765" result="offsetblur"/>
      <feFlood flood-color="#000000"/>
      <feComposite in2="offsetblur" operator="in"/>
    </filter>
  </defs>
  <g id="Layer_1_Copy">
    <path d="M20.481,74.618 L584.048,74.618 C589.236,74.618 593.441,79.358 593.441,85.206 L593.441,349.912 C593.441,355.759 589.236,360.5 584.048,360.5 L20.481,360.5 C15.294,360.5 11.088,355.759 11.088,349.912 L11.088,85.206 C11.088,79.358 15.294,74.618 20.481,74.618 z" fill-opacity="0" stroke="#1AC54F" stroke-width="3.529"/>
    <g>
      <path d="M169.412,95.294 L169.412,148.235 L105.882,148.235 L105.882,95.294 L169.412,95.294 z" clip-path="url(#Clip_1)" filter="url(#Shadow_2)" fill="rgba(0,0,0,0.75)"/>
      <path d="M105.882,95.294 L169.412,95.294 L169.412,148.235 L105.882,148.235 L105.882,95.294 z" fill="#322E2E"/>
    </g>
    <g>
      <path d="M508.235,285.882 L508.235,338.823 L444.706,338.823 L444.706,285.882 L508.235,285.882 z" clip-path="url(#Clip_3)" filter="url(#Shadow_4)" fill="rgba(0,0,0,0.75)"/>
      <path d="M444.706,285.882 L508.235,285.882 L508.235,338.824 L444.706,338.824 L444.706,285.882 z" fill="#322E2E"/>
    </g>
    <g>
      <path d="M508.235,95.294 L508.235,148.235 L444.706,148.235 L444.706,95.294 L508.235,95.294 z" clip-path="url(#Clip_5)" filter="url(#Shadow_6)" fill="rgba(0,0,0,0.75)"/>
      <path d="M444.706,95.294 L508.235,95.294 L508.235,148.235 L444.706,148.235 L444.706,95.294 z" fill="#322E2E"/>
    </g>
    <g>
      <path d="M351.677,94.029 L351.677,150.5 L263.441,150.5 L263.441,94.029 L351.677,94.029 z M348.147,97.559 L266.971,97.559 L266.971,146.971 L348.147,146.971 L348.147,97.559 z" clip-path="url(#Clip_7)" filter="url(#Shadow_8)" fill="rgba(0,0,0,0.75)"/>
      <path d="M265.206,95.794 L349.912,95.794 L349.912,148.735 L265.206,148.735 L265.206,95.794 z" fill-opacity="0" stroke="#000000" stroke-width="3.529"/>
    </g>
    <g>
      <path d="M138.147,42.853 L138.147,81.241" fill-opacity="0" stroke="#322E2E" stroke-width="3.529"/>
      <path d="M133.629,81.241 L138.147,93.288 L142.665,81.241 z" fill="#322E2E" fill-opacity="1" stroke="#322E2E" stroke-width="3.529" stroke-opacity="1"/>
    </g>
    <g>
      <path d="M476.971,95.794 L476.971,57.406" fill-opacity="0" stroke="#322E2E" stroke-width="3.529"/>
      <path d="M481.488,57.406 L476.971,45.359 L472.453,57.406 z" fill="#322E2E" fill-opacity="1" stroke="#322E2E" stroke-width="3.529" stroke-opacity="1"/>
    </g>
    <g>
      <path d="M476.971,201.676 L476.971,163.288" fill-opacity="0" stroke="#322E2E" stroke-width="3.529"/>
      <path d="M481.488,163.288 L476.971,151.241 L472.453,163.288 z" fill="#322E2E" fill-opacity="1" stroke="#322E2E" stroke-width="3.529" stroke-opacity="1"/>
    </g>
    <g>
      <path d="M476.971,286.382 L476.971,258.582" fill-opacity="0" stroke="#322E2E" stroke-width="3.529"/>
      <path d="M481.488,258.582 L476.971,246.535 L472.453,258.582 z" fill="#322E2E" fill-opacity="1" stroke="#322E2E" stroke-width="3.529" stroke-opacity="1"/>
    </g>
    <g>
      <path d="M445.206,127.118 L364.465,127.491" fill-opacity="0" stroke="#322E2E" stroke-width="3.529"/>
      <path d="M364.444,122.974 L352.418,127.547 L364.485,132.009 z" fill="#322E2E" fill-opacity="1" stroke="#322E2E" stroke-width="3.529" stroke-opacity="1"/>
    </g>
    <g>
      <path d="M169.912,127.559 L250.653,127.559" fill-opacity="0" stroke="#322E2E" stroke-width="3.529"/>
      <path d="M250.653,132.076 L262.7,127.559 L250.653,123.041 z" fill="#322E2E" fill-opacity="1" stroke="#322E2E" stroke-width="3.529" stroke-opacity="1"/>
    </g>
    <g>
      <path d="M498.147,222.853 L515.359,222.853" fill-opacity="0" stroke="#322E2E" stroke-width="3.529"/>
      <path d="M515.359,227.371 L527.406,222.853 L515.359,218.335 z" fill="#322E2E" fill-opacity="1" stroke="#322E2E" stroke-width="3.529" stroke-opacity="1"/>
    </g>
    <g>
      <path d="M307.559,222.853 L441.242,224.011" fill-opacity="0" stroke="#322E2E" stroke-width="3.529" stroke-dasharray="10.588,7.059"/>
      <path d="M441.203,228.529 L453.288,224.116 L441.281,219.494 z" fill="#322E2E" fill-opacity="1" stroke="#322E2E" stroke-width="3.529" stroke-opacity="1"/>
    </g>
    <g>
      <path d="M476.971,392.265 L476.971,353.876" fill-opacity="0" stroke="#322E2E" stroke-width="3.529"/>
      <path d="M481.488,353.876 L476.971,341.829 L472.453,353.876 z" fill="#322E2E" fill-opacity="1" stroke="#322E2E" stroke-width="3.529" stroke-opacity="1"/>
    </g>
    <g>
      <path d="M307.559,222.853 L307.559,163.288" fill-opacity="0" stroke="#322E2E" stroke-width="3.529" stroke-dasharray="10.588,7.059"/>
      <path d="M312.077,163.288 L307.559,151.241 L303.041,163.288 z" fill="#322E2E" fill-opacity="1" stroke="#322E2E" stroke-width="3.529" stroke-opacity="1"/>
    </g>
    <text transform="matrix(1, 0, 0, 1, 184.412, 68.824)">
      <tspan x="-37.504" y="-3.441" font-family="HelveticaNeue-Bold" font-size="12.353" fill="#030302">Notifications</tspan>
    </text>
    <text transform="matrix(1, 0, 0, 1, 434.118, 68.824)">
      <tspan x="-27.794" y="-3.441" font-family="HelveticaNeue-Bold" font-size="12.353" fill="#030302">Requests</tspan>
    </text>
    <text transform="matrix(1, 0, 0, 1, 58.235, 118.235)">
      <tspan x="-10.407" y="-10.941" font-family="HelveticaNeue-Bold" font-size="12.353" fill="#030302">Get </tspan>
      <tspan x="-29.758" y="4.059" font-family="HelveticaNeue-Bold" font-size="12.353" fill="#030302">SUCCESS </tspan>
      <tspan x="-34.187" y="19.059" font-family="HelveticaNeue-Bold" font-size="12.353" fill="#030302">Notification</tspan>
    </text>
    <text transform="matrix(1, 0, 0, 1, 140.069, 181.765)">
      <tspan x="-34.187" y="-10.941" font-family="HelveticaNeue-Bold" font-size="12.353" fill="#030302">Notification</tspan>
      <tspan x="-23.1" y="4.059" font-family="HelveticaNeue-Bold" font-size="12.353" fill="#030302">Handler </tspan>
    </text>
    <text transform="matrix(1, 0, 0, 1, 309.481, 128.824)">
      <tspan x="-24.477" y="-10.941" font-family="HelveticaNeue-Bold" font-size="12.353" fill="#030302">Running </tspan>
      <tspan x="-30.549" y="4.059" font-family="HelveticaNeue-Bold" font-size="12.353" fill="#030302">Job Count</tspan>
    </text>
    <text transform="matrix(1, 0, 0, 1, 381.177, 213.529)">
      <tspan x="-37.176" y="-10.941" font-family="HelveticaNeue-Bold" font-size="12.353" fill="#030302">Running Job </tspan>
      <tspan x="-38.726" y="4.059" font-family="HelveticaNeue-Bold" font-size="12.353" fill="#030302">Count &lt; 100?</tspan>
    </text>
    <text transform="matrix(1, 0, 0, 1, 420.657, 393.529)">
      <tspan x="-32.142" y="-10.941" font-family="HelveticaNeue-Bold" font-size="12.353" fill="#030302">Request to </tspan>
      <tspan x="-36.25" y="4.059" font-family="HelveticaNeue-Bold" font-size="12.353" fill="#030302">ingest Video</tspan>
    </text>
    <text transform="matrix(1, 0, 0, 1, 415.363, 315.882)">
      <tspan x="-24.477" y="-10.941" font-family="HelveticaNeue-Bold" font-size="12.353" fill="#030302">Request</tspan>
      <tspan x="-19.221" y="4.059" font-family="HelveticaNeue-Bold" font-size="12.353" fill="#030302">Queue</tspan>
    </text>
    <text transform="matrix(1, 0, 0, 1, 555.882, 222.353)">
      <tspan x="-18.066" y="1.412" font-family="HelveticaNeue-Bold" font-size="12.353" fill="#030302">Wait...</tspan>
    </text>
    <text transform="matrix(1, 0, 0, 1, 547.716, 130.147)">
      <tspan x="-14.99" y="-33.441" font-family="HelveticaNeue-Bold" font-size="12.353" fill="#030302">Send</tspan>
      <tspan x="-18.295" y="-18.441" font-family="HelveticaNeue-Bold" font-size="12.353" fill="#030302">Ingest</tspan>
      <tspan x="-24.477" y="-3.441" font-family="HelveticaNeue-Bold" font-size="12.353" fill="#030302">Request </tspan>
      <tspan x="-27.109" y="11.559" font-family="HelveticaNeue-Bold" font-size="12.353" fill="#030302">(No More </tspan>
      <tspan x="-36.157" y="26.559" font-family="HelveticaNeue-Bold" font-size="12.353" fill="#030302">than 10/sec)</tspan>
    </text>
    <g>
      <path d="M490.037,10.647 C494.789,10.647 498.588,15.607 498.588,21.676 L498.588,32.265 C498.588,38.334 494.789,43.294 490.037,43.294 L125.081,43.294 C120.328,43.294 116.529,38.334 116.529,32.265 L116.529,21.676 C116.529,15.607 120.328,10.647 125.081,10.647 L490.037,10.647 z" clip-path="url(#Clip_9)" filter="url(#Shadow_10)" fill="rgba(0,0,0,0.75)"/>
      <path d="M125.081,11.088 L490.037,11.088 C494.516,11.088 498.147,15.829 498.147,21.676 L498.147,32.265 C498.147,38.112 494.516,42.853 490.037,42.853 L125.081,42.853 C120.602,42.853 116.971,38.112 116.971,32.265 L116.971,21.676 C116.971,15.829 120.602,11.088 125.081,11.088 z" fill="#EB8907"/>
      <path d="M125.081,11.088 L490.037,11.088 C494.516,11.088 498.147,15.829 498.147,21.676 L498.147,32.265 C498.147,38.112 494.516,42.853 490.037,42.853 L125.081,42.853 C120.602,42.853 116.971,38.112 116.971,32.265 L116.971,21.676 C116.971,15.829 120.602,11.088 125.081,11.088 z" fill-opacity="0" stroke="#000000" stroke-width="0.882"/>
    </g>
    <text transform="matrix(1, 0, 0, 1, 305.82, 37.059)">
      <tspan x="-151.147" y="-5.849" font-family="HelveticaNeue-Bold" font-size="21.176" fill="#030302">Video Cloud Ingestion System</tspan>
    </text>
    <text transform="matrix(1, 0, 0, 1, 402.353, 110.956)">
      <tspan x="-29.845" y="-3.662" font-family="HelveticaNeue-Bold" font-size="12.353" fill="#030302">Increment</tspan>
      <tspan x="-17.85" y="11.338" font-family="HelveticaNeue-Bold" font-size="12.353" fill="#030302">Count</tspan>
    </text>
    <text transform="matrix(1, 0, 0, 1, 455.294, 201.176)">
      <tspan x="-10.068" y="1.412" font-family="HelveticaNeue-Bold" font-size="12.353" fill="#030302">yes</tspan>
    </text>
    <text transform="matrix(1, 0, 0, 1, 497.647, 243.529)">
      <tspan x="-7.436" y="1.412" font-family="HelveticaNeue-Bold" font-size="12.353" fill="#030302">no</tspan>
    </text>
    <text transform="matrix(1, 0, 0, 1, 211.765, 110.956)">
      <tspan x="-32.482" y="-3.662" font-family="HelveticaNeue-Bold" font-size="12.353" fill="#030302">Decrement</tspan>
      <tspan x="-17.85" y="11.338" font-family="HelveticaNeue-Bold" font-size="12.353" fill="#030302">Count</tspan>
    </text>
    <g>
      <path d="M476.971,201.676 L499.432,224.138 L476.971,246.599 L454.51,224.138 L476.971,201.676 z" fill="#020202"/>
      <path d="M476.971,201.676 L499.432,224.138 L476.971,246.599 L454.51,224.138 L476.971,201.676 z" fill-opacity="0" stroke="#000000" stroke-width="0.882"/>
    </g>
    <g>
      <text transform="matrix(1, 0, 0, 1, 128.824, 289.632)">
        <tspan x="-62.084" y="-26.691" font-family="HelveticaNeue" font-size="31.765" fill="#107C32">Dynamic </tspan>
        <tspan x="-43.534" y="11.309" font-family="HelveticaNeue" font-size="31.765" fill="#107C32">Ingest </tspan>
        <tspan x="-80.587" y="49.309" font-family="HelveticaNeue" font-size="31.765" fill="#107C32">Transceiver</tspan>
      </text>
      <path d="M72.235,260.4 L72.235,242.802 L77.317,242.802 Q79.414,242.802 80.843,243.39 Q82.272,243.978 83.178,245.105 Q84.083,246.233 84.48,247.837 Q84.877,249.441 84.877,251.474 Q84.877,253.571 84.448,255.048 Q84.019,256.525 83.352,257.509 Q82.685,258.494 81.844,259.066 Q81.002,259.638 80.144,259.939 Q79.286,260.241 78.524,260.321 Q77.762,260.4 77.254,260.4 z M69.217,240.261 L69.217,262.941 L76.999,262.941 Q79.826,262.941 81.891,262.147 Q83.956,261.353 85.29,259.844 Q86.624,258.335 87.259,256.128 Q87.895,253.92 87.895,251.061 Q87.895,245.598 85.068,242.929 Q82.241,240.261 76.999,240.261 z M97.583,265.133 Q97.106,266.34 96.646,267.166 Q96.185,267.992 95.629,268.516 Q95.074,269.04 94.391,269.278 Q93.708,269.516 92.818,269.516 Q92.342,269.516 91.865,269.453 Q91.389,269.389 90.944,269.231 L90.944,266.753 Q91.294,266.912 91.754,267.023 Q92.215,267.134 92.532,267.134 Q93.358,267.134 93.914,266.737 Q94.47,266.34 94.756,265.609 L95.868,262.846 L89.356,246.519 L92.405,246.519 L97.202,259.955 L97.265,259.955 L101.871,246.519 L104.73,246.519 z M107.017,246.519 L107.017,262.941 L109.717,262.941 L109.717,253.666 Q109.717,252.554 110.019,251.617 Q110.321,250.68 110.924,249.981 Q111.528,249.282 112.433,248.901 Q113.338,248.52 114.577,248.52 Q116.134,248.52 117.023,249.409 Q117.912,250.299 117.912,251.824 L117.912,262.941 L120.612,262.941 L120.612,252.141 Q120.612,250.807 120.342,249.711 Q120.072,248.615 119.405,247.821 Q118.738,247.027 117.658,246.582 Q116.578,246.138 114.958,246.138 Q111.305,246.138 109.622,249.124 L109.558,249.124 L109.558,246.519 z M139.226,262.878 Q138.528,263.291 137.289,263.291 Q136.241,263.291 135.621,262.703 Q135.002,262.115 135.002,260.781 Q133.89,262.115 132.413,262.703 Q130.936,263.291 129.221,263.291 Q128.109,263.291 127.108,263.036 Q126.108,262.782 125.377,262.242 Q124.646,261.702 124.218,260.829 Q123.789,259.955 123.789,258.716 Q123.789,257.319 124.265,256.429 Q124.742,255.54 125.52,254.984 Q126.298,254.428 127.299,254.142 Q128.299,253.856 129.348,253.666 Q130.459,253.444 131.46,253.332 Q132.461,253.221 133.223,253.015 Q133.985,252.808 134.43,252.411 Q134.875,252.014 134.875,251.252 Q134.875,250.362 134.541,249.822 Q134.208,249.282 133.684,248.996 Q133.159,248.711 132.508,248.615 Q131.857,248.52 131.222,248.52 Q129.506,248.52 128.363,249.171 Q127.219,249.822 127.124,251.633 L124.424,251.633 Q124.488,250.108 125.059,249.06 Q125.631,248.012 126.584,247.361 Q127.537,246.709 128.76,246.424 Q129.983,246.138 131.381,246.138 Q132.492,246.138 133.588,246.296 Q134.684,246.455 135.574,246.948 Q136.463,247.44 137.003,248.329 Q137.543,249.219 137.543,250.648 L137.543,259.098 Q137.543,260.051 137.654,260.495 Q137.765,260.94 138.401,260.94 Q138.75,260.94 139.226,260.781 z M134.843,254.46 Q134.335,254.841 133.509,255.016 Q132.683,255.191 131.778,255.302 Q130.872,255.413 129.951,255.556 Q129.03,255.699 128.299,256.016 Q127.569,256.334 127.108,256.922 Q126.648,257.509 126.648,258.526 Q126.648,259.193 126.918,259.654 Q127.188,260.114 127.616,260.4 Q128.045,260.686 128.617,260.813 Q129.189,260.94 129.824,260.94 Q131.158,260.94 132.111,260.575 Q133.064,260.209 133.668,259.654 Q134.271,259.098 134.557,258.446 Q134.843,257.795 134.843,257.224 z M141.736,246.519 L141.736,262.941 L144.436,262.941 L144.436,252.713 Q144.436,252.236 144.674,251.522 Q144.912,250.807 145.436,250.14 Q145.961,249.473 146.802,248.996 Q147.644,248.52 148.819,248.52 Q149.741,248.52 150.328,248.79 Q150.916,249.06 151.265,249.552 Q151.615,250.045 151.758,250.712 Q151.901,251.379 151.901,252.173 L151.901,262.941 L154.601,262.941 L154.601,252.713 Q154.601,250.807 155.744,249.664 Q156.888,248.52 158.889,248.52 Q159.874,248.52 160.493,248.806 Q161.112,249.092 161.462,249.584 Q161.811,250.076 161.938,250.744 Q162.065,251.411 162.065,252.173 L162.065,262.941 L164.765,262.941 L164.765,250.902 Q164.765,249.632 164.368,248.726 Q163.971,247.821 163.256,247.249 Q162.542,246.678 161.541,246.408 Q160.541,246.138 159.302,246.138 Q157.682,246.138 156.332,246.868 Q154.982,247.599 154.156,248.933 Q153.648,247.408 152.409,246.773 Q151.17,246.138 149.645,246.138 Q146.183,246.138 144.341,248.933 L144.277,248.933 L144.277,246.519 z M171.69,243.565 L171.69,240.261 L168.99,240.261 L168.99,243.565 z M168.99,246.519 L168.99,262.941 L171.69,262.941 L171.69,246.519 z M187.032,251.792 L189.828,251.792 Q189.669,250.331 189.065,249.266 Q188.462,248.202 187.525,247.504 Q186.588,246.805 185.365,246.471 Q184.142,246.138 182.744,246.138 Q180.806,246.138 179.345,246.821 Q177.884,247.504 176.915,248.695 Q175.946,249.886 175.47,251.49 Q174.994,253.094 174.994,254.936 Q174.994,256.779 175.486,258.319 Q175.978,259.86 176.947,260.972 Q177.916,262.084 179.361,262.687 Q180.806,263.291 182.681,263.291 Q185.825,263.291 187.652,261.639 Q189.478,259.987 189.923,256.938 L187.159,256.938 Q186.905,258.844 185.778,259.892 Q184.65,260.94 182.649,260.94 Q181.378,260.94 180.457,260.432 Q179.536,259.924 178.964,259.082 Q178.392,258.24 178.122,257.16 Q177.852,256.08 177.852,254.936 Q177.852,253.698 178.106,252.538 Q178.361,251.379 178.948,250.489 Q179.536,249.6 180.521,249.06 Q181.505,248.52 182.966,248.52 Q184.682,248.52 185.698,249.378 Q186.715,250.235 187.032,251.792 z M87.895,278.261 L87.895,300.941 L90.912,300.941 L90.912,278.261 z M95.55,284.519 L95.55,300.941 L98.25,300.941 L98.25,291.666 Q98.25,290.554 98.552,289.617 Q98.854,288.68 99.457,287.981 Q100.061,287.282 100.966,286.901 Q101.871,286.52 103.11,286.52 Q104.666,286.52 105.556,287.409 Q106.445,288.299 106.445,289.824 L106.445,300.941 L109.145,300.941 L109.145,290.141 Q109.145,288.807 108.875,287.711 Q108.605,286.615 107.938,285.821 Q107.271,285.027 106.191,284.582 Q105.111,284.138 103.491,284.138 Q99.838,284.138 98.155,287.124 L98.091,287.124 L98.091,284.519 z M127.378,299.544 L127.378,284.519 L124.837,284.519 L124.837,286.869 L124.805,286.869 Q124.075,285.504 122.772,284.821 Q121.47,284.138 119.914,284.138 Q117.785,284.138 116.324,284.948 Q114.863,285.758 113.974,287.012 Q113.084,288.267 112.703,289.808 Q112.322,291.348 112.322,292.809 Q112.322,294.493 112.782,296.002 Q113.243,297.511 114.164,298.638 Q115.085,299.766 116.451,300.433 Q117.817,301.1 119.659,301.1 Q121.248,301.1 122.661,300.385 Q124.075,299.671 124.774,298.146 L124.837,298.146 L124.837,299.226 Q124.837,300.592 124.567,301.735 Q124.297,302.879 123.694,303.689 Q123.09,304.499 122.169,304.959 Q121.248,305.42 119.914,305.42 Q119.246,305.42 118.516,305.277 Q117.785,305.134 117.166,304.816 Q116.546,304.499 116.118,303.991 Q115.689,303.482 115.657,302.752 L112.957,302.752 Q113.021,304.086 113.656,305.007 Q114.291,305.928 115.26,306.5 Q116.229,307.072 117.42,307.326 Q118.611,307.58 119.755,307.58 Q123.694,307.58 125.536,305.579 Q127.378,303.578 127.378,299.544 z M119.818,298.749 Q118.484,298.749 117.595,298.194 Q116.705,297.638 116.165,296.732 Q115.625,295.827 115.403,294.715 Q115.181,293.604 115.181,292.492 Q115.181,291.316 115.451,290.236 Q115.721,289.156 116.308,288.331 Q116.896,287.505 117.817,287.012 Q118.738,286.52 120.041,286.52 Q121.311,286.52 122.201,287.028 Q123.09,287.536 123.646,288.378 Q124.202,289.22 124.456,290.268 Q124.71,291.316 124.71,292.396 Q124.71,293.54 124.44,294.684 Q124.17,295.827 123.598,296.732 Q123.026,297.638 122.089,298.194 Q121.152,298.749 119.818,298.749 z M142.848,291.158 L133.414,291.158 Q133.477,290.205 133.826,289.363 Q134.176,288.521 134.779,287.886 Q135.383,287.251 136.225,286.885 Q137.066,286.52 138.115,286.52 Q139.131,286.52 139.973,286.885 Q140.815,287.251 141.434,287.87 Q142.054,288.489 142.419,289.347 Q142.784,290.205 142.848,291.158 z M145.452,295.732 L142.784,295.732 Q142.435,297.352 141.339,298.146 Q140.243,298.94 138.528,298.94 Q137.194,298.94 136.209,298.495 Q135.224,298.051 134.589,297.304 Q133.954,296.558 133.668,295.589 Q133.382,294.62 133.414,293.54 L145.706,293.54 Q145.77,292.047 145.436,290.395 Q145.103,288.744 144.229,287.346 Q143.356,285.948 141.911,285.043 Q140.465,284.138 138.274,284.138 Q136.59,284.138 135.176,284.773 Q133.763,285.408 132.731,286.552 Q131.698,287.695 131.126,289.252 Q130.555,290.808 130.555,292.682 Q130.618,294.556 131.111,296.145 Q131.603,297.733 132.588,298.876 Q133.572,300.02 135.018,300.655 Q136.463,301.291 138.432,301.291 Q141.228,301.291 143.07,299.893 Q144.912,298.495 145.452,295.732 z M150.154,295.764 L147.454,295.764 Q147.517,297.288 148.089,298.352 Q148.661,299.416 149.614,300.068 Q150.566,300.719 151.805,301.005 Q153.044,301.291 154.41,301.291 Q155.649,301.291 156.904,301.052 Q158.158,300.814 159.159,300.211 Q160.159,299.607 160.779,298.622 Q161.398,297.638 161.398,296.145 Q161.398,294.969 160.938,294.175 Q160.477,293.381 159.731,292.857 Q158.984,292.333 158.015,292.015 Q157.046,291.698 156.03,291.475 Q155.077,291.253 154.124,291.046 Q153.171,290.84 152.409,290.538 Q151.646,290.236 151.154,289.776 Q150.662,289.315 150.662,288.616 Q150.662,287.981 150.979,287.584 Q151.297,287.187 151.805,286.949 Q152.314,286.711 152.933,286.615 Q153.552,286.52 154.156,286.52 Q154.823,286.52 155.474,286.663 Q156.125,286.806 156.665,287.124 Q157.205,287.441 157.555,287.965 Q157.904,288.489 157.968,289.284 L160.668,289.284 Q160.572,287.791 160.032,286.79 Q159.492,285.789 158.587,285.202 Q157.682,284.614 156.506,284.376 Q155.331,284.138 153.934,284.138 Q152.854,284.138 151.758,284.408 Q150.662,284.678 149.788,285.234 Q148.915,285.789 148.359,286.679 Q147.803,287.568 147.803,288.807 Q147.803,290.395 148.597,291.285 Q149.391,292.174 150.582,292.666 Q151.774,293.159 153.171,293.429 Q154.569,293.699 155.76,294.032 Q156.951,294.366 157.745,294.906 Q158.539,295.446 158.539,296.494 Q158.539,297.256 158.158,297.749 Q157.777,298.241 157.189,298.495 Q156.602,298.749 155.903,298.845 Q155.204,298.94 154.569,298.94 Q153.743,298.94 152.965,298.781 Q152.186,298.622 151.567,298.257 Q150.948,297.892 150.566,297.272 Q150.185,296.653 150.154,295.764 z M168.132,284.519 L168.132,279.595 L165.432,279.595 L165.432,284.519 L162.637,284.519 L162.637,286.901 L165.432,286.901 L165.432,297.352 Q165.432,298.495 165.655,299.194 Q165.877,299.893 166.338,300.274 Q166.798,300.655 167.545,300.798 Q168.291,300.941 169.339,300.941 L171.404,300.941 L171.404,298.559 L170.165,298.559 Q169.53,298.559 169.133,298.511 Q168.736,298.464 168.514,298.305 Q168.291,298.146 168.212,297.86 Q168.132,297.574 168.132,297.098 L168.132,286.901 L171.404,286.901 L171.404,284.519 z M55.86,318.802 L55.86,338.941 L58.878,338.941 L58.878,318.802 L66.438,318.802 L66.438,316.261 L48.3,316.261 L48.3,318.802 z M65.485,322.519 L65.485,338.941 L68.185,338.941 L68.185,331.635 Q68.185,330.047 68.502,328.824 Q68.82,327.601 69.519,326.744 Q70.218,325.886 71.361,325.441 Q72.505,324.996 74.125,324.996 L74.125,322.138 Q71.933,322.074 70.504,323.027 Q69.074,323.98 68.089,325.981 L68.026,325.981 L68.026,322.519 z M90.706,338.878 Q90.007,339.291 88.768,339.291 Q87.72,339.291 87.101,338.703 Q86.481,338.115 86.481,336.781 Q85.369,338.115 83.892,338.703 Q82.415,339.291 80.7,339.291 Q79.588,339.291 78.588,339.036 Q77.587,338.782 76.856,338.242 Q76.126,337.702 75.697,336.829 Q75.268,335.955 75.268,334.716 Q75.268,333.319 75.745,332.429 Q76.221,331.54 76.999,330.984 Q77.778,330.428 78.778,330.142 Q79.779,329.856 80.827,329.666 Q81.939,329.444 82.939,329.332 Q83.94,329.221 84.702,329.015 Q85.465,328.808 85.909,328.411 Q86.354,328.014 86.354,327.252 Q86.354,326.362 86.021,325.822 Q85.687,325.282 85.163,324.996 Q84.639,324.711 83.988,324.615 Q83.336,324.52 82.701,324.52 Q80.986,324.52 79.842,325.171 Q78.699,325.822 78.604,327.633 L75.904,327.633 Q75.967,326.108 76.539,325.06 Q77.111,324.012 78.064,323.361 Q79.016,322.709 80.239,322.424 Q81.462,322.138 82.86,322.138 Q83.972,322.138 85.068,322.296 Q86.164,322.455 87.053,322.948 Q87.942,323.44 88.482,324.329 Q89.022,325.219 89.022,326.648 L89.022,335.098 Q89.022,336.051 89.134,336.495 Q89.245,336.94 89.88,336.94 Q90.229,336.94 90.706,336.781 z M86.322,330.46 Q85.814,330.841 84.988,331.016 Q84.162,331.191 83.257,331.302 Q82.352,331.413 81.431,331.556 Q80.509,331.699 79.779,332.016 Q79.048,332.334 78.588,332.922 Q78.127,333.509 78.127,334.526 Q78.127,335.193 78.397,335.654 Q78.667,336.114 79.096,336.4 Q79.525,336.686 80.096,336.813 Q80.668,336.94 81.304,336.94 Q82.638,336.94 83.591,336.575 Q84.544,336.209 85.147,335.654 Q85.751,335.098 86.036,334.446 Q86.322,333.795 86.322,333.224 z M93.215,322.519 L93.215,338.941 L95.915,338.941 L95.915,329.666 Q95.915,328.554 96.217,327.617 Q96.519,326.68 97.122,325.981 Q97.726,325.282 98.631,324.901 Q99.536,324.52 100.775,324.52 Q102.332,324.52 103.221,325.409 Q104.111,326.299 104.111,327.824 L104.111,338.941 L106.811,338.941 L106.811,328.141 Q106.811,326.807 106.541,325.711 Q106.271,324.615 105.604,323.821 Q104.936,323.027 103.856,322.582 Q102.776,322.138 101.156,322.138 Q97.504,322.138 95.82,325.124 L95.756,325.124 L95.756,322.519 z M112.528,333.764 L109.828,333.764 Q109.892,335.288 110.464,336.352 Q111.035,337.416 111.988,338.068 Q112.941,338.719 114.18,339.005 Q115.419,339.291 116.785,339.291 Q118.024,339.291 119.278,339.052 Q120.533,338.814 121.534,338.211 Q122.534,337.607 123.154,336.622 Q123.773,335.638 123.773,334.145 Q123.773,332.969 123.312,332.175 Q122.852,331.381 122.105,330.857 Q121.359,330.333 120.39,330.015 Q119.421,329.698 118.405,329.475 Q117.452,329.253 116.499,329.046 Q115.546,328.84 114.784,328.538 Q114.021,328.236 113.529,327.776 Q113.036,327.315 113.036,326.616 Q113.036,325.981 113.354,325.584 Q113.672,325.187 114.18,324.949 Q114.688,324.711 115.308,324.615 Q115.927,324.52 116.531,324.52 Q117.198,324.52 117.849,324.663 Q118.5,324.806 119.04,325.124 Q119.58,325.441 119.929,325.965 Q120.279,326.489 120.342,327.284 L123.042,327.284 Q122.947,325.791 122.407,324.79 Q121.867,323.789 120.962,323.202 Q120.056,322.614 118.881,322.376 Q117.706,322.138 116.308,322.138 Q115.228,322.138 114.132,322.408 Q113.036,322.678 112.163,323.234 Q111.289,323.789 110.734,324.679 Q110.178,325.568 110.178,326.807 Q110.178,328.395 110.972,329.285 Q111.766,330.174 112.957,330.666 Q114.148,331.159 115.546,331.429 Q116.944,331.699 118.135,332.032 Q119.326,332.366 120.12,332.906 Q120.914,333.446 120.914,334.494 Q120.914,335.256 120.533,335.749 Q120.152,336.241 119.564,336.495 Q118.976,336.749 118.278,336.845 Q117.579,336.94 116.944,336.94 Q116.118,336.94 115.339,336.781 Q114.561,336.622 113.942,336.257 Q113.322,335.892 112.941,335.272 Q112.56,334.653 112.528,333.764 z M137.908,327.792 L140.704,327.792 Q140.545,326.331 139.941,325.266 Q139.338,324.202 138.401,323.504 Q137.464,322.805 136.241,322.471 Q135.018,322.138 133.62,322.138 Q131.682,322.138 130.221,322.821 Q128.76,323.504 127.791,324.695 Q126.822,325.886 126.346,327.49 Q125.869,329.094 125.869,330.936 Q125.869,332.779 126.362,334.319 Q126.854,335.86 127.823,336.972 Q128.792,338.084 130.237,338.687 Q131.682,339.291 133.556,339.291 Q136.701,339.291 138.528,337.639 Q140.354,335.987 140.799,332.938 L138.035,332.938 Q137.781,334.844 136.654,335.892 Q135.526,336.94 133.525,336.94 Q132.254,336.94 131.333,336.432 Q130.412,335.924 129.84,335.082 Q129.268,334.24 128.998,333.16 Q128.728,332.08 128.728,330.936 Q128.728,329.698 128.982,328.538 Q129.236,327.379 129.824,326.489 Q130.412,325.6 131.396,325.06 Q132.381,324.52 133.842,324.52 Q135.558,324.52 136.574,325.378 Q137.591,326.235 137.908,327.792 z M155.22,329.158 L145.786,329.158 Q145.849,328.205 146.199,327.363 Q146.548,326.521 147.152,325.886 Q147.755,325.251 148.597,324.885 Q149.439,324.52 150.487,324.52 Q151.504,324.52 152.345,324.885 Q153.187,325.251 153.806,325.87 Q154.426,326.489 154.791,327.347 Q155.156,328.205 155.22,329.158 z M157.825,333.732 L155.156,333.732 Q154.807,335.352 153.711,336.146 Q152.615,336.94 150.9,336.94 Q149.566,336.94 148.581,336.495 Q147.596,336.051 146.961,335.304 Q146.326,334.558 146.04,333.589 Q145.754,332.62 145.786,331.54 L158.079,331.54 Q158.142,330.047 157.809,328.395 Q157.475,326.744 156.602,325.346 Q155.728,323.948 154.283,323.043 Q152.838,322.138 150.646,322.138 Q148.962,322.138 147.549,322.773 Q146.135,323.408 145.103,324.552 Q144.071,325.695 143.499,327.252 Q142.927,328.808 142.927,330.682 Q142.991,332.556 143.483,334.145 Q143.975,335.733 144.96,336.876 Q145.945,338.02 147.39,338.655 Q148.835,339.291 150.805,339.291 Q153.6,339.291 155.442,337.893 Q157.285,336.495 157.825,333.732 z M163.733,319.565 L163.733,316.261 L161.033,316.261 L161.033,319.565 z M161.033,322.519 L161.033,338.941 L163.733,338.941 L163.733,322.519 z M175.327,338.941 L181.331,322.519 L178.504,322.519 L174.025,336.209 L173.961,336.209 L169.355,322.519 L166.338,322.519 L172.436,338.941 z M195.212,329.158 L185.778,329.158 Q185.841,328.205 186.191,327.363 Q186.54,326.521 187.144,325.886 Q187.747,325.251 188.589,324.885 Q189.431,324.52 190.479,324.52 Q191.495,324.52 192.337,324.885 Q193.179,325.251 193.798,325.87 Q194.418,326.489 194.783,327.347 Q195.148,328.205 195.212,329.158 z M197.816,333.732 L195.148,333.732 Q194.799,335.352 193.703,336.146 Q192.607,336.94 190.892,336.94 Q189.558,336.94 188.573,336.495 Q187.588,336.051 186.953,335.304 Q186.318,334.558 186.032,333.589 Q185.746,332.62 185.778,331.54 L198.071,331.54 Q198.134,330.047 197.801,328.395 Q197.467,326.744 196.594,325.346 Q195.72,323.948 194.275,323.043 Q192.829,322.138 190.638,322.138 Q188.954,322.138 187.541,322.773 Q186.127,323.408 185.095,324.552 Q184.062,325.695 183.491,327.252 Q182.919,328.808 182.919,330.682 Q182.982,332.556 183.475,334.145 Q183.967,335.733 184.952,336.876 Q185.936,338.02 187.382,338.655 Q188.827,339.291 190.796,339.291 Q193.592,339.291 195.434,337.893 Q197.276,336.495 197.816,333.732 z M200.771,322.519 L200.771,338.941 L203.471,338.941 L203.471,331.635 Q203.471,330.047 203.788,328.824 Q204.106,327.601 204.805,326.744 Q205.504,325.886 206.647,325.441 Q207.791,324.996 209.411,324.996 L209.411,322.138 Q207.219,322.074 205.789,323.027 Q204.36,323.98 203.375,325.981 L203.312,325.981 L203.312,322.519 z" fill-opacity="0" stroke="#107C32" stroke-width="0.882"/>
    </g>
  </g>
</svg>
