<?xml version="1.0" encoding="UTF-8" standalone="no"?>
<!DOCTYPE svg PUBLIC "-//W3C//DTD SVG 1.1//EN" "http://www.w3.org/Graphics/SVG/1.1/DTD/svg11.dtd">
<!-- Created with Vectornator (http://vectornator.io/) -->
<svg height="100%" stroke-miterlimit="10" style="fill-rule:nonzero;clip-rule:evenodd;stroke-linecap:round;stroke-linejoin:round;" version="1.1" viewBox="0 0 1701.5 231.167" width="100%" xml:space="preserve" xmlns="http://www.w3.org/2000/svg" xmlns:vectornator="http://vectornator.io" xmlns:xlink="http://www.w3.org/1999/xlink">
<defs/>
<g id="Untitled" vectornator:layerName="Untitled">
<g opacity="1">
<path d="M148 34.9967C165.67 34.9967 180 52.8967 180 74.9967C180 97.0967 165.67 114.997 148 114.997L52 114.997C34.33 114.997 20 97.0967 20 74.9967C20 52.8967 34.33 34.9967 52 34.9967L148 34.9967Z" fill="#08088c" fill-rule="nonzero" opacity="1" stroke="#5e5e5e" stroke-linecap="butt" stroke-linejoin="miter" stroke-width="3"/>
<g opacity="1">
<path d="M56.826 51.2191C62.1964 51.2809 68.6161 50.2932 68.6161 55.8488C68.6161 60.6636 63.863 60.787 58.863 60.5401L58.863 66.5278L56.826 66.5278L56.826 51.2191ZM58.863 58.9352C62.3815 58.9352 66.5173 59.6142 66.5173 55.8488C66.5173 52.2068 62.3198 52.9475 58.863 52.8858L58.863 58.9352" fill="#ffffff" fill-rule="nonzero" opacity="1" stroke="none"/>
<path d="M71.2704 66.5278L71.2704 50.4167L73.2457 50.4167L73.2457 66.5278L71.2704 66.5278" fill="#ffffff" fill-rule="nonzero" opacity="1" stroke="none"/>
<path d="M83.3692 64.3056C82.4433 65.6019 81.4556 66.8364 79.1717 66.7747C76.9494 66.713 75.5914 65.4784 75.5914 63.2562C75.5297 59.3056 79.4803 59.3673 83.3075 59.3673C83.4927 57.2068 82.7519 56.034 80.7766 56.034C79.2951 56.0957 78.2457 56.4661 78.184 57.9475L76.147 57.7623C76.4556 55.4784 78.184 54.5525 80.8383 54.5525C83.6161 54.5525 85.2828 55.787 85.2828 58.5031L85.2828 63.5648C85.2211 64.7994 85.7149 65.5401 87.0112 65.2315L87.0112 66.4661C85.0976 67.0216 83.2457 66.3426 83.3692 64.3056ZM77.6285 63.2562C77.6285 64.4907 78.3692 65.2932 79.6038 65.2932C82.1346 65.108 83.4927 63.5031 83.3075 60.7253C80.6531 60.8488 77.6285 60.4167 77.6285 63.2562" fill="#ffffff" fill-rule="nonzero" opacity="1" stroke="none"/>
<path d="M98.0606 54.7994L92.7519 68.4414C91.8877 70.1698 90.468 71.5895 87.7519 71.034L87.7519 69.5525C90.1593 69.9228 91.0235 68.3179 91.7025 66.4661L87.0729 54.7994L89.1717 54.7994L92.6902 64.429L96.0235 54.7994L98.0606 54.7994" fill="#ffffff" fill-rule="nonzero" opacity="1" stroke="none"/>
<path d="M105.221 54.5525C108.493 54.5525 109.48 56.9599 109.542 60.6019C109.542 64.6759 108.122 66.7747 105.221 66.7747C103.307 66.713 102.196 66.0957 101.579 64.6759L101.456 66.5278L99.542 66.5278L99.6038 50.4167L101.579 50.4167L101.579 56.6512C102.196 55.2315 103.307 54.5525 105.221 54.5525ZM104.727 65.2932C107.196 65.2932 107.505 63.1944 107.505 60.6636C107.505 58.1944 107.196 56.034 104.727 56.0957C102.135 56.0957 101.579 58.071 101.579 60.787C101.579 63.4414 102.196 65.2932 104.727 65.2932" fill="#ffffff" fill-rule="nonzero" opacity="1" stroke="none"/>
<path d="M119.172 64.3056C118.246 65.6019 117.258 66.8364 114.974 66.7747C112.752 66.713 111.394 65.4784 111.394 63.2562C111.332 59.3056 115.283 59.3673 119.11 59.3673C119.295 57.2068 118.554 56.034 116.579 56.034C115.098 56.0957 114.048 56.4661 113.986 57.9475L111.949 57.7623C112.258 55.4784 113.986 54.5525 116.641 54.5525C119.419 54.5525 121.085 55.787 121.085 58.5031L121.085 63.5648C121.024 64.7994 121.517 65.5401 122.814 65.2315L122.814 66.4661C120.9 67.0216 119.048 66.3426 119.172 64.3056ZM113.431 63.2562C113.431 64.4907 114.172 65.2932 115.406 65.2932C117.937 65.108 119.295 63.5031 119.11 60.7253C116.456 60.8488 113.431 60.4167 113.431 63.2562" fill="#ffffff" fill-rule="nonzero" opacity="1" stroke="none"/>
<path d="M128.74 56.0957C126.27 56.0957 125.777 58.1327 125.777 60.6019C125.777 63.071 126.332 65.2315 128.74 65.2315C130.221 65.2315 131.27 64.3673 131.394 62.8858L133.369 63.0093C132.999 65.2932 131.456 66.7747 128.801 66.7747C125.159 66.7747 124.11 64.2438 123.74 60.6636C123.122 54.9228 129.974 52.5772 132.814 56.713C133.061 57.1451 133.122 57.5772 133.246 58.071L131.27 58.2562C131.024 56.9599 130.283 56.0957 128.74 56.0957" fill="#ffffff" fill-rule="nonzero" opacity="1" stroke="none"/>
<path d="M142.752 66.5278L138.801 61.1574L137.382 62.3302L137.382 66.5278L135.406 66.5278L135.406 50.4167L137.382 50.4167L137.382 60.4784L142.505 54.7994L144.789 54.7994L140.036 59.8611L145.098 66.5278L142.752 66.5278" fill="#ffffff" fill-rule="nonzero" opacity="1" stroke="none"/>
</g>
<g opacity="1">
<path d="M73.0606 82.2685C72.9988 84.7994 71.6408 86.2191 69.3569 86.5895L73.6778 93.1944L71.3322 93.1944L67.3198 86.8364L62.5667 86.8364L62.5667 93.1944L60.5297 93.1944L60.5297 77.8858C65.9618 78.071 73.184 76.5895 73.0606 82.2685ZM62.5667 85.2315C66.2704 85.108 71.0235 86.0339 71.0235 82.3302C71.0235 78.5648 66.0852 79.7377 62.5667 79.5525L62.5667 85.2315" fill="#ffffff" fill-rule="nonzero" opacity="1" stroke="none"/>
<path d="M80.8383 81.2191C84.7272 81.2191 86.147 83.8117 86.0235 87.7623L77.6902 87.7623C77.6902 90.2315 78.5544 91.8981 80.9618 91.9599C82.5667 92.0216 83.6161 91.2191 83.9865 90.1698L85.7149 90.6636C85.0359 92.392 83.4309 93.4414 80.9618 93.4414C77.3815 93.4414 75.5297 91.1574 75.5914 87.2685C75.6532 83.5031 77.1964 81.2191 80.8383 81.2191ZM84.0482 86.2191C84.4186 82.5154 79.3569 81.466 78.0606 84.4907C77.8754 84.9228 77.6902 85.5401 77.6902 86.2191L84.0482 86.2191" fill="#ffffff" fill-rule="nonzero" opacity="1" stroke="none"/>
<path d="M95.9618 91.2809C95.2828 92.6389 94.1717 93.4414 92.2581 93.4414C88.9865 93.4414 87.9988 91.0339 87.9371 87.392C87.9371 83.75 88.9865 81.2809 92.2581 81.2191C94.2334 81.1574 95.2211 82.0833 95.9618 83.2562C95.9618 82.5772 95.9001 81.7747 96.0852 81.2809L97.9371 81.2809L97.8754 97.8241L95.9001 97.8241L95.9618 91.2809ZM92.7519 91.8981C95.2828 91.8981 95.9001 89.8611 95.9001 87.2068C95.9001 84.5525 95.4062 82.7006 92.8136 82.7006C90.3445 82.7006 89.9741 84.8611 89.9741 87.3302C89.9741 89.7994 90.2828 91.8981 92.7519 91.8981" fill="#ffffff" fill-rule="nonzero" opacity="1" stroke="none"/>
<path d="M104.542 93.4414C99.0482 93.6883 101.209 86.2809 100.777 81.466L102.752 81.466L102.752 88.8735C102.752 90.787 103.184 91.9599 105.159 91.8981C109.604 91.7747 107.937 85.6636 108.246 81.466L110.159 81.466L110.221 93.1944L108.369 93.1944C108.307 92.5772 108.431 91.6512 108.246 91.1574C107.567 92.5154 106.517 93.3796 104.542 93.4414" fill="#ffffff" fill-rule="nonzero" opacity="1" stroke="none"/>
<path d="M117.875 81.2191C121.764 81.2191 123.184 83.8117 123.061 87.7623L114.727 87.7623C114.727 90.2315 115.591 91.8981 117.999 91.9599C119.604 92.0216 120.653 91.2191 121.024 90.1698L122.752 90.6636C122.073 92.392 120.468 93.4414 117.999 93.4414C114.419 93.4414 112.567 91.1574 112.628 87.2685C112.69 83.5031 114.233 81.2191 117.875 81.2191ZM121.085 86.2191C121.456 82.5154 116.394 81.466 115.098 84.4907C114.912 84.9228 114.727 85.5401 114.727 86.2191L121.085 86.2191" fill="#ffffff" fill-rule="nonzero" opacity="1" stroke="none"/>
<path d="M132.382 84.3673C132.196 82.2685 127.073 82.0216 127.011 84.3673C127.937 87.6389 134.11 85.108 134.357 89.9228C134.604 94.7377 125.098 94.4907 124.665 90.4167L126.394 90.108C126.641 92.3302 132.382 92.8858 132.443 90.108C131.826 86.6512 125.468 89.1821 125.159 84.5525C124.912 81.0339 130.221 80.6636 132.69 81.9599C133.431 82.392 133.986 83.1327 134.172 84.1204" fill="#ffffff" fill-rule="nonzero" opacity="1" stroke="none"/>
<path d="M138.801 90.2932C138.678 91.7747 139.912 92.0833 141.147 91.6512L141.147 93.1327C139.11 93.75 136.826 93.4414 136.826 90.7253L136.826 82.8858L135.468 82.8858L135.468 81.466L136.949 81.466L137.505 78.8117L138.801 78.8117L138.801 81.466L140.962 81.466L140.962 82.8858L138.801 82.8858L138.801 90.2932" fill="#ffffff" fill-rule="nonzero" opacity="1" stroke="none"/>
</g>
<path d="M1668 34.9967C1685.67 34.9967 1700 52.8967 1700 74.9967C1700 97.0967 1685.67 114.997 1668 114.997L1572 114.997C1554.33 114.997 1540 97.0967 1540 74.9967C1540 52.8967 1554.33 34.9967 1572 34.9967L1668 34.9967Z" fill="#08088c" fill-rule="nonzero" opacity="1" stroke="#5e5e5e" stroke-linecap="butt" stroke-linejoin="miter" stroke-width="3"/>
<g opacity="1">
<path d="M1576.83 51.2191C1582.2 51.2809 1588.62 50.2932 1588.62 55.8488C1588.62 60.6636 1583.86 60.787 1578.86 60.5401L1578.86 66.5278L1576.83 66.5278L1576.83 51.2191ZM1578.86 58.9352C1582.38 58.9352 1586.52 59.6142 1586.52 55.8488C1586.52 52.2068 1582.32 52.9475 1578.86 52.8858L1578.86 58.9352" fill="#ffffff" fill-rule="nonzero" opacity="1" stroke="none"/>
<path d="M1591.27 66.5278L1591.27 50.4167L1593.25 50.4167L1593.25 66.5278L1591.27 66.5278" fill="#ffffff" fill-rule="nonzero" opacity="1" stroke="none"/>
<path d="M1603.37 64.3056C1602.44 65.6019 1601.46 66.8364 1599.17 66.7747C1596.95 66.713 1595.59 65.4784 1595.59 63.2562C1595.53 59.3056 1599.48 59.3673 1603.31 59.3673C1603.49 57.2068 1602.75 56.034 1600.78 56.034C1599.3 56.0957 1598.25 56.4661 1598.18 57.9475L1596.15 57.7623C1596.46 55.4784 1598.18 54.5525 1600.84 54.5525C1603.62 54.5525 1605.28 55.787 1605.28 58.5031L1605.28 63.5648C1605.22 64.7994 1605.71 65.5401 1607.01 65.2315L1607.01 66.4661C1605.1 67.0216 1603.25 66.3426 1603.37 64.3056ZM1597.63 63.2562C1597.63 64.4907 1598.37 65.2932 1599.6 65.2932C1602.13 65.108 1603.49 63.5031 1603.31 60.7253C1600.65 60.8488 1597.63 60.4167 1597.63 63.2562" fill="#ffffff" fill-rule="nonzero" opacity="1" stroke="none"/>
<path d="M1618.06 54.7994L1612.75 68.4414C1611.89 70.1698 1610.47 71.5895 1607.75 71.034L1607.75 69.5525C1610.16 69.9228 1611.02 68.3179 1611.7 66.4661L1607.07 54.7994L1609.17 54.7994L1612.69 64.429L1616.02 54.7994L1618.06 54.7994" fill="#ffffff" fill-rule="nonzero" opacity="1" stroke="none"/>
<path d="M1625.22 54.5525C1628.49 54.5525 1629.48 56.9599 1629.54 60.6019C1629.54 64.6759 1628.12 66.7747 1625.22 66.7747C1623.31 66.713 1622.2 66.0957 1621.58 64.6759L1621.46 66.5278L1619.54 66.5278L1619.6 50.4167L1621.58 50.4167L1621.58 56.6512C1622.2 55.2315 1623.31 54.5525 1625.22 54.5525ZM1624.73 65.2932C1627.2 65.2932 1627.51 63.1944 1627.51 60.6636C1627.51 58.1944 1627.2 56.034 1624.73 56.0957C1622.13 56.0957 1621.58 58.071 1621.58 60.787C1621.58 63.4414 1622.2 65.2932 1624.73 65.2932" fill="#ffffff" fill-rule="nonzero" opacity="1" stroke="none"/>
<path d="M1639.17 64.3056C1638.25 65.6019 1637.26 66.8364 1634.97 66.7747C1632.75 66.713 1631.39 65.4784 1631.39 63.2562C1631.33 59.3056 1635.28 59.3673 1639.11 59.3673C1639.3 57.2068 1638.55 56.034 1636.58 56.034C1635.1 56.0957 1634.05 56.4661 1633.99 57.9475L1631.95 57.7623C1632.26 55.4784 1633.99 54.5525 1636.64 54.5525C1639.42 54.5525 1641.09 55.787 1641.09 58.5031L1641.09 63.5648C1641.02 64.7994 1641.52 65.5401 1642.81 65.2315L1642.81 66.4661C1640.9 67.0216 1639.05 66.3426 1639.17 64.3056ZM1633.43 63.2562C1633.43 64.4907 1634.17 65.2932 1635.41 65.2932C1637.94 65.108 1639.3 63.5031 1639.11 60.7253C1636.46 60.8488 1633.43 60.4167 1633.43 63.2562" fill="#ffffff" fill-rule="nonzero" opacity="1" stroke="none"/>
<path d="M1648.74 56.0957C1646.27 56.0957 1645.78 58.1327 1645.78 60.6019C1645.78 63.071 1646.33 65.2315 1648.74 65.2315C1650.22 65.2315 1651.27 64.3673 1651.39 62.8858L1653.37 63.0093C1653 65.2932 1651.46 66.7747 1648.8 66.7747C1645.16 66.7747 1644.11 64.2438 1643.74 60.6636C1643.12 54.9228 1649.97 52.5772 1652.81 56.713C1653.06 57.1451 1653.12 57.5772 1653.25 58.071L1651.27 58.2562C1651.02 56.9599 1650.28 56.0957 1648.74 56.0957" fill="#ffffff" fill-rule="nonzero" opacity="1" stroke="none"/>
<path d="M1662.75 66.5278L1658.8 61.1574L1657.38 62.3302L1657.38 66.5278L1655.41 66.5278L1655.41 50.4167L1657.38 50.4167L1657.38 60.4784L1662.5 54.7994L1664.79 54.7994L1660.04 59.8611L1665.1 66.5278L1662.75 66.5278" fill="#ffffff" fill-rule="nonzero" opacity="1" stroke="none"/>
</g>
<g opacity="1">
<path d="M1579.63 93.1944L1577.91 88.75L1570.93 88.75L1569.2 93.1944L1567.04 93.1944L1573.28 77.8858L1575.62 77.8858L1581.73 93.1944L1579.63 93.1944ZM1577.29 87.0833L1574.39 79.4907C1573.65 82.2685 1572.47 84.5525 1571.55 87.0833L1577.29 87.0833" fill="#ffffff" fill-rule="nonzero" opacity="1" stroke="none"/>
<path d="M1586.98 93.4414C1581.49 93.6883 1583.65 86.2809 1583.21 81.466L1585.19 81.466L1585.19 88.8735C1585.19 90.787 1585.62 91.9599 1587.6 91.8981C1592.04 91.7747 1590.38 85.6636 1590.68 81.466L1592.6 81.466L1592.66 93.1944L1590.81 93.1944C1590.75 92.5772 1590.87 91.6512 1590.68 91.1574C1590 92.5154 1588.96 93.3796 1586.98 93.4414" fill="#ffffff" fill-rule="nonzero" opacity="1" stroke="none"/>
<path d="M1597.78 90.2932C1597.66 91.7747 1598.89 92.0833 1600.13 91.6512L1600.13 93.1327C1598.09 93.75 1595.81 93.4414 1595.81 90.7253L1595.81 82.8858L1594.45 82.8858L1594.45 81.466L1595.93 81.466L1596.49 78.8117L1597.78 78.8117L1597.78 81.466L1599.94 81.466L1599.94 82.8858L1597.78 82.8858L1597.78 90.2932" fill="#ffffff" fill-rule="nonzero" opacity="1" stroke="none"/>
<path d="M1606.86 82.7623C1602.41 82.7623 1604.14 89.0586 1603.83 93.1944L1601.86 93.1944L1601.86 77.0833L1603.83 77.0833L1603.77 83.4414C1604.51 82.1451 1605.5 81.2191 1607.54 81.2191C1613.03 81.2191 1610.81 88.3796 1611.24 93.1944L1609.26 93.1944L1609.26 85.7253C1609.39 83.75 1608.77 82.7006 1606.86 82.7623" fill="#ffffff" fill-rule="nonzero" opacity="1" stroke="none"/>
<path d="M1618.83 81.2191C1622.66 81.1574 1624.08 83.5031 1624.08 87.3302C1624.14 91.2191 1622.41 93.4414 1618.77 93.4414C1615.13 93.4414 1613.65 91.0339 1613.59 87.3302C1613.59 83.2562 1615.31 81.2191 1618.83 81.2191ZM1618.77 91.9599C1621.49 92.0216 1622.04 90.0463 1622.04 87.3302C1622.04 84.6759 1621.55 82.7006 1618.89 82.7006C1616.24 82.7006 1615.62 84.6759 1615.62 87.3302C1615.62 89.9846 1616.24 91.8981 1618.77 91.9599" fill="#ffffff" fill-rule="nonzero" opacity="1" stroke="none"/>
<path d="M1632.04 83.1327C1627.23 82.1451 1628.77 88.75 1628.52 93.1944L1626.55 93.1944L1626.49 81.466L1628.34 81.466C1628.4 82.2068 1628.28 83.2562 1628.46 83.8735C1628.83 82.2068 1629.88 80.8488 1632.04 81.3426L1632.04 83.1327" fill="#ffffff" fill-rule="nonzero" opacity="1" stroke="none"/>
<path d="M1633.83 78.9352L1633.83 77.0833L1635.81 77.0833L1635.81 78.9352L1633.83 78.9352ZM1633.83 93.1944L1633.83 81.466L1635.81 81.466L1635.81 93.1944L1633.83 93.1944" fill="#ffffff" fill-rule="nonzero" opacity="1" stroke="none"/>
<path d="M1637.78 93.1944L1637.78 91.713L1644.94 82.9475L1638.21 82.9475L1638.21 81.466L1647.1 81.466L1647.1 82.9475L1639.94 91.713L1647.54 91.713L1647.54 93.1944L1637.78 93.1944" fill="#ffffff" fill-rule="nonzero" opacity="1" stroke="none"/>
<path d="M1654.51 81.2191C1658.4 81.2191 1659.82 83.8117 1659.7 87.7623L1651.36 87.7623C1651.36 90.2315 1652.23 91.8981 1654.63 91.9599C1656.24 92.0216 1657.29 91.2191 1657.66 90.1698L1659.39 90.6636C1658.71 92.392 1657.1 93.4414 1654.63 93.4414C1651.05 93.4414 1649.2 91.1574 1649.26 87.2685C1649.33 83.5031 1650.87 81.2191 1654.51 81.2191ZM1657.72 86.2191C1658.09 82.5154 1653.03 81.466 1651.73 84.4907C1651.55 84.9228 1651.36 85.5401 1651.36 86.2191L1657.72 86.2191" fill="#ffffff" fill-rule="nonzero" opacity="1" stroke="none"/>
<path d="M1665.93 81.2191C1667.84 81.2191 1668.89 82.0216 1669.63 83.2562L1669.57 77.0833L1671.55 77.0833L1671.61 93.1944L1669.76 93.1944C1669.63 92.5772 1669.76 91.7747 1669.57 91.2809C1668.96 92.7006 1667.84 93.4414 1665.93 93.4414C1662.66 93.4414 1661.67 91.0339 1661.61 87.392C1661.61 83.3179 1663.03 81.2191 1665.93 81.2191ZM1666.49 82.7006C1664.02 82.7006 1663.65 84.7994 1663.65 87.3302C1663.65 89.7994 1664.02 91.8981 1666.42 91.8981C1669.02 91.8981 1669.57 89.9228 1669.57 87.2068C1669.57 84.6142 1669.02 82.6389 1666.49 82.7006" fill="#ffffff" fill-rule="nonzero" opacity="1" stroke="none"/>
</g>
<path d="M220 25.9967C220 22.6967 222.7 19.9967 226 19.9967L344 19.9967C347.3 19.9967 350 22.6967 350 25.9967L350 123.997C350 127.317 347.3 129.997 344 129.997L226 129.997C222.7 129.997 220 127.317 220 123.997L220 25.9967Z" fill="#00eae4" fill-rule="nonzero" opacity="1" stroke="#5e5e5e" stroke-linecap="butt" stroke-linejoin="miter" stroke-width="3"/>
<g opacity="1">
<path d="M236.481 64.8997C231.42 64.8997 229.012 61.9367 228.765 56.9367C228.457 50.3318 234.938 47.4306 240.679 50.0849C241.728 50.5787 242.469 51.6281 242.963 52.7392L240.988 53.2948C240.185 51.7515 238.704 50.8256 236.296 50.8256C232.531 50.8256 230.864 53.233 230.864 56.9367C230.864 60.7022 232.654 63.1096 236.481 63.1713C238.642 63.1713 240.309 62.4923 241.358 61.5046L241.358 58.7269L236.79 58.7269L236.79 56.9985L243.272 56.9985L243.272 62.3071C241.728 63.8503 239.506 64.8997 236.481 64.8997" fill="#333333" fill-rule="nonzero" opacity="1" stroke="none"/>
<path d="M251.111 52.6775C255 52.6775 256.42 55.2701 256.296 59.2207L247.963 59.2207C247.963 61.6898 248.827 63.3565 251.235 63.4182C252.84 63.4799 253.889 62.6775 254.259 61.6281L255.988 62.1219C255.309 63.8503 253.704 64.8997 251.235 64.8997C247.654 64.8997 245.802 62.6157 245.864 58.7269C245.926 54.9614 247.469 52.6775 251.111 52.6775ZM254.321 57.6775C254.691 53.9738 249.63 52.9244 248.333 55.9491C248.148 56.3812 247.963 56.9985 247.963 57.6775L254.321 57.6775" fill="#333333" fill-rule="nonzero" opacity="1" stroke="none"/>
<path d="M263.457 52.6775C267.284 52.6157 268.704 54.9614 268.704 58.7886C268.765 62.6775 267.037 64.8997 263.395 64.8997C259.753 64.8997 258.272 62.4923 258.21 58.7886C258.21 54.7145 259.938 52.6775 263.457 52.6775ZM263.395 63.4182C266.111 63.4799 266.667 61.5046 266.667 58.7886C266.667 56.1343 266.173 54.159 263.519 54.159C260.864 54.159 260.247 56.1343 260.247 58.7886C260.247 61.4429 260.864 63.3565 263.395 63.4182" fill="#333333" fill-rule="nonzero" opacity="1" stroke="none"/>
<path d="M280.556 52.9244C279.938 60.6404 283.086 71.0108 273.765 69.0355C272.346 68.6651 271.42 67.8009 271.049 66.3812L273.025 66.0725C273.951 68.9738 279.198 68.0478 278.519 64.3441L278.519 62.4923C277.84 63.7886 276.728 64.7145 274.753 64.7145C271.42 64.7145 270.556 62.1836 270.556 58.7886C270.556 55.3318 271.543 52.8009 274.938 52.7392C276.728 52.6775 277.901 53.7269 278.58 54.8997C278.642 54.2824 278.58 53.4799 278.704 52.9244L280.556 52.9244ZM275.432 63.2948C277.654 63.2948 278.519 61.3194 278.519 58.7886C278.519 56.196 277.654 54.159 275.432 54.159C273.025 54.159 272.593 56.2577 272.593 58.7886C272.593 61.3194 272.963 63.2948 275.432 63.2948" fill="#333333" fill-rule="nonzero" opacity="1" stroke="none"/>
<path d="M289.012 54.5911C284.198 53.6034 285.741 60.2083 285.494 64.6528L283.519 64.6528L283.457 52.9244L285.309 52.9244C285.37 53.6651 285.247 54.7145 285.432 55.3318C285.802 53.6651 286.852 52.3071 289.012 52.8009L289.012 54.5911" fill="#333333" fill-rule="nonzero" opacity="1" stroke="none"/>
<path d="M298.025 62.4306C297.099 63.7269 296.111 64.9614 293.827 64.8997C291.605 64.838 290.247 63.6034 290.247 61.3812C290.185 57.4306 294.136 57.4923 297.963 57.4923C298.148 55.3318 297.407 54.159 295.432 54.159C293.951 54.2207 292.901 54.5911 292.84 56.0725L290.802 55.8873C291.111 53.6034 292.84 52.6775 295.494 52.6775C298.272 52.6775 299.938 53.912 299.938 56.6281L299.938 61.6898C299.877 62.9244 300.37 63.6651 301.667 63.3565L301.667 64.5911C299.753 65.1466 297.901 64.4676 298.025 62.4306ZM292.284 61.3812C292.284 62.6157 293.025 63.4182 294.259 63.4182C296.79 63.233 298.148 61.6281 297.963 58.8503C295.309 58.9738 292.284 58.5417 292.284 61.3812" fill="#333333" fill-rule="nonzero" opacity="1" stroke="none"/>
<path d="M308.765 52.6775C312.16 52.7392 313.086 55.2083 313.086 58.7269C313.086 62.2454 312.099 64.7762 308.765 64.8997C306.852 64.8997 305.741 64.0972 305.062 62.8009L305.123 69.2824L303.148 69.2824L303.086 52.9244L305 52.9244L305.123 54.7762C305.741 53.4799 306.852 52.6775 308.765 52.6775ZM308.272 63.4182C310.741 63.4182 311.049 61.3194 311.049 58.7886C311.049 56.2577 310.679 54.2824 308.272 54.2207C305.679 54.2207 305.123 56.196 305.123 58.912C305.123 61.5664 305.741 63.4182 308.272 63.4182" fill="#333333" fill-rule="nonzero" opacity="1" stroke="none"/>
<path d="M320.556 54.2207C316.111 54.2207 317.84 60.517 317.531 64.6528L315.556 64.6528L315.556 48.5417L317.531 48.5417L317.469 54.8997C318.21 53.6034 319.198 52.6775 321.235 52.6775C326.728 52.6775 324.506 59.838 324.938 64.6528L322.963 64.6528L322.963 57.1836C323.086 55.2083 322.469 54.159 320.556 54.2207" fill="#333333" fill-rule="nonzero" opacity="1" stroke="none"/>
<path d="M327.84 50.3935L327.84 48.5417L329.815 48.5417L329.815 50.3935L327.84 50.3935ZM327.84 64.6528L327.84 52.9244L329.815 52.9244L329.815 64.6528L327.84 64.6528" fill="#333333" fill-rule="nonzero" opacity="1" stroke="none"/>
<path d="M337.16 54.2207C334.691 54.2207 334.198 56.2577 334.198 58.7269C334.198 61.196 334.753 63.3565 337.16 63.3565C338.642 63.3565 339.691 62.4923 339.815 61.0108L341.79 61.1343C341.42 63.4182 339.877 64.8997 337.222 64.8997C333.58 64.8997 332.531 62.3688 332.16 58.7886C331.543 53.0478 338.395 50.7022 341.235 54.838C341.481 55.2701 341.543 55.7022 341.667 56.196L339.691 56.3812C339.444 55.0849 338.704 54.2207 337.16 54.2207" fill="#333333" fill-rule="nonzero" opacity="1" stroke="none"/>
</g>
<g opacity="1">
<path d="M261.08 80.2701C260.463 78.5417 258.92 77.4923 256.574 77.4923C252.932 77.4923 251.204 79.9614 251.204 83.6034C251.204 87.3071 252.994 89.838 256.698 89.838C259.352 89.838 260.525 88.3565 261.512 86.6281L263.179 87.4923C262.068 89.838 260.031 91.5664 256.574 91.5664C251.636 91.5664 249.352 88.4799 249.105 83.6034C248.735 77.1836 255.216 74.1589 260.648 76.7515C261.821 77.3071 262.562 78.3565 263.056 79.591" fill="#333333" fill-rule="nonzero" opacity="1" stroke="none"/>
<path d="M270.525 80.8873C266.08 80.8873 267.809 87.1836 267.5 91.3194L265.525 91.3194L265.525 75.2083L267.5 75.2083L267.438 81.5664C268.179 80.2701 269.167 79.3441 271.204 79.3441C276.698 79.3441 274.475 86.5046 274.907 91.3194L272.932 91.3194L272.932 83.8503C273.056 81.875 272.438 80.8256 270.525 80.8873" fill="#333333" fill-rule="nonzero" opacity="1" stroke="none"/>
<path d="M282.5 79.3441C286.389 79.3441 287.809 81.9367 287.685 85.8873L279.352 85.8873C279.352 88.3565 280.216 90.0231 282.623 90.0849C284.228 90.1466 285.278 89.3441 285.648 88.2948L287.377 88.7886C286.698 90.517 285.093 91.5664 282.623 91.5664C279.043 91.5664 277.191 89.2824 277.253 85.3935C277.315 81.6281 278.858 79.3441 282.5 79.3441ZM285.71 84.3441C286.08 80.6404 281.019 79.591 279.722 82.6157C279.537 83.0478 279.352 83.6651 279.352 84.3441L285.71 84.3441" fill="#333333" fill-rule="nonzero" opacity="1" stroke="none"/>
<path d="M294.599 80.8873C292.13 80.8873 291.636 82.9244 291.636 85.3935C291.636 87.8627 292.191 90.0231 294.599 90.0231C296.08 90.0231 297.13 89.1589 297.253 87.6775L299.228 87.8009C298.858 90.0849 297.315 91.5664 294.66 91.5664C291.019 91.5664 289.969 89.0355 289.599 85.4552C288.981 79.7145 295.833 77.3688 298.673 81.5046C298.92 81.9367 298.981 82.3688 299.105 82.8627L297.13 83.0478C296.883 81.7515 296.142 80.8873 294.599 80.8873" fill="#333333" fill-rule="nonzero" opacity="1" stroke="none"/>
<path d="M308.611 91.3194L304.66 85.9491L303.241 87.1219L303.241 91.3194L301.265 91.3194L301.265 75.2083L303.241 75.2083L303.241 85.2701L308.364 79.591L310.648 79.591L305.895 84.6528L310.957 91.3194L308.611 91.3194" fill="#333333" fill-rule="nonzero" opacity="1" stroke="none"/>
<path d="M319.228 82.4923C319.043 80.3935 313.92 80.1466 313.858 82.4923C314.784 85.7639 320.957 83.233 321.204 88.0478C321.451 92.8627 311.944 92.6157 311.512 88.5417L313.241 88.233C313.488 90.4552 319.228 91.0108 319.29 88.233C318.673 84.7762 312.315 87.3071 312.006 82.6775C311.759 79.1589 317.068 78.7886 319.537 80.0849C320.278 80.517 320.833 81.2577 321.019 82.2454" fill="#333333" fill-rule="nonzero" opacity="1" stroke="none"/>
</g>
<path d="M445.4 28.8367C447.94 26.7167 452.06 26.7167 454.6 28.8367L505.4 71.1567C507.94 73.2567 507.94 76.7067 505.4 78.8267L454.6 121.147C452.06 123.247 447.94 123.247 445.4 121.147L394.6 78.8167C392.06 76.6967 392.06 73.2567 394.6 71.1367L445.4 28.8367Z" fill="#ffce00" fill-rule="nonzero" opacity="1" stroke="#5e5e5e" stroke-linecap="butt" stroke-linejoin="miter" stroke-width="3"/>
<g opacity="1">
<path d="M414.82 63.4066C420.19 63.4684 426.61 62.4807 426.61 68.0363C426.61 72.8511 421.857 72.9745 416.857 72.7276L416.857 78.7153L414.82 78.7153L414.82 63.4066ZM416.857 71.1227C420.375 71.1227 424.511 71.8017 424.511 68.0363C424.511 64.3943 420.314 65.135 416.857 65.0733L416.857 71.1227" fill="#333333" fill-rule="nonzero" opacity="1" stroke="none"/>
<path d="M436.486 76.4931C435.561 77.7894 434.573 79.0239 432.289 78.9622C430.067 78.9005 428.709 77.6659 428.709 75.4437C428.647 71.4931 432.598 71.5548 436.425 71.5548C436.61 69.3943 435.869 68.2215 433.894 68.2215C432.412 68.2832 431.363 68.6536 431.301 70.135L429.264 69.9498C429.573 67.6659 431.301 66.74 433.956 66.74C436.733 66.74 438.4 67.9745 438.4 70.6906L438.4 75.7523C438.338 76.9869 438.832 77.7276 440.128 77.419L440.128 78.6536C438.215 79.2091 436.363 78.5301 436.486 76.4931ZM430.746 75.4437C430.746 76.6782 431.486 77.4807 432.721 77.4807C435.252 77.2955 436.61 75.6906 436.425 72.9128C433.77 73.0363 430.746 72.6042 430.746 75.4437" fill="#333333" fill-rule="nonzero" opacity="1" stroke="none"/>
<path d="M448.462 69.8881C448.277 67.7894 443.153 67.5424 443.091 69.8881C444.017 73.1597 450.19 70.6289 450.437 75.4437C450.684 80.2585 441.178 80.0116 440.746 75.9375L442.474 75.6289C442.721 77.8511 448.462 78.4066 448.524 75.6289C447.906 72.1721 441.548 74.7029 441.24 70.0733C440.993 66.5548 446.301 66.1844 448.77 67.4807C449.511 67.9128 450.067 68.6536 450.252 69.6412" fill="#333333" fill-rule="nonzero" opacity="1" stroke="none"/>
<path d="M459.573 69.8881C459.388 67.7894 454.264 67.5424 454.203 69.8881C455.128 73.1597 461.301 70.6289 461.548 75.4437C461.795 80.2585 452.289 80.0116 451.857 75.9375L453.585 75.6289C453.832 77.8511 459.573 78.4066 459.635 75.6289C459.017 72.1721 452.659 74.7029 452.351 70.0733C452.104 66.5548 457.412 66.1844 459.882 67.4807C460.622 67.9128 461.178 68.6536 461.363 69.6412" fill="#333333" fill-rule="nonzero" opacity="1" stroke="none"/>
<path d="M468.524 66.74C472.412 66.74 473.832 69.3326 473.709 73.2832L465.375 73.2832C465.375 75.7523 466.24 77.419 468.647 77.4807C470.252 77.5424 471.301 76.74 471.672 75.6906L473.4 76.1844C472.721 77.9128 471.116 78.9622 468.647 78.9622C465.067 78.9622 463.215 76.6782 463.277 72.7894C463.338 69.0239 464.882 66.74 468.524 66.74ZM471.733 71.74C472.104 68.0363 467.042 66.9869 465.746 70.0116C465.561 70.4437 465.375 71.061 465.375 71.74L471.733 71.74" fill="#333333" fill-rule="nonzero" opacity="1" stroke="none"/>
<path d="M479.943 66.74C481.857 66.74 482.906 67.5424 483.647 68.777L483.585 62.6042L485.561 62.6042L485.622 78.7153L483.77 78.7153C483.647 78.098 483.77 77.2955 483.585 76.8017C482.968 78.2215 481.857 78.9622 479.943 78.9622C476.672 78.9622 475.684 76.5548 475.622 72.9128C475.622 68.8387 477.042 66.74 479.943 66.74ZM480.499 68.2215C478.03 68.2215 477.659 70.3202 477.659 72.8511C477.659 75.3202 478.03 77.419 480.437 77.419C483.03 77.419 483.585 75.4437 483.585 72.7276C483.585 70.135 483.03 68.1597 480.499 68.2215" fill="#333333" fill-rule="nonzero" opacity="1" stroke="none"/>
</g>
<path d="M1668 149.667C1685.67 149.667 1700 167.567 1700 189.667C1700 211.767 1685.67 229.667 1668 229.667L1572 229.667C1554.33 229.667 1540 211.767 1540 189.667C1540 167.567 1554.33 149.667 1572 149.667L1668 149.667Z" fill="#ff5000" fill-rule="nonzero" opacity="1" stroke="#5e5e5e" stroke-linecap="butt" stroke-linejoin="miter" stroke-width="3"/>
<g opacity="1">
<path d="M1568.36 188.579C1568.3 192.591 1565.9 194.566 1561.94 194.566C1558.18 194.566 1555.77 192.591 1555.77 188.764L1555.77 179.011L1557.81 179.011C1558.3 184.505 1555.77 192.838 1561.94 192.838C1568.24 192.838 1565.9 184.628 1566.33 179.011L1568.36 179.011L1568.36 188.579" fill="#ffffff" fill-rule="nonzero" opacity="1" stroke="none"/>
<path d="M1577.25 182.344C1582.75 182.097 1580.52 189.505 1580.96 194.319L1578.98 194.319L1578.98 186.85C1578.98 184.937 1578.49 183.826 1576.57 183.887C1572.13 184.011 1573.86 190.184 1573.55 194.319L1571.57 194.319L1571.51 182.591L1573.36 182.591C1573.43 183.208 1573.3 184.073 1573.49 184.566C1574.17 183.208 1575.28 182.406 1577.25 182.344" fill="#ffffff" fill-rule="nonzero" opacity="1" stroke="none"/>
<path d="M1591.08 192.097C1590.15 193.394 1589.17 194.628 1586.88 194.566C1584.66 194.505 1583.3 193.27 1583.3 191.048C1583.24 187.097 1587.19 187.159 1591.02 187.159C1591.2 184.998 1590.46 183.826 1588.49 183.826C1587.01 183.887 1585.96 184.258 1585.9 185.739L1583.86 185.554C1584.17 183.27 1585.9 182.344 1588.55 182.344C1591.33 182.344 1592.99 183.579 1592.99 186.295L1592.99 191.356C1592.93 192.591 1593.43 193.332 1594.72 193.023L1594.72 194.258C1592.81 194.813 1590.96 194.134 1591.08 192.097ZM1585.34 191.048C1585.34 192.282 1586.08 193.085 1587.31 193.085C1589.85 192.9 1591.2 191.295 1591.02 188.517C1588.36 188.64 1585.34 188.208 1585.34 191.048" fill="#ffffff" fill-rule="nonzero" opacity="1" stroke="none"/>
<path d="M1599.91 194.566C1594.41 194.813 1596.57 187.406 1596.14 182.591L1598.12 182.591L1598.12 189.998C1598.12 191.912 1598.55 193.085 1600.52 193.023C1604.97 192.9 1603.3 186.789 1603.61 182.591L1605.52 182.591L1605.59 194.319L1603.73 194.319C1603.67 193.702 1603.8 192.776 1603.61 192.282C1602.93 193.64 1601.88 194.505 1599.91 194.566" fill="#ffffff" fill-rule="nonzero" opacity="1" stroke="none"/>
<path d="M1610.71 191.418C1610.59 192.9 1611.82 193.208 1613.06 192.776L1613.06 194.258C1611.02 194.875 1608.73 194.566 1608.73 191.85L1608.73 184.011L1607.38 184.011L1607.38 182.591L1608.86 182.591L1609.41 179.937L1610.71 179.937L1610.71 182.591L1612.87 182.591L1612.87 184.011L1610.71 184.011L1610.71 191.418" fill="#ffffff" fill-rule="nonzero" opacity="1" stroke="none"/>
<path d="M1619.78 183.887C1615.34 183.887 1617.07 190.184 1616.76 194.319L1614.78 194.319L1614.78 178.208L1616.76 178.208L1616.7 184.566C1617.44 183.27 1618.43 182.344 1620.46 182.344C1625.96 182.344 1623.73 189.505 1624.17 194.319L1622.19 194.319L1622.19 186.85C1622.31 184.875 1621.7 183.826 1619.78 183.887" fill="#ffffff" fill-rule="nonzero" opacity="1" stroke="none"/>
<path d="M1631.76 182.344C1635.59 182.282 1637.01 184.628 1637.01 188.455C1637.07 192.344 1635.34 194.566 1631.7 194.566C1628.06 194.566 1626.57 192.159 1626.51 188.455C1626.51 184.381 1628.24 182.344 1631.76 182.344ZM1631.7 193.085C1634.41 193.147 1634.97 191.171 1634.97 188.455C1634.97 185.801 1634.48 183.826 1631.82 183.826C1629.17 183.826 1628.55 185.801 1628.55 188.455C1628.55 191.11 1629.17 193.023 1631.7 193.085" fill="#ffffff" fill-rule="nonzero" opacity="1" stroke="none"/>
<path d="M1644.97 184.258C1640.15 183.27 1641.7 189.875 1641.45 194.319L1639.48 194.319L1639.41 182.591L1641.27 182.591C1641.33 183.332 1641.2 184.381 1641.39 184.998C1641.76 183.332 1642.81 181.974 1644.97 182.468L1644.97 184.258" fill="#ffffff" fill-rule="nonzero" opacity="1" stroke="none"/>
<path d="M1646.76 180.06L1646.76 178.208L1648.73 178.208L1648.73 180.06L1646.76 180.06ZM1646.76 194.319L1646.76 182.591L1648.73 182.591L1648.73 194.319L1646.76 194.319" fill="#ffffff" fill-rule="nonzero" opacity="1" stroke="none"/>
<path d="M1650.71 194.319L1650.71 192.838L1657.87 184.073L1651.14 184.073L1651.14 182.591L1660.03 182.591L1660.03 184.073L1652.87 192.838L1660.46 192.838L1660.46 194.319L1650.71 194.319" fill="#ffffff" fill-rule="nonzero" opacity="1" stroke="none"/>
<path d="M1667.44 182.344C1671.33 182.344 1672.75 184.937 1672.62 188.887L1664.29 188.887C1664.29 191.356 1665.15 193.023 1667.56 193.085C1669.17 193.147 1670.22 192.344 1670.59 191.295L1672.31 191.789C1671.64 193.517 1670.03 194.566 1667.56 194.566C1663.98 194.566 1662.13 192.282 1662.19 188.394C1662.25 184.628 1663.8 182.344 1667.44 182.344ZM1670.65 187.344C1671.02 183.64 1665.96 182.591 1664.66 185.616C1664.48 186.048 1664.29 186.665 1664.29 187.344L1670.65 187.344" fill="#ffffff" fill-rule="nonzero" opacity="1" stroke="none"/>
<path d="M1678.86 182.344C1680.77 182.344 1681.82 183.147 1682.56 184.381L1682.5 178.208L1684.48 178.208L1684.54 194.319L1682.69 194.319C1682.56 193.702 1682.69 192.9 1682.5 192.406C1681.88 193.826 1680.77 194.566 1678.86 194.566C1675.59 194.566 1674.6 192.159 1674.54 188.517C1674.54 184.443 1675.96 182.344 1678.86 182.344ZM1679.41 183.826C1676.94 183.826 1676.57 185.924 1676.57 188.455C1676.57 190.924 1676.94 193.023 1679.35 193.023C1681.94 193.023 1682.5 191.048 1682.5 188.332C1682.5 185.739 1681.94 183.764 1679.41 183.826" fill="#ffffff" fill-rule="nonzero" opacity="1" stroke="none"/>
</g>
<path d="M182.5 74.9967L200 74.9967" fill="none" opacity="1" stroke="#5e5e5e" stroke-linecap="butt" stroke-linejoin="miter" stroke-width="2"/>
<path d="M182.53 75.9967L181.43 75.9967L181.5 75.0167L181.47 73.9967L182.53 73.9967L182.53 75.9967Z" fill="#5e5e5e" fill-rule="nonzero" opacity="1" stroke="none"/>
<path d="M215.26 74.9967L201 79.6367L201 70.3667L215.26 74.9967Z" fill="#5e5e5e" fill-rule="nonzero" opacity="1" stroke="#5e5e5e" stroke-linecap="butt" stroke-linejoin="miter" stroke-width="2"/>
<path d="M352.5 74.9967L372.7 74.9967" fill="none" opacity="1" stroke="#5e5e5e" stroke-linecap="butt" stroke-linejoin="miter" stroke-width="2"/>
<path d="M352.53 75.9967L351.5 75.9967L351.5 73.9967L352.53 73.9967L352.53 75.9967Z" fill="#5e5e5e" fill-rule="nonzero" opacity="1" stroke="none"/>
<path d="M387.97 74.9967L373.71 79.6367L373.71 70.3667L387.97 74.9967Z" fill="#5e5e5e" fill-rule="nonzero" opacity="1" stroke="#5e5e5e" stroke-linecap="butt" stroke-linejoin="miter" stroke-width="2"/>
<path d="M550 25.9967C550 22.6967 552.7 19.9967 556 19.9967L674 19.9967C677.3 19.9967 680 22.6967 680 25.9967L680 123.997C680 127.317 677.3 129.997 674 129.997L556 129.997C552.7 129.997 550 127.317 550 123.997L550 25.9967Z" fill="#00eae4" fill-rule="nonzero" opacity="1" stroke="#5e5e5e" stroke-linecap="butt" stroke-linejoin="miter" stroke-width="3"/>
<g opacity="1">
<path d="M580.154 52.9861C579.846 50.0231 572.562 49.6528 572.5 53.1096C573.364 57.7392 582.253 53.9738 582.562 60.4552C582.747 65.2701 575.093 65.8256 571.759 63.8503C570.71 63.233 570.031 62.2454 569.722 61.0108L571.759 60.5787C572.068 64.0355 580.463 64.4676 580.463 60.517C580.463 55.7022 570.895 59.6528 570.463 53.233C570.154 48.1713 579.414 48.0478 581.512 51.1343C581.821 51.5664 582.006 52.1219 582.191 52.6775" fill="#333333" fill-rule="nonzero" opacity="1" stroke="none"/>
<path d="M589.475 54.2207C587.006 54.2207 586.512 56.2577 586.512 58.7269C586.512 61.196 587.068 63.3565 589.475 63.3565C590.957 63.3565 592.006 62.4923 592.13 61.0108L594.105 61.1343C593.735 63.4182 592.191 64.8997 589.537 64.8997C585.895 64.8997 584.846 62.3688 584.475 58.7886C583.858 53.0478 590.71 50.7022 593.549 54.838C593.796 55.2701 593.858 55.7022 593.981 56.196L592.006 56.3812C591.759 55.0849 591.019 54.2207 589.475 54.2207" fill="#333333" fill-rule="nonzero" opacity="1" stroke="none"/>
<path d="M601.204 54.2207C596.759 54.2207 598.488 60.517 598.179 64.6528L596.204 64.6528L596.204 48.5417L598.179 48.5417L598.117 54.8997C598.858 53.6034 599.846 52.6775 601.883 52.6775C607.377 52.6775 605.154 59.838 605.586 64.6528L603.611 64.6528L603.611 57.1836C603.735 55.2083 603.117 54.159 601.204 54.2207" fill="#333333" fill-rule="nonzero" opacity="1" stroke="none"/>
<path d="M613.179 52.6775C617.068 52.6775 618.488 55.2701 618.364 59.2207L610.031 59.2207C610.031 61.6898 610.895 63.3565 613.302 63.4182C614.907 63.4799 615.957 62.6775 616.327 61.6281L618.056 62.1219C617.377 63.8503 615.772 64.8997 613.302 64.8997C609.722 64.8997 607.87 62.6157 607.932 58.7269C607.994 54.9614 609.537 52.6775 613.179 52.6775ZM616.389 57.6775C616.759 53.9738 611.698 52.9244 610.401 55.9491C610.216 56.3812 610.031 56.9985 610.031 57.6775L616.389 57.6775" fill="#333333" fill-rule="nonzero" opacity="1" stroke="none"/>
<path d="M624.599 52.6775C626.512 52.6775 627.562 53.4799 628.302 54.7145L628.241 48.5417L630.216 48.5417L630.278 64.6528L628.426 64.6528C628.302 64.0355 628.426 63.233 628.241 62.7392C627.623 64.159 626.512 64.8997 624.599 64.8997C621.327 64.8997 620.34 62.4923 620.278 58.8503C620.278 54.7762 621.698 52.6775 624.599 52.6775ZM625.154 54.159C622.685 54.159 622.315 56.2577 622.315 58.7886C622.315 61.2577 622.685 63.3565 625.093 63.3565C627.685 63.3565 628.241 61.3812 628.241 58.6651C628.241 56.0725 627.685 54.0972 625.154 54.159" fill="#333333" fill-rule="nonzero" opacity="1" stroke="none"/>
<path d="M636.883 64.8997C631.389 65.1466 633.549 57.7392 633.117 52.9244L635.093 52.9244L635.093 60.3318C635.093 62.2454 635.525 63.4182 637.5 63.3565C641.944 63.233 640.278 57.1219 640.586 52.9244L642.5 52.9244L642.562 64.6528L640.71 64.6528C640.648 64.0355 640.772 63.1096 640.586 62.6157C639.907 63.9738 638.858 64.838 636.883 64.8997" fill="#333333" fill-rule="nonzero" opacity="1" stroke="none"/>
<path d="M645.525 64.6528L645.525 48.5417L647.5 48.5417L647.5 64.6528L645.525 64.6528" fill="#333333" fill-rule="nonzero" opacity="1" stroke="none"/>
<path d="M655.093 52.6775C658.981 52.6775 660.401 55.2701 660.278 59.2207L651.944 59.2207C651.944 61.6898 652.809 63.3565 655.216 63.4182C656.821 63.4799 657.87 62.6775 658.241 61.6281L659.969 62.1219C659.29 63.8503 657.685 64.8997 655.216 64.8997C651.636 64.8997 649.784 62.6157 649.846 58.7269C649.907 54.9614 651.451 52.6775 655.093 52.6775ZM658.302 57.6775C658.673 53.9738 653.611 52.9244 652.315 55.9491C652.13 56.3812 651.944 56.9985 651.944 57.6775L658.302 57.6775" fill="#333333" fill-rule="nonzero" opacity="1" stroke="none"/>
</g>
<g opacity="1">
<path d="M596.636 80.2701C596.019 78.5417 594.475 77.4923 592.13 77.4923C588.488 77.4923 586.759 79.9614 586.759 83.6034C586.759 87.3071 588.549 89.838 592.253 89.838C594.907 89.838 596.08 88.3565 597.068 86.6281L598.735 87.4923C597.623 89.838 595.586 91.5664 592.13 91.5664C587.191 91.5664 584.907 88.4799 584.66 83.6034C584.29 77.1836 590.772 74.1589 596.204 76.7515C597.377 77.3071 598.117 78.3565 598.611 79.591" fill="#333333" fill-rule="nonzero" opacity="1" stroke="none"/>
<path d="M606.08 80.8873C601.636 80.8873 603.364 87.1836 603.056 91.3194L601.08 91.3194L601.08 75.2083L603.056 75.2083L602.994 81.5664C603.735 80.2701 604.722 79.3441 606.759 79.3441C612.253 79.3441 610.031 86.5046 610.463 91.3194L608.488 91.3194L608.488 83.8503C608.611 81.875 607.994 80.8256 606.08 80.8873" fill="#333333" fill-rule="nonzero" opacity="1" stroke="none"/>
<path d="M618.056 79.3441C621.944 79.3441 623.364 81.9367 623.241 85.8873L614.907 85.8873C614.907 88.3565 615.772 90.0231 618.179 90.0849C619.784 90.1466 620.833 89.3441 621.204 88.2948L622.932 88.7886C622.253 90.517 620.648 91.5664 618.179 91.5664C614.599 91.5664 612.747 89.2824 612.809 85.3935C612.87 81.6281 614.414 79.3441 618.056 79.3441ZM621.265 84.3441C621.636 80.6404 616.574 79.591 615.278 82.6157C615.093 83.0478 614.907 83.6651 614.907 84.3441L621.265 84.3441" fill="#333333" fill-rule="nonzero" opacity="1" stroke="none"/>
<path d="M630.154 80.8873C627.685 80.8873 627.191 82.9244 627.191 85.3935C627.191 87.8627 627.747 90.0231 630.154 90.0231C631.636 90.0231 632.685 89.1589 632.809 87.6775L634.784 87.8009C634.414 90.0849 632.87 91.5664 630.216 91.5664C626.574 91.5664 625.525 89.0355 625.154 85.4552C624.537 79.7145 631.389 77.3688 634.228 81.5046C634.475 81.9367 634.537 82.3688 634.66 82.8627L632.685 83.0478C632.438 81.7515 631.698 80.8873 630.154 80.8873" fill="#333333" fill-rule="nonzero" opacity="1" stroke="none"/>
<path d="M644.167 91.3194L640.216 85.9491L638.796 87.1219L638.796 91.3194L636.821 91.3194L636.821 75.2083L638.796 75.2083L638.796 85.2701L643.92 79.591L646.204 79.591L641.451 84.6528L646.512 91.3194L644.167 91.3194" fill="#333333" fill-rule="nonzero" opacity="1" stroke="none"/>
</g>
<path d="M775.4 28.8367C777.94 26.7167 782.06 26.7167 784.6 28.8367L835.4 71.1567C837.94 73.2567 837.94 76.7067 835.4 78.8267L784.6 121.147C782.06 123.247 777.94 123.247 775.4 121.147L724.6 78.8167C722.06 76.6967 722.06 73.2567 724.6 71.1367L775.4 28.8367Z" fill="#ffce00" fill-rule="nonzero" opacity="1" stroke="#5e5e5e" stroke-linecap="butt" stroke-linejoin="miter" stroke-width="3"/>
<g opacity="1">
<path d="M744.82 63.4066C750.19 63.4684 756.61 62.4807 756.61 68.0363C756.61 72.8511 751.857 72.9745 746.857 72.7276L746.857 78.7153L744.82 78.7153L744.82 63.4066ZM746.857 71.1227C750.375 71.1227 754.511 71.8017 754.511 68.0363C754.511 64.3943 750.314 65.135 746.857 65.0733L746.857 71.1227" fill="#333333" fill-rule="nonzero" opacity="1" stroke="none"/>
<path d="M766.486 76.4931C765.561 77.7894 764.573 79.0239 762.289 78.9622C760.067 78.9005 758.709 77.6659 758.709 75.4437C758.647 71.4931 762.598 71.5548 766.425 71.5548C766.61 69.3943 765.869 68.2215 763.894 68.2215C762.412 68.2832 761.363 68.6536 761.301 70.135L759.264 69.9498C759.573 67.6659 761.301 66.74 763.956 66.74C766.733 66.74 768.4 67.9745 768.4 70.6906L768.4 75.7523C768.338 76.9869 768.832 77.7276 770.128 77.419L770.128 78.6536C768.215 79.2091 766.363 78.5301 766.486 76.4931ZM760.746 75.4437C760.746 76.6782 761.486 77.4807 762.721 77.4807C765.252 77.2955 766.61 75.6906 766.425 72.9128C763.77 73.0363 760.746 72.6042 760.746 75.4437" fill="#333333" fill-rule="nonzero" opacity="1" stroke="none"/>
<path d="M778.462 69.8881C778.277 67.7894 773.153 67.5424 773.091 69.8881C774.017 73.1597 780.19 70.6289 780.437 75.4437C780.684 80.2585 771.178 80.0116 770.746 75.9375L772.474 75.6289C772.721 77.8511 778.462 78.4066 778.524 75.6289C777.906 72.1721 771.548 74.7029 771.24 70.0733C770.993 66.5548 776.301 66.1844 778.77 67.4807C779.511 67.9128 780.067 68.6536 780.252 69.6412" fill="#333333" fill-rule="nonzero" opacity="1" stroke="none"/>
<path d="M789.573 69.8881C789.388 67.7894 784.264 67.5424 784.203 69.8881C785.128 73.1597 791.301 70.6289 791.548 75.4437C791.795 80.2585 782.289 80.0116 781.857 75.9375L783.585 75.6289C783.832 77.8511 789.573 78.4066 789.635 75.6289C789.017 72.1721 782.659 74.7029 782.351 70.0733C782.104 66.5548 787.412 66.1844 789.882 67.4807C790.622 67.9128 791.178 68.6536 791.363 69.6412" fill="#333333" fill-rule="nonzero" opacity="1" stroke="none"/>
<path d="M798.524 66.74C802.412 66.74 803.832 69.3326 803.709 73.2832L795.375 73.2832C795.375 75.7523 796.24 77.419 798.647 77.4807C800.252 77.5424 801.301 76.74 801.672 75.6906L803.4 76.1844C802.721 77.9128 801.116 78.9622 798.647 78.9622C795.067 78.9622 793.215 76.6782 793.277 72.7894C793.338 69.0239 794.882 66.74 798.524 66.74ZM801.733 71.74C802.104 68.0363 797.042 66.9869 795.746 70.0116C795.561 70.4437 795.375 71.061 795.375 71.74L801.733 71.74" fill="#333333" fill-rule="nonzero" opacity="1" stroke="none"/>
<path d="M809.943 66.74C811.857 66.74 812.906 67.5424 813.647 68.777L813.585 62.6042L815.561 62.6042L815.622 78.7153L813.77 78.7153C813.647 78.098 813.77 77.2955 813.585 76.8017C812.968 78.2215 811.857 78.9622 809.943 78.9622C806.672 78.9622 805.684 76.5548 805.622 72.9128C805.622 68.8387 807.042 66.74 809.943 66.74ZM810.499 68.2215C808.03 68.2215 807.659 70.3202 807.659 72.8511C807.659 75.3202 808.03 77.419 810.437 77.419C813.03 77.419 813.585 75.4437 813.585 72.7276C813.585 70.135 813.03 68.1597 810.499 68.2215" fill="#333333" fill-rule="nonzero" opacity="1" stroke="none"/>
</g>
<path d="M880 25.9967C880 22.6967 882.7 19.9967 886 19.9967L1004 19.9967C1007.3 19.9967 1010 22.6967 1010 25.9967L1010 123.997C1010 127.317 1007.3 129.997 1004 129.997L886 129.997C882.7 129.997 880 127.317 880 123.997L880 25.9967Z" fill="#00eae4" fill-rule="nonzero" opacity="1" stroke="#5e5e5e" stroke-linecap="butt" stroke-linejoin="miter" stroke-width="3"/>
<g opacity="1">
<path d="M918.488 49.3441C923.858 49.4059 930.278 48.4182 930.278 53.9738C930.278 58.7886 925.525 58.912 920.525 58.6651L920.525 64.6528L918.488 64.6528L918.488 49.3441ZM920.525 57.0602C924.043 57.0602 928.179 57.7392 928.179 53.9738C928.179 50.3318 923.981 51.0725 920.525 51.0108L920.525 57.0602" fill="#333333" fill-rule="nonzero" opacity="1" stroke="none"/>
<path d="M938.488 54.5911C933.673 53.6034 935.216 60.2083 934.969 64.6528L932.994 64.6528L932.932 52.9244L934.784 52.9244C934.846 53.6651 934.722 54.7145 934.907 55.3318C935.278 53.6651 936.327 52.3071 938.488 52.8009L938.488 54.5911" fill="#333333" fill-rule="nonzero" opacity="1" stroke="none"/>
<path d="M944.969 52.6775C948.796 52.6157 950.216 54.9614 950.216 58.7886C950.278 62.6775 948.549 64.8997 944.907 64.8997C941.265 64.8997 939.784 62.4923 939.722 58.7886C939.722 54.7145 941.451 52.6775 944.969 52.6775ZM944.907 63.4182C947.623 63.4799 948.179 61.5046 948.179 58.7886C948.179 56.1343 947.685 54.159 945.031 54.159C942.377 54.159 941.759 56.1343 941.759 58.7886C941.759 61.4429 942.377 63.3565 944.907 63.4182" fill="#333333" fill-rule="nonzero" opacity="1" stroke="none"/>
<path d="M959.846 64.6528L956.698 59.838L953.488 64.6528L951.389 64.6528L955.586 58.6034L951.574 52.9244L953.735 52.9244L956.698 57.4923L959.599 52.9244L961.759 52.9244L957.809 58.6034L962.006 64.6528L959.846 64.6528" fill="#333333" fill-rule="nonzero" opacity="1" stroke="none"/>
<path d="M973.302 52.9244L967.994 66.5664C967.13 68.2948 965.71 69.7145 962.994 69.159L962.994 67.6775C965.401 68.0478 966.265 66.4429 966.944 64.5911L962.315 52.9244L964.414 52.9244L967.932 62.554L971.265 52.9244L973.302 52.9244" fill="#333333" fill-rule="nonzero" opacity="1" stroke="none"/>
</g>
<g opacity="1">
<path d="M926.636 80.2701C926.019 78.5417 924.475 77.4923 922.13 77.4923C918.488 77.4923 916.759 79.9614 916.759 83.6034C916.759 87.3071 918.549 89.838 922.253 89.838C924.907 89.838 926.08 88.3565 927.068 86.6281L928.735 87.4923C927.623 89.838 925.586 91.5664 922.13 91.5664C917.191 91.5664 914.907 88.4799 914.66 83.6034C914.29 77.1836 920.772 74.1589 926.204 76.7515C927.377 77.3071 928.117 78.3565 928.611 79.591" fill="#333333" fill-rule="nonzero" opacity="1" stroke="none"/>
<path d="M936.08 80.8873C931.636 80.8873 933.364 87.1836 933.056 91.3194L931.08 91.3194L931.08 75.2083L933.056 75.2083L932.994 81.5664C933.735 80.2701 934.722 79.3441 936.759 79.3441C942.253 79.3441 940.031 86.5046 940.463 91.3194L938.488 91.3194L938.488 83.8503C938.611 81.875 937.994 80.8256 936.08 80.8873" fill="#333333" fill-rule="nonzero" opacity="1" stroke="none"/>
<path d="M948.056 79.3441C951.944 79.3441 953.364 81.9367 953.241 85.8873L944.907 85.8873C944.907 88.3565 945.772 90.0231 948.179 90.0849C949.784 90.1466 950.833 89.3441 951.204 88.2948L952.932 88.7886C952.253 90.517 950.648 91.5664 948.179 91.5664C944.599 91.5664 942.747 89.2824 942.809 85.3935C942.87 81.6281 944.414 79.3441 948.056 79.3441ZM951.265 84.3441C951.636 80.6404 946.574 79.591 945.278 82.6157C945.093 83.0478 944.907 83.6651 944.907 84.3441L951.265 84.3441" fill="#333333" fill-rule="nonzero" opacity="1" stroke="none"/>
<path d="M960.154 80.8873C957.685 80.8873 957.191 82.9244 957.191 85.3935C957.191 87.8627 957.747 90.0231 960.154 90.0231C961.636 90.0231 962.685 89.1589 962.809 87.6775L964.784 87.8009C964.414 90.0849 962.87 91.5664 960.216 91.5664C956.574 91.5664 955.525 89.0355 955.154 85.4552C954.537 79.7145 961.389 77.3688 964.228 81.5046C964.475 81.9367 964.537 82.3688 964.66 82.8627L962.685 83.0478C962.438 81.7515 961.698 80.8873 960.154 80.8873" fill="#333333" fill-rule="nonzero" opacity="1" stroke="none"/>
<path d="M974.167 91.3194L970.216 85.9491L968.796 87.1219L968.796 91.3194L966.821 91.3194L966.821 75.2083L968.796 75.2083L968.796 85.2701L973.92 79.591L976.204 79.591L971.451 84.6528L976.512 91.3194L974.167 91.3194" fill="#333333" fill-rule="nonzero" opacity="1" stroke="none"/>
</g>
<path d="M1105.4 28.8367C1107.94 26.7167 1112.06 26.7167 1114.6 28.8367L1165.4 71.1567C1167.94 73.2567 1167.94 76.7067 1165.4 78.8267L1114.6 121.147C1112.06 123.247 1107.94 123.247 1105.4 121.147L1054.6 78.8167C1052.06 76.6967 1052.06 73.2567 1054.6 71.1367L1105.4 28.8367Z" fill="#ffce00" fill-rule="nonzero" opacity="1" stroke="#5e5e5e" stroke-linecap="butt" stroke-linejoin="miter" stroke-width="3"/>
<g opacity="1">
<path d="M1074.82 63.4066C1080.19 63.4684 1086.61 62.4807 1086.61 68.0363C1086.61 72.8511 1081.86 72.9745 1076.86 72.7276L1076.86 78.7153L1074.82 78.7153L1074.82 63.4066ZM1076.86 71.1227C1080.38 71.1227 1084.51 71.8017 1084.51 68.0363C1084.51 64.3943 1080.31 65.135 1076.86 65.0733L1076.86 71.1227" fill="#333333" fill-rule="nonzero" opacity="1" stroke="none"/>
<path d="M1096.49 76.4931C1095.56 77.7894 1094.57 79.0239 1092.29 78.9622C1090.07 78.9005 1088.71 77.6659 1088.71 75.4437C1088.65 71.4931 1092.6 71.5548 1096.42 71.5548C1096.61 69.3943 1095.87 68.2215 1093.89 68.2215C1092.41 68.2832 1091.36 68.6536 1091.3 70.135L1089.26 69.9498C1089.57 67.6659 1091.3 66.74 1093.96 66.74C1096.73 66.74 1098.4 67.9745 1098.4 70.6906L1098.4 75.7523C1098.34 76.9869 1098.83 77.7276 1100.13 77.419L1100.13 78.6536C1098.21 79.2091 1096.36 78.5301 1096.49 76.4931ZM1090.75 75.4437C1090.75 76.6782 1091.49 77.4807 1092.72 77.4807C1095.25 77.2955 1096.61 75.6906 1096.42 72.9128C1093.77 73.0363 1090.75 72.6042 1090.75 75.4437" fill="#333333" fill-rule="nonzero" opacity="1" stroke="none"/>
<path d="M1108.46 69.8881C1108.28 67.7894 1103.15 67.5424 1103.09 69.8881C1104.02 73.1597 1110.19 70.6289 1110.44 75.4437C1110.68 80.2585 1101.18 80.0116 1100.75 75.9375L1102.47 75.6289C1102.72 77.8511 1108.46 78.4066 1108.52 75.6289C1107.91 72.1721 1101.55 74.7029 1101.24 70.0733C1100.99 66.5548 1106.3 66.1844 1108.77 67.4807C1109.51 67.9128 1110.07 68.6536 1110.25 69.6412" fill="#333333" fill-rule="nonzero" opacity="1" stroke="none"/>
<path d="M1119.57 69.8881C1119.39 67.7894 1114.26 67.5424 1114.2 69.8881C1115.13 73.1597 1121.3 70.6289 1121.55 75.4437C1121.8 80.2585 1112.29 80.0116 1111.86 75.9375L1113.59 75.6289C1113.83 77.8511 1119.57 78.4066 1119.63 75.6289C1119.02 72.1721 1112.66 74.7029 1112.35 70.0733C1112.1 66.5548 1117.41 66.1844 1119.88 67.4807C1120.62 67.9128 1121.18 68.6536 1121.36 69.6412" fill="#333333" fill-rule="nonzero" opacity="1" stroke="none"/>
<path d="M1128.52 66.74C1132.41 66.74 1133.83 69.3326 1133.71 73.2832L1125.38 73.2832C1125.38 75.7523 1126.24 77.419 1128.65 77.4807C1130.25 77.5424 1131.3 76.74 1131.67 75.6906L1133.4 76.1844C1132.72 77.9128 1131.12 78.9622 1128.65 78.9622C1125.07 78.9622 1123.21 76.6782 1123.28 72.7894C1123.34 69.0239 1124.88 66.74 1128.52 66.74ZM1131.73 71.74C1132.1 68.0363 1127.04 66.9869 1125.75 70.0116C1125.56 70.4437 1125.38 71.061 1125.38 71.74L1131.73 71.74" fill="#333333" fill-rule="nonzero" opacity="1" stroke="none"/>
<path d="M1139.94 66.74C1141.86 66.74 1142.91 67.5424 1143.65 68.777L1143.59 62.6042L1145.56 62.6042L1145.62 78.7153L1143.77 78.7153C1143.65 78.098 1143.77 77.2955 1143.59 76.8017C1142.97 78.2215 1141.86 78.9622 1139.94 78.9622C1136.67 78.9622 1135.68 76.5548 1135.62 72.9128C1135.62 68.8387 1137.04 66.74 1139.94 66.74ZM1140.5 68.2215C1138.03 68.2215 1137.66 70.3202 1137.66 72.8511C1137.66 75.3202 1138.03 77.419 1140.44 77.419C1143.03 77.419 1143.59 75.4437 1143.59 72.7276C1143.59 70.135 1143.03 68.1597 1140.5 68.2215" fill="#333333" fill-rule="nonzero" opacity="1" stroke="none"/>
</g>
<path d="M1210 25.9967C1210 22.6967 1212.7 19.9967 1216 19.9967L1334 19.9967C1337.3 19.9967 1340 22.6967 1340 25.9967L1340 123.997C1340 127.317 1337.3 129.997 1334 129.997L1216 129.997C1212.7 129.997 1210 127.317 1210 123.997L1210 25.9967Z" fill="#00eae4" fill-rule="nonzero" opacity="1" stroke="#5e5e5e" stroke-linecap="butt" stroke-linejoin="miter" stroke-width="3"/>
<g opacity="1">
<path d="M1238.67 49.3441C1245.96 48.912 1252.01 49.838 1251.82 56.875C1251.64 61.6898 1249.17 64.6528 1244.35 64.6528L1238.67 64.6528L1238.67 49.3441ZM1240.71 62.9861C1246.2 63.4799 1249.72 61.9985 1249.72 56.875C1249.72 51.7515 1246.02 50.6404 1240.71 51.0108L1240.71 62.9861" fill="#333333" fill-rule="nonzero" opacity="1" stroke="none"/>
<path d="M1258.98 52.6775C1262.81 52.6157 1264.23 54.9614 1264.23 58.7886C1264.29 62.6775 1262.56 64.8997 1258.92 64.8997C1255.28 64.8997 1253.8 62.4923 1253.73 58.7886C1253.73 54.7145 1255.46 52.6775 1258.98 52.6775ZM1258.92 63.4182C1261.64 63.4799 1262.19 61.5046 1262.19 58.7886C1262.19 56.1343 1261.7 54.159 1259.04 54.159C1256.39 54.159 1255.77 56.1343 1255.77 58.7886C1255.77 61.4429 1256.39 63.3565 1258.92 63.4182" fill="#333333" fill-rule="nonzero" opacity="1" stroke="none"/>
<path d="M1278.12 54.2207C1273.98 54.4059 1275.77 60.7022 1275.4 64.6528L1273.49 64.6528L1273.49 57.1836C1273.49 55.3935 1273.18 54.0972 1271.33 54.2207C1267.25 54.4676 1268.98 60.6404 1268.61 64.6528L1266.7 64.6528L1266.64 52.9244L1268.49 52.9244C1268.55 53.5417 1268.43 54.4059 1268.61 54.8997C1269.23 52.1836 1274.72 51.8133 1275.22 54.8997C1275.9 53.6034 1276.88 52.7392 1278.8 52.6775C1284.04 52.554 1281.7 60.0231 1282.19 64.6528L1280.28 64.6528L1280.28 57.1836C1280.28 55.3935 1279.97 54.159 1278.12 54.2207" fill="#333333" fill-rule="nonzero" opacity="1" stroke="none"/>
<path d="M1292.31 62.4306C1291.39 63.7269 1290.4 64.9614 1288.12 64.8997C1285.9 64.838 1284.54 63.6034 1284.54 61.3812C1284.48 57.4306 1288.43 57.4923 1292.25 57.4923C1292.44 55.3318 1291.7 54.159 1289.72 54.159C1288.24 54.2207 1287.19 54.5911 1287.13 56.0725L1285.09 55.8873C1285.4 53.6034 1287.13 52.6775 1289.78 52.6775C1292.56 52.6775 1294.23 53.912 1294.23 56.6281L1294.23 61.6898C1294.17 62.9244 1294.66 63.6651 1295.96 63.3565L1295.96 64.5911C1294.04 65.1466 1292.19 64.4676 1292.31 62.4306ZM1286.57 61.3812C1286.57 62.6157 1287.31 63.4182 1288.55 63.4182C1291.08 63.233 1292.44 61.6281 1292.25 58.8503C1289.6 58.9738 1286.57 58.5417 1286.57 61.3812" fill="#333333" fill-rule="nonzero" opacity="1" stroke="none"/>
<path d="M1297.44 50.3935L1297.44 48.5417L1299.41 48.5417L1299.41 50.3935L1297.44 50.3935ZM1297.44 64.6528L1297.44 52.9244L1299.41 52.9244L1299.41 64.6528L1297.44 64.6528" fill="#333333" fill-rule="nonzero" opacity="1" stroke="none"/>
<path d="M1308.06 52.6775C1313.55 52.4306 1311.33 59.838 1311.76 64.6528L1309.78 64.6528L1309.78 57.1836C1309.78 55.2701 1309.29 54.159 1307.38 54.2207C1302.93 54.3441 1304.66 60.517 1304.35 64.6528L1302.38 64.6528L1302.31 52.9244L1304.17 52.9244C1304.23 53.5417 1304.1 54.4059 1304.29 54.8997C1304.97 53.5417 1306.08 52.7392 1308.06 52.6775" fill="#333333" fill-rule="nonzero" opacity="1" stroke="none"/>
</g>
<g opacity="1">
<path d="M1256.64 80.2701C1256.02 78.5417 1254.48 77.4923 1252.13 77.4923C1248.49 77.4923 1246.76 79.9614 1246.76 83.6034C1246.76 87.3071 1248.55 89.838 1252.25 89.838C1254.91 89.838 1256.08 88.3565 1257.07 86.6281L1258.73 87.4923C1257.62 89.838 1255.59 91.5664 1252.13 91.5664C1247.19 91.5664 1244.91 88.4799 1244.66 83.6034C1244.29 77.1836 1250.77 74.1589 1256.2 76.7515C1257.38 77.3071 1258.12 78.3565 1258.61 79.591" fill="#333333" fill-rule="nonzero" opacity="1" stroke="none"/>
<path d="M1266.08 80.8873C1261.64 80.8873 1263.36 87.1836 1263.06 91.3194L1261.08 91.3194L1261.08 75.2083L1263.06 75.2083L1262.99 81.5664C1263.73 80.2701 1264.72 79.3441 1266.76 79.3441C1272.25 79.3441 1270.03 86.5046 1270.46 91.3194L1268.49 91.3194L1268.49 83.8503C1268.61 81.875 1267.99 80.8256 1266.08 80.8873" fill="#333333" fill-rule="nonzero" opacity="1" stroke="none"/>
<path d="M1278.06 79.3441C1281.94 79.3441 1283.36 81.9367 1283.24 85.8873L1274.91 85.8873C1274.91 88.3565 1275.77 90.0231 1278.18 90.0849C1279.78 90.1466 1280.83 89.3441 1281.2 88.2948L1282.93 88.7886C1282.25 90.517 1280.65 91.5664 1278.18 91.5664C1274.6 91.5664 1272.75 89.2824 1272.81 85.3935C1272.87 81.6281 1274.41 79.3441 1278.06 79.3441ZM1281.27 84.3441C1281.64 80.6404 1276.57 79.591 1275.28 82.6157C1275.09 83.0478 1274.91 83.6651 1274.91 84.3441L1281.27 84.3441" fill="#333333" fill-rule="nonzero" opacity="1" stroke="none"/>
<path d="M1290.15 80.8873C1287.69 80.8873 1287.19 82.9244 1287.19 85.3935C1287.19 87.8627 1287.75 90.0231 1290.15 90.0231C1291.64 90.0231 1292.69 89.1589 1292.81 87.6775L1294.78 87.8009C1294.41 90.0849 1292.87 91.5664 1290.22 91.5664C1286.57 91.5664 1285.52 89.0355 1285.15 85.4552C1284.54 79.7145 1291.39 77.3688 1294.23 81.5046C1294.48 81.9367 1294.54 82.3688 1294.66 82.8627L1292.69 83.0478C1292.44 81.7515 1291.7 80.8873 1290.15 80.8873" fill="#333333" fill-rule="nonzero" opacity="1" stroke="none"/>
<path d="M1304.17 91.3194L1300.22 85.9491L1298.8 87.1219L1298.8 91.3194L1296.82 91.3194L1296.82 75.2083L1298.8 75.2083L1298.8 85.2701L1303.92 79.591L1306.2 79.591L1301.45 84.6528L1306.51 91.3194L1304.17 91.3194" fill="#333333" fill-rule="nonzero" opacity="1" stroke="none"/>
</g>
<path d="M1435.4 28.8367C1437.94 26.7167 1442.06 26.7167 1444.6 28.8367L1495.4 71.1567C1497.94 73.2567 1497.94 76.7067 1495.4 78.8267L1444.6 121.147C1442.06 123.247 1437.94 123.247 1435.4 121.147L1384.6 78.8167C1382.06 76.6967 1382.06 73.2567 1384.6 71.1367L1435.4 28.8367Z" fill="#ffce00" fill-rule="nonzero" opacity="1" stroke="#5e5e5e" stroke-linecap="butt" stroke-linejoin="miter" stroke-width="3"/>
<g opacity="1">
<path d="M1404.82 63.4066C1410.19 63.4684 1416.61 62.4807 1416.61 68.0363C1416.61 72.8511 1411.86 72.9745 1406.86 72.7276L1406.86 78.7153L1404.82 78.7153L1404.82 63.4066ZM1406.86 71.1227C1410.38 71.1227 1414.51 71.8017 1414.51 68.0363C1414.51 64.3943 1410.31 65.135 1406.86 65.0733L1406.86 71.1227" fill="#333333" fill-rule="nonzero" opacity="1" stroke="none"/>
<path d="M1426.49 76.4931C1425.56 77.7894 1424.57 79.0239 1422.29 78.9622C1420.07 78.9005 1418.71 77.6659 1418.71 75.4437C1418.65 71.4931 1422.6 71.5548 1426.42 71.5548C1426.61 69.3943 1425.87 68.2215 1423.89 68.2215C1422.41 68.2832 1421.36 68.6536 1421.3 70.135L1419.26 69.9498C1419.57 67.6659 1421.3 66.74 1423.96 66.74C1426.73 66.74 1428.4 67.9745 1428.4 70.6906L1428.4 75.7523C1428.34 76.9869 1428.83 77.7276 1430.13 77.419L1430.13 78.6536C1428.21 79.2091 1426.36 78.5301 1426.49 76.4931ZM1420.75 75.4437C1420.75 76.6782 1421.49 77.4807 1422.72 77.4807C1425.25 77.2955 1426.61 75.6906 1426.42 72.9128C1423.77 73.0363 1420.75 72.6042 1420.75 75.4437" fill="#333333" fill-rule="nonzero" opacity="1" stroke="none"/>
<path d="M1438.46 69.8881C1438.28 67.7894 1433.15 67.5424 1433.09 69.8881C1434.02 73.1597 1440.19 70.6289 1440.44 75.4437C1440.68 80.2585 1431.18 80.0116 1430.75 75.9375L1432.47 75.6289C1432.72 77.8511 1438.46 78.4066 1438.52 75.6289C1437.91 72.1721 1431.55 74.7029 1431.24 70.0733C1430.99 66.5548 1436.3 66.1844 1438.77 67.4807C1439.51 67.9128 1440.07 68.6536 1440.25 69.6412" fill="#333333" fill-rule="nonzero" opacity="1" stroke="none"/>
<path d="M1449.57 69.8881C1449.39 67.7894 1444.26 67.5424 1444.2 69.8881C1445.13 73.1597 1451.3 70.6289 1451.55 75.4437C1451.8 80.2585 1442.29 80.0116 1441.86 75.9375L1443.59 75.6289C1443.83 77.8511 1449.57 78.4066 1449.63 75.6289C1449.02 72.1721 1442.66 74.7029 1442.35 70.0733C1442.1 66.5548 1447.41 66.1844 1449.88 67.4807C1450.62 67.9128 1451.18 68.6536 1451.36 69.6412" fill="#333333" fill-rule="nonzero" opacity="1" stroke="none"/>
<path d="M1458.52 66.74C1462.41 66.74 1463.83 69.3326 1463.71 73.2832L1455.38 73.2832C1455.38 75.7523 1456.24 77.419 1458.65 77.4807C1460.25 77.5424 1461.3 76.74 1461.67 75.6906L1463.4 76.1844C1462.72 77.9128 1461.12 78.9622 1458.65 78.9622C1455.07 78.9622 1453.21 76.6782 1453.28 72.7894C1453.34 69.0239 1454.88 66.74 1458.52 66.74ZM1461.73 71.74C1462.1 68.0363 1457.04 66.9869 1455.75 70.0116C1455.56 70.4437 1455.38 71.061 1455.38 71.74L1461.73 71.74" fill="#333333" fill-rule="nonzero" opacity="1" stroke="none"/>
<path d="M1469.94 66.74C1471.86 66.74 1472.91 67.5424 1473.65 68.777L1473.59 62.6042L1475.56 62.6042L1475.62 78.7153L1473.77 78.7153C1473.65 78.098 1473.77 77.2955 1473.59 76.8017C1472.97 78.2215 1471.86 78.9622 1469.94 78.9622C1466.67 78.9622 1465.68 76.5548 1465.62 72.9128C1465.62 68.8387 1467.04 66.74 1469.94 66.74ZM1470.5 68.2215C1468.03 68.2215 1467.66 70.3202 1467.66 72.8511C1467.66 75.3202 1468.03 77.419 1470.44 77.419C1473.03 77.419 1473.59 75.4437 1473.59 72.7276C1473.59 70.135 1473.03 68.1597 1470.5 68.2215" fill="#333333" fill-rule="nonzero" opacity="1" stroke="none"/>
</g>
<path d="M513.34 75.9967L509.79 75.9967L509.79 73.9967L513.33 73.9967L513.34 75.9967Z" fill="#5e5e5e" fill-rule="nonzero" opacity="1" stroke="none"/>
<path d="M509.82 75.9967L508.62 75.9967L508.84 75.2267L508.59 73.9967L509.81 73.9967L509.82 75.9967ZM545.26 74.9967L543.96 75.4267L543.96 74.5767L545.26 74.9967Z" fill="#5e5e5e" fill-rule="nonzero" opacity="1" stroke="none"/>
<path d="M548.5 74.9967L543.95 76.4767L543.95 73.5367L548.5 74.9967Z" fill="#5e5e5e" fill-rule="nonzero" opacity="1" stroke="none"/>
<g opacity="1">
<path d="M520.547 73.5185L520.547 78.5555L517.979 78.5555L517.979 73.5185L513.634 66.3086L516.3 66.3086L519.263 71.4938L522.226 66.3086L524.893 66.3086" fill="#333333" fill-rule="nonzero" opacity="1" stroke="none"/>
<path d="M533.338 76.1852C532.696 77.6666 531.51 78.8024 529.288 78.7531C526.325 78.6543 524.893 76.9259 524.893 73.8148C524.893 70.7037 526.375 68.9753 529.338 68.9753C532.399 68.9753 533.436 71.1975 533.486 74.3086L527.461 74.3086C527.461 75.8395 527.856 77.0247 529.387 77.0741C530.276 77.0741 530.868 76.7284 531.066 75.9876L533.338 76.1852ZM531.115 72.7778C531.362 70.5062 528.3 69.6666 527.659 71.7407C527.56 72.037 527.461 72.3827 527.461 72.7778L531.115 72.7778" fill="#333333" fill-rule="nonzero" opacity="1" stroke="none"/>
<path d="M540.844 71.7407C540.893 70.3086 537.387 70.0617 537.338 71.5432C538.078 73.8148 543.165 71.8889 543.214 75.7901C543.263 79.8889 535.115 79.5432 534.72 76.2345L536.844 75.8889C537.041 76.8271 537.831 77.1234 539.017 77.1234C540.646 77.5185 541.831 75.642 540.202 75.0987C538.078 74.4074 535.165 74.5555 535.066 71.8395C534.967 67.8889 542.671 68.1852 543.017 71.4938" fill="#333333" fill-rule="nonzero" opacity="1" stroke="none"/>
</g>
<path d="M682.5 74.9967L702.7 74.9967" fill="none" opacity="1" stroke="#5e5e5e" stroke-linecap="butt" stroke-linejoin="miter" stroke-width="2"/>
<path d="M682.53 75.9967L681.5 75.9967L681.5 73.9967L682.53 73.9967L682.53 75.9967Z" fill="#5e5e5e" fill-rule="nonzero" opacity="1" stroke="none"/>
<path d="M717.97 74.9967L703.71 79.6367L703.71 70.3667L717.97 74.9967Z" fill="#5e5e5e" fill-rule="nonzero" opacity="1" stroke="#5e5e5e" stroke-linecap="butt" stroke-linejoin="miter" stroke-width="2"/>
<path d="M843.34 75.9967L839.79 75.9967L839.79 73.9967L843.33 73.9967L843.34 75.9967Z" fill="#5e5e5e" fill-rule="nonzero" opacity="1" stroke="none"/>
<path d="M839.82 75.9967L838.62 75.9967L838.84 75.2267L838.59 73.9967L839.81 73.9967L839.82 75.9967ZM875.26 74.9967L873.96 75.4267L873.96 74.5767L875.26 74.9967Z" fill="#5e5e5e" fill-rule="nonzero" opacity="1" stroke="none"/>
<path d="M878.5 74.9967L873.95 76.4767L873.95 73.5367L878.5 74.9967Z" fill="#5e5e5e" fill-rule="nonzero" opacity="1" stroke="none"/>
<g opacity="1">
<path d="M850.547 73.5185L850.547 78.5555L847.979 78.5555L847.979 73.5185L843.634 66.3086L846.3 66.3086L849.263 71.4938L852.226 66.3086L854.893 66.3086" fill="#333333" fill-rule="nonzero" opacity="1" stroke="none"/>
<path d="M863.338 76.1852C862.696 77.6666 861.51 78.8024 859.288 78.7531C856.325 78.6543 854.893 76.9259 854.893 73.8148C854.893 70.7037 856.375 68.9753 859.338 68.9753C862.399 68.9753 863.436 71.1975 863.486 74.3086L857.461 74.3086C857.461 75.8395 857.856 77.0247 859.387 77.0741C860.276 77.0741 860.868 76.7284 861.066 75.9876L863.338 76.1852ZM861.115 72.7778C861.362 70.5062 858.3 69.6666 857.659 71.7407C857.56 72.037 857.461 72.3827 857.461 72.7778L861.115 72.7778" fill="#333333" fill-rule="nonzero" opacity="1" stroke="none"/>
<path d="M870.844 71.7407C870.893 70.3086 867.387 70.0617 867.338 71.5432C868.078 73.8148 873.165 71.8889 873.214 75.7901C873.263 79.8889 865.115 79.5432 864.72 76.2345L866.844 75.8889C867.041 76.8271 867.831 77.1234 869.017 77.1234C870.646 77.5185 871.831 75.642 870.202 75.0987C868.078 74.4074 865.165 74.5555 865.066 71.8395C864.967 67.8889 872.671 68.1852 873.017 71.4938" fill="#333333" fill-rule="nonzero" opacity="1" stroke="none"/>
</g>
<path d="M1012.5 74.9967L1032.7 74.9967" fill="none" opacity="1" stroke="#5e5e5e" stroke-linecap="butt" stroke-linejoin="miter" stroke-width="2"/>
<path d="M1012.53 75.9967L1011.5 75.9967L1011.5 73.9967L1012.53 73.9967L1012.53 75.9967Z" fill="#5e5e5e" fill-rule="nonzero" opacity="1" stroke="none"/>
<path d="M1047.97 74.9967L1033.71 79.6367L1033.71 70.3667L1047.97 74.9967Z" fill="#5e5e5e" fill-rule="nonzero" opacity="1" stroke="#5e5e5e" stroke-linecap="butt" stroke-linejoin="miter" stroke-width="2"/>
<path d="M1173.34 75.9967L1169.79 75.9967L1169.79 73.9967L1173.33 73.9967L1173.34 75.9967Z" fill="#5e5e5e" fill-rule="nonzero" opacity="1" stroke="none"/>
<path d="M1169.82 75.9967L1168.62 75.9967L1168.84 75.2267L1168.59 73.9967L1169.81 73.9967L1169.82 75.9967ZM1205.26 74.9967L1203.96 75.4267L1203.96 74.5767L1205.26 74.9967Z" fill="#5e5e5e" fill-rule="nonzero" opacity="1" stroke="none"/>
<path d="M1208.5 74.9967L1203.95 76.4767L1203.95 73.5367L1208.5 74.9967Z" fill="#5e5e5e" fill-rule="nonzero" opacity="1" stroke="none"/>
<g opacity="1">
<path d="M1180.55 73.5185L1180.55 78.5555L1177.98 78.5555L1177.98 73.5185L1173.63 66.3086L1176.3 66.3086L1179.26 71.4938L1182.23 66.3086L1184.89 66.3086" fill="#333333" fill-rule="nonzero" opacity="1" stroke="none"/>
<path d="M1193.34 76.1852C1192.7 77.6666 1191.51 78.8024 1189.29 78.7531C1186.33 78.6543 1184.89 76.9259 1184.89 73.8148C1184.89 70.7037 1186.37 68.9753 1189.34 68.9753C1192.4 68.9753 1193.44 71.1975 1193.49 74.3086L1187.46 74.3086C1187.46 75.8395 1187.86 77.0247 1189.39 77.0741C1190.28 77.0741 1190.87 76.7284 1191.07 75.9876L1193.34 76.1852ZM1191.12 72.7778C1191.36 70.5062 1188.3 69.6666 1187.66 71.7407C1187.56 72.037 1187.46 72.3827 1187.46 72.7778L1191.12 72.7778" fill="#333333" fill-rule="nonzero" opacity="1" stroke="none"/>
<path d="M1200.84 71.7407C1200.89 70.3086 1197.39 70.0617 1197.34 71.5432C1198.08 73.8148 1203.16 71.8889 1203.21 75.7901C1203.26 79.8889 1195.12 79.5432 1194.72 76.2345L1196.84 75.8889C1197.04 76.8271 1197.83 77.1234 1199.02 77.1234C1200.65 77.5185 1201.83 75.642 1200.2 75.0987C1198.08 74.4074 1195.16 74.5555 1195.07 71.8395C1194.97 67.8889 1202.67 68.1852 1203.02 71.4938" fill="#333333" fill-rule="nonzero" opacity="1" stroke="none"/>
</g>
<path d="M1342.5 74.9967L1362.7 74.9967" fill="none" opacity="1" stroke="#5e5e5e" stroke-linecap="butt" stroke-linejoin="miter" stroke-width="2"/>
<path d="M1342.53 75.9967L1341.5 75.9967L1341.5 73.9967L1342.53 73.9967L1342.53 75.9967Z" fill="#5e5e5e" fill-rule="nonzero" opacity="1" stroke="none"/>
<path d="M1377.97 74.9967L1363.71 79.6367L1363.71 70.3667L1377.97 74.9967Z" fill="#5e5e5e" fill-rule="nonzero" opacity="1" stroke="#5e5e5e" stroke-linecap="butt" stroke-linejoin="miter" stroke-width="2"/>
<path d="M1503.34 75.9967L1499.79 75.9967L1499.79 73.9967L1503.33 73.9967L1503.34 75.9967Z" fill="#5e5e5e" fill-rule="nonzero" opacity="1" stroke="none"/>
<path d="M1499.82 75.9967L1498.62 75.9967L1498.84 75.2267L1498.59 73.9967L1499.81 73.9967L1499.82 75.9967ZM1535.26 74.9967L1533.96 75.4267L1533.96 74.5767L1535.26 74.9967Z" fill="#5e5e5e" fill-rule="nonzero" opacity="1" stroke="none"/>
<path d="M1538.5 74.9967L1533.95 76.4767L1533.95 73.5367L1538.5 74.9967Z" fill="#5e5e5e" fill-rule="nonzero" opacity="1" stroke="none"/>
<g opacity="1">
<path d="M1510.55 73.5185L1510.55 78.5555L1507.98 78.5555L1507.98 73.5185L1503.63 66.3086L1506.3 66.3086L1509.26 71.4938L1512.23 66.3086L1514.89 66.3086" fill="#333333" fill-rule="nonzero" opacity="1" stroke="none"/>
<path d="M1523.34 76.1852C1522.7 77.6666 1521.51 78.8024 1519.29 78.7531C1516.32 78.6543 1514.89 76.9259 1514.89 73.8148C1514.89 70.7037 1516.37 68.9753 1519.34 68.9753C1522.4 68.9753 1523.44 71.1975 1523.49 74.3086L1517.46 74.3086C1517.46 75.8395 1517.86 77.0247 1519.39 77.0741C1520.28 77.0741 1520.87 76.7284 1521.07 75.9876L1523.34 76.1852ZM1521.11 72.7778C1521.36 70.5062 1518.3 69.6666 1517.66 71.7407C1517.56 72.037 1517.46 72.3827 1517.46 72.7778L1521.11 72.7778" fill="#333333" fill-rule="nonzero" opacity="1" stroke="none"/>
<path d="M1530.84 71.7407C1530.89 70.3086 1527.39 70.0617 1527.34 71.5432C1528.08 73.8148 1533.16 71.8889 1533.21 75.7901C1533.26 79.8889 1525.11 79.5432 1524.72 76.2345L1526.84 75.8889C1527.04 76.8271 1527.83 77.1234 1529.02 77.1234C1530.65 77.5185 1531.83 75.642 1530.2 75.0987C1528.08 74.4074 1525.16 74.5555 1525.07 71.8395C1524.97 67.8889 1532.67 68.1852 1533.02 71.4938" fill="#333333" fill-rule="nonzero" opacity="1" stroke="none"/>
</g>
<path d="M451 183.537L451.7 186.177L453.5 187.977L456.13 188.677L949.7 188.677L949.7 190.677L455.88 190.677L452.46 189.757L449.93 187.227L449.01 183.807L449.01 125.207L451.01 125.207L451 183.537ZM1520 188.667L1520 190.667L973.3 190.667L973.3 188.667L1520 188.667Z" fill="#5e5e5e" fill-rule="nonzero" opacity="1" stroke="none"/>
<path d="M450.8 124.227L451 124.187L451 125.217L449 125.217L449 124.137L450.8 124.227ZM1535.26 189.667L1521 194.307L1521 185.027L1535.26 189.667Z" fill="#5e5e5e" fill-rule="nonzero" opacity="1" stroke="none"/>
<path d="M1538.5 189.667L1520 195.667L1520 183.667L1538.5 189.667ZM1522 192.927L1532.03 189.667L1522 186.407L1522 192.927Z" fill="#5e5e5e" fill-rule="nonzero" opacity="1" stroke="none"/>
<g opacity="1">
<path d="M958.35 193.222L953.017 183.79C953.313 186.654 953.115 190.111 953.165 193.222L950.893 193.222L950.893 180.975L953.807 180.975L959.239 190.506C958.943 187.642 959.14 184.136 959.091 180.975L961.362 180.975L961.362 193.222L958.35 193.222" fill="#333333" fill-rule="nonzero" opacity="1" stroke="none"/>
<path d="M967.93 183.642C971.091 183.642 972.671 185.42 972.671 188.531C972.671 191.691 970.943 193.42 967.881 193.42C964.869 193.42 963.189 191.642 963.189 188.531C963.189 185.469 964.869 183.642 967.93 183.642ZM967.881 191.741C969.609 191.741 970.103 190.358 970.103 188.531C970.103 186.556 969.609 185.321 967.98 185.321C966.301 185.321 965.757 186.605 965.757 188.531C965.757 190.309 966.251 191.741 967.881 191.741" fill="#333333" fill-rule="nonzero" opacity="1" stroke="none"/>
</g>
<path d="M781 183.537L781.7 186.177L783.5 187.977L786.13 188.677L949.7 188.677L949.7 190.677L785.88 190.677L782.46 189.757L779.93 187.227L779.01 183.807L779.01 125.207L781.01 125.207L781 183.537ZM1520 188.667L1520 190.667L973.3 190.667L973.3 188.667L1520 188.667Z" fill="#5e5e5e" fill-rule="nonzero" opacity="1" stroke="none"/>
<path d="M780.8 124.227L781 124.187L781 125.217L779 125.217L779 124.137L780.8 124.227ZM1535.26 189.667L1521 194.307L1521 185.027L1535.26 189.667Z" fill="#5e5e5e" fill-rule="nonzero" opacity="1" stroke="none"/>
<path d="M1538.5 189.667L1520 195.667L1520 183.667L1538.5 189.667ZM1522 192.927L1532.03 189.667L1522 186.407L1522 192.927Z" fill="#5e5e5e" fill-rule="nonzero" opacity="1" stroke="none"/>
<path d="M1440 125.187L1440 183.667C1440 186.967 1442.7 189.667 1446 189.667L1520 189.667" fill="none" opacity="1" stroke="#5e5e5e" stroke-linecap="butt" stroke-linejoin="miter" stroke-width="2"/>
<path d="M1440.8 124.227L1441 124.187L1441 125.217L1439 125.217L1439 124.137L1440.8 124.227Z" fill="#5e5e5e" fill-rule="nonzero" opacity="1" stroke="none"/>
<path d="M1535.26 189.667L1521 194.307L1521 185.027L1535.26 189.667Z" fill="#5e5e5e" fill-rule="nonzero" opacity="1" stroke="#5e5e5e" stroke-linecap="butt" stroke-linejoin="miter" stroke-width="2"/>
<path d="M1110 125.187L1110 183.667C1110 186.967 1112.7 189.667 1116 189.667L1520 189.667" fill="none" opacity="1" stroke="#5e5e5e" stroke-linecap="butt" stroke-linejoin="miter" stroke-width="2"/>
<path d="M1110.8 124.227L1111 124.187L1111 125.217L1109 125.217L1109 124.137L1110.8 124.227Z" fill="#5e5e5e" fill-rule="nonzero" opacity="1" stroke="none"/>
<path d="M1535.26 189.667L1521 194.307L1521 185.027L1535.26 189.667Z" fill="#5e5e5e" fill-rule="nonzero" opacity="1" stroke="#5e5e5e" stroke-linecap="butt" stroke-linejoin="miter" stroke-width="2"/>
</g>
</g>
</svg>
