<?xml version="1.0" encoding="UTF-8"?>
<!DOCTYPE svg PUBLIC "-//W3C//DTD SVG 1.1//EN" "https://www.w3.org/Graphics/SVG/1.1/DTD/svg11.dtd">
<svg version="1.1" xmlns="https://www.w3.org/2000/svg" xmlns:xlink="https://www.w3.org/1999/xlink" x="0" y="0" width="500" height="480" viewBox="0, 0, 500, 480">
  <defs>
    <clipPath id="Clip_1">
      <path d="M137.5,99.5 L331.5,99.5 L331.5,177.5 L137.5,177.5 z M323.5,109.5 L323.5,167.5 L145.5,167.5 L145.5,109.5 L323.5,109.5 z M325.5,107.5 L143.5,107.5 L143.5,169.5 L325.5,169.5 L325.5,107.5 z"/>
    </clipPath>
    <filter id="Shadow_2">
      <feGaussianBlur in="SourceAlpha" stdDeviation="2.5"/>
      <feOffset dx="0" dy="2" result="offsetblur"/>
      <feFlood flood-color="#000000"/>
      <feComposite in2="offsetblur" operator="in"/>
    </filter>
    <clipPath id="Clip_3">
      <path d="M137.5,195.5 L331.5,195.5 L331.5,273.5 L137.5,273.5 z M323.5,205.5 L323.5,263.5 L145.5,263.5 L145.5,205.5 L323.5,205.5 z M325.5,203.5 L143.5,203.5 L143.5,265.5 L325.5,265.5 L325.5,203.5 z"/>
    </clipPath>
    <filter id="Shadow_4">
      <feGaussianBlur in="SourceAlpha" stdDeviation="2.5"/>
      <feOffset dx="0" dy="2" result="offsetblur"/>
      <feFlood flood-color="#000000"/>
      <feComposite in2="offsetblur" operator="in"/>
    </filter>
    <clipPath id="Clip_5">
      <path d="M137.5,291.5 L331.5,291.5 L331.5,369.5 L137.5,369.5 z M323.5,301.5 L323.5,359.5 L145.5,359.5 L145.5,301.5 L323.5,301.5 z M325.5,299.5 L143.5,299.5 L143.5,361.5 L325.5,361.5 L325.5,299.5 z"/>
    </clipPath>
    <filter id="Shadow_6">
      <feGaussianBlur in="SourceAlpha" stdDeviation="2.5"/>
      <feOffset dx="0" dy="2" result="offsetblur"/>
      <feFlood flood-color="#000000"/>
      <feComposite in2="offsetblur" operator="in"/>
    </filter>
    <clipPath id="Clip_7">
      <path d="M365.5,291.5 L484.755,291.5 L484.755,369.5 L365.5,369.5 z M476.755,301.5 L476.755,359.5 L373.5,359.5 L373.5,301.5 L476.755,301.5 z M478.755,299.5 L371.5,299.5 L371.5,361.5 L478.755,361.5 L478.755,299.5 z"/>
    </clipPath>
    <filter id="Shadow_8">
      <feGaussianBlur in="SourceAlpha" stdDeviation="2.5"/>
      <feOffset dx="0" dy="2" result="offsetblur"/>
      <feFlood flood-color="#000000"/>
      <feComposite in2="offsetblur" operator="in"/>
    </filter>
    <clipPath id="Clip_9">
      <path d="M5.5,291.5 L115.5,291.5 L115.5,367.625 L5.5,367.625 z M107.5,301.5 L107.5,357.625 L13.5,357.625 L13.5,301.5 L107.5,301.5 z M109.5,299.5 L11.5,299.5 L11.5,359.625 L109.5,359.625 L109.5,299.5 z"/>
    </clipPath>
    <filter id="Shadow_10">
      <feGaussianBlur in="SourceAlpha" stdDeviation="2.5"/>
      <feOffset dx="0" dy="2" result="offsetblur"/>
      <feFlood flood-color="#000000"/>
      <feComposite in2="offsetblur" operator="in"/>
    </filter>
    <clipPath id="Clip_11">
      <path d="M137.5,3.5 L331.5,3.5 L331.5,81.5 L137.5,81.5 z M323.5,13.5 L323.5,71.5 L145.5,71.5 L145.5,13.5 L323.5,13.5 z M325.5,11.5 L143.5,11.5 L143.5,73.5 L325.5,73.5 L325.5,11.5 z"/>
    </clipPath>
    <filter id="Shadow_12">
      <feGaussianBlur in="SourceAlpha" stdDeviation="2.5"/>
      <feOffset dx="0" dy="2" result="offsetblur"/>
      <feFlood flood-color="#000000"/>
      <feComposite in2="offsetblur" operator="in"/>
    </filter>
    <clipPath id="Clip_13">
      <path d="M365.5,399.5 L484.755,399.5 L484.755,477.5 L365.5,477.5 z M476.755,409.5 L476.755,467.5 L373.5,467.5 L373.5,409.5 L476.755,409.5 z M478.755,407.5 L371.5,407.5 L371.5,469.5 L478.755,469.5 L478.755,407.5 z"/>
    </clipPath>
    <filter id="Shadow_14">
      <feGaussianBlur in="SourceAlpha" stdDeviation="2.5"/>
      <feOffset dx="0" dy="2" result="offsetblur"/>
      <feFlood flood-color="#000000"/>
      <feComposite in2="offsetblur" operator="in"/>
    </filter>
  </defs>
  <g id="Layer_1_Copy">
    <text transform="matrix(1, 0, 0, 1, 354, 390.5)">
      <tspan x="-65.324" y="-3.5" font-family="HelveticaNeue-Bold" font-size="14" fill="#030302">Get video metadata</tspan>
    </text>
    <g>
      <path d="M325.5,107.5 L325.5,169.5 L143.5,169.5 L143.5,107.5 L325.5,107.5 z M323.5,109.5 L145.5,109.5 L145.5,167.5 L323.5,167.5 L323.5,109.5 z" clip-path="url(#Clip_1)" filter="url(#Shadow_2)" fill="rgba(0,0,0,0.75)"/>
      <path d="M144.5,108.5 L324.5,108.5 L324.5,168.5 L144.5,168.5 L144.5,108.5 z" fill-opacity="0" stroke="#000000" stroke-width="2"/>
    </g>
    <g>
      <path d="M325.5,203.5 L325.5,265.5 L143.5,265.5 L143.5,203.5 L325.5,203.5 z M323.5,205.5 L145.5,205.5 L145.5,263.5 L323.5,263.5 L323.5,205.5 z" clip-path="url(#Clip_3)" filter="url(#Shadow_4)" fill="rgba(0,0,0,0.75)"/>
      <path d="M144.5,204.5 L324.5,204.5 L324.5,264.5 L144.5,264.5 L144.5,204.5 z" fill-opacity="0" stroke="#000000" stroke-width="2"/>
    </g>
    <g>
      <path d="M325.5,299.5 L325.5,361.5 L143.5,361.5 L143.5,299.5 L325.5,299.5 z M323.5,301.5 L145.5,301.5 L145.5,359.5 L323.5,359.5 L323.5,301.5 z" clip-path="url(#Clip_5)" filter="url(#Shadow_6)" fill="rgba(0,0,0,0.75)"/>
      <path d="M144.5,300.5 L324.5,300.5 L324.5,360.5 L144.5,360.5 L144.5,300.5 z" fill-opacity="0" stroke="#000000" stroke-width="2"/>
    </g>
    <g>
      <path d="M478.755,299.5 L478.755,361.5 L371.5,361.5 L371.5,299.5 L478.755,299.5 z M476.755,301.5 L373.5,301.5 L373.5,359.5 L476.755,359.5 L476.755,301.5 z" clip-path="url(#Clip_7)" filter="url(#Shadow_8)" fill="rgba(0,0,0,0.75)"/>
      <path d="M372.5,300.5 L477.755,300.5 L477.755,360.5 L372.5,360.5 L372.5,300.5 z" fill-opacity="0" stroke="#000000" stroke-width="2"/>
    </g>
    <text transform="matrix(1, 0, 0, 1, 234, 42)">
      <tspan x="-40.306" y="-3.5" font-family="HelveticaNeue-Bold" font-size="14" fill="#030302">Video Cloud</tspan>
      <tspan x="-57.673" y="13.5" font-family="HelveticaNeue-Bold" font-size="14" fill="#030302">Ingestion System</tspan>
    </text>
    <g>
      <path d="M228.5,72.5 L228.5,92.1" fill-opacity="0" stroke="#322E2E" stroke-width="4"/>
      <path d="M223.7,92.1 L228.5,104.9 L233.3,92.1 z" fill="#322E2E" fill-opacity="1" stroke="#322E2E" stroke-width="4" stroke-opacity="1"/>
    </g>
    <g>
      <path d="M228.5,168.5 L228.5,188.1" fill-opacity="0" stroke="#322E2E" stroke-width="4"/>
      <path d="M223.7,188.1 L228.5,200.9 L233.3,188.1 z" fill="#322E2E" fill-opacity="1" stroke="#322E2E" stroke-width="4" stroke-opacity="1"/>
    </g>
    <g>
      <path d="M228.5,264.5 L228.5,284.1" fill-opacity="0" stroke="#322E2E" stroke-width="4"/>
      <path d="M223.7,284.1 L228.5,296.9 L233.3,284.1 z" fill="#322E2E" fill-opacity="1" stroke="#322E2E" stroke-width="4" stroke-opacity="1"/>
    </g>
    <g>
      <path d="M144.5,336.5 L124.9,336.5" fill-opacity="0" stroke="#322E2E" stroke-width="4"/>
      <path d="M124.9,331.7 L112.1,336.5 L124.9,341.3 z" fill="#322E2E" fill-opacity="1" stroke="#322E2E" stroke-width="4" stroke-opacity="1"/>
    </g>
    <g>
      <path d="M340.9,336.5 L356.1,336.5" fill-opacity="0" stroke="#322E2E" stroke-width="4"/>
      <path d="M340.9,331.7 L328.1,336.5 L340.9,341.3 z" fill="#322E2E" fill-opacity="1" stroke="#322E2E" stroke-width="4" stroke-opacity="1"/>
      <path d="M356.1,341.3 L368.9,336.5 L356.1,331.7 z" fill="#322E2E" fill-opacity="1" stroke="#322E2E" stroke-width="4" stroke-opacity="1"/>
    </g>
    <g>
      <path d="M431.128,376.9 L431.128,392.1" fill-opacity="0" stroke="#322E2E" stroke-width="4"/>
      <path d="M435.927,376.9 L431.128,364.1 L426.328,376.9 z" fill="#322E2E" fill-opacity="1" stroke="#322E2E" stroke-width="4" stroke-opacity="1"/>
      <path d="M426.328,392.1 L431.128,404.9 L435.927,392.1 z" fill="#322E2E" fill-opacity="1" stroke="#322E2E" stroke-width="4" stroke-opacity="1"/>
    </g>
    <text transform="matrix(1, 0, 0, 1, 307.372, 96)">
      <tspan x="-58.842" y="2" font-family="HelveticaNeue-Bold" font-size="14" fill="#030302">Notifications sent</tspan>
    </text>
    <text transform="matrix(1, 0, 0, 1, 234, 336)">
      <tspan x="-36.561" y="-10" font-family="HelveticaNeue-Bold" font-size="14" fill="#030302">Dashboard</tspan>
      <tspan x="-61.32" y="7" font-family="HelveticaNeue-Bold" font-size="14" fill="#030302">(HTML/Javascript)</tspan>
    </text>
    <g>
      <g>
        <path d="M109.5,299.5 L109.5,359.625 L11.5,359.625 L11.5,299.5 L109.5,299.5 z M107.5,301.5 L13.5,301.5 L13.5,357.625 L107.5,357.625 L107.5,301.5 z" clip-path="url(#Clip_9)" filter="url(#Shadow_10)" fill="rgba(0,0,0,0.75)"/>
        <path d="M12.5,300.5 L108.5,300.5 L108.5,358.625 L12.5,358.625 L12.5,300.5 z" fill-opacity="0" stroke="#000000" stroke-width="2"/>
      </g>
      <text transform="matrix(1, 0, 0, 1, 60, 336.812)">
        <tspan x="-38.766" y="-11.188" font-family="HelveticaNeue-Bold" font-size="14" fill="#030302">Clear JSON </tspan>
        <tspan x="-35.392" y="5.812" font-family="HelveticaNeue-Bold" font-size="14" fill="#030302">data (PHP)</tspan>
      </text>
    </g>
    <text transform="matrix(1, 0, 0, 1, 424.628, 438)">
      <tspan x="-40.306" y="-4" font-family="HelveticaNeue-Bold" font-size="14" fill="#030302">Video Cloud</tspan>
      <tspan x="-29.554" y="13" font-family="HelveticaNeue-Bold" font-size="14" fill="#030302">CMS API</tspan>
    </text>
    <text transform="matrix(1, 0, 0, 1, 336, 192)">
      <tspan x="-89.691" y="2" font-family="HelveticaNeue-Bold" font-size="14" fill="#030302">Add video notification data</tspan>
    </text>
    <text transform="matrix(1, 0, 0, 1, 424.628, 336)">
      <tspan x="-41.496" y="2" font-family="HelveticaNeue-Bold" font-size="14" fill="#030302">Proxy  (PHP)</tspan>
    </text>
    <text transform="matrix(1, 0, 0, 1, 234, 137)">
      <tspan x="-38.745" y="-5" font-family="HelveticaNeue-Bold" font-size="14" fill="#030302">Notification</tspan>
      <tspan x="-46.795" y="12" font-family="HelveticaNeue-Bold" font-size="14" fill="#030302">Handler (PHP)</tspan>
    </text>
    <text transform="matrix(1, 0, 0, 1, 234, 240)">
      <tspan x="-76.986" y="-10" font-family="HelveticaNeue-Bold" font-size="14" fill="#030302">Video Notification Data</tspan>
      <tspan x="-23.212" y="7" font-family="HelveticaNeue-Bold" font-size="14" fill="#030302">(JSON)</tspan>
    </text>
    <g>
      <path d="M325.5,11.5 L325.5,73.5 L143.5,73.5 L143.5,11.5 L325.5,11.5 z M323.5,13.5 L145.5,13.5 L145.5,71.5 L323.5,71.5 L323.5,13.5 z" clip-path="url(#Clip_11)" filter="url(#Shadow_12)" fill="rgba(0,0,0,0.75)"/>
      <path d="M144.5,12.5 L324.5,12.5 L324.5,72.5 L144.5,72.5 L144.5,12.5 z" fill-opacity="0" stroke="#000000" stroke-width="2"/>
    </g>
    <g>
      <path d="M478.755,407.5 L478.755,469.5 L371.5,469.5 L371.5,407.5 L478.755,407.5 z M476.755,409.5 L373.5,409.5 L373.5,467.5 L476.755,467.5 L476.755,409.5 z" clip-path="url(#Clip_13)" filter="url(#Shadow_14)" fill="rgba(0,0,0,0.75)"/>
      <path d="M372.5,408.5 L477.755,408.5 L477.755,468.5 L372.5,468.5 L372.5,408.5 z" fill-opacity="0" stroke="#000000" stroke-width="2"/>
    </g>
    <text transform="matrix(1, 0, 0, 1, 330, 288)">
      <tspan x="-88.137" y="2" font-family="HelveticaNeue-Bold" font-size="14" fill="#030302">Get video notification data</tspan>
    </text>
    <g>
      <path d="M60.5,240.5 L128.1,240.5" fill-opacity="0" stroke="#322E2E" stroke-width="4"/>
      <path d="M128.1,245.3 L140.9,240.5 L128.1,235.7 z" fill="#322E2E" fill-opacity="1" stroke="#322E2E" stroke-width="4" stroke-opacity="1"/>
    </g>
    <path d="M60.5,240.5 L60.5,300.5" fill-opacity="0" stroke="#322E2E" stroke-width="4"/>
  </g>
</svg>
