<?xml version="1.0" standalone="no"?>
<!DOCTYPE svg PUBLIC "-//W3C//DTD SVG 1.1//EN"
    "https://www.w3.org/Graphics/SVG/1.1/DTD/svg11.dtd">
<svg width="100%" height="100%" viewBox="0 0 450 400"
    version="1.1" xmlns="https://www.w3.org/2000/svg">
    
    <!-- ** Rounded Rectangle SHADOW *************** -->
    
    <g>
        <defs>
            <filter id="fillShadow-568D4242-C190-427D-B628-357F45E7FA58">
                <feGaussianBlur in="SourceAlpha" stdDeviation="2.4" />
                <feOffset dx="2.0" dy="2.0" />
                <!-- <feFlood flood-color="rgb(0, 0, 0);" flood-opacity="0.33" /> -->
                <feMerge>
                    <feMergeNode />
                    <feMergeNode in="SourceGraphic" />
                </feMerge>
            </filter>
        </defs>
        <path
            d="
                M38.75 84.00
                C26.19 84.00 16.00 73.81 16.00 61.25
                L16.00 44.75
                C16.00 32.19 26.19 22.00 38.75 22.00
                L84.25 22.00
                C96.81 22.00 107.00 32.19 107.00 44.75
                L107.00 61.25
                C107.00 73.81 96.81 84.00 84.25 84.00
                Z
                "
        fill="rgb(0, 0, 0)"
        filter="url(#fillShadow-568D4242-C190-427D-B628-357F45E7FA58)"
        />
    </g>
    
    
    <!-- ** Rounded Rectangle *************** -->
    
    <g>
        <path
            d="
                M38.75 84.00
                C26.19 84.00 16.00 73.81 16.00 61.25
                L16.00 44.75
                C16.00 32.19 26.19 22.00 38.75 22.00
                L84.25 22.00
                C96.81 22.00 107.00 32.19 107.00 44.75
                L107.00 61.25
                C107.00 73.81 96.81 84.00 84.25 84.00
                Z
                "
            transform="
                translate(0.5 0.5)
                "
            fill="rgb(229, 228, 231)"
            stroke-width="1.00"
            stroke-linecap="round"
            stroke-linejoin="round"
            stroke="rgb(0, 0, 0)"
            />
        
        
        <text x="29.97" y="57.00"
        >
            <tspan style="font-family:Helvetica; font-size:12px; font-style:normal; font-weight:normal;" fill="rgb(0, 0, 0)">Your Videos</tspan>
        </text>
    </g>
    
    
    <!-- ** Rounded Rectangle SHADOW *************** -->
    
    <g>
        <defs>
            <filter id="fillShadow-68C698D8-F903-4436-B338-2C4450531F82">
                <feGaussianBlur in="SourceAlpha" stdDeviation="2.4" />
                <feOffset dx="2.0" dy="2.0" />
                <!-- <feFlood flood-color="rgb(0, 0, 0);" flood-opacity="0.33" /> -->
                <feMerge>
                    <feMergeNode />
                    <feMergeNode in="SourceGraphic" />
                </feMerge>
            </filter>
        </defs>
        <path
            d="
                M224.75 84.00
                C212.19 84.00 202.00 73.81 202.00 61.25
                L202.00 44.75
                C202.00 32.19 212.19 22.00 224.75 22.00
                L270.25 22.00
                C282.81 22.00 293.00 32.19 293.00 44.75
                L293.00 61.25
                C293.00 73.81 282.81 84.00 270.25 84.00
                Z
                "
        fill="rgb(0, 0, 0)"
        filter="url(#fillShadow-68C698D8-F903-4436-B338-2C4450531F82)"
        />
    </g>
    
    
    <!-- ** Rounded Rectangle *************** -->
    
    <g>
        <path
            d="
                M224.75 84.00
                C212.19 84.00 202.00 73.81 202.00 61.25
                L202.00 44.75
                C202.00 32.19 212.19 22.00 224.75 22.00
                L270.25 22.00
                C282.81 22.00 293.00 32.19 293.00 44.75
                L293.00 61.25
                C293.00 73.81 282.81 84.00 270.25 84.00
                Z
                "
            transform="
                translate(0.5 0.5)
                "
            fill="rgb(19, 130, 141)"
            stroke-width="1.00"
            stroke-linecap="round"
            stroke-linejoin="round"
            stroke="rgb(0, 0, 0)"
            />
        
        
        <text x="222.65" y="57.00"
        >
            <tspan style="font-family:Helvetica; font-size:12px; font-style:normal; font-weight:normal;" fill="rgb(255, 255, 255)">Zencoder</tspan>
        </text>
    </g>
    
    
    <!-- ** Rounded Rectangle SHADOW *************** -->
    
    <g>
        <defs>
            <filter id="fillShadow-2F0D2341-1968-4416-B321-CFF6EBA20AEC">
                <feGaussianBlur in="SourceAlpha" stdDeviation="2.4" />
                <feOffset dx="2.0" dy="2.0" />
                <!-- <feFlood flood-color="rgb(0, 0, 0);" flood-opacity="0.33" /> -->
                <feMerge>
                    <feMergeNode />
                    <feMergeNode in="SourceGraphic" />
                </feMerge>
            </filter>
        </defs>
        <path
            d="
                M225.75 387.00
                C213.19 387.00 203.00 376.81 203.00 364.25
                L203.00 347.75
                C203.00 335.19 213.19 325.00 225.75 325.00
                L271.25 325.00
                C283.81 325.00 294.00 335.19 294.00 347.75
                L294.00 364.25
                C294.00 376.81 283.81 387.00 271.25 387.00
                Z
                "
        fill="rgb(0, 0, 0)"
        filter="url(#fillShadow-2F0D2341-1968-4416-B321-CFF6EBA20AEC)"
        />
    </g>
    
    
    <!-- ** Rounded Rectangle *************** -->
    
    <g>
        <path
            d="
                M225.75 387.00
                C213.19 387.00 203.00 376.81 203.00 364.25
                L203.00 347.75
                C203.00 335.19 213.19 325.00 225.75 325.00
                L271.25 325.00
                C283.81 325.00 294.00 335.19 294.00 347.75
                L294.00 364.25
                C294.00 376.81 283.81 387.00 271.25 387.00
                Z
                "
            transform="
                translate(0.5 0.5)
                "
            fill="rgb(231, 85, 33)"
            stroke-width="1.00"
            stroke-linecap="round"
            stroke-linejoin="round"
            stroke="rgb(0, 0, 0)"
            />
        
        
        <text x="220.65" y="353.00"
        >
            <tspan style="font-family:Helvetica; font-size:12px; font-style:normal; font-weight:normal;" fill="rgb(255, 255, 255)">Brightcove
            </tspan>
        </text>
        <text x="231.99" y="367.00"
        >
            <tspan style="font-family:Helvetica; font-size:12px; font-style:normal; font-weight:normal;" fill="rgb(255, 255, 255)">Player</tspan>
        </text>
    </g>
    
    
    <!-- ** Line *************** -->
    
    <g>
        <defs>
            <clipPath id="clipPath-CD129905-DA73-4556-8758-580B190785B1">
                <path d="
                    M-10000,-10000 h100000 v100000 h-100000 v-100000
                    M189.00 53.14
                    L188.94 47.14
                    L211.93 46.89
                    L212.06 58.89
                    L189.07 59.14
                    Z
                    "
                clip-rule="evenodd"/>
            </clipPath>
        </defs>
        
        <path
            d="
                M109.00 54.00
                L202.00 53.00
                "
            clip-path="url(#clipPath-CD129905-DA73-4556-8758-580B190785B1)"
            transform="
                translate(0.5 0.5)
                "
            fill="none"
            stroke-width="5.00"
            stroke-linecap="round"
            stroke-linejoin="round"
            stroke="rgb(108, 108, 108)"
            />
        
        
        <path
            transform="translate(0.5 0.5)"
            d="
                M189.76 53.13
                L189.71 47.90
                L201.00 53.01
                L189.82 58.37
                Z
                "
            fill="rgb(108, 108, 108)"
            stroke-width="2.24"
            stroke-linecap="butt"
            stroke-linejoin="miter"
            stroke="rgb(108, 108, 108)"
            />
    </g>
    
    
    <!-- ** Line *************** -->
    
    <g>
        <defs>
            <clipPath id="clipPath-EF4BD7E7-6757-48CC-A383-7E2175D4B478">
                <path d="
                    M-10000,-10000 h100000 v100000 h-100000 v-100000
                    M189.00 230.00
                    L189.00 224.00
                    L212.00 224.00
                    L212.00 236.00
                    L189.00 236.00
                    Z
                    "
                clip-rule="evenodd"/>
            </clipPath>
        </defs>
        
        <path
            d="
                M107.00 230.00
                L202.00 230.00
                "
            clip-path="url(#clipPath-EF4BD7E7-6757-48CC-A383-7E2175D4B478)"
            transform="
                translate(0.5 0.5)
                "
            fill="none"
            stroke-width="5.00"
            stroke-linecap="round"
            stroke-linejoin="round"
            stroke="rgb(108, 108, 108)"
            />
        
        
        <path
            transform="translate(0.5 0.5)"
            d="
                M189.76 230.00
                L189.76 224.76
                L201.00 230.00
                L189.76 235.24
                Z
                "
            fill="rgb(108, 108, 108)"
            stroke-width="2.24"
            stroke-linecap="butt"
            stroke-linejoin="miter"
            stroke="rgb(108, 108, 108)"
            />
    </g>
    
    
    <!-- ** Text *************** -->
    
    <g>
        <path
            d="
                M123.00 19.00
                L179.00 19.00
                L179.00 47.00
                L123.00 47.00
                Z
                "
            fill="none"
            />
        
        
        <text x="122.87" y="29.00"
        >
            <tspan style="font-family:Helvetica; font-size:12px; font-style:normal; font-weight:normal;" fill="rgb(0, 0, 0)">Transcode
            </tspan>
        </text>
        <text x="135.76" y="43.00"
        >
            <tspan style="font-family:Helvetica; font-size:12px; font-style:normal; font-weight:normal;" fill="rgb(0, 0, 0)">Video</tspan>
        </text>
    </g>
    
    
    <!-- ** Text *************** -->
    
    <g>
        <path
            d="
                M130.00 195.00
                L169.00 195.00
                L169.00 223.00
                L130.00 223.00
                Z
                "
            fill="none"
            />
        
        
        <text x="130.15" y="205.00"
        >
            <tspan style="font-family:Helvetica; font-size:12px; font-style:normal; font-weight:normal;" fill="rgb(0, 0, 0)">Update
            </tspan>
        </text>
        <text x="134.26" y="219.00"
        >
            <tspan style="font-family:Helvetica; font-size:12px; font-style:normal; font-weight:normal;" fill="rgb(0, 0, 0)">Video</tspan>
        </text>
    </g>
    
    
    <!-- ** Text *************** -->
    
    <g>
        <path
            d="
                M120.00 61.00
                L179.00 61.00
                L179.00 94.00
                L120.00 94.00
                Z
                "
            fill="none"
            />
        
        
        <text x="122.04" y="74.00"
        >
            <tspan style="font-family:Helvetica; font-size:13px; font-style:normal; font-weight:normal;" fill="rgb(0, 0, 0)">Zencoder
            </tspan>
        </text>
        <text x="139.02" y="90.00"
        >
            <tspan style="font-family:Helvetica; font-size:13px; font-style:normal; font-weight:normal;" fill="rgb(0, 0, 0)">API</tspan>
        </text>
    </g>
    
    
    <!-- ** Text *************** -->
    
    <g>
        <path
            d="
                M135.00 238.00
                L164.00 238.00
                L164.00 270.00
                L135.00 270.00
                Z
                "
            fill="none"
            />
        
        
        <text x="135.06" y="250.00"
        >
            <tspan style="font-family:Helvetica; font-size:13px; font-style:normal; font-weight:normal;" fill="rgb(0, 0, 0)">CMS
            </tspan>
        </text>
        <text x="139.02" y="266.00"
        >
            <tspan style="font-family:Helvetica; font-size:13px; font-style:normal; font-weight:normal;" fill="rgb(0, 0, 0)">API</tspan>
        </text>
    </g>
    
    
    <!-- ** Text *************** -->
    
    <g>
        <path
            d="
                M333.00 238.00
                L362.00 238.00
                L362.00 270.00
                L333.00 270.00
                Z
                "
            fill="none"
            />
        
        
        <text x="333.06" y="250.00"
        >
            <tspan style="font-family:Helvetica; font-size:13px; font-style:normal; font-weight:normal;" fill="rgb(0, 0, 0)">CMS
            </tspan>
        </text>
        <text x="337.02" y="266.00"
        >
            <tspan style="font-family:Helvetica; font-size:13px; font-style:normal; font-weight:normal;" fill="rgb(0, 0, 0)">API</tspan>
        </text>
    </g>
    
    
    <!-- ** Text *************** -->
    
    <g>
        <path
            d="
                M262.00 285.00
                L324.00 285.00
                L324.00 301.00
                L262.00 301.00
                Z
                "
            fill="none"
            />
        
        
        <text x="262.04" y="297.00"
        >
            <tspan style="font-family:Helvetica; font-size:13px; font-style:normal; font-weight:normal;" fill="rgb(0, 0, 0)">Play Video</tspan>
        </text>
    </g>
    
    
    <!-- ** Text *************** -->
    
    <g>
        <path
            d="
                M330.00 17.00
                L363.00 17.00
                L363.00 49.00
                L330.00 49.00
                Z
                "
            fill="none"
            />
        
        
        <text x="332.16" y="29.00"
        >
            <tspan style="font-family:Helvetica; font-size:12px; font-style:normal; font-weight:normal;" fill="rgb(0, 0, 0)">Store
            </tspan>
        </text>
        <text x="331.26" y="43.00"
        >
            <tspan style="font-family:Helvetica; font-size:12px; font-style:normal; font-weight:normal;" fill="rgb(0, 0, 0)">Video</tspan>
        </text>
    </g>
    
    
    <!-- ** Text *************** -->
    
    <g>
        <path
            d="
                M310.00 182.00
                L380.00 182.00
                L380.00 224.00
                L310.00 224.00
                Z
                "
            fill="none"
            />
        
        
        <text x="310.08" y="192.00"
        >
            <tspan style="font-family:Helvetica; font-size:12px; font-style:normal; font-weight:normal;" fill="rgb(0, 0, 0)">Create Video
            </tspan>
        </text>
        <text x="315.99" y="206.00"
        >
            <tspan style="font-family:Helvetica; font-size:12px; font-style:normal; font-weight:normal;" fill="rgb(0, 0, 0)">as Remote
            </tspan>
        </text>
        <text x="329.99" y="220.00"
        >
            <tspan style="font-family:Helvetica; font-size:12px; font-style:normal; font-weight:normal;" fill="rgb(0, 0, 0)">Asset</tspan>
        </text>
    </g>
    
    
    <!-- ** Text *************** -->
    
    <g>
        <path
            d="
                M318.00 61.00
                L377.00 61.00
                L377.00 94.00
                L318.00 94.00
                Z
                "
            fill="none"
            />
        
        
        <text x="320.04" y="74.00"
        >
            <tspan style="font-family:Helvetica; font-size:13px; font-style:normal; font-weight:normal;" fill="rgb(0, 0, 0)">Zencoder
            </tspan>
        </text>
        <text x="337.02" y="90.00"
        >
            <tspan style="font-family:Helvetica; font-size:13px; font-style:normal; font-weight:normal;" fill="rgb(0, 0, 0)">API</tspan>
        </text>
    </g>
    
    
    <!-- ** Segmented Line *************** -->
    
    <g>
        <path
            d="
                M294.00 53.00
                C294.00 53.00 294.00 53.00 294.00 53.00
                C294.00 53.00 294.00 53.00 294.00 53.00
                C294.00 53.00 294.00 54.00 294.00 54.00
                C294.00 54.00 294.00 54.00 294.00 54.00
                C294.00 54.00 401.00 54.00 401.00 54.00
                C401.00 54.00 401.00 54.00 401.00 54.00
                C401.00 54.00 401.00 54.00 401.00 54.00
                C401.00 54.00 401.00 54.00 401.00 54.00
                C401.00 54.00 401.00 54.00 401.00 54.00
                "
            transform="
                translate(0.5 0.5)
                "
            fill="none"
            stroke-width="5.00"
            stroke-linecap="round"
            stroke-linejoin="round"
            stroke="rgb(108, 108, 108)"
            />
        
    </g>
    
    
    <!-- ** Segmented Line *************** -->
    
    <g>
        <defs>
            <clipPath id="clipPath-E1BDCBB0-7892-45D3-A348-6BA97DCF026B">
                <path d="
                    M-10000,-10000 h100000 v100000 h-100000 v-100000
                    M401.00 92.00
                    L407.00 92.00
                    L407.00 115.00
                    L395.00 115.00
                    L395.00 92.00
                    Z
                    "
                clip-rule="evenodd"/>
            </clipPath>
        </defs>
        
        <path
            d="
                M401.00 54.00
                C401.00 54.00 401.00 54.00 401.00 54.00
                C401.00 54.00 401.00 54.00 401.00 54.00
                C401.00 54.00 401.00 80.00 401.00 80.00
                C401.00 80.00 401.00 80.00 401.00 80.00
                C401.00 80.00 401.00 80.00 401.00 80.00
                C401.00 80.00 401.00 80.00 401.00 80.00
                C401.00 80.00 401.00 105.00 401.00 105.00
                C401.00 105.00 401.00 105.00 401.00 105.00
                C401.00 105.00 401.00 105.00 401.00 105.00
                "
            clip-path="url(#clipPath-E1BDCBB0-7892-45D3-A348-6BA97DCF026B)"
            transform="
                translate(0.5 0.5)
                "
            fill="none"
            stroke-width="5.00"
            stroke-linecap="round"
            stroke-linejoin="round"
            stroke="rgb(108, 108, 108)"
            />
        
        
        <path
            transform="translate(0.5 0.5)"
            d="
                M401.00 92.76
                L406.24 92.76
                L401.00 104.00
                L395.76 92.76
                Z
                "
            fill="rgb(108, 108, 108)"
            stroke-width="2.24"
            stroke-linecap="butt"
            stroke-linejoin="miter"
            stroke="rgb(108, 108, 108)"
            />
    </g>
    
    
    <!-- ** Segmented Line *************** -->
    
    <g>
        <path
            d="
                M401.00 172.00
                C401.00 172.00 401.00 172.00 401.00 172.00
                C401.00 172.00 401.00 172.00 401.00 172.00
                C401.00 172.00 401.00 201.00 401.00 201.00
                C401.00 201.00 401.00 201.00 401.00 201.00
                C401.00 201.00 401.00 201.00 401.00 201.00
                C401.00 201.00 401.00 201.00 401.00 201.00
                C401.00 201.00 401.00 230.00 401.00 230.00
                C401.00 230.00 401.00 230.00 401.00 230.00
                C401.00 230.00 401.00 230.00 401.00 230.00
                "
            transform="
                translate(0.5 0.5)
                "
            fill="none"
            stroke-width="5.00"
            stroke-linecap="round"
            stroke-linejoin="round"
            stroke="rgb(108, 108, 108)"
            />
        
    </g>
    
    
    <!-- ** Line *************** -->
    
    <g>
        <defs>
            <clipPath id="clipPath-1AAC249A-2B37-473A-AFFC-4D6048DF4CC9">
                <path d="
                    M-10000,-10000 h100000 v100000 h-100000 v-100000
                    M307.00 230.00
                    L307.00 236.00
                    L284.00 236.00
                    L284.00 224.00
                    L307.00 224.00
                    Z
                    "
                clip-rule="evenodd"/>
            </clipPath>
        </defs>
        
        <path
            d="
                M401.00 230.00
                L294.00 230.00
                "
            clip-path="url(#clipPath-1AAC249A-2B37-473A-AFFC-4D6048DF4CC9)"
            transform="
                translate(0.5 0.5)
                "
            fill="none"
            stroke-width="5.00"
            stroke-linecap="round"
            stroke-linejoin="round"
            stroke="rgb(108, 108, 108)"
            />
        
        
        <path
            transform="translate(0.5 0.5)"
            d="
                M306.24 230.00
                L306.24 235.24
                L295.00 230.00
                L306.24 224.76
                Z
                "
            fill="rgb(108, 108, 108)"
            stroke-width="2.24"
            stroke-linecap="butt"
            stroke-linejoin="miter"
            stroke="rgb(108, 108, 108)"
            />
    </g>
    
    
    <!-- ** Line *************** -->
    
    <g>
        <defs>
            <clipPath id="clipPath-6EC412CE-A409-4D48-9DA9-C3839B1FDA71">
                <path d="
                    M-10000,-10000 h100000 v100000 h-100000 v-100000
                    M248.80 312.00
                    L254.80 311.91
                    L255.16 334.91
                    L243.16 335.09
                    L242.80 312.10
                    Z
                    "
                clip-rule="evenodd"/>
            </clipPath>
        </defs>
        
        <path
            d="
                M248.00 261.00
                L249.00 325.00
                "
            clip-path="url(#clipPath-6EC412CE-A409-4D48-9DA9-C3839B1FDA71)"
            transform="
                translate(0.5 0.5)
                "
            fill="none"
            stroke-width="5.00"
            stroke-linecap="round"
            stroke-linejoin="round"
            stroke="rgb(108, 108, 108)"
            />
        
        
        <path
            transform="translate(0.5 0.5)"
            d="
                M248.81 312.77
                L254.04 312.68
                L248.98 324.00
                L243.57 312.85
                Z
                "
            fill="rgb(108, 108, 108)"
            stroke-width="2.24"
            stroke-linecap="butt"
            stroke-linejoin="miter"
            stroke="rgb(108, 108, 108)"
            />
    </g>
    
    
    <!-- ** Rounded Rectangle SHADOW *************** -->
    
    <g>
        <defs>
            <filter id="fillShadow-9ED8652B-0789-463E-A8A1-4C495937D4DC">
                <feGaussianBlur in="SourceAlpha" stdDeviation="2.4" />
                <feOffset dx="2.0" dy="2.0" />
                <!-- <feFlood flood-color="rgb(0, 0, 0);" flood-opacity="0.33" /> -->
                <feMerge>
                    <feMergeNode />
                    <feMergeNode in="SourceGraphic" />
                </feMerge>
            </filter>
        </defs>
        <path
            d="
                M38.75 261.00
                C26.19 261.00 16.00 250.81 16.00 238.25
                L16.00 221.75
                C16.00 209.19 26.19 199.00 38.75 199.00
                L84.25 199.00
                C96.81 199.00 107.00 209.19 107.00 221.75
                L107.00 238.25
                C107.00 250.81 96.81 261.00 84.25 261.00
                Z
                "
        fill="rgb(0, 0, 0)"
        filter="url(#fillShadow-9ED8652B-0789-463E-A8A1-4C495937D4DC)"
        />
    </g>
    
    
    <!-- ** Rounded Rectangle *************** -->
    
    <g>
        <path
            d="
                M38.75 261.00
                C26.19 261.00 16.00 250.81 16.00 238.25
                L16.00 221.75
                C16.00 209.19 26.19 199.00 38.75 199.00
                L84.25 199.00
                C96.81 199.00 107.00 209.19 107.00 221.75
                L107.00 238.25
                C107.00 250.81 96.81 261.00 84.25 261.00
                Z
                "
            transform="
                translate(0.5 0.5)
                "
            fill="rgb(229, 228, 231)"
            stroke-width="1.00"
            stroke-linecap="round"
            stroke-linejoin="round"
            stroke="rgb(0, 0, 0)"
            />
        
        
        <text x="46.76" y="227.00"
        >
            <tspan style="font-family:Helvetica; font-size:12px; font-style:normal; font-weight:normal;" fill="rgb(0, 0, 0)">Video </tspan>
        </text>
        <text x="36.98" y="241.00"
        >
            <tspan style="font-family:Helvetica; font-size:12px; font-style:normal; font-weight:normal;" fill="rgb(0, 0, 0)">Metadata</tspan>
        </text>
    </g>
    
    
    <!-- ** Cylinder SHADOW *************** -->
    
    <g>
        <defs>
            <filter id="fillShadow-3DA596DD-64CE-49A0-BEFB-F63EEBB292E3">
                <feGaussianBlur in="SourceAlpha" stdDeviation="2.4" />
                <feOffset dx="2.0" dy="2.0" />
                <!-- <feFlood flood-color="rgb(0, 0, 0);" flood-opacity="0.33" /> -->
                <feMerge>
                    <feMergeNode />
                    <feMergeNode in="SourceGraphic" />
                </feMerge>
            </filter>
        </defs>
        <path
            d="
                M401.00 172.00
                C401.00 172.00 367.00 172.00 367.00 159.00
                L367.00 118.00
                C367.00 118.00 367.00 105.00 401.00 105.00
                C401.00 105.00 434.00 105.00 434.00 118.00
                L434.00 159.00
                C434.00 172.00 401.00 172.00 401.00 172.00
                Z
                "
        fill="rgb(0, 0, 0)"
        filter="url(#fillShadow-3DA596DD-64CE-49A0-BEFB-F63EEBB292E3)"
        />
    </g>
    
    
    <!-- ** Cylinder *************** -->
    
    <g>
        <path
            d="
                M401.00 172.00
                C401.00 172.00 367.00 172.00 367.00 159.00
                L367.00 118.00
                C367.00 118.00 367.00 105.00 401.00 105.00
                C401.00 105.00 434.00 105.00 434.00 118.00
                L434.00 159.00
                C434.00 172.00 401.00 172.00 401.00 172.00
                Z
                "
            transform="
                translate(0.5 0.5)
                "
            fill="rgb(230, 227, 229)"
            stroke-width="1.00"
            stroke-linecap="round"
            stroke-linejoin="round"
            stroke="rgb(0, 0, 0)"
            />
        <path
            d="
                M424.19 108.95
                C437.27 114.23 437.27 122.77 424.19 128.05
                C411.11 133.32 389.89 133.32 376.81 128.05
                C363.73 122.77 363.73 114.23 376.81 108.95
                C389.89 103.68 411.11 103.68 424.19 108.95
                "
            fill="none"
            transform="translate(0.5 0.5)"
            stroke-width="1.00"
            stroke-linecap="round"
            stroke-linejoin="round"
            stroke="rgb(0, 0, 0)"
            />
        
        
        <text x="387.50" y="151.50"
        >
            <tspan style="font-family:Helvetica; font-size:12px; font-style:normal; font-weight:normal;" fill="rgb(0, 0, 0)">CDN</tspan>
        </text>
    </g>
    
    
    <!-- ** Rounded Rectangle SHADOW *************** -->
    
    <g>
        <defs>
            <filter id="fillShadow-94855414-A99A-420F-8520-B516C6536885">
                <feGaussianBlur in="SourceAlpha" stdDeviation="2.4" />
                <feOffset dx="2.0" dy="2.0" />
                <!-- <feFlood flood-color="rgb(0, 0, 0);" flood-opacity="0.33" /> -->
                <feMerge>
                    <feMergeNode />
                    <feMergeNode in="SourceGraphic" />
                </feMerge>
            </filter>
        </defs>
        <path
            d="
                M224.75 261.00
                C212.19 261.00 202.00 250.81 202.00 238.25
                L202.00 221.75
                C202.00 209.19 212.19 199.00 224.75 199.00
                L270.25 199.00
                C282.81 199.00 293.00 209.19 293.00 221.75
                L293.00 238.25
                C293.00 250.81 282.81 261.00 270.25 261.00
                Z
                "
        fill="rgb(0, 0, 0)"
        filter="url(#fillShadow-94855414-A99A-420F-8520-B516C6536885)"
        />
    </g>
    
    
    <!-- ** Rounded Rectangle *************** -->
    
    <g>
        <path
            d="
                M224.75 261.00
                C212.19 261.00 202.00 250.81 202.00 238.25
                L202.00 221.75
                C202.00 209.19 212.19 199.00 224.75 199.00
                L270.25 199.00
                C282.81 199.00 293.00 209.19 293.00 221.75
                L293.00 238.25
                C293.00 250.81 282.81 261.00 270.25 261.00
                Z
                "
            transform="
                translate(0.5 0.5)
                "
            fill="rgb(231, 85, 33)"
            stroke-width="1.00"
            stroke-linecap="round"
            stroke-linejoin="round"
            stroke="rgb(0, 0, 0)"
            />
        
        
        <text x="215.42" y="234.00"
        >
            <tspan style="font-family:Helvetica; font-size:12px; font-style:normal; font-weight:normal;" fill="rgb(255, 255, 255)">Video Cloud</tspan>
        </text>
    </g>
    
</svg>

