<svg xmlns="http://www.w3.org/2000/svg" xmlns:xlink="http://www.w3.org/1999/xlink" xmlns:lucid="lucid" width="1447.48" height="906.98"><g transform="translate(-178.22697291507302 1366.9842786452325)" lucid:page-tab-id="0_0"><path d="M240-1253v-39a8 8 0 0 1 8-8h632v47z" stroke="#b2b2b2" stroke-width="2" fill="#4ea9d1"/><path d="M880-1300h652a8 8 0 0 1 8 8v39H880z" stroke="#b2b2b2" stroke-width="2" fill="#efd900"/><path d="M880-480H248a8 8 0 0 1-8-8v-765h640zM1540-1253v765a8 8 0 0 1-8 8H880v-773z" stroke="#b2b2b2" stroke-width="2" fill="none"/><use xlink:href="#a" transform="matrix(1,0,0,1,240,-1300) translate(251.51851851851853 28.833333333333332)"/><use xlink:href="#b" transform="matrix(1,0,0,1,240,-1300) translate(311.5925925925926 28.833333333333332)"/><use xlink:href="#c" transform="matrix(1,0,0,1,880,-1300) translate(283.12890625 31.39930555555555)"/><use xlink:href="#d" transform="matrix(1,0,0,1,880,-1300) translate(344.8337673611111 31.39930555555555)"/><path d="M198.23-1338.98a8 8 0 0 1 8-8h1389.9a8 8 0 0 1 8 8v21.7a8 8 0 0 1-8 8H206.23a8 8 0 0 1-8-8z" stroke="#000" stroke-opacity="0" stroke-width="2" fill="#fff" fill-opacity="0"/><use xlink:href="#e" transform="matrix(1,0,0,1,202.22697291507302,-1342.9842786452325) translate(489.25382716049376 30.76888888888888)"/><use xlink:href="#f" transform="matrix(1,0,0,1,202.22697291507302,-1342.9842786452325) translate(574.9834567901233 30.76888888888888)"/><use xlink:href="#g" transform="matrix(1,0,0,1,202.22697291507302,-1342.9842786452325) translate(666.5649382716049 30.76888888888888)"/><path d="M198.23-1306.72a6.72 6.72 0 0 1 6.72-6.73h1394.03a6.72 6.72 0 0 1 6.73 6.73 6.72 6.72 0 0 1-6.72 6.72H204.95a6.72 6.72 0 0 1-6.72-6.72z" stroke="#000" stroke-opacity="0" stroke-width="2" fill="#fff" fill-opacity="0"/><path d="M360-834a6 6 0 0 1 6-6h388a6 6 0 0 1 6 6v108a6 6 0 0 1-6 6H366a6 6 0 0 1-6-6z" stroke="#5e5e5e" stroke-width="3" fill="#4ea9d1"/><use xlink:href="#h" transform="matrix(1,0,0,1,372,-828) translate(18.009259259259238 37.55555555555556)"/><use xlink:href="#i" transform="matrix(1,0,0,1,372,-828) translate(97.99691358024688 37.55555555555556)"/><use xlink:href="#j" transform="matrix(1,0,0,1,372,-828) translate(118.36728395061725 37.55555555555556)"/><use xlink:href="#k" transform="matrix(1,0,0,1,372,-828) translate(193.8734567901234 37.55555555555556)"/><use xlink:href="#l" transform="matrix(1,0,0,1,372,-828) translate(231.7623456790123 37.55555555555556)"/><use xlink:href="#m" transform="matrix(1,0,0,1,372,-828) translate(279.2932098765432 37.55555555555556)"/><use xlink:href="#n" transform="matrix(1,0,0,1,372,-828) translate(107.26543209876543 66.88888888888889)"/><use xlink:href="#o" transform="matrix(1,0,0,1,372,-828) translate(161.51851851851853 66.88888888888889)"/><use xlink:href="#p" transform="matrix(1,0,0,1,372,-828) translate(195.46913580246914 66.88888888888889)"/><path d="M1010-854a6 6 0 0 1 6-6h388a6 6 0 0 1 6 6v108a6 6 0 0 1-6 6h-388a6 6 0 0 1-6-6z" stroke="#5e5e5e" stroke-width="3" fill="#efd900"/><use xlink:href="#q" transform="matrix(1,0,0,1,1022,-848) translate(29.925925925925924 52.55555555555556)"/><use xlink:href="#r" transform="matrix(1,0,0,1,1022,-848) translate(80.17283950617283 52.55555555555556)"/><use xlink:href="#s" transform="matrix(1,0,0,1,1022,-848) translate(126.34567901234567 52.55555555555556)"/><use xlink:href="#t" transform="matrix(1,0,0,1,1022,-848) translate(198.2530864197531 52.55555555555556)"/><use xlink:href="#u" transform="matrix(1,0,0,1,1022,-848) translate(233.49382716049382 52.55555555555556)"/><use xlink:href="#v" transform="matrix(1,0,0,1,1022,-848) translate(287.74691358024694 52.55555555555556)"/><path d="M1010-654a6 6 0 0 1 6-6h388a6 6 0 0 1 6 6v108a6 6 0 0 1-6 6h-388a6 6 0 0 1-6-6z" stroke="#5e5e5e" stroke-width="3" fill="#efd900"/><use xlink:href="#w" transform="matrix(1,0,0,1,1022,-648) translate(3.5123456790123555 22.555555555555557)"/><use xlink:href="#x" transform="matrix(1,0,0,1,1022,-648) translate(23.882716049382726 22.555555555555557)"/><use xlink:href="#r" transform="matrix(1,0,0,1,1022,-648) translate(57.83333333333334 22.555555555555557)"/><use xlink:href="#y" transform="matrix(1,0,0,1,1022,-648) translate(104.00617283950618 22.555555555555557)"/><use xlink:href="#z" transform="matrix(1,0,0,1,1022,-648) translate(163.69135802469137 22.555555555555557)"/><use xlink:href="#A" transform="matrix(1,0,0,1,1022,-648) translate(188.0679012345679 22.555555555555557)"/><use xlink:href="#B" transform="matrix(1,0,0,1,1022,-648) translate(308.7962962962963 22.555555555555557)"/><use xlink:href="#C" transform="matrix(1,0,0,1,1022,-648) translate(358.9074074074074 22.555555555555557)"/><use xlink:href="#D" transform="matrix(1,0,0,1,1022,-648) translate(15.802469135802454 51.88888888888889)"/><use xlink:href="#E" transform="matrix(1,0,0,1,1022,-648) translate(87.70987654320986 51.88888888888889)"/><use xlink:href="#F" transform="matrix(1,0,0,1,1022,-648) translate(108.08024691358023 51.88888888888889)"/><use xlink:href="#G" transform="matrix(1,0,0,1,1022,-648) translate(182.49999999999997 51.88888888888889)"/><use xlink:href="#z" transform="matrix(1,0,0,1,1022,-648) translate(216.4506172839506 51.88888888888889)"/><use xlink:href="#H" transform="matrix(1,0,0,1,1022,-648) translate(240.82716049382714 51.88888888888889)"/><use xlink:href="#I" transform="matrix(1,0,0,1,1022,-648) translate(334.39506172839504 51.88888888888889)"/><use xlink:href="#J" transform="matrix(1,0,0,1,1022,-648) translate(151.36728395061726 81.22222222222223)"/><path d="M360-654a6 6 0 0 1 6-6h388a6 6 0 0 1 6 6v108a6 6 0 0 1-6 6H366a6 6 0 0 1-6-6z" stroke="#5e5e5e" stroke-width="3" fill="#4ea9d1"/><g><use xlink:href="#K" transform="matrix(1,0,0,1,372,-648) translate(12.305555555555543 37.55555555555556)"/><use xlink:href="#L" transform="matrix(1,0,0,1,372,-648) translate(61.19444444444443 37.55555555555556)"/><use xlink:href="#M" transform="matrix(1,0,0,1,372,-648) translate(107.36728395061726 37.55555555555556)"/><use xlink:href="#N" transform="matrix(1,0,0,1,372,-648) translate(179.27469135802468 37.55555555555556)"/><use xlink:href="#O" transform="matrix(1,0,0,1,372,-648) translate(300.0030864197531 37.55555555555556)"/><use xlink:href="#P" transform="matrix(1,0,0,1,372,-648) translate(350.1141975308642 37.55555555555556)"/><use xlink:href="#Q" transform="matrix(1,0,0,1,372,-648) translate(77.55864197530866 66.88888888888889)"/><use xlink:href="#R" transform="matrix(1,0,0,1,372,-648) translate(142.67592592592592 66.88888888888889)"/><use xlink:href="#S" transform="matrix(1,0,0,1,372,-648) translate(183.14506172839506 66.88888888888889)"/><use xlink:href="#T" transform="matrix(1,0,0,1,372,-648) translate(217.09567901234567 66.88888888888889)"/></g><path d="M560-717.5v37.5" stroke="#5e5e5e" stroke-width="2" fill="none"/><path d="M561-717.47h-2v-1.03h2z" stroke="#5e5e5e" stroke-width=".05" fill="#5e5e5e"/><path d="M560-664.74L555.37-679h9.26z" stroke="#5e5e5e" stroke-width="2" fill="#5e5e5e"/><path d="M1210-737.5v57.5" stroke="#5e5e5e" stroke-width="2" fill="none"/><path d="M1211-737.47h-2v-1.03h2z" stroke="#5e5e5e" stroke-width=".05" fill="#5e5e5e"/><path d="M1210-664.74l-4.63-14.26h9.27z" stroke="#5e5e5e" stroke-width="2" fill="#5e5e5e"/><path d="M360-1194a6 6 0 0 1 6-6h388a6 6 0 0 1 6 6v108a6 6 0 0 1-6 6H366a6 6 0 0 1-6-6z" stroke="#5e5e5e" stroke-width="3" fill="#4ea9d1"/><g><use xlink:href="#h" transform="matrix(1,0,0,1,372,-1188) translate(12.984567901234556 52.55555555555556)"/><use xlink:href="#U" transform="matrix(1,0,0,1,372,-1188) translate(92.9722222222222 52.55555555555556)"/><use xlink:href="#V" transform="matrix(1,0,0,1,372,-1188) translate(126.92283950617282 52.55555555555556)"/><use xlink:href="#o" transform="matrix(1,0,0,1,372,-1188) translate(189.39197530864195 52.55555555555556)"/><use xlink:href="#W" transform="matrix(1,0,0,1,372,-1188) translate(223.34259259259258 52.55555555555556)"/></g><path d="M360-1014a6 6 0 0 1 6-6h388a6 6 0 0 1 6 6v108a6 6 0 0 1-6 6H366a6 6 0 0 1-6-6z" stroke="#5e5e5e" stroke-width="3" fill="#4ea9d1"/><g><use xlink:href="#X" transform="matrix(1,0,0,1,372,-1008) translate(16.990740740740762 37.55555555555556)"/><use xlink:href="#U" transform="matrix(1,0,0,1,372,-1008) translate(91.61419753086422 37.55555555555556)"/><use xlink:href="#Y" transform="matrix(1,0,0,1,372,-1008) translate(125.56481481481484 37.55555555555556)"/><use xlink:href="#Z" transform="matrix(1,0,0,1,372,-1008) translate(162.2314814814815 37.55555555555556)"/><use xlink:href="#aa" transform="matrix(1,0,0,1,372,-1008) translate(278.9537037037037 37.55555555555556)"/><use xlink:href="#ab" transform="matrix(1,0,0,1,372,-1008) translate(338.63888888888886 37.55555555555556)"/><use xlink:href="#ac" transform="matrix(1,0,0,1,372,-1008) translate(125.87037037037038 66.88888888888889)"/><use xlink:href="#ad" transform="matrix(1,0,0,1,372,-1008) translate(180.93827160493828 66.88888888888889)"/></g><path d="M560-1077.5v37.5" stroke="#5e5e5e" stroke-width="2" fill="none"/><path d="M561-1077.47h-2v-1.03h2z" stroke="#5e5e5e" stroke-width=".05" fill="#5e5e5e"/><path d="M560-1024.74l-4.63-14.26h9.26z" stroke="#5e5e5e" stroke-width="2" fill="#5e5e5e"/><path d="M560-897.5v37.5" stroke="#5e5e5e" stroke-width="2" fill="none"/><path d="M561-897.47h-2v-1.03h2z" stroke="#5e5e5e" stroke-width=".05" fill="#5e5e5e"/><path d="M560-844.74L555.37-859h9.26z" stroke="#5e5e5e" stroke-width="2" fill="#5e5e5e"/><path d="M1010-1194a6 6 0 0 1 6-6h388a6 6 0 0 1 6 6v108a6 6 0 0 1-6 6h-388a6 6 0 0 1-6-6z" stroke="#5e5e5e" stroke-width="3" fill="#efd900"/><g><use xlink:href="#ae" transform="matrix(1,0,0,1,1022,-1188) translate(12.984567901234556 52.55555555555556)"/><use xlink:href="#af" transform="matrix(1,0,0,1,1022,-1188) translate(92.9722222222222 52.55555555555556)"/><use xlink:href="#ag" transform="matrix(1,0,0,1,1022,-1188) translate(126.92283950617282 52.55555555555556)"/><use xlink:href="#G" transform="matrix(1,0,0,1,1022,-1188) translate(189.39197530864195 52.55555555555556)"/><use xlink:href="#ah" transform="matrix(1,0,0,1,1022,-1188) translate(223.34259259259258 52.55555555555556)"/></g><path d="M1010-1014a6 6 0 0 1 6-6h388a6 6 0 0 1 6 6v108a6 6 0 0 1-6 6h-388a6 6 0 0 1-6-6z" stroke="#5e5e5e" stroke-width="3" fill="#efd900"/><g><use xlink:href="#ai" transform="matrix(1,0,0,1,1022,-1008) translate(16.990740740740762 37.55555555555556)"/><use xlink:href="#af" transform="matrix(1,0,0,1,1022,-1008) translate(91.61419753086422 37.55555555555556)"/><use xlink:href="#aj" transform="matrix(1,0,0,1,1022,-1008) translate(125.56481481481484 37.55555555555556)"/><use xlink:href="#ak" transform="matrix(1,0,0,1,1022,-1008) translate(162.2314814814815 37.55555555555556)"/><use xlink:href="#al" transform="matrix(1,0,0,1,1022,-1008) translate(278.9537037037037 37.55555555555556)"/><use xlink:href="#am" transform="matrix(1,0,0,1,1022,-1008) translate(338.63888888888886 37.55555555555556)"/><use xlink:href="#an" transform="matrix(1,0,0,1,1022,-1008) translate(136.90432098765433 66.88888888888889)"/><use xlink:href="#ao" transform="matrix(1,0,0,1,1022,-1008) translate(205.14506172839506 66.88888888888889)"/></g><path d="M1210-1077.5v37.5" stroke="#5e5e5e" stroke-width="2" fill="none"/><path d="M1211-1077.47h-2v-1.03h2z" stroke="#5e5e5e" stroke-width=".05" fill="#5e5e5e"/><path d="M1210-1024.74l-4.63-14.26h9.27z" stroke="#5e5e5e" stroke-width="2" fill="#5e5e5e"/><path d="M1210-897.5v17.5" stroke="#5e5e5e" stroke-width="2" fill="none"/><path d="M1211-897.47h-2v-1.03h2z" stroke="#5e5e5e" stroke-width=".05" fill="#5e5e5e"/><path d="M1210-864.74l-4.63-14.26h9.27z" stroke="#5e5e5e" stroke-width="2" fill="#5e5e5e"/><defs><path fill="#fff" d="M24-248c120-7 223 5 221 122C244-46 201 0 124 0H24v-248zM76-40c74 7 117-18 117-86 0-67-45-88-117-82v168" id="ap"/><path fill="#fff" d="M76-208v77h127v40H76V0H24v-248h183v40H76" id="aq"/><path fill="#fff" d="M24-248c93 1 206-16 204 79-1 75-69 88-152 82V0H24v-248zm52 121c47 0 100 7 100-41 0-47-54-39-100-39v80" id="ar"/><g id="a"><use transform="matrix(0.07407407407407406,0,0,0.07407407407407406,0,0)" xlink:href="#ap"/><use transform="matrix(0.07407407407407406,0,0,0.07407407407407406,19.18518518518518,0)" xlink:href="#aq"/><use transform="matrix(0.07407407407407406,0,0,0.07407407407407406,35.4074074074074,0)" xlink:href="#ar"/></g><path fill="#fff" d="M147 0H94L2-248h55l64 206c17-72 42-137 63-206h54" id="as"/><path fill="#fff" d="M230 0l2-204L168 0h-37L68-204 70 0H24v-248h70l56 185 57-185h69V0h-46" id="at"/><path fill="#fff" d="M199 0l-22-63H83L61 0H9l90-248h61L250 0h-51zm-33-102l-36-108c-10 38-24 72-36 108h72" id="au"/><g id="b"><use transform="matrix(0.07407407407407406,0,0,0.07407407407407406,0,0)" xlink:href="#as"/><use transform="matrix(0.07407407407407406,0,0,0.07407407407407406,17.777777777777775,0)" xlink:href="#at"/><use transform="matrix(0.07407407407407406,0,0,0.07407407407407406,39.92592592592592,0)" xlink:href="#au"/><use transform="matrix(0.07407407407407406,0,0,0.07407407407407406,59.1111111111111,0)" xlink:href="#ar"/></g><path fill="#172b4d" d="M651-255l416-1201h210L737 0H567L28-1456h209" id="av"/><path fill="#172b4d" d="M973-380H363L226 0H28l556-1456h168L1309 0h-197zM421-538h495l-248-681" id="aw"/><path fill="#172b4d" d="M631-137c179 0 314-70 314-231 0-71-25-127-75-166s-141-77-272-115c-165-47-285-106-360-175s-112-154-112-255c0-245 231-397 495-397 206 0 369 89 449 218 43 68 65 142 65 223H942c0-184-129-283-321-283-172 0-299 76-301 236 0 59 26 109 76 150s135 78 256 113c205 59 345 116 436 256 35 53 50 119 50 193-2 256-231 398-507 390C333 12 90-129 80-422h193c0 187 160 285 358 285" id="ax"/><path fill="#172b4d" d="M1175-1298H707V0H516v-1298H49v-158h1126v158" id="ay"/><g id="c"><use transform="matrix(0.011284722222222217,0,0,0.011284722222222217,0,0)" xlink:href="#av"/><use transform="matrix(0.011284722222222217,0,0,0.011284722222222217,13.857638888888882,0)" xlink:href="#aw"/><use transform="matrix(0.011284722222222217,0,0,0.011284722222222217,28.934027777777764,0)" xlink:href="#ax"/><use transform="matrix(0.011284722222222217,0,0,0.011284722222222217,42.64496527777776,0)" xlink:href="#ay"/></g><path fill="#172b4d" d="M832-402c-1-179-119-264-303-265H390v-151h139c164 0 281-91 281-250 0-171-85-256-255-256-154 0-265 99-263 250H107c-4-235 205-402 448-402 266 0 444 150 440 412-2 148-109 272-229 317 147 45 249 158 251 341 3 262-197 426-461 426C299 20 91-135 94-384h186c-2 156 116 253 276 253 176 0 277-96 276-271" id="az"/><path fill="#172b4d" d="M258 11c-71 0-114-43-114-108 0-67 42-112 114-112s116 45 116 112c-1 65-45 108-116 108" id="aA"/><path fill="#172b4d" d="M574-1476c351 0 454 237 460 615v240c0 217-37 378-111 483S733 20 576 20c-346 0-454-246-461-616v-247c0-214 37-373 111-477s190-156 348-156zm275 905c0-337 59-752-275-753-95 0-160 38-207 107-80 118-66 409-67 625 0 157 22 273 68 348s115 113 208 113c91 0 160-35 204-106s69-182 69-334" id="aB"/><g id="d"><use transform="matrix(0.011284722222222217,0,0,0.011284722222222217,0,0)" xlink:href="#az"/><use transform="matrix(0.011284722222222217,0,0,0.011284722222222217,12.97743055555555,0)" xlink:href="#aA"/><use transform="matrix(0.011284722222222217,0,0,0.011284722222222217,19.059895833333325,0)" xlink:href="#aB"/></g><path d="M147 0H94L2-248h55l64 206c17-72 42-137 63-206h54" id="aC"/><path d="M140-251c80 0 125 45 125 126S219 4 139 4C58 4 15-44 15-125s44-126 125-126zm-1 214c52 0 73-35 73-88 0-50-21-86-72-86-52 0-73 35-73 86s22 88 72 88" id="aD"/><path d="M24-248c120-7 223 5 221 122C244-46 201 0 124 0H24v-248zM76-40c74 7 117-18 117-86 0-67-45-88-117-82v168" id="aE"/><g id="e"><use transform="matrix(0.09753086419753083,0,0,0.09753086419753083,0,0)" xlink:href="#aC"/><use transform="matrix(0.09753086419753083,0,0,0.09753086419753083,23.4074074074074,0)" xlink:href="#aD"/><use transform="matrix(0.09753086419753083,0,0,0.09753086419753083,50.71604938271604,0)" xlink:href="#aE"/></g><path d="M169-182c-1-43-94-46-97-3 18 66 151 10 154 114 3 95-165 93-204 36-6-8-10-19-12-30l50-8c3 46 112 56 116 5-17-69-150-10-154-114-4-87 153-88 188-35 5 8 8 18 10 28" id="aF"/><path d="M199 0l-22-63H83L61 0H9l90-248h61L250 0h-51zm-33-102l-36-108c-10 38-24 72-36 108h72" id="aG"/><path d="M24 0v-248h52V0H24" id="aH"/><g id="f"><use transform="matrix(0.09753086419753083,0,0,0.09753086419753083,0,0)" xlink:href="#aF"/><use transform="matrix(0.09753086419753083,0,0,0.09753086419753083,23.4074074074074,0)" xlink:href="#aF"/><use transform="matrix(0.09753086419753083,0,0,0.09753086419753083,46.8148148148148,0)" xlink:href="#aG"/><use transform="matrix(0.09753086419753083,0,0,0.09753086419753083,72.07530864197528,0)" xlink:href="#aH"/></g><path d="M67-125c0 53 21 87 73 88 37 1 54-22 65-47l45 17C233-25 199 4 140 4 58 4 20-42 15-125 8-235 124-281 211-232c18 10 29 29 36 50l-46 12c-8-25-30-41-62-41-52 0-71 34-72 86" id="aI"/><path d="M110-194c64 0 96 36 96 99 0 64-35 99-97 99-61 0-95-36-95-99 0-62 34-99 96-99zm-1 164c35 0 45-28 45-65 0-40-10-65-43-65-34 0-45 26-45 65 0 36 10 65 43 65" id="aJ"/><path d="M135-194c87-1 58 113 63 194h-50c-7-57 23-157-34-157-59 0-34 97-39 157H25l-1-190h47c2 12-1 28 3 38 12-26 28-41 61-42" id="aK"/><path d="M121-226c-27-7-43 5-38 36h38v33H83V0H34v-157H6v-33h28c-9-59 32-81 87-68v32" id="aL"/><path d="M25-224v-37h50v37H25zM25 0v-190h50V0H25" id="aM"/><path d="M195-6C206 82 75 100 31 46c-4-6-6-13-8-21l49-6c3 16 16 24 34 25 40 0 42-37 40-79-11 22-30 35-61 35-53 0-70-43-70-97 0-56 18-96 73-97 30 0 46 14 59 34l2-30h47zm-90-29c32 0 41-27 41-63 0-35-9-62-40-62-32 0-39 29-40 63 0 36 9 62 39 62" id="aN"/><path d="M85 4C-2 5 27-109 22-190h50c7 57-23 150 33 157 60-5 35-97 40-157h50l1 190h-47c-2-12 1-28-3-38-12 25-28 42-61 42" id="aO"/><path d="M135-150c-39-12-60 13-60 57V0H25l-1-190h47c2 13-1 29 3 40 6-28 27-53 61-41v41" id="aP"/><path d="M133-34C117-15 103 5 69 4 32 3 11-16 11-54c-1-60 55-63 116-61 1-26-3-47-28-47-18 1-26 9-28 27l-52-2c7-38 36-58 82-57s74 22 75 68l1 82c-1 14 12 18 25 15v27c-30 8-71 5-69-32zm-48 3c29 0 43-24 42-57-32 0-66-3-65 30 0 17 8 27 23 27" id="aQ"/><path d="M115-3C79 11 28 4 28-45v-112H4v-33h27l15-45h31v45h36v33H77v99c-1 23 16 31 38 25v30" id="aR"/><path d="M137-138c1-29-70-34-71-4 15 46 118 7 119 86 1 83-164 76-172 9l43-7c4 19 20 25 44 25 33 8 57-30 24-41C81-84 22-81 20-136c-2-80 154-74 161-7" id="aS"/><g id="g"><use transform="matrix(0.09753086419753083,0,0,0.09753086419753083,0,0)" xlink:href="#aI"/><use transform="matrix(0.09753086419753083,0,0,0.09753086419753083,25.260493827160484,0)" xlink:href="#aJ"/><use transform="matrix(0.09753086419753083,0,0,0.09753086419753083,46.619753086419735,0)" xlink:href="#aK"/><use transform="matrix(0.09753086419753083,0,0,0.09753086419753083,67.979012345679,0)" xlink:href="#aL"/><use transform="matrix(0.09753086419753083,0,0,0.09753086419753083,79.58518518518517,0)" xlink:href="#aM"/><use transform="matrix(0.09753086419753083,0,0,0.09753086419753083,89.33827160493826,0)" xlink:href="#aN"/><use transform="matrix(0.09753086419753083,0,0,0.09753086419753083,110.69753086419752,0)" xlink:href="#aO"/><use transform="matrix(0.09753086419753083,0,0,0.09753086419753083,132.05679012345678,0)" xlink:href="#aP"/><use transform="matrix(0.09753086419753083,0,0,0.09753086419753083,145.7111111111111,0)" xlink:href="#aQ"/><use transform="matrix(0.09753086419753083,0,0,0.09753086419753083,165.2172839506173,0)" xlink:href="#aR"/><use transform="matrix(0.09753086419753083,0,0,0.09753086419753083,176.82345679012346,0)" xlink:href="#aM"/><use transform="matrix(0.09753086419753083,0,0,0.09753086419753083,186.57654320987655,0)" xlink:href="#aJ"/><use transform="matrix(0.09753086419753083,0,0,0.09753086419753083,207.93580246913584,0)" xlink:href="#aK"/><use transform="matrix(0.09753086419753083,0,0,0.09753086419753083,229.29506172839507,0)" xlink:href="#aS"/></g><path fill="#fff" d="M212-179c-10-28-35-45-73-45-59 0-87 40-87 99 0 60 29 101 89 101 43 0 62-24 78-52l27 14C228-24 195 4 139 4 59 4 22-46 18-125c-6-104 99-153 187-111 19 9 31 26 39 46" id="aT"/><path fill="#fff" d="M114-163C36-179 61-72 57 0H25l-1-190h30c1 12-1 29 2 39 6-27 23-49 58-41v29" id="aU"/><path fill="#fff" d="M100-194c63 0 86 42 84 106H49c0 40 14 67 53 68 26 1 43-12 49-29l28 8c-11 28-37 45-77 45C44 4 14-33 15-96c1-61 26-98 85-98zm52 81c6-60-76-77-97-28-3 7-6 17-6 28h103" id="aV"/><path fill="#fff" d="M141-36C126-15 110 5 73 4 37 3 15-17 15-53c-1-64 63-63 125-63 3-35-9-54-41-54-24 1-41 7-42 31l-33-3c5-37 33-52 76-52 45 0 72 20 72 64v82c-1 20 7 32 28 27v20c-31 9-61-2-59-35zM48-53c0 20 12 33 32 33 41-3 63-29 60-74-43 2-92-5-92 41" id="aW"/><path fill="#fff" d="M59-47c-2 24 18 29 38 22v24C64 9 27 4 27-40v-127H5v-23h24l9-43h21v43h35v23H59v120" id="aX"/><g id="h"><use transform="matrix(0.06790123456790123,0,0,0.06790123456790123,0,0)" xlink:href="#aT"/><use transform="matrix(0.06790123456790123,0,0,0.06790123456790123,17.586419753086417,0)" xlink:href="#aU"/><use transform="matrix(0.06790123456790123,0,0,0.06790123456790123,25.666666666666664,0)" xlink:href="#aV"/><use transform="matrix(0.06790123456790123,0,0,0.06790123456790123,39.24691358024691,0)" xlink:href="#aW"/><use transform="matrix(0.06790123456790123,0,0,0.06790123456790123,52.82716049382716,0)" xlink:href="#aX"/><use transform="matrix(0.06790123456790123,0,0,0.06790123456790123,59.61728395061728,0)" xlink:href="#aV"/></g><use transform="matrix(0.06790123456790123,0,0,0.06790123456790123,0,0)" xlink:href="#aW" id="i"/><path fill="#fff" d="M137 0h-34L2-248h35l83 218 83-218h36" id="aY"/><path fill="#fff" d="M240 0l2-218c-23 76-54 145-80 218h-23L58-218 59 0H30v-248h44l77 211c21-75 51-140 76-211h43V0h-30" id="aZ"/><path fill="#fff" d="M205 0l-28-72H64L36 0H1l101-248h38L239 0h-34zm-38-99l-47-123c-12 45-31 82-46 123h93" id="ba"/><path fill="#fff" d="M30-248c87 1 191-15 191 75 0 78-77 80-158 76V0H30v-248zm33 125c57 0 124 11 124-50 0-59-68-47-124-48v98" id="bb"/><g id="j"><use transform="matrix(0.06790123456790123,0,0,0.06790123456790123,0,0)" xlink:href="#aY"/><use transform="matrix(0.06790123456790123,0,0,0.06790123456790123,16.296296296296294,0)" xlink:href="#aZ"/><use transform="matrix(0.06790123456790123,0,0,0.06790123456790123,36.59876543209876,0)" xlink:href="#ba"/><use transform="matrix(0.06790123456790123,0,0,0.06790123456790123,52.89506172839505,0)" xlink:href="#bb"/></g><path fill="#fff" d="M101-234c-31-9-42 10-38 44h38v23H63V0H32v-167H5v-23h27c-7-52 17-82 69-68v24" id="bc"/><path fill="#fff" d="M24-231v-30h32v30H24zM24 0v-190h32V0H24" id="bd"/><path fill="#fff" d="M24 0v-261h32V0H24" id="be"/><g id="k"><use transform="matrix(0.06790123456790123,0,0,0.06790123456790123,0,0)" xlink:href="#bc"/><use transform="matrix(0.06790123456790123,0,0,0.06790123456790123,6.790123456790123,0)" xlink:href="#bd"/><use transform="matrix(0.06790123456790123,0,0,0.06790123456790123,12.15432098765432,0)" xlink:href="#be"/><use transform="matrix(0.06790123456790123,0,0,0.06790123456790123,17.518518518518512,0)" xlink:href="#aV"/></g><path fill="#fff" d="M106-169C34-169 62-67 57 0H25v-261h32l-1 103c12-21 28-36 61-36 89 0 53 116 60 194h-32v-121c2-32-8-49-39-48" id="bf"/><g id="l"><use transform="matrix(0.06790123456790123,0,0,0.06790123456790123,0,0)" xlink:href="#aX"/><use transform="matrix(0.06790123456790123,0,0,0.06790123456790123,6.790123456790123,0)" xlink:href="#bf"/><use transform="matrix(0.06790123456790123,0,0,0.06790123456790123,20.37037037037037,0)" xlink:href="#aW"/><use transform="matrix(0.06790123456790123,0,0,0.06790123456790123,33.95061728395062,0)" xlink:href="#aX"/></g><path fill="#fff" d="M85-194c31 0 48 13 60 33l-1-100h32l1 261h-30c-2-10 0-23-3-31C134-8 116 4 85 4 32 4 16-35 15-94c0-66 23-100 70-100zm9 24c-40 0-46 34-46 75 0 40 6 74 45 74 42 0 51-32 51-76 0-42-9-74-50-73" id="bg"/><path fill="#fff" d="M117-194c89-4 53 116 60 194h-32v-121c0-31-8-49-39-48C34-167 62-67 57 0H25l-1-190h30c1 10-1 24 2 32 11-22 29-35 61-36" id="bh"/><path fill="#fff" d="M135-143c-3-34-86-38-87 0 15 53 115 12 119 90S17 21 10-45l28-5c4 36 97 45 98 0-10-56-113-15-118-90-4-57 82-63 122-42 12 7 21 19 24 35" id="bi"/><g id="m"><use transform="matrix(0.06790123456790123,0,0,0.06790123456790123,0,0)" xlink:href="#bg"/><use transform="matrix(0.06790123456790123,0,0,0.06790123456790123,13.580246913580247,0)" xlink:href="#aV"/><use transform="matrix(0.06790123456790123,0,0,0.06790123456790123,27.160493827160494,0)" xlink:href="#bc"/><use transform="matrix(0.06790123456790123,0,0,0.06790123456790123,33.95061728395062,0)" xlink:href="#bd"/><use transform="matrix(0.06790123456790123,0,0,0.06790123456790123,39.314814814814824,0)" xlink:href="#bh"/><use transform="matrix(0.06790123456790123,0,0,0.06790123456790123,52.89506172839506,0)" xlink:href="#aV"/><use transform="matrix(0.06790123456790123,0,0,0.06790123456790123,66.47530864197532,0)" xlink:href="#bi"/></g><path fill="#fff" d="M179-190L93 31C79 59 56 82 12 73V49c39 6 53-20 64-50L1-190h34L92-34l54-156h33" id="bj"/><path fill="#fff" d="M100-194c62-1 85 37 85 99 1 63-27 99-86 99S16-35 15-95c0-66 28-99 85-99zM99-20c44 1 53-31 53-75 0-43-8-75-51-75s-53 32-53 75 10 74 51 75" id="bk"/><path fill="#fff" d="M84 4C-5 8 30-112 23-190h32v120c0 31 7 50 39 49 72-2 45-101 50-169h31l1 190h-30c-1-10 1-25-2-33-11 22-28 36-60 37" id="bl"/><g id="n"><use transform="matrix(0.06790123456790123,0,0,0.06790123456790123,0,0)" xlink:href="#bj"/><use transform="matrix(0.06790123456790123,0,0,0.06790123456790123,12.222222222222221,0)" xlink:href="#bk"/><use transform="matrix(0.06790123456790123,0,0,0.06790123456790123,25.80246913580247,0)" xlink:href="#bl"/><use transform="matrix(0.06790123456790123,0,0,0.06790123456790123,39.382716049382715,0)" xlink:href="#aU"/></g><g id="o"><use transform="matrix(0.06790123456790123,0,0,0.06790123456790123,0,0)" xlink:href="#aW"/><use transform="matrix(0.06790123456790123,0,0,0.06790123456790123,13.580246913580247,0)" xlink:href="#bg"/></g><path fill="#fff" d="M115-194c53 0 69 39 70 98 0 66-23 100-70 100C84 3 66-7 56-30L54 0H23l1-261h32v101c10-23 28-34 59-34zm-8 174c40 0 45-34 45-75 0-40-5-75-45-74-42 0-51 32-51 76 0 43 10 73 51 73" id="bm"/><path fill="#fff" d="M143 0L79-87 56-68V0H24v-261h32v163l83-92h37l-77 82L181 0h-38" id="bn"/><g id="p"><use transform="matrix(0.06790123456790123,0,0,0.06790123456790123,0,0)" xlink:href="#bm"/><use transform="matrix(0.06790123456790123,0,0,0.06790123456790123,13.580246913580247,0)" xlink:href="#aU"/><use transform="matrix(0.06790123456790123,0,0,0.06790123456790123,21.660493827160494,0)" xlink:href="#aV"/><use transform="matrix(0.06790123456790123,0,0,0.06790123456790123,35.24074074074074,0)" xlink:href="#aW"/><use transform="matrix(0.06790123456790123,0,0,0.06790123456790123,48.82098765432099,0)" xlink:href="#bn"/><use transform="matrix(0.06790123456790123,0,0,0.06790123456790123,61.04320987654321,0)" xlink:href="#bi"/></g><path d="M205 0l-28-72H64L36 0H1l101-248h38L239 0h-34zm-38-99l-47-123c-12 45-31 82-46 123h93" id="bo"/><path d="M85-194c31 0 48 13 60 33l-1-100h32l1 261h-30c-2-10 0-23-3-31C134-8 116 4 85 4 32 4 16-35 15-94c0-66 23-100 70-100zm9 24c-40 0-46 34-46 75 0 40 6 74 45 74 42 0 51-32 51-76 0-42-9-74-50-73" id="bp"/><g id="q"><use transform="matrix(0.06790123456790123,0,0,0.06790123456790123,0,0)" xlink:href="#bo"/><use transform="matrix(0.06790123456790123,0,0,0.06790123456790123,16.296296296296294,0)" xlink:href="#bp"/><use transform="matrix(0.06790123456790123,0,0,0.06790123456790123,29.87654320987654,0)" xlink:href="#bp"/></g><path d="M96-169c-40 0-48 33-48 73s9 75 48 75c24 0 41-14 43-38l32 2c-6 37-31 61-74 61-59 0-76-41-82-99-10-93 101-131 147-64 4 7 5 14 7 22l-32 3c-4-21-16-35-41-35" id="bq"/><path d="M84 4C-5 8 30-112 23-190h32v120c0 31 7 50 39 49 72-2 45-101 50-169h31l1 190h-30c-1-10 1-25-2-33-11 22-28 36-60 37" id="br"/><path d="M100-194c63 0 86 42 84 106H49c0 40 14 67 53 68 26 1 43-12 49-29l28 8c-11 28-37 45-77 45C44 4 14-33 15-96c1-61 26-98 85-98zm52 81c6-60-76-77-97-28-3 7-6 17-6 28h103" id="bs"/><g id="r"><use transform="matrix(0.06790123456790123,0,0,0.06790123456790123,0,0)" xlink:href="#bq"/><use transform="matrix(0.06790123456790123,0,0,0.06790123456790123,12.222222222222221,0)" xlink:href="#br"/><use transform="matrix(0.06790123456790123,0,0,0.06790123456790123,25.80246913580247,0)" xlink:href="#bs"/></g><path d="M115-194c55 1 70 41 70 98S169 2 115 4C84 4 66-9 55-30l1 105H24l-1-265h31l2 30c10-21 28-34 59-34zm-8 174c40 0 45-34 45-75s-6-73-45-74c-42 0-51 32-51 76 0 43 10 73 51 73" id="bt"/><path d="M100-194c62-1 85 37 85 99 1 63-27 99-86 99S16-35 15-95c0-66 28-99 85-99zM99-20c44 1 53-31 53-75 0-43-8-75-51-75s-53 32-53 75 10 74 51 75" id="bu"/><path d="M24-231v-30h32v30H24zM24 0v-190h32V0H24" id="bv"/><path d="M117-194c89-4 53 116 60 194h-32v-121c0-31-8-49-39-48C34-167 62-67 57 0H25l-1-190h30c1 10-1 24 2 32 11-22 29-35 61-36" id="bw"/><path d="M59-47c-2 24 18 29 38 22v24C64 9 27 4 27-40v-127H5v-23h24l9-43h21v43h35v23H59v120" id="bx"/><path d="M135-143c-3-34-86-38-87 0 15 53 115 12 119 90S17 21 10-45l28-5c4 36 97 45 98 0-10-56-113-15-118-90-4-57 82-63 122-42 12 7 21 19 24 35" id="by"/><g id="s"><use transform="matrix(0.06790123456790123,0,0,0.06790123456790123,0,0)" xlink:href="#bt"/><use transform="matrix(0.06790123456790123,0,0,0.06790123456790123,13.580246913580247,0)" xlink:href="#bu"/><use transform="matrix(0.06790123456790123,0,0,0.06790123456790123,27.160493827160494,0)" xlink:href="#bv"/><use transform="matrix(0.06790123456790123,0,0,0.06790123456790123,32.52469135802469,0)" xlink:href="#bw"/><use transform="matrix(0.06790123456790123,0,0,0.06790123456790123,46.10493827160494,0)" xlink:href="#bx"/><use transform="matrix(0.06790123456790123,0,0,0.06790123456790123,52.89506172839506,0)" xlink:href="#by"/></g><path d="M101-234c-31-9-42 10-38 44h38v23H63V0H32v-167H5v-23h27c-7-52 17-82 69-68v24" id="bz"/><path d="M114-163C36-179 61-72 57 0H25l-1-190h30c1 12-1 29 2 39 6-27 23-49 58-41v29" id="bA"/><g id="t"><use transform="matrix(0.06790123456790123,0,0,0.06790123456790123,0,0)" xlink:href="#bz"/><use transform="matrix(0.06790123456790123,0,0,0.06790123456790123,6.790123456790123,0)" xlink:href="#bu"/><use transform="matrix(0.06790123456790123,0,0,0.06790123456790123,20.37037037037037,0)" xlink:href="#bA"/></g><path d="M179-190L93 31C79 59 56 82 12 73V49c39 6 53-20 64-50L1-190h34L92-34l54-156h33" id="bB"/><g id="u"><use transform="matrix(0.06790123456790123,0,0,0.06790123456790123,0,0)" xlink:href="#bB"/><use transform="matrix(0.06790123456790123,0,0,0.06790123456790123,12.222222222222221,0)" xlink:href="#bu"/><use transform="matrix(0.06790123456790123,0,0,0.06790123456790123,25.80246913580247,0)" xlink:href="#br"/><use transform="matrix(0.06790123456790123,0,0,0.06790123456790123,39.382716049382715,0)" xlink:href="#bA"/></g><path d="M108 0H70L1-190h34L89-25l56-165h34" id="bC"/><g id="v"><use transform="matrix(0.06790123456790123,0,0,0.06790123456790123,0,0)" xlink:href="#bC"/><use transform="matrix(0.06790123456790123,0,0,0.06790123456790123,12.222222222222221,0)" xlink:href="#bv"/><use transform="matrix(0.06790123456790123,0,0,0.06790123456790123,17.586419753086417,0)" xlink:href="#bp"/><use transform="matrix(0.06790123456790123,0,0,0.06790123456790123,31.166666666666664,0)" xlink:href="#bs"/><use transform="matrix(0.06790123456790123,0,0,0.06790123456790123,44.74691358024691,0)" xlink:href="#bu"/></g><path d="M33 0v-248h34V0H33" id="bD"/><g id="w"><use transform="matrix(0.06790123456790123,0,0,0.06790123456790123,0,0)" xlink:href="#bD"/><use transform="matrix(0.06790123456790123,0,0,0.06790123456790123,6.790123456790123,0)" xlink:href="#bz"/></g><g id="x"><use transform="matrix(0.06790123456790123,0,0,0.06790123456790123,0,0)" xlink:href="#bw"/><use transform="matrix(0.06790123456790123,0,0,0.06790123456790123,13.580246913580247,0)" xlink:href="#bu"/></g><g id="y"><use transform="matrix(0.06790123456790123,0,0,0.06790123456790123,0,0)" xlink:href="#bt"/><use transform="matrix(0.06790123456790123,0,0,0.06790123456790123,13.580246913580247,0)" xlink:href="#bu"/><use transform="matrix(0.06790123456790123,0,0,0.06790123456790123,27.160493827160494,0)" xlink:href="#bv"/><use transform="matrix(0.06790123456790123,0,0,0.06790123456790123,32.52469135802469,0)" xlink:href="#bw"/><use transform="matrix(0.06790123456790123,0,0,0.06790123456790123,46.10493827160494,0)" xlink:href="#bx"/></g><g id="z"><use transform="matrix(0.06790123456790123,0,0,0.06790123456790123,0,0)" xlink:href="#bv"/><use transform="matrix(0.06790123456790123,0,0,0.06790123456790123,5.364197530864197,0)" xlink:href="#by"/></g><path d="M177-190C167-65 218 103 67 71c-23-6-38-20-44-43l32-5c15 47 100 32 89-28v-30C133-14 115 1 83 1 29 1 15-40 15-95c0-56 16-97 71-98 29-1 48 16 59 35 1-10 0-23 2-32h30zM94-22c36 0 50-32 50-73 0-42-14-75-50-75-39 0-46 34-46 75s6 73 46 73" id="bE"/><g id="A"><use transform="matrix(0.06790123456790123,0,0,0.06790123456790123,0,0)" xlink:href="#bq"/><use transform="matrix(0.06790123456790123,0,0,0.06790123456790123,12.222222222222221,0)" xlink:href="#bu"/><use transform="matrix(0.06790123456790123,0,0,0.06790123456790123,25.80246913580247,0)" xlink:href="#bw"/><use transform="matrix(0.06790123456790123,0,0,0.06790123456790123,39.382716049382715,0)" xlink:href="#bz"/><use transform="matrix(0.06790123456790123,0,0,0.06790123456790123,46.172839506172835,0)" xlink:href="#bv"/><use transform="matrix(0.06790123456790123,0,0,0.06790123456790123,51.53703703703703,0)" xlink:href="#bE"/><use transform="matrix(0.06790123456790123,0,0,0.06790123456790123,65.11728395061728,0)" xlink:href="#br"/><use transform="matrix(0.06790123456790123,0,0,0.06790123456790123,78.69753086419752,0)" xlink:href="#bA"/><use transform="matrix(0.06790123456790123,0,0,0.06790123456790123,86.77777777777777,0)" xlink:href="#bs"/><use transform="matrix(0.06790123456790123,0,0,0.06790123456790123,100.35802469135803,0)" xlink:href="#bp"/></g><path d="M206 0h-36l-40-164L89 0H53L-1-190h32L70-26l43-164h34l41 164 42-164h31" id="bF"/><path d="M106-169C34-169 62-67 57 0H25v-261h32l-1 103c12-21 28-36 61-36 89 0 53 116 60 194h-32v-121c2-32-8-49-39-48" id="bG"/><g id="B"><use transform="matrix(0.06790123456790123,0,0,0.06790123456790123,0,0)" xlink:href="#bF"/><use transform="matrix(0.06790123456790123,0,0,0.06790123456790123,17.586419753086417,0)" xlink:href="#bv"/><use transform="matrix(0.06790123456790123,0,0,0.06790123456790123,22.950617283950614,0)" xlink:href="#bx"/><use transform="matrix(0.06790123456790123,0,0,0.06790123456790123,29.740740740740737,0)" xlink:href="#bG"/></g><path d="M141-36C126-15 110 5 73 4 37 3 15-17 15-53c-1-64 63-63 125-63 3-35-9-54-41-54-24 1-41 7-42 31l-33-3c5-37 33-52 76-52 45 0 72 20 72 64v82c-1 20 7 32 28 27v20c-31 9-61-2-59-35zM48-53c0 20 12 33 32 33 41-3 63-29 60-74-43 2-92-5-92 41" id="bH"/><use transform="matrix(0.06790123456790123,0,0,0.06790123456790123,0,0)" xlink:href="#bH" id="C"/><path d="M68-38c1 34 0 65-14 84H32c9-13 17-26 17-46H33v-38h35" id="bI"/><g id="D"><use transform="matrix(0.06790123456790123,0,0,0.06790123456790123,0,0)" xlink:href="#bC"/><use transform="matrix(0.06790123456790123,0,0,0.06790123456790123,12.222222222222221,0)" xlink:href="#bv"/><use transform="matrix(0.06790123456790123,0,0,0.06790123456790123,17.586419753086417,0)" xlink:href="#bp"/><use transform="matrix(0.06790123456790123,0,0,0.06790123456790123,31.166666666666664,0)" xlink:href="#bs"/><use transform="matrix(0.06790123456790123,0,0,0.06790123456790123,44.74691358024691,0)" xlink:href="#bu"/><use transform="matrix(0.06790123456790123,0,0,0.06790123456790123,58.32716049382716,0)" xlink:href="#bI"/></g><use transform="matrix(0.06790123456790123,0,0,0.06790123456790123,0,0)" xlink:href="#bH" id="E"/><path d="M24 0v-261h32V0H24" id="bJ"/><g id="F"><use transform="matrix(0.06790123456790123,0,0,0.06790123456790123,0,0)" xlink:href="#bt"/><use transform="matrix(0.06790123456790123,0,0,0.06790123456790123,13.580246913580247,0)" xlink:href="#bA"/><use transform="matrix(0.06790123456790123,0,0,0.06790123456790123,21.660493827160494,0)" xlink:href="#bs"/><use transform="matrix(0.06790123456790123,0,0,0.06790123456790123,35.24074074074074,0)" xlink:href="#bA"/><use transform="matrix(0.06790123456790123,0,0,0.06790123456790123,43.32098765432099,0)" xlink:href="#bu"/><use transform="matrix(0.06790123456790123,0,0,0.06790123456790123,56.901234567901234,0)" xlink:href="#bJ"/><use transform="matrix(0.06790123456790123,0,0,0.06790123456790123,62.26543209876543,0)" xlink:href="#bJ"/></g><g id="G"><use transform="matrix(0.06790123456790123,0,0,0.06790123456790123,0,0)" xlink:href="#bH"/><use transform="matrix(0.06790123456790123,0,0,0.06790123456790123,13.580246913580247,0)" xlink:href="#bp"/></g><g id="H"><use transform="matrix(0.06790123456790123,0,0,0.06790123456790123,0,0)" xlink:href="#bv"/><use transform="matrix(0.06790123456790123,0,0,0.06790123456790123,5.364197530864197,0)" xlink:href="#bw"/><use transform="matrix(0.06790123456790123,0,0,0.06790123456790123,18.944444444444443,0)" xlink:href="#by"/><use transform="matrix(0.06790123456790123,0,0,0.06790123456790123,31.166666666666664,0)" xlink:href="#bs"/><use transform="matrix(0.06790123456790123,0,0,0.06790123456790123,44.74691358024691,0)" xlink:href="#bA"/><use transform="matrix(0.06790123456790123,0,0,0.06790123456790123,52.82716049382716,0)" xlink:href="#bx"/><use transform="matrix(0.06790123456790123,0,0,0.06790123456790123,59.61728395061728,0)" xlink:href="#bs"/><use transform="matrix(0.06790123456790123,0,0,0.06790123456790123,73.19753086419752,0)" xlink:href="#bp"/></g><path d="M115-194c53 0 69 39 70 98 0 66-23 100-70 100C84 3 66-7 56-30L54 0H23l1-261h32v101c10-23 28-34 59-34zm-8 174c40 0 45-34 45-75 0-40-5-75-45-74-42 0-51 32-51 76 0 43 10 73 51 73" id="bK"/><g id="I"><use transform="matrix(0.06790123456790123,0,0,0.06790123456790123,0,0)" xlink:href="#bK"/><use transform="matrix(0.06790123456790123,0,0,0.06790123456790123,13.580246913580247,0)" xlink:href="#bB"/></g><g id="J"><use transform="matrix(0.06790123456790123,0,0,0.06790123456790123,0,0)" xlink:href="#bp"/><use transform="matrix(0.06790123456790123,0,0,0.06790123456790123,13.580246913580247,0)" xlink:href="#bs"/><use transform="matrix(0.06790123456790123,0,0,0.06790123456790123,27.160493827160494,0)" xlink:href="#bz"/><use transform="matrix(0.06790123456790123,0,0,0.06790123456790123,33.95061728395062,0)" xlink:href="#bH"/><use transform="matrix(0.06790123456790123,0,0,0.06790123456790123,47.53086419753087,0)" xlink:href="#br"/><use transform="matrix(0.06790123456790123,0,0,0.06790123456790123,61.111111111111114,0)" xlink:href="#bJ"/><use transform="matrix(0.06790123456790123,0,0,0.06790123456790123,66.47530864197532,0)" xlink:href="#bx"/></g><g id="K"><use transform="matrix(0.06790123456790123,0,0,0.06790123456790123,0,0)" xlink:href="#ba"/><use transform="matrix(0.06790123456790123,0,0,0.06790123456790123,16.296296296296294,0)" xlink:href="#bh"/><use transform="matrix(0.06790123456790123,0,0,0.06790123456790123,29.87654320987654,0)" xlink:href="#bj"/></g><path fill="#fff" d="M96-169c-40 0-48 33-48 73s9 75 48 75c24 0 41-14 43-38l32 2c-6 37-31 61-74 61-59 0-76-41-82-99-10-93 101-131 147-64 4 7 5 14 7 22l-32 3c-4-21-16-35-41-35" id="bL"/><g id="L"><use transform="matrix(0.06790123456790123,0,0,0.06790123456790123,0,0)" xlink:href="#bL"/><use transform="matrix(0.06790123456790123,0,0,0.06790123456790123,12.222222222222221,0)" xlink:href="#bl"/><use transform="matrix(0.06790123456790123,0,0,0.06790123456790123,25.80246913580247,0)" xlink:href="#aV"/></g><path fill="#fff" d="M115-194c55 1 70 41 70 98S169 2 115 4C84 4 66-9 55-30l1 105H24l-1-265h31l2 30c10-21 28-34 59-34zm-8 174c40 0 45-34 45-75s-6-73-45-74c-42 0-51 32-51 76 0 43 10 73 51 73" id="bM"/><g id="M"><use transform="matrix(0.06790123456790123,0,0,0.06790123456790123,0,0)" xlink:href="#bM"/><use transform="matrix(0.06790123456790123,0,0,0.06790123456790123,13.580246913580247,0)" xlink:href="#bk"/><use transform="matrix(0.06790123456790123,0,0,0.06790123456790123,27.160493827160494,0)" xlink:href="#bd"/><use transform="matrix(0.06790123456790123,0,0,0.06790123456790123,32.52469135802469,0)" xlink:href="#bh"/><use transform="matrix(0.06790123456790123,0,0,0.06790123456790123,46.10493827160494,0)" xlink:href="#aX"/><use transform="matrix(0.06790123456790123,0,0,0.06790123456790123,52.89506172839506,0)" xlink:href="#bi"/></g><path fill="#fff" d="M177-190C167-65 218 103 67 71c-23-6-38-20-44-43l32-5c15 47 100 32 89-28v-30C133-14 115 1 83 1 29 1 15-40 15-95c0-56 16-97 71-98 29-1 48 16 59 35 1-10 0-23 2-32h30zM94-22c36 0 50-32 50-73 0-42-14-75-50-75-39 0-46 34-46 75s6 73 46 73" id="bN"/><g id="N"><use transform="matrix(0.06790123456790123,0,0,0.06790123456790123,0,0)" xlink:href="#bL"/><use transform="matrix(0.06790123456790123,0,0,0.06790123456790123,12.222222222222221,0)" xlink:href="#bk"/><use transform="matrix(0.06790123456790123,0,0,0.06790123456790123,25.80246913580247,0)" xlink:href="#bh"/><use transform="matrix(0.06790123456790123,0,0,0.06790123456790123,39.382716049382715,0)" xlink:href="#bc"/><use transform="matrix(0.06790123456790123,0,0,0.06790123456790123,46.172839506172835,0)" xlink:href="#bd"/><use transform="matrix(0.06790123456790123,0,0,0.06790123456790123,51.53703703703703,0)" xlink:href="#bN"/><use transform="matrix(0.06790123456790123,0,0,0.06790123456790123,65.11728395061728,0)" xlink:href="#bl"/><use transform="matrix(0.06790123456790123,0,0,0.06790123456790123,78.69753086419752,0)" xlink:href="#aU"/><use transform="matrix(0.06790123456790123,0,0,0.06790123456790123,86.77777777777777,0)" xlink:href="#aV"/><use transform="matrix(0.06790123456790123,0,0,0.06790123456790123,100.35802469135803,0)" xlink:href="#bg"/></g><path fill="#fff" d="M206 0h-36l-40-164L89 0H53L-1-190h32L70-26l43-164h34l41 164 42-164h31" id="bO"/><g id="O"><use transform="matrix(0.06790123456790123,0,0,0.06790123456790123,0,0)" xlink:href="#bO"/><use transform="matrix(0.06790123456790123,0,0,0.06790123456790123,17.586419753086417,0)" xlink:href="#bd"/><use transform="matrix(0.06790123456790123,0,0,0.06790123456790123,22.950617283950614,0)" xlink:href="#aX"/><use transform="matrix(0.06790123456790123,0,0,0.06790123456790123,29.740740740740737,0)" xlink:href="#bf"/></g><use transform="matrix(0.06790123456790123,0,0,0.06790123456790123,0,0)" xlink:href="#aW" id="P"/><path fill="#fff" d="M108 0H70L1-190h34L89-25l56-165h34" id="bP"/><g id="Q"><use transform="matrix(0.06790123456790123,0,0,0.06790123456790123,0,0)" xlink:href="#bP"/><use transform="matrix(0.06790123456790123,0,0,0.06790123456790123,12.222222222222221,0)" xlink:href="#bd"/><use transform="matrix(0.06790123456790123,0,0,0.06790123456790123,17.586419753086417,0)" xlink:href="#bg"/><use transform="matrix(0.06790123456790123,0,0,0.06790123456790123,31.166666666666664,0)" xlink:href="#aV"/><use transform="matrix(0.06790123456790123,0,0,0.06790123456790123,44.74691358024691,0)" xlink:href="#bk"/></g><g id="R"><use transform="matrix(0.06790123456790123,0,0,0.06790123456790123,0,0)" xlink:href="#bO"/><use transform="matrix(0.06790123456790123,0,0,0.06790123456790123,17.586419753086417,0)" xlink:href="#bd"/><use transform="matrix(0.06790123456790123,0,0,0.06790123456790123,22.950617283950614,0)" xlink:href="#be"/><use transform="matrix(0.06790123456790123,0,0,0.06790123456790123,28.31481481481481,0)" xlink:href="#be"/></g><g id="S"><use transform="matrix(0.06790123456790123,0,0,0.06790123456790123,0,0)" xlink:href="#bm"/><use transform="matrix(0.06790123456790123,0,0,0.06790123456790123,13.580246913580247,0)" xlink:href="#aV"/></g><g id="T"><use transform="matrix(0.06790123456790123,0,0,0.06790123456790123,0,0)" xlink:href="#bd"/><use transform="matrix(0.06790123456790123,0,0,0.06790123456790123,5.364197530864197,0)" xlink:href="#bN"/><use transform="matrix(0.06790123456790123,0,0,0.06790123456790123,18.944444444444443,0)" xlink:href="#bh"/><use transform="matrix(0.06790123456790123,0,0,0.06790123456790123,32.52469135802469,0)" xlink:href="#bk"/><use transform="matrix(0.06790123456790123,0,0,0.06790123456790123,46.10493827160494,0)" xlink:href="#aU"/><use transform="matrix(0.06790123456790123,0,0,0.06790123456790123,54.18518518518518,0)" xlink:href="#aV"/><use transform="matrix(0.06790123456790123,0,0,0.06790123456790123,67.76543209876543,0)" xlink:href="#bg"/></g><g id="U"><use transform="matrix(0.06790123456790123,0,0,0.06790123456790123,0,0)" xlink:href="#aW"/><use transform="matrix(0.06790123456790123,0,0,0.06790123456790123,13.580246913580247,0)" xlink:href="#bh"/></g><path fill="#fff" d="M185-189c-5-48-123-54-124 2 14 75 158 14 163 119 3 78-121 87-175 55-17-10-28-26-33-46l33-7c5 56 141 63 141-1 0-78-155-14-162-118-5-82 145-84 179-34 5 7 8 16 11 25" id="bQ"/><path fill="#fff" d="M33 0v-248h34V0H33" id="bR"/><g id="V"><use transform="matrix(0.06790123456790123,0,0,0.06790123456790123,0,0)" xlink:href="#bQ"/><use transform="matrix(0.06790123456790123,0,0,0.06790123456790123,16.296296296296294,0)" xlink:href="#bQ"/><use transform="matrix(0.06790123456790123,0,0,0.06790123456790123,32.59259259259259,0)" xlink:href="#ba"/><use transform="matrix(0.06790123456790123,0,0,0.06790123456790123,48.888888888888886,0)" xlink:href="#bR"/></g><g id="W"><use transform="matrix(0.06790123456790123,0,0,0.06790123456790123,0,0)" xlink:href="#bL"/><use transform="matrix(0.06790123456790123,0,0,0.06790123456790123,12.222222222222221,0)" xlink:href="#bk"/><use transform="matrix(0.06790123456790123,0,0,0.06790123456790123,25.80246913580247,0)" xlink:href="#bh"/><use transform="matrix(0.06790123456790123,0,0,0.06790123456790123,39.382716049382715,0)" xlink:href="#bc"/><use transform="matrix(0.06790123456790123,0,0,0.06790123456790123,46.172839506172835,0)" xlink:href="#bd"/><use transform="matrix(0.06790123456790123,0,0,0.06790123456790123,51.53703703703703,0)" xlink:href="#bN"/><use transform="matrix(0.06790123456790123,0,0,0.06790123456790123,65.11728395061728,0)" xlink:href="#bl"/><use transform="matrix(0.06790123456790123,0,0,0.06790123456790123,78.69753086419752,0)" xlink:href="#aU"/><use transform="matrix(0.06790123456790123,0,0,0.06790123456790123,86.77777777777777,0)" xlink:href="#aW"/><use transform="matrix(0.06790123456790123,0,0,0.06790123456790123,100.35802469135803,0)" xlink:href="#aX"/><use transform="matrix(0.06790123456790123,0,0,0.06790123456790123,107.14814814814815,0)" xlink:href="#bd"/><use transform="matrix(0.06790123456790123,0,0,0.06790123456790123,112.51234567901236,0)" xlink:href="#bk"/><use transform="matrix(0.06790123456790123,0,0,0.06790123456790123,126.09259259259261,0)" xlink:href="#bh"/></g><g id="X"><use transform="matrix(0.06790123456790123,0,0,0.06790123456790123,0,0)" xlink:href="#bQ"/><use transform="matrix(0.06790123456790123,0,0,0.06790123456790123,16.296296296296294,0)" xlink:href="#aV"/><use transform="matrix(0.06790123456790123,0,0,0.06790123456790123,29.87654320987654,0)" xlink:href="#be"/><use transform="matrix(0.06790123456790123,0,0,0.06790123456790123,35.24074074074074,0)" xlink:href="#aV"/><use transform="matrix(0.06790123456790123,0,0,0.06790123456790123,48.82098765432099,0)" xlink:href="#bL"/><use transform="matrix(0.06790123456790123,0,0,0.06790123456790123,61.04320987654321,0)" xlink:href="#aX"/></g><g id="Y"><use transform="matrix(0.06790123456790123,0,0,0.06790123456790123,0,0)" xlink:href="#ba"/><use transform="matrix(0.06790123456790123,0,0,0.06790123456790123,16.296296296296294,0)" xlink:href="#bg"/></g><path fill="#fff" d="M233-177c-1 41-23 64-60 70L243 0h-38l-65-103H63V0H30v-248c88 3 205-21 203 71zM63-129c60-2 137 13 137-47 0-61-80-42-137-45v92" id="bS"/><g id="Z"><use transform="matrix(0.06790123456790123,0,0,0.06790123456790123,0,0)" xlink:href="#bS"/><use transform="matrix(0.06790123456790123,0,0,0.06790123456790123,17.586419753086417,0)" xlink:href="#aV"/><use transform="matrix(0.06790123456790123,0,0,0.06790123456790123,31.166666666666664,0)" xlink:href="#bi"/><use transform="matrix(0.06790123456790123,0,0,0.06790123456790123,43.388888888888886,0)" xlink:href="#bM"/><use transform="matrix(0.06790123456790123,0,0,0.06790123456790123,56.96913580246913,0)" xlink:href="#bk"/><use transform="matrix(0.06790123456790123,0,0,0.06790123456790123,70.54938271604938,0)" xlink:href="#bh"/><use transform="matrix(0.06790123456790123,0,0,0.06790123456790123,84.12962962962962,0)" xlink:href="#bi"/><use transform="matrix(0.06790123456790123,0,0,0.06790123456790123,96.35185185185185,0)" xlink:href="#aV"/></g><path fill="#fff" d="M127-220V0H93v-220H8v-28h204v28h-85" id="bT"/><g id="aa"><use transform="matrix(0.06790123456790123,0,0,0.06790123456790123,0,0)" xlink:href="#bT"/><use transform="matrix(0.06790123456790123,0,0,0.06790123456790123,13.512345679012345,0)" xlink:href="#bj"/><use transform="matrix(0.06790123456790123,0,0,0.06790123456790123,25.734567901234566,0)" xlink:href="#bM"/><use transform="matrix(0.06790123456790123,0,0,0.06790123456790123,39.31481481481481,0)" xlink:href="#aV"/></g><g id="ab"><use transform="matrix(0.06790123456790123,0,0,0.06790123456790123,0,0)" xlink:href="#bk"/><use transform="matrix(0.06790123456790123,0,0,0.06790123456790123,13.580246913580247,0)" xlink:href="#bc"/></g><path fill="#fff" d="M30-248c118-7 216 8 213 122C240-48 200 0 122 0H30v-248zM63-27c89 8 146-16 146-99s-60-101-146-95v194" id="bU"/><path fill="#fff" d="M63-220v92h138v28H63V0H30v-248h175v28H63" id="bV"/><g id="ac"><use transform="matrix(0.06790123456790123,0,0,0.06790123456790123,0,0)" xlink:href="#bU"/><use transform="matrix(0.06790123456790123,0,0,0.06790123456790123,17.586419753086417,0)" xlink:href="#bV"/><use transform="matrix(0.06790123456790123,0,0,0.06790123456790123,32.456790123456784,0)" xlink:href="#bb"/></g><g id="ad"><use transform="matrix(0.06790123456790123,0,0,0.06790123456790123,0,0)" xlink:href="#aY"/><use transform="matrix(0.06790123456790123,0,0,0.06790123456790123,16.296296296296294,0)" xlink:href="#aZ"/><use transform="matrix(0.06790123456790123,0,0,0.06790123456790123,36.59876543209876,0)" xlink:href="#ba"/><use transform="matrix(0.06790123456790123,0,0,0.06790123456790123,52.89506172839505,0)" xlink:href="#bb"/></g><path d="M212-179c-10-28-35-45-73-45-59 0-87 40-87 99 0 60 29 101 89 101 43 0 62-24 78-52l27 14C228-24 195 4 139 4 59 4 22-46 18-125c-6-104 99-153 187-111 19 9 31 26 39 46" id="bW"/><g id="ae"><use transform="matrix(0.06790123456790123,0,0,0.06790123456790123,0,0)" xlink:href="#bW"/><use transform="matrix(0.06790123456790123,0,0,0.06790123456790123,17.586419753086417,0)" xlink:href="#bA"/><use transform="matrix(0.06790123456790123,0,0,0.06790123456790123,25.666666666666664,0)" xlink:href="#bs"/><use transform="matrix(0.06790123456790123,0,0,0.06790123456790123,39.24691358024691,0)" xlink:href="#bH"/><use transform="matrix(0.06790123456790123,0,0,0.06790123456790123,52.82716049382716,0)" xlink:href="#bx"/><use transform="matrix(0.06790123456790123,0,0,0.06790123456790123,59.61728395061728,0)" xlink:href="#bs"/></g><g id="af"><use transform="matrix(0.06790123456790123,0,0,0.06790123456790123,0,0)" xlink:href="#bH"/><use transform="matrix(0.06790123456790123,0,0,0.06790123456790123,13.580246913580247,0)" xlink:href="#bw"/></g><path d="M185-189c-5-48-123-54-124 2 14 75 158 14 163 119 3 78-121 87-175 55-17-10-28-26-33-46l33-7c5 56 141 63 141-1 0-78-155-14-162-118-5-82 145-84 179-34 5 7 8 16 11 25" id="bX"/><g id="ag"><use transform="matrix(0.06790123456790123,0,0,0.06790123456790123,0,0)" xlink:href="#bX"/><use transform="matrix(0.06790123456790123,0,0,0.06790123456790123,16.296296296296294,0)" xlink:href="#bX"/><use transform="matrix(0.06790123456790123,0,0,0.06790123456790123,32.59259259259259,0)" xlink:href="#bo"/><use transform="matrix(0.06790123456790123,0,0,0.06790123456790123,48.888888888888886,0)" xlink:href="#bD"/></g><g id="ah"><use transform="matrix(0.06790123456790123,0,0,0.06790123456790123,0,0)" xlink:href="#bq"/><use transform="matrix(0.06790123456790123,0,0,0.06790123456790123,12.222222222222221,0)" xlink:href="#bu"/><use transform="matrix(0.06790123456790123,0,0,0.06790123456790123,25.80246913580247,0)" xlink:href="#bw"/><use transform="matrix(0.06790123456790123,0,0,0.06790123456790123,39.382716049382715,0)" xlink:href="#bz"/><use transform="matrix(0.06790123456790123,0,0,0.06790123456790123,46.172839506172835,0)" xlink:href="#bv"/><use transform="matrix(0.06790123456790123,0,0,0.06790123456790123,51.53703703703703,0)" xlink:href="#bE"/><use transform="matrix(0.06790123456790123,0,0,0.06790123456790123,65.11728395061728,0)" xlink:href="#br"/><use transform="matrix(0.06790123456790123,0,0,0.06790123456790123,78.69753086419752,0)" xlink:href="#bA"/><use transform="matrix(0.06790123456790123,0,0,0.06790123456790123,86.77777777777777,0)" xlink:href="#bH"/><use transform="matrix(0.06790123456790123,0,0,0.06790123456790123,100.35802469135803,0)" xlink:href="#bx"/><use transform="matrix(0.06790123456790123,0,0,0.06790123456790123,107.14814814814815,0)" xlink:href="#bv"/><use transform="matrix(0.06790123456790123,0,0,0.06790123456790123,112.51234567901236,0)" xlink:href="#bu"/><use transform="matrix(0.06790123456790123,0,0,0.06790123456790123,126.09259259259261,0)" xlink:href="#bw"/></g><g id="ai"><use transform="matrix(0.06790123456790123,0,0,0.06790123456790123,0,0)" xlink:href="#bX"/><use transform="matrix(0.06790123456790123,0,0,0.06790123456790123,16.296296296296294,0)" xlink:href="#bs"/><use transform="matrix(0.06790123456790123,0,0,0.06790123456790123,29.87654320987654,0)" xlink:href="#bJ"/><use transform="matrix(0.06790123456790123,0,0,0.06790123456790123,35.24074074074074,0)" xlink:href="#bs"/><use transform="matrix(0.06790123456790123,0,0,0.06790123456790123,48.82098765432099,0)" xlink:href="#bq"/><use transform="matrix(0.06790123456790123,0,0,0.06790123456790123,61.04320987654321,0)" xlink:href="#bx"/></g><g id="aj"><use transform="matrix(0.06790123456790123,0,0,0.06790123456790123,0,0)" xlink:href="#bo"/><use transform="matrix(0.06790123456790123,0,0,0.06790123456790123,16.296296296296294,0)" xlink:href="#bp"/></g><path d="M233-177c-1 41-23 64-60 70L243 0h-38l-65-103H63V0H30v-248c88 3 205-21 203 71zM63-129c60-2 137 13 137-47 0-61-80-42-137-45v92" id="bY"/><g id="ak"><use transform="matrix(0.06790123456790123,0,0,0.06790123456790123,0,0)" xlink:href="#bY"/><use transform="matrix(0.06790123456790123,0,0,0.06790123456790123,17.586419753086417,0)" xlink:href="#bs"/><use transform="matrix(0.06790123456790123,0,0,0.06790123456790123,31.166666666666664,0)" xlink:href="#by"/><use transform="matrix(0.06790123456790123,0,0,0.06790123456790123,43.388888888888886,0)" xlink:href="#bt"/><use transform="matrix(0.06790123456790123,0,0,0.06790123456790123,56.96913580246913,0)" xlink:href="#bu"/><use transform="matrix(0.06790123456790123,0,0,0.06790123456790123,70.54938271604938,0)" xlink:href="#bw"/><use transform="matrix(0.06790123456790123,0,0,0.06790123456790123,84.12962962962962,0)" xlink:href="#by"/><use transform="matrix(0.06790123456790123,0,0,0.06790123456790123,96.35185185185185,0)" xlink:href="#bs"/></g><path d="M127-220V0H93v-220H8v-28h204v28h-85" id="bZ"/><g id="al"><use transform="matrix(0.06790123456790123,0,0,0.06790123456790123,0,0)" xlink:href="#bZ"/><use transform="matrix(0.06790123456790123,0,0,0.06790123456790123,13.512345679012345,0)" xlink:href="#bB"/><use transform="matrix(0.06790123456790123,0,0,0.06790123456790123,25.734567901234566,0)" xlink:href="#bt"/><use transform="matrix(0.06790123456790123,0,0,0.06790123456790123,39.31481481481481,0)" xlink:href="#bs"/></g><g id="am"><use transform="matrix(0.06790123456790123,0,0,0.06790123456790123,0,0)" xlink:href="#bu"/><use transform="matrix(0.06790123456790123,0,0,0.06790123456790123,13.580246913580247,0)" xlink:href="#bz"/></g><path d="M137 0h-34L2-248h35l83 218 83-218h36" id="ca"/><g id="an"><use transform="matrix(0.06790123456790123,0,0,0.06790123456790123,0,0)" xlink:href="#ca"/><use transform="matrix(0.06790123456790123,0,0,0.06790123456790123,14.46296296296296,0)" xlink:href="#bo"/><use transform="matrix(0.06790123456790123,0,0,0.06790123456790123,30.759259259259252,0)" xlink:href="#bX"/><use transform="matrix(0.06790123456790123,0,0,0.06790123456790123,47.05555555555554,0)" xlink:href="#bZ"/></g><path d="M126-127c33 6 58 20 58 59 0 88-139 92-164 29-3-8-5-16-6-25l32-3c6 27 21 44 54 44 32 0 52-15 52-46 0-38-36-46-79-43v-28c39 1 72-4 72-42 0-27-17-43-46-43-28 0-47 15-49 41l-32-3c6-42 35-63 81-64 48-1 79 21 79 65 0 36-21 52-52 59" id="cb"/><path d="M33 0v-38h34V0H33" id="cc"/><path d="M101-251c68 0 85 55 85 127S166 4 100 4C33 4 14-52 14-124c0-73 17-127 87-127zm-1 229c47 0 54-49 54-102s-4-102-53-102c-51 0-55 48-55 102 0 53 5 102 54 102" id="cd"/><g id="ao"><use transform="matrix(0.06790123456790123,0,0,0.06790123456790123,0,0)" xlink:href="#cb"/><use transform="matrix(0.06790123456790123,0,0,0.06790123456790123,13.580246913580247,0)" xlink:href="#cc"/><use transform="matrix(0.06790123456790123,0,0,0.06790123456790123,20.37037037037037,0)" xlink:href="#cd"/></g></defs></g></svg>