<?xml version="1.0" encoding="UTF-8"?>
<!DOCTYPE svg PUBLIC "-//W3C//DTD SVG 1.1//EN" "https://www.w3.org/Graphics/SVG/1.1/DTD/svg11.dtd">
<svg version="1.1" xmlns="https://www.w3.org/2000/svg" xmlns:xlink="https://www.w3.org/1999/xlink" x="0" y="0" width="550" height="500" viewBox="0, 0, 550, 500">
  <g id="Layer_1">
    <g>
      <path d="M120.11,83.808 C100.308,83.808 84.256,67.621 84.256,47.654 C84.256,27.687 100.308,11.5 120.11,11.5 C139.911,11.5 155.963,27.687 155.963,47.654 C155.963,67.621 139.911,83.808 120.11,83.808 z" fill="#FFFFFF"/>
      <path d="M120.11,83.808 C100.308,83.808 84.256,67.621 84.256,47.654 C84.256,27.687 100.308,11.5 120.11,11.5 C139.911,11.5 155.963,27.687 155.963,47.654 C155.963,67.621 139.911,83.808 120.11,83.808 z" fill-opacity="0" stroke="#000000" stroke-width="1"/>
    </g>
    <g>
      <path d="M88.24,119.962 L151.98,119.962 C160.78,119.962 167.915,126.706 167.915,135.026 L167.915,165.154 C167.915,173.474 160.78,180.218 151.98,180.218 L88.24,180.218 C79.439,180.218 72.305,173.474 72.305,165.154 L72.305,135.026 C72.305,126.706 79.439,119.962 88.24,119.962 z" fill="#FFFFFF"/>
      <path d="M88.24,119.962 L151.98,119.962 C160.78,119.962 167.915,126.706 167.915,135.026 L167.915,165.154 C167.915,173.474 160.78,180.218 151.98,180.218 L88.24,180.218 C79.439,180.218 72.305,173.474 72.305,165.154 L72.305,135.026 C72.305,126.706 79.439,119.962 88.24,119.962 z" fill-opacity="0" stroke="#000000" stroke-width="1"/>
    </g>
    <g>
      <path d="M265.516,168.167 L321.289,168.167 C328.989,168.167 335.232,173.562 335.232,180.218 L335.232,204.321 C335.232,210.976 328.989,216.372 321.289,216.372 L265.516,216.372 C257.816,216.372 251.573,210.976 251.573,204.321 L251.573,180.218 C251.573,173.562 257.816,168.167 265.516,168.167 z" fill="#FFFFFF"/>
      <path d="M265.516,168.167 L321.289,168.167 C328.989,168.167 335.232,173.562 335.232,180.218 L335.232,204.321 C335.232,210.976 328.989,216.372 321.289,216.372 L265.516,216.372 C257.816,216.372 251.573,210.976 251.573,204.321 L251.573,180.218 C251.573,173.562 257.816,168.167 265.516,168.167 z" fill-opacity="0" stroke="#000000" stroke-width="1"/>
    </g>
    <text transform="matrix(1, 0, 0, 1, 119.61, 55.188)">
      <tspan x="-16.731" y="-7.085" font-family="Arial-BoldMT" font-size="14" fill="#636363">Page</tspan>
      <tspan x="-16.721" y="8.915" font-family="Arial-BoldMT" font-size="14" fill="#636363">Load</tspan>
    </text>
    <g>
      <path d="M72.305,340.693 L118.933,292.004 L167.915,339.701 L121.287,388.39 L72.305,340.693 z" fill="#FFFFFF"/>
      <path d="M72.305,340.693 L118.933,292.004 L167.915,339.701 L121.287,388.39 L72.305,340.693 z" fill-opacity="0" stroke="#000000" stroke-width="1"/>
    </g>
    <text transform="matrix(1, 0, 0, 1, 119.61, 149.59)">
      <tspan x="-32.546" y="-5.077" font-family="Arial-BoldMT" font-size="14" fill="#636363">Get Video</tspan>
      <tspan x="-20.214" y="10.923" font-family="Arial-BoldMT" font-size="14" fill="#636363">Count</tspan>
    </text>
    <g>
      <path d="M120.11,83.808 L120.11,108.162" fill-opacity="0" stroke="#000000" stroke-width="2"/>
      <path d="M116.51,108.162 L120.11,117.762 L123.71,108.162 z" fill="#000000" fill-opacity="1" stroke="#000000" stroke-width="2" stroke-opacity="1"/>
    </g>
    <g>
      <path d="M88.24,204.32 L151.98,204.32 C160.78,204.32 167.915,211.065 167.915,219.385 L167.915,249.513 C167.915,257.832 160.78,264.577 151.98,264.577 L88.24,264.577 C79.439,264.577 72.305,257.832 72.305,249.513 L72.305,219.385 C72.305,211.065 79.439,204.32 88.24,204.32 z" fill="#FFFFFF"/>
      <path d="M88.24,204.32 L151.98,204.32 C160.78,204.32 167.915,211.065 167.915,219.385 L167.915,249.513 C167.915,257.832 160.78,264.577 151.98,264.577 L88.24,264.577 C79.439,264.577 72.305,257.832 72.305,249.513 L72.305,219.385 C72.305,211.065 79.439,204.32 88.24,204.32 z" fill-opacity="0" stroke="#000000" stroke-width="1"/>
    </g>
    <text transform="matrix(1, 0, 0, 1, 119.61, 233.949)">
      <tspan x="-32.546" y="-5.077" font-family="Arial-BoldMT" font-size="14" fill="#636363">Get Video</tspan>
      <tspan x="-10.893" y="10.923" font-family="Arial-BoldMT" font-size="14" fill="#636363">Set</tspan>
    </text>
    <g>
      <path d="M120.11,180.218 L120.11,192.521" fill-opacity="0" stroke="#000000" stroke-width="2"/>
      <path d="M116.51,192.521 L120.11,202.121 L123.71,192.521 z" fill="#000000" fill-opacity="1" stroke="#000000" stroke-width="2" stroke-opacity="1"/>
    </g>
    <g>
      <path d="M120.11,264.577 L119.439,280.215" fill-opacity="0" stroke="#000000" stroke-width="2"/>
      <path d="M115.842,280.061 L119.027,289.806 L123.035,280.369 z" fill="#000000" fill-opacity="1" stroke="#000000" stroke-width="2" stroke-opacity="1"/>
    </g>
    <g>
      <path d="M121.287,385.09 L120.494,409.45" fill-opacity="0" stroke="#000000" stroke-width="2"/>
      <path d="M116.896,409.333 L120.181,419.045 L124.092,409.567 z" fill="#000000" fill-opacity="1" stroke="#000000" stroke-width="2" stroke-opacity="1"/>
    </g>
    <text transform="matrix(1, 0, 0, 1, 119.61, 344.725)">
      <tspan x="-27.617" y="-11.103" font-family="Arial-BoldMT" font-size="14" fill="#636363">Request</tspan>
      <tspan x="-14.393" y="4.897" font-family="Arial-BoldMT" font-size="14" fill="#636363">New</tspan>
      <tspan x="-21.007" y="20.897" font-family="Arial-BoldMT" font-size="14" fill="#636363">Page?</tspan>
    </text>
    <text transform="matrix(1, 0, 0, 1, 65.878, 328.782)">
      <tspan x="-11.679" y="-3.5" font-family="Arial-BoldMT" font-size="14" fill="#636363">yes</tspan>
    </text>
    <text transform="matrix(1, 0, 0, 1, 143.193, 381.075)">
      <tspan x="-8.552" y="4.464" font-family="Arial-BoldMT" font-size="14" fill="#636363">no</tspan>
    </text>
    <path d="M24.5,339.701 L72.305,339.701" fill-opacity="0" stroke="#000000" stroke-width="2"/>
    <g>
      <path d="M179.715,445.346 L203.768,445.346" fill-opacity="0" stroke="#000000" stroke-width="2"/>
      <path d="M179.715,441.746 L170.115,445.346 L179.715,448.946 z" fill="#000000" fill-opacity="1" stroke="#000000" stroke-width="2" stroke-opacity="1"/>
    </g>
    <g>
      <path d="M179.715,156.115 L203.768,156.115" fill-opacity="0" stroke="#000000" stroke-width="2"/>
      <path d="M179.715,152.515 L170.115,156.115 L179.715,159.715 z" fill="#000000" fill-opacity="1" stroke="#000000" stroke-width="2" stroke-opacity="1"/>
    </g>
    <g>
      <path d="M347.032,192.269 L371.085,192.269" fill-opacity="0" stroke="#000000" stroke-width="2"/>
      <path d="M347.032,188.669 L337.432,192.269 L347.032,195.869 z" fill="#000000" fill-opacity="1" stroke="#000000" stroke-width="2" stroke-opacity="1"/>
    </g>
    <g>
      <path d="M287.427,228.172 L287.427,267.645" fill-opacity="0" stroke="#000000" stroke-width="2"/>
      <path d="M291.027,228.172 L287.427,218.572 L283.827,228.172 z" fill="#000000" fill-opacity="1" stroke="#000000" stroke-width="2" stroke-opacity="1"/>
      <path d="M283.827,267.645 L287.427,277.245 L291.027,267.645 z" fill="#000000" fill-opacity="1" stroke="#000000" stroke-width="2" stroke-opacity="1"/>
    </g>
    <path d="M251.573,279.445 L335.232,279.445 L335.232,339.701 L251.573,339.701 L251.573,279.445 z" fill-opacity="0" stroke="#000000" stroke-width="2"/>
    <g>
      <path d="M24.5,240.474 L60.505,240.474" fill-opacity="0" stroke="#000000" stroke-width="2"/>
      <path d="M60.505,244.074 L70.105,240.474 L60.505,236.874 z" fill="#000000" fill-opacity="1" stroke="#000000" stroke-width="2" stroke-opacity="1"/>
    </g>
    <g>
      <path d="M203.768,192.269 L239.773,192.269" fill-opacity="0" stroke="#000000" stroke-width="2"/>
      <path d="M239.773,195.869 L249.373,192.269 L239.773,188.669 z" fill="#000000" fill-opacity="1" stroke="#000000" stroke-width="2" stroke-opacity="1"/>
    </g>
    <g>
      <path d="M371.085,119.962 L407.09,119.962" fill-opacity="0" stroke="#000000" stroke-width="2"/>
      <path d="M407.09,123.562 L416.69,119.962 L407.09,116.362 z" fill="#000000" fill-opacity="1" stroke="#000000" stroke-width="2" stroke-opacity="1"/>
    </g>
    <g>
      <path d="M371.085,264.577 L407.09,264.577" fill-opacity="0" stroke="#000000" stroke-width="2"/>
      <path d="M407.09,268.177 L416.69,264.577 L407.09,260.977 z" fill="#000000" fill-opacity="1" stroke="#000000" stroke-width="2" stroke-opacity="1"/>
    </g>
    <path d="M24.5,339.701 L24.5,240.474" fill-opacity="0" stroke="#000000" stroke-width="2"/>
    <path d="M203.768,192.269 L203.768,156.115" fill-opacity="0" stroke="#000000" stroke-width="2"/>
    <path d="M371.085,192.269 L371.085,119.962" fill-opacity="0" stroke="#000000" stroke-width="2"/>
    <path d="M371.085,264.577 L371.085,192.269" fill-opacity="0" stroke="#000000" stroke-width="2"/>
    <path d="M203.768,445.346 L203.768,192.269" fill-opacity="0" stroke="#000000" stroke-width="2"/>
    <text transform="matrix(1, 0, 0, 1, 292.902, 192.051)">
      <tspan x="-19.455" y="0.949" font-family="Arial-BoldMT" font-size="14" fill="#636363">Proxy</tspan>
    </text>
    <g>
      <path d="M434.825,95.859 L498.565,95.859 C507.366,95.859 514.5,102.603 514.5,110.923 L514.5,141.051 C514.5,149.371 507.366,156.115 498.565,156.115 L434.825,156.115 C426.025,156.115 418.89,149.371 418.89,141.051 L418.89,110.923 C418.89,102.603 426.025,95.859 434.825,95.859 z" fill="#FFFFFF"/>
      <path d="M434.825,95.859 L498.565,95.859 C507.366,95.859 514.5,102.603 514.5,110.923 L514.5,141.051 C514.5,149.371 507.366,156.115 498.565,156.115 L434.825,156.115 C426.025,156.115 418.89,149.371 418.89,141.051 L418.89,110.923 C418.89,102.603 426.025,95.859 434.825,95.859 z" fill-opacity="0" stroke="#000000" stroke-width="1"/>
    </g>
    <text transform="matrix(1, 0, 0, 1, 466.195, 127.496)">
      <tspan x="-28.909" y="4.464" font-family="Arial-BoldMT" font-size="14" fill="#636363">CMS API</tspan>
    </text>
    <text transform="matrix(1, 0, 0, 1, 292.902, 304.75)">
      <tspan x="-32.672" y="-3.571" font-family="Arial-BoldMT" font-size="14" fill="#636363">Customer</tspan>
      <tspan x="-15.172" y="12.429" font-family="Arial-BoldMT" font-size="14" fill="#636363">Data</tspan>
    </text>
    <g>
      <path d="M434.825,240.474 L498.565,240.474 C507.366,240.474 514.5,247.219 514.5,255.538 L514.5,285.667 C514.5,293.986 507.366,300.731 498.565,300.731 L434.825,300.731 C426.025,300.731 418.89,293.986 418.89,285.667 L418.89,255.538 C418.89,247.219 426.025,240.474 434.825,240.474 z" fill="#FFFFFF"/>
      <path d="M434.825,240.474 L498.565,240.474 C507.366,240.474 514.5,247.219 514.5,255.538 L514.5,285.667 C514.5,293.986 507.366,300.731 498.565,300.731 L434.825,300.731 C426.025,300.731 418.89,293.986 418.89,285.667 L418.89,255.538 C418.89,247.219 426.025,240.474 434.825,240.474 z" fill-opacity="0" stroke="#000000" stroke-width="1"/>
    </g>
    <text transform="matrix(1, 0, 0, 1, 466.195, 272.111)">
      <tspan x="-20.354" y="4.464" font-family="Arial-BoldMT" font-size="14" fill="#636363">DI API</tspan>
    </text>
    <g>
      <path d="M88.24,421.244 L151.98,421.244 C160.78,421.244 167.915,427.988 167.915,436.308 L167.915,466.436 C167.915,474.756 160.78,481.5 151.98,481.5 L88.24,481.5 C79.439,481.5 72.305,474.756 72.305,466.436 L72.305,436.308 C72.305,427.988 79.439,421.244 88.24,421.244 z" fill="#FFFFFF"/>
      <path d="M88.24,421.244 L151.98,421.244 C160.78,421.244 167.915,427.988 167.915,436.308 L167.915,466.436 C167.915,474.756 160.78,481.5 151.98,481.5 L88.24,481.5 C79.439,481.5 72.305,474.756 72.305,466.436 L72.305,436.308 C72.305,427.988 79.439,421.244 88.24,421.244 z" fill-opacity="0" stroke="#000000" stroke-width="1"/>
    </g>
    <text transform="matrix(1, 0, 0, 1, 119.61, 445.348)">
      <tspan x="-27.617" y="4.395" font-family="Arial-BoldMT" font-size="14" fill="#636363">Request</tspan>
      <tspan x="-45.497" y="20.395" font-family="Arial-BoldMT" font-size="14" fill="#636363">Add Captions</tspan>
    </text>
  </g>
</svg>
