<?xml version="1.0" encoding="UTF-8" standalone="no"?>
<!DOCTYPE svg PUBLIC "-//W3C//DTD SVG 1.1//EN" "http://www.w3.org/Graphics/SVG/1.1/DTD/svg11.dtd">
<!-- Created with Vectornator (http://vectornator.io/) -->
<svg height="100%" stroke-miterlimit="10" style="fill-rule:nonzero;clip-rule:evenodd;stroke-linecap:round;stroke-linejoin:round;" version="1.1" viewBox="0 0 530 255" width="100%" xml:space="preserve" xmlns="http://www.w3.org/2000/svg" xmlns:vectornator="http://vectornator.io" xmlns:xlink="http://www.w3.org/1999/xlink">
<defs>
<linearGradient gradientTransform="matrix(1 0 0 1 0.5 0.5)" gradientUnits="userSpaceOnUse" id="LinearGradient" x1="362.486" x2="521.446" y1="150.084" y2="150.084">
<stop offset="0" stop-color="#b7dde6"/>
<stop offset="1" stop-color="#e6e6e6"/>
</linearGradient>
</defs>
<clipPath id="ArtboardFrame">
<rect height="255" width="530" x="0" y="0"/>
</clipPath>
<g clip-path="url(#ArtboardFrame)" id="Untitled" vectornator:layerName="Untitled">
<g opacity="1" vectornator:layerName="g">
<path d="M11.5 60C11.5 33.7665 33.438 12.5 60.5 12.5C87.562 12.5 109.5 33.7665 109.5 60C109.5 86.2335 87.562 107.5 60.5 107.5C33.438 107.5 11.5 86.2335 11.5 60Z" fill="none" opacity="1" stroke="#5241fd" stroke-linecap="round" stroke-linejoin="round" stroke-width="3" vectornator:layerName="ellipse"/>
<g fill="#000000" opacity="1" stroke="none" vectornator:layerName="tspan">
<path d="M24.3438 42.8741L24.3438 47.1303C24.3438 47.6303 24.4375 48.0459 24.625 48.3772C24.9031 48.8772 25.3719 49.1272 26.0313 49.1272C26.8219 49.1272 27.3594 48.8569 27.6438 48.3162C27.7969 48.0225 27.8734 47.6272 27.8734 47.1303L27.8734 42.8741L28.8203 42.8741L28.8203 46.7412C28.8203 47.5881 28.7063 48.2397 28.4781 48.6959C28.0594 49.5272 27.2688 49.9428 26.1063 49.9428C24.9438 49.9428 24.1547 49.5272 23.7391 48.6959C23.5109 48.2397 23.3969 47.5881 23.3969 46.7412L23.3969 42.8741L24.3438 42.8741Z"/>
<path d="M30.6531 48.185C30.6781 48.4662 30.7484 48.6819 30.8641 48.8319C31.0766 49.1037 31.4453 49.2397 31.9703 49.2397C32.2828 49.2397 32.5578 49.1717 32.7953 49.0358C33.0328 48.8998 33.1516 48.6897 33.1516 48.4053C33.1516 48.1897 33.0563 48.0256 32.8656 47.9131C32.7438 47.8444 32.5031 47.7647 32.1438 47.6741L31.4734 47.5053C31.0453 47.3991 30.7297 47.2803 30.5266 47.1491C30.1641 46.9209 29.9828 46.6053 29.9828 46.2022C29.9828 45.7272 30.1539 45.3428 30.4961 45.0491C30.8383 44.7553 31.2984 44.6084 31.8766 44.6084C32.6328 44.6084 33.1781 44.8303 33.5125 45.2741C33.7219 45.5553 33.8234 45.8584 33.8172 46.1834L33.0203 46.1834C33.0047 45.9928 32.9375 45.8194 32.8188 45.6631C32.625 45.4412 32.2891 45.3303 31.8109 45.3303C31.4922 45.3303 31.2508 45.3912 31.0867 45.5131C30.9227 45.635 30.8406 45.7959 30.8406 45.9959C30.8406 46.2147 30.9484 46.3897 31.1641 46.5209C31.2891 46.5991 31.4734 46.6678 31.7172 46.7272L32.275 46.8631C32.8813 47.01 33.2875 47.1522 33.4938 47.2897C33.8219 47.5053 33.9859 47.8444 33.9859 48.3069C33.9859 48.7537 33.8164 49.1397 33.4773 49.4647C33.1383 49.7897 32.6219 49.9522 31.9281 49.9522C31.1813 49.9522 30.6523 49.7827 30.3414 49.4436C30.0305 49.1045 29.8641 48.685 29.8422 48.185L30.6531 48.185Z"/>
<path d="M37.0422 44.6272C37.3984 44.6272 37.7438 44.7108 38.0781 44.878C38.4125 45.0452 38.6672 45.2616 38.8422 45.5272C39.0109 45.7803 39.1234 46.0756 39.1797 46.4131C39.2297 46.6444 39.2547 47.0131 39.2547 47.5194L35.575 47.5194C35.5906 48.0287 35.7109 48.4373 35.9359 48.7452C36.1609 49.053 36.5094 49.2069 36.9813 49.2069C37.4219 49.2069 37.7734 49.0616 38.0359 48.7709C38.1859 48.6022 38.2922 48.4069 38.3547 48.185L39.1844 48.185C39.1625 48.3694 39.0898 48.5748 38.9664 48.8014C38.843 49.028 38.7047 49.2131 38.5516 49.3569C38.2953 49.6069 37.9781 49.7756 37.6 49.8631C37.3969 49.9131 37.1672 49.9381 36.9109 49.9381C36.2859 49.9381 35.7563 49.7108 35.3219 49.2561C34.8875 48.8014 34.6703 48.1647 34.6703 47.3459C34.6703 46.5397 34.8891 45.885 35.3266 45.3819C35.7641 44.8787 36.3359 44.6272 37.0422 44.6272ZM38.3875 46.8491C38.3531 46.4834 38.2734 46.1912 38.1484 45.9725C37.9172 45.5662 37.5313 45.3631 36.9906 45.3631C36.6031 45.3631 36.2781 45.503 36.0156 45.7827C35.7531 46.0623 35.6141 46.4178 35.5984 46.8491L38.3875 46.8491Z"/>
<path d="M40.3141 44.7397L41.1156 44.7397L41.1156 45.6069C41.1813 45.4381 41.3422 45.2327 41.5984 44.9905C41.8547 44.7483 42.15 44.6272 42.4844 44.6272C42.5 44.6272 42.5266 44.6287 42.5641 44.6319C42.6016 44.635 42.6656 44.6412 42.7563 44.6506L42.7563 45.5412C42.7063 45.5319 42.6602 45.5256 42.618 45.5225C42.5758 45.5194 42.5297 45.5178 42.4797 45.5178C42.0547 45.5178 41.7281 45.6545 41.5 45.928C41.2719 46.2014 41.1578 46.5162 41.1578 46.8725L41.1578 49.76L40.3141 49.76L40.3141 44.7397Z"/>
<path d="M46.9984 44.7397L46.9984 48.0725C46.9984 48.3287 47.0391 48.5381 47.1203 48.7006C47.2703 49.0006 47.55 49.1506 47.9594 49.1506C48.5469 49.1506 48.9469 48.8881 49.1594 48.3631C49.275 48.0819 49.3328 47.6959 49.3328 47.2053L49.3328 44.7397L50.1766 44.7397L50.1766 49.76L49.3797 49.76L49.3891 49.0194C49.2797 49.21 49.1438 49.3709 48.9813 49.5022C48.6594 49.7647 48.2688 49.8959 47.8094 49.8959C47.0938 49.8959 46.6063 49.6569 46.3469 49.1787C46.2063 48.9225 46.1359 48.5803 46.1359 48.1522L46.1359 44.7397L46.9984 44.7397Z"/>
<path d="M53.6125 49.1928C54.0063 49.1928 54.3336 49.028 54.5945 48.6983C54.8555 48.3686 54.9859 47.8756 54.9859 47.2194C54.9859 46.8194 54.9281 46.4756 54.8125 46.1881C54.5938 45.635 54.1938 45.3584 53.6125 45.3584C53.0281 45.3584 52.6281 45.6506 52.4125 46.235C52.2969 46.5475 52.2391 46.9444 52.2391 47.4256C52.2391 47.8131 52.2969 48.1428 52.4125 48.4147C52.6313 48.9334 53.0313 49.1928 53.6125 49.1928ZM51.4281 44.7631L52.2484 44.7631L52.2484 45.4287C52.4172 45.2006 52.6016 45.0241 52.8016 44.8991C53.0859 44.7116 53.4203 44.6178 53.8047 44.6178C54.3734 44.6178 54.8563 44.8358 55.2531 45.2717C55.65 45.7077 55.8484 46.3303 55.8484 47.1397C55.8484 48.2334 55.5625 49.0147 54.9906 49.4834C54.6281 49.7803 54.2063 49.9287 53.725 49.9287C53.3469 49.9287 53.0297 49.8459 52.7734 49.6803C52.6234 49.5866 52.4563 49.4256 52.2719 49.1975L52.2719 51.7616L51.4281 51.7616L51.4281 44.7631Z"/>
<path d="M56.8563 42.8741L57.7 42.8741L57.7 49.76L56.8563 49.76L56.8563 42.8741Z"/>
<path d="M60.9578 49.2162C61.5172 49.2162 61.9008 49.0045 62.1086 48.5811C62.3164 48.1577 62.4203 47.6866 62.4203 47.1678C62.4203 46.6991 62.3453 46.3178 62.1953 46.0241C61.9578 45.5616 61.5484 45.3303 60.9672 45.3303C60.4516 45.3303 60.0766 45.5272 59.8422 45.9209C59.6078 46.3147 59.4906 46.7897 59.4906 47.3459C59.4906 47.8803 59.6078 48.3256 59.8422 48.6819C60.0766 49.0381 60.4484 49.2162 60.9578 49.2162ZM60.9906 44.5944C61.6375 44.5944 62.1844 44.81 62.6313 45.2412C63.0781 45.6725 63.3016 46.3069 63.3016 47.1444C63.3016 47.9537 63.1047 48.6225 62.7109 49.1506C62.3172 49.6787 61.7063 49.9428 60.8781 49.9428C60.1875 49.9428 59.6391 49.7092 59.2328 49.242C58.8266 48.7748 58.6234 48.1475 58.6234 47.36C58.6234 46.5162 58.8375 45.8444 59.2656 45.3444C59.6938 44.8444 60.2688 44.5944 60.9906 44.5944Z"/>
<path d="M64.9516 48.4241C64.9516 48.6678 65.0406 48.86 65.2188 49.0006C65.3969 49.1412 65.6078 49.2116 65.8516 49.2116C66.1484 49.2116 66.4359 49.1428 66.7141 49.0053C67.1828 48.7772 67.4172 48.4037 67.4172 47.885L67.4172 47.2053C67.3141 47.2709 67.1813 47.3256 67.0188 47.3694C66.8563 47.4131 66.6969 47.4444 66.5406 47.4631L66.0297 47.5287C65.7234 47.5694 65.4938 47.6334 65.3406 47.7209C65.0813 47.8678 64.9516 48.1022 64.9516 48.4241ZM66.9953 46.7178C67.1891 46.6928 67.3188 46.6116 67.3844 46.4741C67.4219 46.3991 67.4406 46.2912 67.4406 46.1506C67.4406 45.8631 67.3383 45.6545 67.1336 45.5248C66.9289 45.3952 66.6359 45.3303 66.2547 45.3303C65.8141 45.3303 65.5016 45.4491 65.3172 45.6866C65.2141 45.8178 65.1469 46.0131 65.1156 46.2725L64.3281 46.2725C64.3438 45.6537 64.5445 45.2233 64.9305 44.9811C65.3164 44.7389 65.7641 44.6178 66.2734 44.6178C66.8641 44.6178 67.3438 44.7303 67.7125 44.9553C68.0781 45.1803 68.2609 45.5303 68.2609 46.0053L68.2609 48.8975C68.2609 48.985 68.2789 49.0553 68.3148 49.1084C68.3508 49.1616 68.4266 49.1881 68.5422 49.1881C68.5797 49.1881 68.6219 49.1858 68.6688 49.1811C68.7156 49.1764 68.7656 49.1694 68.8188 49.16L68.8188 49.7834C68.6875 49.8209 68.5875 49.8444 68.5188 49.8537C68.45 49.8631 68.3563 49.8678 68.2375 49.8678C67.9469 49.8678 67.7359 49.7647 67.6047 49.5584C67.5359 49.4491 67.4875 49.2944 67.4594 49.0944C67.2875 49.3194 67.0406 49.5147 66.7188 49.6803C66.3969 49.8459 66.0422 49.9287 65.6547 49.9287C65.1891 49.9287 64.8086 49.7873 64.5133 49.5045C64.218 49.2217 64.0703 48.8678 64.0703 48.4428C64.0703 47.9772 64.2156 47.6162 64.5063 47.36C64.7969 47.1037 65.1781 46.9459 65.65 46.8866L66.9953 46.7178Z"/>
<path d="M70.1781 47.3084C70.1781 47.8459 70.2922 48.2959 70.5203 48.6584C70.7484 49.0209 71.1141 49.2022 71.6172 49.2022C72.0078 49.2022 72.3289 49.0342 72.5805 48.6983C72.832 48.3623 72.9578 47.8803 72.9578 47.2522C72.9578 46.6178 72.8281 46.1483 72.5688 45.8436C72.3094 45.5389 71.9891 45.3866 71.6078 45.3866C71.1828 45.3866 70.8383 45.5491 70.5742 45.8741C70.3102 46.1991 70.1781 46.6772 70.1781 47.3084ZM71.4484 44.6506C71.8328 44.6506 72.1547 44.7319 72.4141 44.8944C72.5641 44.9881 72.7344 45.1522 72.925 45.3866L72.925 42.8506L73.7359 42.8506L73.7359 49.76L72.9766 49.76L72.9766 49.0616C72.7797 49.3709 72.5469 49.5944 72.2781 49.7319C72.0094 49.8694 71.7016 49.9381 71.3547 49.9381C70.7953 49.9381 70.3109 49.703 69.9016 49.2327C69.4922 48.7623 69.2875 48.1366 69.2875 47.3553C69.2875 46.6241 69.4742 45.9905 69.8477 45.4545C70.2211 44.9186 70.7547 44.6506 71.4484 44.6506Z"/>
<path d="M75.4844 48.185C75.5094 48.4662 75.5797 48.6819 75.6953 48.8319C75.9078 49.1037 76.2766 49.2397 76.8016 49.2397C77.1141 49.2397 77.3891 49.1717 77.6266 49.0358C77.8641 48.8998 77.9828 48.6897 77.9828 48.4053C77.9828 48.1897 77.8875 48.0256 77.6969 47.9131C77.575 47.8444 77.3344 47.7647 76.975 47.6741L76.3047 47.5053C75.8766 47.3991 75.5609 47.2803 75.3578 47.1491C74.9953 46.9209 74.8141 46.6053 74.8141 46.2022C74.8141 45.7272 74.9852 45.3428 75.3273 45.0491C75.6695 44.7553 76.1297 44.6084 76.7078 44.6084C77.4641 44.6084 78.0094 44.8303 78.3438 45.2741C78.5531 45.5553 78.6547 45.8584 78.6484 46.1834L77.8516 46.1834C77.8359 45.9928 77.7688 45.8194 77.65 45.6631C77.4563 45.4412 77.1203 45.3303 76.6422 45.3303C76.3234 45.3303 76.082 45.3912 75.918 45.5131C75.7539 45.635 75.6719 45.7959 75.6719 45.9959C75.6719 46.2147 75.7797 46.3897 75.9953 46.5209C76.1203 46.5991 76.3047 46.6678 76.5484 46.7272L77.1063 46.8631C77.7125 47.01 78.1188 47.1522 78.325 47.2897C78.6531 47.5053 78.8172 47.8444 78.8172 48.3069C78.8172 48.7537 78.6477 49.1397 78.3086 49.4647C77.9695 49.7897 77.4531 49.9522 76.7594 49.9522C76.0125 49.9522 75.4836 49.7827 75.1727 49.4436C74.8617 49.1045 74.6953 48.685 74.6734 48.185L75.4844 48.185Z"/>
</g>
<g fill="#000000" opacity="1" stroke="none" vectornator:layerName="tspan">
<path d="M40.3812 58.2297L41.7219 62.3172L43.1234 58.2297L44.0469 58.2297L42.1531 63.25L41.2531 63.25L39.4016 58.2297L40.3812 58.2297Z"/>
<path d="M44.7687 58.2531L45.6266 58.2531L45.6266 63.25L44.7687 63.25L44.7687 58.2531ZM44.7687 56.3641L45.6266 56.3641L45.6266 57.3203L44.7687 57.3203L44.7687 56.3641Z"/>
<path d="M47.4359 60.7984C47.4359 61.3359 47.55 61.7859 47.7781 62.1484C48.0062 62.5109 48.3719 62.6922 48.875 62.6922C49.2656 62.6922 49.5867 62.5242 49.8383 62.1883C50.0898 61.8523 50.2156 61.3703 50.2156 60.7422C50.2156 60.1078 50.0859 59.6383 49.8266 59.3336C49.5672 59.0289 49.2469 58.8766 48.8656 58.8766C48.4406 58.8766 48.0961 59.0391 47.832 59.3641C47.568 59.6891 47.4359 60.1672 47.4359 60.7984ZM48.7062 58.1406C49.0906 58.1406 49.4125 58.2219 49.6719 58.3844C49.8219 58.4781 49.9922 58.6422 50.1828 58.8766L50.1828 56.3406L50.9937 56.3406L50.9937 63.25L50.2344 63.25L50.2344 62.5516C50.0375 62.8609 49.8047 63.0844 49.5359 63.2219C49.2672 63.3594 48.9594 63.4281 48.6125 63.4281C48.0531 63.4281 47.5687 63.193 47.1594 62.7227C46.75 62.2523 46.5453 61.6266 46.5453 60.8453C46.5453 60.1141 46.732 59.4805 47.1055 58.9445C47.4789 58.4086 48.0125 58.1406 48.7062 58.1406Z"/>
<path d="M54.3312 58.1172C54.6875 58.1172 55.0328 58.2008 55.3672 58.368C55.7016 58.5352 55.9562 58.7516 56.1312 59.0172C56.3 59.2703 56.4125 59.5656 56.4687 59.9031C56.5187 60.1344 56.5437 60.5031 56.5437 61.0094L52.8641 61.0094C52.8797 61.5187 53 61.9273 53.225 62.2352C53.45 62.543 53.7984 62.6969 54.2703 62.6969C54.7109 62.6969 55.0625 62.5516 55.325 62.2609C55.475 62.0922 55.5812 61.8969 55.6437 61.675L56.4734 61.675C56.4516 61.8594 56.3789 62.0648 56.2555 62.2914C56.132 62.518 55.9937 62.7031 55.8406 62.8469C55.5844 63.0969 55.2672 63.2656 54.8891 63.3531C54.6859 63.4031 54.4562 63.4281 54.2 63.4281C53.575 63.4281 53.0453 63.2008 52.6109 62.7461C52.1766 62.2914 51.9594 61.6547 51.9594 60.8359C51.9594 60.0297 52.1781 59.375 52.6156 58.8719C53.0531 58.3687 53.625 58.1172 54.3312 58.1172ZM55.6766 60.3391C55.6422 59.9734 55.5625 59.6812 55.4375 59.4625C55.2062 59.0562 54.8203 58.8531 54.2797 58.8531C53.8922 58.8531 53.5672 58.993 53.3047 59.2727C53.0422 59.5523 52.9031 59.9078 52.8875 60.3391L55.6766 60.3391Z"/>
<path d="M59.5719 62.7062C60.1312 62.7062 60.5148 62.4945 60.7227 62.0711C60.9305 61.6477 61.0344 61.1766 61.0344 60.6578C61.0344 60.1891 60.9594 59.8078 60.8094 59.5141C60.5719 59.0516 60.1625 58.8203 59.5812 58.8203C59.0656 58.8203 58.6906 59.0172 58.4562 59.4109C58.2219 59.8047 58.1047 60.2797 58.1047 60.8359C58.1047 61.3703 58.2219 61.8156 58.4562 62.1719C58.6906 62.5281 59.0625 62.7062 59.5719 62.7062ZM59.6047 58.0844C60.2516 58.0844 60.7984 58.3 61.2453 58.7312C61.6922 59.1625 61.9156 59.7969 61.9156 60.6344C61.9156 61.4437 61.7187 62.1125 61.325 62.6406C60.9312 63.1688 60.3203 63.4328 59.4922 63.4328C58.8016 63.4328 58.2531 63.1992 57.8469 62.732C57.4406 62.2648 57.2375 61.6375 57.2375 60.85C57.2375 60.0062 57.4516 59.3344 57.8797 58.8344C58.3078 58.3344 58.8828 58.0844 59.6047 58.0844Z"/>
<path d="M65.3984 61.1969L65.3984 60.4094L67.4422 60.4094L67.4422 58.3516L68.2437 58.3516L68.2437 60.4094L70.2875 60.4094L70.2875 61.1969L68.2437 61.1969L68.2437 63.25L67.4422 63.25L67.4422 61.1969L65.3984 61.1969Z"/>
</g>
<g fill="#000000" opacity="1" stroke="none" vectornator:layerName="tspan">
<path d="M33.6388 71.7297L34.4731 71.7297L34.4731 72.4422C34.6731 72.1953 34.8544 72.0156 35.0169 71.9031C35.295 71.7125 35.6106 71.6172 35.9638 71.6172C36.3638 71.6172 36.6856 71.7156 36.9294 71.9125C37.0669 72.025 37.1919 72.1906 37.3044 72.4094C37.4919 72.1406 37.7122 71.9414 37.9653 71.8117C38.2184 71.682 38.5028 71.6172 38.8184 71.6172C39.4934 71.6172 39.9528 71.8609 40.1966 72.3484C40.3278 72.6109 40.3934 72.9641 40.3934 73.4078L40.3934 76.75L39.5169 76.75L39.5169 73.2625C39.5169 72.9281 39.4333 72.6984 39.2661 72.5734C39.0989 72.4484 38.895 72.3859 38.6544 72.3859C38.3231 72.3859 38.038 72.4969 37.7989 72.7187C37.5598 72.9406 37.4403 73.3109 37.4403 73.8297L37.4403 76.75L36.5825 76.75L36.5825 73.4734C36.5825 73.1328 36.5419 72.8844 36.4606 72.7281C36.3325 72.4937 36.0934 72.3766 35.7434 72.3766C35.4247 72.3766 35.1348 72.5 34.8739 72.7469C34.613 72.9937 34.4825 73.4406 34.4825 74.0875L34.4825 76.75L33.6388 76.75L33.6388 71.7297Z"/>
<path d="M43.7263 71.6172C44.0825 71.6172 44.4278 71.7008 44.7622 71.868C45.0966 72.0352 45.3513 72.2516 45.5263 72.5172C45.695 72.7703 45.8075 73.0656 45.8638 73.4031C45.9138 73.6344 45.9388 74.0031 45.9388 74.5094L42.2591 74.5094C42.2747 75.0187 42.395 75.4273 42.62 75.7352C42.845 76.043 43.1934 76.1969 43.6653 76.1969C44.1059 76.1969 44.4575 76.0516 44.72 75.7609C44.87 75.5922 44.9763 75.3969 45.0388 75.175L45.8684 75.175C45.8466 75.3594 45.7739 75.5648 45.6505 75.7914C45.527 76.018 45.3888 76.2031 45.2356 76.3469C44.9794 76.5969 44.6622 76.7656 44.2841 76.8531C44.0809 76.9031 43.8513 76.9281 43.595 76.9281C42.97 76.9281 42.4403 76.7008 42.0059 76.2461C41.5716 75.7914 41.3544 75.1547 41.3544 74.3359C41.3544 73.5297 41.5731 72.875 42.0106 72.3719C42.4481 71.8687 43.02 71.6172 43.7263 71.6172ZM45.0716 73.8391C45.0372 73.4734 44.9575 73.1812 44.8325 72.9625C44.6013 72.5562 44.2153 72.3531 43.6747 72.3531C43.2872 72.3531 42.9622 72.493 42.6997 72.7727C42.4372 73.0523 42.2981 73.4078 42.2825 73.8391L45.0716 73.8391Z"/>
<path d="M47.1434 70.3281L47.9966 70.3281L47.9966 71.7297L48.7981 71.7297L48.7981 72.4187L47.9966 72.4187L47.9966 75.6953C47.9966 75.8703 48.0559 75.9875 48.1747 76.0469C48.2403 76.0812 48.3497 76.0984 48.5028 76.0984C48.5434 76.0984 48.5872 76.0977 48.6341 76.0961C48.6809 76.0945 48.7356 76.0906 48.7981 76.0844L48.7981 76.75C48.7013 76.7781 48.6005 76.7984 48.4958 76.8109C48.3911 76.8234 48.2778 76.8297 48.1559 76.8297C47.7622 76.8297 47.495 76.7289 47.3544 76.5273C47.2138 76.3258 47.1434 76.0641 47.1434 75.7422L47.1434 72.4187L46.4638 72.4187L46.4638 71.7297L47.1434 71.7297L47.1434 70.3281Z"/>
<path d="M50.2888 75.4141C50.2888 75.6578 50.3778 75.85 50.5559 75.9906C50.7341 76.1312 50.945 76.2016 51.1888 76.2016C51.4856 76.2016 51.7731 76.1328 52.0513 75.9953C52.52 75.7672 52.7544 75.3937 52.7544 74.875L52.7544 74.1953C52.6513 74.2609 52.5184 74.3156 52.3559 74.3594C52.1934 74.4031 52.0341 74.4344 51.8778 74.4531L51.3669 74.5187C51.0606 74.5594 50.8309 74.6234 50.6778 74.7109C50.4184 74.8578 50.2888 75.0922 50.2888 75.4141ZM52.3325 73.7078C52.5263 73.6828 52.6559 73.6016 52.7216 73.4641C52.7591 73.3891 52.7778 73.2812 52.7778 73.1406C52.7778 72.8531 52.6755 72.6445 52.4708 72.5148C52.2661 72.3852 51.9731 72.3203 51.5919 72.3203C51.1513 72.3203 50.8388 72.4391 50.6544 72.6766C50.5513 72.8078 50.4841 73.0031 50.4528 73.2625L49.6653 73.2625C49.6809 72.6437 49.8817 72.2133 50.2677 71.9711C50.6536 71.7289 51.1013 71.6078 51.6106 71.6078C52.2013 71.6078 52.6809 71.7203 53.0497 71.9453C53.4153 72.1703 53.5981 72.5203 53.5981 72.9953L53.5981 75.8875C53.5981 75.975 53.6161 76.0453 53.652 76.0984C53.688 76.1516 53.7638 76.1781 53.8794 76.1781C53.9169 76.1781 53.9591 76.1758 54.0059 76.1711C54.0528 76.1664 54.1028 76.1594 54.1559 76.15L54.1559 76.7734C54.0247 76.8109 53.9247 76.8344 53.8559 76.8438C53.7872 76.8531 53.6934 76.8578 53.5747 76.8578C53.2841 76.8578 53.0731 76.7547 52.9419 76.5484C52.8731 76.4391 52.8247 76.2844 52.7966 76.0844C52.6247 76.3094 52.3778 76.5047 52.0559 76.6703C51.7341 76.8359 51.3794 76.9188 50.9919 76.9188C50.5263 76.9188 50.1458 76.7773 49.8505 76.4945C49.5552 76.2117 49.4075 75.8578 49.4075 75.4328C49.4075 74.9672 49.5528 74.6062 49.8434 74.35C50.1341 74.0937 50.5153 73.9359 50.9872 73.8766L52.3325 73.7078Z"/>
<path d="M55.5153 74.2984C55.5153 74.8359 55.6294 75.2859 55.8575 75.6484C56.0856 76.0109 56.4513 76.1922 56.9544 76.1922C57.345 76.1922 57.6661 76.0242 57.9177 75.6883C58.1692 75.3523 58.295 74.8703 58.295 74.2422C58.295 73.6078 58.1653 73.1383 57.9059 72.8336C57.6466 72.5289 57.3263 72.3766 56.945 72.3766C56.52 72.3766 56.1755 72.5391 55.9114 72.8641C55.6473 73.1891 55.5153 73.6672 55.5153 74.2984ZM56.7856 71.6406C57.17 71.6406 57.4919 71.7219 57.7513 71.8844C57.9013 71.9781 58.0716 72.1422 58.2622 72.3766L58.2622 69.8406L59.0731 69.8406L59.0731 76.75L58.3138 76.75L58.3138 76.0516C58.1169 76.3609 57.8841 76.5844 57.6153 76.7219C57.3466 76.8594 57.0388 76.9281 56.6919 76.9281C56.1325 76.9281 55.6481 76.693 55.2388 76.2227C54.8294 75.7523 54.6247 75.1266 54.6247 74.3453C54.6247 73.6141 54.8114 72.9805 55.1848 72.4445C55.5583 71.9086 56.0919 71.6406 56.7856 71.6406Z"/>
<path d="M60.9669 75.4141C60.9669 75.6578 61.0559 75.85 61.2341 75.9906C61.4122 76.1312 61.6231 76.2016 61.8669 76.2016C62.1638 76.2016 62.4513 76.1328 62.7294 75.9953C63.1981 75.7672 63.4325 75.3937 63.4325 74.875L63.4325 74.1953C63.3294 74.2609 63.1966 74.3156 63.0341 74.3594C62.8716 74.4031 62.7122 74.4344 62.5559 74.4531L62.045 74.5187C61.7388 74.5594 61.5091 74.6234 61.3559 74.7109C61.0966 74.8578 60.9669 75.0922 60.9669 75.4141ZM63.0106 73.7078C63.2044 73.6828 63.3341 73.6016 63.3997 73.4641C63.4372 73.3891 63.4559 73.2812 63.4559 73.1406C63.4559 72.8531 63.3536 72.6445 63.1489 72.5148C62.9442 72.3852 62.6513 72.3203 62.27 72.3203C61.8294 72.3203 61.5169 72.4391 61.3325 72.6766C61.2294 72.8078 61.1622 73.0031 61.1309 73.2625L60.3434 73.2625C60.3591 72.6437 60.5598 72.2133 60.9458 71.9711C61.3317 71.7289 61.7794 71.6078 62.2888 71.6078C62.8794 71.6078 63.3591 71.7203 63.7278 71.9453C64.0934 72.1703 64.2763 72.5203 64.2763 72.9953L64.2763 75.8875C64.2763 75.975 64.2942 76.0453 64.3302 76.0984C64.3661 76.1516 64.4419 76.1781 64.5575 76.1781C64.595 76.1781 64.6372 76.1758 64.6841 76.1711C64.7309 76.1664 64.7809 76.1594 64.8341 76.15L64.8341 76.7734C64.7028 76.8109 64.6028 76.8344 64.5341 76.8438C64.4653 76.8531 64.3716 76.8578 64.2528 76.8578C63.9622 76.8578 63.7513 76.7547 63.62 76.5484C63.5513 76.4391 63.5028 76.2844 63.4747 76.0844C63.3028 76.3094 63.0559 76.5047 62.7341 76.6703C62.4122 76.8359 62.0575 76.9188 61.67 76.9188C61.2044 76.9188 60.8239 76.7773 60.5286 76.4945C60.2333 76.2117 60.0856 75.8578 60.0856 75.4328C60.0856 74.9672 60.2309 74.6062 60.5216 74.35C60.8122 74.0937 61.1934 73.9359 61.6653 73.8766L63.0106 73.7078Z"/>
<path d="M65.8278 70.3281L66.6809 70.3281L66.6809 71.7297L67.4825 71.7297L67.4825 72.4187L66.6809 72.4187L66.6809 75.6953C66.6809 75.8703 66.7403 75.9875 66.8591 76.0469C66.9247 76.0812 67.0341 76.0984 67.1872 76.0984C67.2278 76.0984 67.2716 76.0977 67.3184 76.0961C67.3653 76.0945 67.42 76.0906 67.4825 76.0844L67.4825 76.75C67.3856 76.7781 67.2848 76.7984 67.1802 76.8109C67.0755 76.8234 66.9622 76.8297 66.8403 76.8297C66.4466 76.8297 66.1794 76.7289 66.0388 76.5273C65.8981 76.3258 65.8278 76.0641 65.8278 75.7422L65.8278 72.4187L65.1481 72.4187L65.1481 71.7297L65.8278 71.7297L65.8278 70.3281Z"/>
<path d="M68.9731 75.4141C68.9731 75.6578 69.0622 75.85 69.2403 75.9906C69.4184 76.1312 69.6294 76.2016 69.8731 76.2016C70.17 76.2016 70.4575 76.1328 70.7356 75.9953C71.2044 75.7672 71.4388 75.3937 71.4388 74.875L71.4388 74.1953C71.3356 74.2609 71.2028 74.3156 71.0403 74.3594C70.8778 74.4031 70.7184 74.4344 70.5622 74.4531L70.0513 74.5187C69.745 74.5594 69.5153 74.6234 69.3622 74.7109C69.1028 74.8578 68.9731 75.0922 68.9731 75.4141ZM71.0169 73.7078C71.2106 73.6828 71.3403 73.6016 71.4059 73.4641C71.4434 73.3891 71.4622 73.2812 71.4622 73.1406C71.4622 72.8531 71.3598 72.6445 71.1552 72.5148C70.9505 72.3852 70.6575 72.3203 70.2763 72.3203C69.8356 72.3203 69.5231 72.4391 69.3388 72.6766C69.2356 72.8078 69.1684 73.0031 69.1372 73.2625L68.3497 73.2625C68.3653 72.6437 68.5661 72.2133 68.952 71.9711C69.338 71.7289 69.7856 71.6078 70.295 71.6078C70.8856 71.6078 71.3653 71.7203 71.7341 71.9453C72.0997 72.1703 72.2825 72.5203 72.2825 72.9953L72.2825 75.8875C72.2825 75.975 72.3005 76.0453 72.3364 76.0984C72.3723 76.1516 72.4481 76.1781 72.5638 76.1781C72.6013 76.1781 72.6434 76.1758 72.6903 76.1711C72.7372 76.1664 72.7872 76.1594 72.8403 76.15L72.8403 76.7734C72.7091 76.8109 72.6091 76.8344 72.5403 76.8438C72.4716 76.8531 72.3778 76.8578 72.2591 76.8578C71.9684 76.8578 71.7575 76.7547 71.6263 76.5484C71.5575 76.4391 71.5091 76.2844 71.4809 76.0844C71.3091 76.3094 71.0622 76.5047 70.7403 76.6703C70.4184 76.8359 70.0638 76.9188 69.6763 76.9188C69.2106 76.9188 68.8302 76.7773 68.5348 76.4945C68.2395 76.2117 68.0919 75.8578 68.0919 75.4328C68.0919 74.9672 68.2372 74.6062 68.5278 74.35C68.8184 74.0937 69.1997 73.9359 69.6716 73.8766L71.0169 73.7078Z"/>
</g>
</g>
<g opacity="1" vectornator:layerName="g">
<path d="M61.5 240.5C61.5 240.5 12.5 240.5 12.5 216.5L12.5 169.5C12.5 169.5 12.5 145.5 61.5 145.5C61.5 145.5 110.5 145.5 110.5 169.5L110.5 216.5C110.5 240.5 61.5 240.5 61.5 240.5Z" fill="none" opacity="1" stroke="#5241fd" stroke-linecap="round" stroke-linejoin="round" stroke-width="3" vectornator:layerName="path"/>
<path d="M96.15 152.53C115.28 161.9 115.28 177.1 96.15 186.47C77.01 195.84 45.99 195.84 26.85 186.47C7.72 177.1 7.72 161.9 26.85 152.53C45.99 143.16 77.01 143.16 96.15 152.53" fill="none" opacity="1" stroke="#5241fd" stroke-linecap="round" stroke-linejoin="round" stroke-width="3" vectornator:layerName="path"/>
<g fill="#000000" opacity="1" stroke="none" vectornator:layerName="tspan">
<path d="M25.5322 199.624L26.4744 199.624L26.4744 206.51L25.5322 206.51L25.5322 199.624Z"/>
<path d="M27.8759 201.49L28.6775 201.49L28.6775 202.202C28.915 201.908 29.1666 201.697 29.4322 201.569C29.6978 201.441 29.9931 201.377 30.3181 201.377C31.0306 201.377 31.5119 201.626 31.7619 202.122C31.8994 202.394 31.9681 202.783 31.9681 203.29L31.9681 206.51L31.1103 206.51L31.1103 203.346C31.1103 203.04 31.065 202.793 30.9744 202.605C30.8244 202.293 30.5525 202.137 30.1588 202.137C29.9588 202.137 29.7947 202.157 29.6666 202.197C29.4353 202.266 29.2322 202.404 29.0572 202.61C28.9166 202.776 28.8252 202.947 28.783 203.123C28.7408 203.3 28.7197 203.552 28.7197 203.88L28.7197 206.51L27.8759 206.51L27.8759 201.49Z"/>
<path d="M33.3838 200.088L34.2369 200.088L34.2369 201.49L35.0384 201.49L35.0384 202.179L34.2369 202.179L34.2369 205.455C34.2369 205.63 34.2963 205.747 34.415 205.807C34.4806 205.841 34.59 205.858 34.7431 205.858C34.7838 205.858 34.8275 205.858 34.8744 205.856C34.9213 205.855 34.9759 205.851 35.0384 205.844L35.0384 206.51C34.9416 206.538 34.8408 206.558 34.7361 206.571C34.6314 206.583 34.5181 206.59 34.3963 206.59C34.0025 206.59 33.7353 206.489 33.5947 206.287C33.4541 206.086 33.3838 205.824 33.3838 205.502L33.3838 202.179L32.7041 202.179L32.7041 201.49L33.3838 201.49L33.3838 200.088Z"/>
<path d="M37.9728 201.377C38.3291 201.377 38.6744 201.461 39.0088 201.628C39.3431 201.795 39.5978 202.012 39.7728 202.277C39.9416 202.53 40.0541 202.826 40.1103 203.163C40.1603 203.394 40.1853 203.763 40.1853 204.269L36.5056 204.269C36.5213 204.779 36.6416 205.187 36.8666 205.495C37.0916 205.803 37.44 205.957 37.9119 205.957C38.3525 205.957 38.7041 205.812 38.9666 205.521C39.1166 205.352 39.2228 205.157 39.2853 204.935L40.115 204.935C40.0931 205.119 40.0205 205.325 39.897 205.551C39.7736 205.778 39.6353 205.963 39.4822 206.107C39.2259 206.357 38.9088 206.526 38.5306 206.613C38.3275 206.663 38.0978 206.688 37.8416 206.688C37.2166 206.688 36.6869 206.461 36.2525 206.006C35.8181 205.551 35.6009 204.915 35.6009 204.096C35.6009 203.29 35.8197 202.635 36.2572 202.132C36.6947 201.629 37.2666 201.377 37.9728 201.377ZM39.3181 203.599C39.2838 203.233 39.2041 202.941 39.0791 202.722C38.8478 202.316 38.4619 202.113 37.9213 202.113C37.5338 202.113 37.2088 202.253 36.9463 202.533C36.6838 202.812 36.5447 203.168 36.5291 203.599L39.3181 203.599Z"/>
<path d="M41.2447 201.49L42.0463 201.49L42.0463 202.357C42.1119 202.188 42.2728 201.983 42.5291 201.74C42.7853 201.498 43.0806 201.377 43.415 201.377C43.4306 201.377 43.4572 201.379 43.4947 201.382C43.5322 201.385 43.5963 201.391 43.6869 201.401L43.6869 202.291C43.6369 202.282 43.5908 202.276 43.5486 202.272C43.5064 202.269 43.4603 202.268 43.4103 202.268C42.9853 202.268 42.6588 202.405 42.4306 202.678C42.2025 202.951 42.0884 203.266 42.0884 203.622L42.0884 206.51L41.2447 206.51L41.2447 201.49Z"/>
<path d="M44.4181 201.49L45.2525 201.49L45.2525 202.202C45.4525 201.955 45.6338 201.776 45.7963 201.663C46.0744 201.472 46.39 201.377 46.7431 201.377C47.1431 201.377 47.465 201.476 47.7088 201.672C47.8463 201.785 47.9713 201.951 48.0838 202.169C48.2713 201.901 48.4916 201.701 48.7447 201.572C48.9978 201.442 49.2822 201.377 49.5978 201.377C50.2728 201.377 50.7322 201.621 50.9759 202.108C51.1072 202.371 51.1728 202.724 51.1728 203.168L51.1728 206.51L50.2963 206.51L50.2963 203.022C50.2963 202.688 50.2127 202.458 50.0455 202.333C49.8783 202.208 49.6744 202.146 49.4338 202.146C49.1025 202.146 48.8173 202.257 48.5783 202.479C48.3392 202.701 48.2197 203.071 48.2197 203.59L48.2197 206.51L47.3619 206.51L47.3619 203.233C47.3619 202.893 47.3213 202.644 47.24 202.488C47.1119 202.254 46.8728 202.137 46.5228 202.137C46.2041 202.137 45.9142 202.26 45.6533 202.507C45.3923 202.754 45.2619 203.201 45.2619 203.847L45.2619 206.51L44.4181 206.51L44.4181 201.49Z"/>
<path d="M54.5056 201.377C54.8619 201.377 55.2072 201.461 55.5416 201.628C55.8759 201.795 56.1306 202.012 56.3056 202.277C56.4744 202.53 56.5869 202.826 56.6431 203.163C56.6931 203.394 56.7181 203.763 56.7181 204.269L53.0384 204.269C53.0541 204.779 53.1744 205.187 53.3994 205.495C53.6244 205.803 53.9728 205.957 54.4447 205.957C54.8853 205.957 55.2369 205.812 55.4994 205.521C55.6494 205.352 55.7556 205.157 55.8181 204.935L56.6478 204.935C56.6259 205.119 56.5533 205.325 56.4298 205.551C56.3064 205.778 56.1681 205.963 56.015 206.107C55.7588 206.357 55.4416 206.526 55.0634 206.613C54.8603 206.663 54.6306 206.688 54.3744 206.688C53.7494 206.688 53.2197 206.461 52.7853 206.006C52.3509 205.551 52.1338 204.915 52.1338 204.096C52.1338 203.29 52.3525 202.635 52.79 202.132C53.2275 201.629 53.7994 201.377 54.5056 201.377ZM55.8509 203.599C55.8166 203.233 55.7369 202.941 55.6119 202.722C55.3806 202.316 54.9947 202.113 54.4541 202.113C54.0666 202.113 53.7416 202.253 53.4791 202.533C53.2166 202.812 53.0775 203.168 53.0619 203.599L55.8509 203.599Z"/>
<path d="M58.2884 204.058C58.2884 204.596 58.4025 205.046 58.6306 205.408C58.8588 205.771 59.2244 205.952 59.7275 205.952C60.1181 205.952 60.4392 205.784 60.6908 205.448C60.9423 205.112 61.0681 204.63 61.0681 204.002C61.0681 203.368 60.9384 202.898 60.6791 202.594C60.4197 202.289 60.0994 202.137 59.7181 202.137C59.2931 202.137 58.9486 202.299 58.6845 202.624C58.4205 202.949 58.2884 203.427 58.2884 204.058ZM59.5588 201.401C59.9431 201.401 60.265 201.482 60.5244 201.644C60.6744 201.738 60.8447 201.902 61.0353 202.137L61.0353 199.601L61.8463 199.601L61.8463 206.51L61.0869 206.51L61.0869 205.812C60.89 206.121 60.6572 206.344 60.3884 206.482C60.1197 206.619 59.8119 206.688 59.465 206.688C58.9056 206.688 58.4213 206.453 58.0119 205.983C57.6025 205.512 57.3978 204.887 57.3978 204.105C57.3978 203.374 57.5845 202.74 57.958 202.205C58.3314 201.669 58.865 201.401 59.5588 201.401Z"/>
<path d="M63.0931 201.513L63.9509 201.513L63.9509 206.51L63.0931 206.51L63.0931 201.513ZM63.0931 199.624L63.9509 199.624L63.9509 200.58L63.0931 200.58L63.0931 199.624Z"/>
<path d="M65.8728 205.174C65.8728 205.418 65.9619 205.61 66.14 205.751C66.3181 205.891 66.5291 205.962 66.7728 205.962C67.0697 205.962 67.3572 205.893 67.6353 205.755C68.1041 205.527 68.3384 205.154 68.3384 204.635L68.3384 203.955C68.2353 204.021 68.1025 204.076 67.94 204.119C67.7775 204.163 67.6181 204.194 67.4619 204.213L66.9509 204.279C66.6447 204.319 66.415 204.383 66.2619 204.471C66.0025 204.618 65.8728 204.852 65.8728 205.174ZM67.9166 203.468C68.1103 203.443 68.24 203.362 68.3056 203.224C68.3431 203.149 68.3619 203.041 68.3619 202.901C68.3619 202.613 68.2595 202.405 68.0548 202.275C67.8502 202.145 67.5572 202.08 67.1759 202.08C66.7353 202.08 66.4228 202.199 66.2384 202.437C66.1353 202.568 66.0681 202.763 66.0369 203.022L65.2494 203.022C65.265 202.404 65.4658 201.973 65.8517 201.731C66.2377 201.489 66.6853 201.368 67.1947 201.368C67.7853 201.368 68.265 201.48 68.6338 201.705C68.9994 201.93 69.1822 202.28 69.1822 202.755L69.1822 205.647C69.1822 205.735 69.2002 205.805 69.2361 205.858C69.272 205.912 69.3478 205.938 69.4634 205.938C69.5009 205.938 69.5431 205.936 69.59 205.931C69.6369 205.926 69.6869 205.919 69.74 205.91L69.74 206.533C69.6088 206.571 69.5088 206.594 69.44 206.604C69.3713 206.613 69.2775 206.618 69.1588 206.618C68.8681 206.618 68.6572 206.515 68.5259 206.308C68.4572 206.199 68.4088 206.044 68.3806 205.844C68.2088 206.069 67.9619 206.265 67.64 206.43C67.3181 206.596 66.9634 206.679 66.5759 206.679C66.1103 206.679 65.7298 206.537 65.4345 206.255C65.1392 205.972 64.9916 205.618 64.9916 205.193C64.9916 204.727 65.1369 204.366 65.4275 204.11C65.7181 203.854 66.0994 203.696 66.5713 203.637L67.9166 203.468Z"/>
<path d="M70.7338 200.088L71.5869 200.088L71.5869 201.49L72.3884 201.49L72.3884 202.179L71.5869 202.179L71.5869 205.455C71.5869 205.63 71.6463 205.747 71.765 205.807C71.8306 205.841 71.94 205.858 72.0931 205.858C72.1338 205.858 72.1775 205.858 72.2244 205.856C72.2713 205.855 72.3259 205.851 72.3884 205.844L72.3884 206.51C72.2916 206.538 72.1908 206.558 72.0861 206.571C71.9814 206.583 71.8681 206.59 71.7463 206.59C71.3525 206.59 71.0853 206.489 70.9447 206.287C70.8041 206.086 70.7338 205.824 70.7338 205.502L70.7338 202.179L70.0541 202.179L70.0541 201.49L70.7338 201.49L70.7338 200.088Z"/>
<path d="M75.3228 201.377C75.6791 201.377 76.0244 201.461 76.3588 201.628C76.6931 201.795 76.9478 202.012 77.1228 202.277C77.2916 202.53 77.4041 202.826 77.4603 203.163C77.5103 203.394 77.5353 203.763 77.5353 204.269L73.8556 204.269C73.8713 204.779 73.9916 205.187 74.2166 205.495C74.4416 205.803 74.79 205.957 75.2619 205.957C75.7025 205.957 76.0541 205.812 76.3166 205.521C76.4666 205.352 76.5728 205.157 76.6353 204.935L77.465 204.935C77.4431 205.119 77.3705 205.325 77.247 205.551C77.1236 205.778 76.9853 205.963 76.8322 206.107C76.5759 206.357 76.2588 206.526 75.8806 206.613C75.6775 206.663 75.4478 206.688 75.1916 206.688C74.5666 206.688 74.0369 206.461 73.6025 206.006C73.1681 205.551 72.9509 204.915 72.9509 204.096C72.9509 203.29 73.1697 202.635 73.6072 202.132C74.0447 201.629 74.6166 201.377 75.3228 201.377ZM76.6681 203.599C76.6338 203.233 76.5541 202.941 76.4291 202.722C76.1978 202.316 75.8119 202.113 75.2713 202.113C74.8838 202.113 74.5588 202.253 74.2963 202.533C74.0338 202.812 73.8947 203.168 73.8791 203.599L76.6681 203.599Z"/>
</g>
<g fill="#000000" opacity="1" stroke="none" vectornator:layerName="tspan">
<path d="M33.9928 216.269C34.4303 216.269 34.7764 216.181 35.0311 216.006C35.2858 215.831 35.4131 215.516 35.4131 215.059C35.4131 214.569 35.235 214.234 34.8787 214.056C34.6881 213.962 34.4334 213.916 34.1147 213.916L31.8366 213.916L31.8366 216.269L33.9928 216.269ZM30.9037 213.114L34.0912 213.114C34.6162 213.114 35.0491 213.191 35.3897 213.344C36.0366 213.637 36.36 214.18 36.36 214.97C36.36 215.383 36.2748 215.72 36.1045 215.983C35.9342 216.245 35.6959 216.456 35.3897 216.616C35.6584 216.725 35.8608 216.869 35.9967 217.047C36.1327 217.225 36.2084 217.514 36.2241 217.914L36.2569 218.837C36.2662 219.1 36.2881 219.295 36.3225 219.423C36.3787 219.642 36.4787 219.783 36.6225 219.845L36.6225 220L35.4787 220C35.4475 219.941 35.4225 219.864 35.4037 219.77C35.385 219.677 35.3694 219.495 35.3569 219.227L35.3006 218.078C35.2787 217.628 35.1116 217.327 34.7991 217.173C34.6209 217.089 34.3412 217.047 33.96 217.047L31.8366 217.047L31.8366 220L30.9037 220L30.9037 213.114Z"/>
<path d="M39.7022 214.867C40.0584 214.867 40.4037 214.951 40.7381 215.118C41.0725 215.285 41.3272 215.502 41.5022 215.767C41.6709 216.02 41.7834 216.316 41.8397 216.653C41.8897 216.884 41.9147 217.253 41.9147 217.759L38.235 217.759C38.2506 218.269 38.3709 218.677 38.5959 218.985C38.8209 219.293 39.1694 219.447 39.6412 219.447C40.0819 219.447 40.4334 219.302 40.6959 219.011C40.8459 218.842 40.9522 218.647 41.0147 218.425L41.8444 218.425C41.8225 218.609 41.7498 218.815 41.6264 219.041C41.503 219.268 41.3647 219.453 41.2116 219.597C40.9553 219.847 40.6381 220.016 40.26 220.103C40.0569 220.153 39.8272 220.178 39.5709 220.178C38.9459 220.178 38.4162 219.951 37.9819 219.496C37.5475 219.041 37.3303 218.405 37.3303 217.586C37.3303 216.78 37.5491 216.125 37.9866 215.622C38.4241 215.119 38.9959 214.867 39.7022 214.867ZM41.0475 217.089C41.0131 216.723 40.9334 216.431 40.8084 216.212C40.5772 215.806 40.1912 215.603 39.6506 215.603C39.2631 215.603 38.9381 215.743 38.6756 216.023C38.4131 216.302 38.2741 216.658 38.2584 217.089L41.0475 217.089Z"/>
<path d="M45.0694 219.433C45.4631 219.433 45.7905 219.268 46.0514 218.938C46.3123 218.609 46.4428 218.116 46.4428 217.459C46.4428 217.059 46.385 216.716 46.2694 216.428C46.0506 215.875 45.6506 215.598 45.0694 215.598C44.485 215.598 44.085 215.891 43.8694 216.475C43.7538 216.787 43.6959 217.184 43.6959 217.666C43.6959 218.053 43.7538 218.383 43.8694 218.655C44.0881 219.173 44.4881 219.433 45.0694 219.433ZM42.885 215.003L43.7053 215.003L43.7053 215.669C43.8741 215.441 44.0584 215.264 44.2584 215.139C44.5428 214.952 44.8772 214.858 45.2616 214.858C45.8303 214.858 46.3131 215.076 46.71 215.512C47.1069 215.948 47.3053 216.57 47.3053 217.38C47.3053 218.473 47.0194 219.255 46.4475 219.723C46.085 220.02 45.6631 220.169 45.1819 220.169C44.8038 220.169 44.4866 220.086 44.2303 219.92C44.0803 219.827 43.9131 219.666 43.7288 219.437L43.7288 222.002L42.885 222.002L42.885 215.003Z"/>
<path d="M50.2819 219.456C50.8413 219.456 51.2248 219.245 51.4327 218.821C51.6405 218.398 51.7444 217.927 51.7444 217.408C51.7444 216.939 51.6694 216.558 51.5194 216.264C51.2819 215.802 50.8725 215.57 50.2913 215.57C49.7756 215.57 49.4006 215.767 49.1663 216.161C48.9319 216.555 48.8147 217.03 48.8147 217.586C48.8147 218.12 48.9319 218.566 49.1663 218.922C49.4006 219.278 49.7725 219.456 50.2819 219.456ZM50.3147 214.834C50.9616 214.834 51.5084 215.05 51.9553 215.481C52.4022 215.912 52.6256 216.547 52.6256 217.384C52.6256 218.194 52.4288 218.862 52.035 219.391C51.6413 219.919 51.0303 220.183 50.2022 220.183C49.5116 220.183 48.9631 219.949 48.5569 219.482C48.1506 219.015 47.9475 218.387 47.9475 217.6C47.9475 216.756 48.1616 216.084 48.5897 215.584C49.0178 215.084 49.5928 214.834 50.3147 214.834Z"/>
<path d="M54.1303 218.425C54.1553 218.706 54.2256 218.922 54.3413 219.072C54.5538 219.344 54.9225 219.48 55.4475 219.48C55.76 219.48 56.035 219.412 56.2725 219.276C56.51 219.14 56.6288 218.93 56.6288 218.645C56.6288 218.43 56.5334 218.266 56.3428 218.153C56.2209 218.084 55.9803 218.005 55.6209 217.914L54.9506 217.745C54.5225 217.639 54.2069 217.52 54.0038 217.389C53.6413 217.161 53.46 216.845 53.46 216.442C53.46 215.967 53.6311 215.583 53.9733 215.289C54.3155 214.995 54.7756 214.848 55.3538 214.848C56.11 214.848 56.6553 215.07 56.9897 215.514C57.1991 215.795 57.3006 216.098 57.2944 216.423L56.4975 216.423C56.4819 216.233 56.4147 216.059 56.2959 215.903C56.1022 215.681 55.7663 215.57 55.2881 215.57C54.9694 215.57 54.728 215.631 54.5639 215.753C54.3998 215.875 54.3178 216.036 54.3178 216.236C54.3178 216.455 54.4256 216.63 54.6413 216.761C54.7663 216.839 54.9506 216.908 55.1944 216.967L55.7522 217.103C56.3584 217.25 56.7647 217.392 56.9709 217.53C57.2991 217.745 57.4631 218.084 57.4631 218.547C57.4631 218.994 57.2936 219.38 56.9545 219.705C56.6155 220.03 56.0991 220.192 55.4053 220.192C54.6584 220.192 54.1295 220.023 53.8186 219.684C53.5077 219.345 53.3413 218.925 53.3194 218.425L54.1303 218.425Z"/>
<path d="M58.4288 215.003L59.2866 215.003L59.2866 220L58.4288 220L58.4288 215.003ZM58.4288 213.114L59.2866 213.114L59.2866 214.07L58.4288 214.07L58.4288 213.114Z"/>
<path d="M60.7303 213.578L61.5834 213.578L61.5834 214.98L62.385 214.98L62.385 215.669L61.5834 215.669L61.5834 218.945C61.5834 219.12 61.6428 219.237 61.7616 219.297C61.8272 219.331 61.9366 219.348 62.0897 219.348C62.1303 219.348 62.1741 219.348 62.2209 219.346C62.2678 219.345 62.3225 219.341 62.385 219.334L62.385 220C62.2881 220.028 62.1873 220.048 62.0827 220.061C61.978 220.073 61.8647 220.08 61.7428 220.08C61.3491 220.08 61.0819 219.979 60.9413 219.777C60.8006 219.576 60.7303 219.314 60.7303 218.992L60.7303 215.669L60.0506 215.669L60.0506 214.98L60.7303 214.98L60.7303 213.578Z"/>
<path d="M65.2209 219.456C65.7803 219.456 66.1639 219.245 66.3717 218.821C66.5795 218.398 66.6834 217.927 66.6834 217.408C66.6834 216.939 66.6084 216.558 66.4584 216.264C66.2209 215.802 65.8116 215.57 65.2303 215.57C64.7147 215.57 64.3397 215.767 64.1053 216.161C63.8709 216.555 63.7538 217.03 63.7538 217.586C63.7538 218.12 63.8709 218.566 64.1053 218.922C64.3397 219.278 64.7116 219.456 65.2209 219.456ZM65.2538 214.834C65.9006 214.834 66.4475 215.05 66.8944 215.481C67.3413 215.912 67.5647 216.547 67.5647 217.384C67.5647 218.194 67.3678 218.862 66.9741 219.391C66.5803 219.919 65.9694 220.183 65.1413 220.183C64.4506 220.183 63.9022 219.949 63.4959 219.482C63.0897 219.015 62.8866 218.387 62.8866 217.6C62.8866 216.756 63.1006 216.084 63.5288 215.584C63.9569 215.084 64.5319 214.834 65.2538 214.834Z"/>
<path d="M68.5913 214.98L69.3928 214.98L69.3928 215.847C69.4584 215.678 69.6194 215.473 69.8756 215.23C70.1319 214.988 70.4272 214.867 70.7616 214.867C70.7772 214.867 70.8038 214.869 70.8413 214.872C70.8788 214.875 70.9428 214.881 71.0334 214.891L71.0334 215.781C70.9834 215.772 70.9373 215.766 70.8952 215.762C70.853 215.759 70.8069 215.758 70.7569 215.758C70.3319 215.758 70.0053 215.895 69.7772 216.168C69.5491 216.441 69.435 216.756 69.435 217.112L69.435 220L68.5913 220L68.5913 214.98Z"/>
<path d="M74.9006 214.98L75.8334 214.98C75.7147 215.302 75.4506 216.036 75.0413 217.183C74.735 218.045 74.4788 218.748 74.2725 219.292C73.785 220.573 73.4413 221.355 73.2413 221.636C73.0413 221.917 72.6975 222.058 72.21 222.058C72.0913 222.058 71.9998 222.053 71.9358 222.044C71.8717 222.034 71.7928 222.017 71.6991 221.992L71.6991 221.223C71.8459 221.264 71.9522 221.289 72.0178 221.298C72.0834 221.308 72.1413 221.313 72.1913 221.313C72.3475 221.313 72.4623 221.287 72.5358 221.235C72.6092 221.184 72.6709 221.12 72.7209 221.045C72.7366 221.02 72.7928 220.892 72.8897 220.661C72.9866 220.43 73.0569 220.258 73.1006 220.145L71.2444 214.98L72.2006 214.98L73.5459 219.067L74.9006 214.98Z"/>
</g>
</g>
<g opacity="1" vectornator:layerName="g">
<path d="M218 245.5C204.47 245.5 193.5 234.53 193.5 221L193.5 175C193.5 161.47 204.47 150.5 218 150.5L267 150.5C280.53 150.5 291.5 161.47 291.5 175L291.5 221C291.5 234.53 280.53 245.5 267 245.5L218 245.5Z" fill="none" opacity="1" stroke="#fc8e47" stroke-linecap="round" stroke-linejoin="round" stroke-width="3" vectornator:layerName="path"/>
<g fill="#000000" opacity="1" stroke="none" vectornator:layerName="tspan">
<path d="M221.255 187.463C221.571 187.463 221.83 187.43 222.033 187.365C222.396 187.243 222.693 187.008 222.924 186.662C223.108 186.383 223.241 186.027 223.322 185.593C223.369 185.333 223.393 185.093 223.393 184.871C223.393 184.018 223.223 183.355 222.884 182.883C222.545 182.412 221.999 182.176 221.246 182.176L219.591 182.176L219.591 187.463L221.255 187.463ZM218.653 181.374L221.443 181.374C222.389 181.374 223.124 181.71 223.646 182.382C224.111 182.988 224.344 183.765 224.344 184.712C224.344 185.443 224.207 186.104 223.932 186.694C223.447 187.738 222.614 188.26 221.433 188.26L218.653 188.26L218.653 181.374Z"/>
<path d="M228.568 183.24L229.5 183.24C229.382 183.562 229.118 184.296 228.708 185.443C228.402 186.305 228.146 187.008 227.939 187.552C227.452 188.833 227.108 189.615 226.908 189.896C226.708 190.177 226.364 190.318 225.877 190.318C225.758 190.318 225.667 190.313 225.603 190.304C225.539 190.294 225.46 190.277 225.366 190.252L225.366 189.483C225.513 189.524 225.619 189.549 225.685 189.558C225.75 189.568 225.808 189.572 225.858 189.572C226.014 189.572 226.129 189.547 226.203 189.495C226.276 189.444 226.338 189.38 226.388 189.305C226.403 189.28 226.46 189.152 226.557 188.921C226.653 188.69 226.724 188.518 226.768 188.405L224.911 183.24L225.868 183.24L227.213 187.327L228.568 183.24Z"/>
<path d="M230.232 183.24L231.033 183.24L231.033 183.952C231.271 183.658 231.522 183.447 231.788 183.319C232.053 183.191 232.349 183.127 232.674 183.127C233.386 183.127 233.868 183.376 234.118 183.872C234.255 184.144 234.324 184.533 234.324 185.04L234.324 188.26L233.466 188.26L233.466 185.096C233.466 184.79 233.421 184.543 233.33 184.355C233.18 184.043 232.908 183.887 232.514 183.887C232.314 183.887 232.15 183.907 232.022 183.947C231.791 184.016 231.588 184.154 231.413 184.36C231.272 184.526 231.181 184.697 231.139 184.873C231.096 185.05 231.075 185.302 231.075 185.63L231.075 188.26L230.232 188.26L230.232 183.24Z"/>
<path d="M236.218 186.924C236.218 187.168 236.307 187.36 236.485 187.501C236.663 187.641 236.874 187.712 237.118 187.712C237.414 187.712 237.702 187.643 237.98 187.505C238.449 187.277 238.683 186.904 238.683 186.385L238.683 185.705C238.58 185.771 238.447 185.826 238.285 185.869C238.122 185.913 237.963 185.944 237.807 185.963L237.296 186.029C236.989 186.069 236.76 186.133 236.607 186.221C236.347 186.368 236.218 186.602 236.218 186.924ZM238.261 185.218C238.455 185.193 238.585 185.112 238.65 184.974C238.688 184.899 238.707 184.791 238.707 184.651C238.707 184.363 238.604 184.155 238.4 184.025C238.195 183.895 237.902 183.83 237.521 183.83C237.08 183.83 236.768 183.949 236.583 184.187C236.48 184.318 236.413 184.513 236.382 184.772L235.594 184.772C235.61 184.154 235.81 183.723 236.196 183.481C236.582 183.239 237.03 183.118 237.539 183.118C238.13 183.118 238.61 183.23 238.978 183.455C239.344 183.68 239.527 184.03 239.527 184.505L239.527 187.397C239.527 187.485 239.545 187.555 239.581 187.608C239.617 187.662 239.693 187.688 239.808 187.688C239.846 187.688 239.888 187.686 239.935 187.681C239.982 187.676 240.032 187.669 240.085 187.66L240.085 188.283C239.953 188.321 239.853 188.344 239.785 188.354C239.716 188.363 239.622 188.368 239.503 188.368C239.213 188.368 239.002 188.265 238.871 188.058C238.802 187.949 238.753 187.794 238.725 187.594C238.553 187.819 238.307 188.015 237.985 188.18C237.663 188.346 237.308 188.429 236.921 188.429C236.455 188.429 236.075 188.287 235.779 188.005C235.484 187.722 235.336 187.368 235.336 186.943C235.336 186.477 235.482 186.116 235.772 185.86C236.063 185.604 236.444 185.446 236.916 185.387L238.261 185.218Z"/>
<path d="M240.91 183.24L241.744 183.24L241.744 183.952C241.944 183.705 242.125 183.526 242.288 183.413C242.566 183.222 242.882 183.127 243.235 183.127C243.635 183.127 243.957 183.226 244.2 183.422C244.338 183.535 244.463 183.701 244.575 183.919C244.763 183.651 244.983 183.451 245.236 183.322C245.489 183.192 245.774 183.127 246.089 183.127C246.764 183.127 247.224 183.371 247.468 183.858C247.599 184.121 247.664 184.474 247.664 184.918L247.664 188.26L246.788 188.26L246.788 184.772C246.788 184.438 246.704 184.208 246.537 184.083C246.37 183.958 246.166 183.896 245.925 183.896C245.594 183.896 245.309 184.007 245.07 184.229C244.831 184.451 244.711 184.821 244.711 185.34L244.711 188.26L243.853 188.26L243.853 184.983C243.853 184.643 243.813 184.394 243.732 184.238C243.603 184.004 243.364 183.887 243.014 183.887C242.696 183.887 242.406 184.01 242.145 184.257C241.884 184.504 241.753 184.951 241.753 185.597L241.753 188.26L240.91 188.26L240.91 183.24Z"/>
<path d="M248.907 183.263L249.764 183.263L249.764 188.26L248.907 188.26L248.907 183.263ZM248.907 181.374L249.764 181.374L249.764 182.33L248.907 182.33L248.907 181.374Z"/>
<path d="M252.975 183.094C253.541 183.094 254.001 183.232 254.356 183.507C254.71 183.782 254.924 184.255 254.996 184.927L254.175 184.927C254.125 184.618 254.011 184.361 253.833 184.156C253.655 183.951 253.369 183.849 252.975 183.849C252.438 183.849 252.053 184.112 251.822 184.637C251.672 184.977 251.597 185.397 251.597 185.897C251.597 186.401 251.703 186.824 251.916 187.168C252.128 187.512 252.463 187.683 252.919 187.683C253.269 187.683 253.546 187.576 253.751 187.362C253.956 187.148 254.097 186.855 254.175 186.483L254.996 186.483C254.902 187.149 254.668 187.636 254.293 187.944C253.918 188.251 253.438 188.405 252.853 188.405C252.197 188.405 251.674 188.165 251.283 187.686C250.893 187.206 250.697 186.607 250.697 185.888C250.697 185.007 250.911 184.321 251.339 183.83C251.768 183.34 252.313 183.094 252.975 183.094Z"/>
</g>
<g fill="#000000" opacity="1" stroke="none" vectornator:layerName="tspan">
<path d="M226.612 194.864L227.554 194.864L227.554 201.75L226.612 201.75L226.612 194.864Z"/>
<path d="M228.956 196.73L229.757 196.73L229.757 197.442C229.995 197.148 230.247 196.937 230.512 196.809C230.778 196.681 231.073 196.617 231.398 196.617C232.111 196.617 232.592 196.866 232.842 197.362C232.979 197.634 233.048 198.023 233.048 198.53L233.048 201.75L232.19 201.75L232.19 198.586C232.19 198.28 232.145 198.033 232.054 197.845C231.904 197.533 231.632 197.377 231.239 197.377C231.039 197.377 230.875 197.397 230.747 197.437C230.515 197.506 230.312 197.644 230.137 197.85C229.997 198.016 229.905 198.187 229.863 198.363C229.821 198.54 229.8 198.792 229.8 199.12L229.8 201.75L228.956 201.75L228.956 196.73Z"/>
<path d="M236.067 196.641C236.461 196.641 236.804 196.737 237.098 196.931C237.257 197.041 237.42 197.2 237.586 197.409L237.586 196.777L238.364 196.777L238.364 201.342C238.364 201.98 238.27 202.483 238.082 202.852C237.732 203.533 237.072 203.873 236.1 203.873C235.559 203.873 235.104 203.752 234.736 203.51C234.367 203.268 234.161 202.889 234.117 202.373L234.975 202.373C235.015 202.598 235.097 202.772 235.218 202.894C235.409 203.081 235.709 203.175 236.118 203.175C236.765 203.175 237.189 202.947 237.389 202.491C237.507 202.222 237.562 201.742 237.553 201.052C237.384 201.308 237.181 201.498 236.943 201.623C236.706 201.748 236.392 201.811 236.001 201.811C235.457 201.811 234.982 201.618 234.574 201.232C234.166 200.846 233.962 200.208 233.962 199.317C233.962 198.477 234.168 197.82 234.579 197.348C234.99 196.877 235.486 196.641 236.067 196.641ZM237.586 199.219C237.586 198.597 237.457 198.136 237.201 197.836C236.945 197.536 236.618 197.386 236.222 197.386C235.628 197.386 235.222 197.664 235.003 198.22C234.887 198.517 234.829 198.906 234.829 199.387C234.829 199.953 234.944 200.384 235.174 200.679C235.404 200.974 235.712 201.122 236.1 201.122C236.706 201.122 237.132 200.848 237.379 200.302C237.517 199.992 237.586 199.631 237.586 199.219Z"/>
<path d="M241.725 196.617C242.081 196.617 242.426 196.701 242.761 196.868C243.095 197.035 243.35 197.252 243.525 197.517C243.693 197.77 243.806 198.066 243.862 198.403C243.912 198.634 243.937 199.003 243.937 199.509L240.257 199.509C240.273 200.019 240.393 200.427 240.618 200.735C240.843 201.043 241.192 201.197 241.664 201.197C242.104 201.197 242.456 201.052 242.718 200.761C242.868 200.592 242.975 200.397 243.037 200.175L243.867 200.175C243.845 200.359 243.772 200.565 243.649 200.791C243.525 201.018 243.387 201.203 243.234 201.347C242.978 201.597 242.661 201.766 242.282 201.853C242.079 201.903 241.85 201.928 241.593 201.928C240.968 201.928 240.439 201.701 240.004 201.246C239.57 200.791 239.353 200.155 239.353 199.336C239.353 198.53 239.572 197.875 240.009 197.372C240.447 196.869 241.018 196.617 241.725 196.617ZM243.07 198.839C243.036 198.473 242.956 198.181 242.831 197.962C242.6 197.556 242.214 197.353 241.673 197.353C241.286 197.353 240.961 197.493 240.698 197.773C240.436 198.052 240.297 198.408 240.281 198.839L243.07 198.839Z"/>
<path d="M245.475 200.175C245.5 200.456 245.57 200.672 245.686 200.822C245.898 201.094 246.267 201.23 246.792 201.23C247.104 201.23 247.379 201.162 247.617 201.026C247.854 200.89 247.973 200.68 247.973 200.395C247.973 200.18 247.878 200.016 247.687 199.903C247.565 199.834 247.325 199.755 246.965 199.664L246.295 199.495C245.867 199.389 245.551 199.27 245.348 199.139C244.986 198.911 244.804 198.595 244.804 198.192C244.804 197.717 244.975 197.333 245.318 197.039C245.66 196.745 246.12 196.598 246.698 196.598C247.454 196.598 248 196.82 248.334 197.264C248.543 197.545 248.645 197.848 248.639 198.173L247.842 198.173C247.826 197.983 247.759 197.809 247.64 197.653C247.447 197.431 247.111 197.32 246.632 197.32C246.314 197.32 246.072 197.381 245.908 197.503C245.744 197.625 245.662 197.786 245.662 197.986C245.662 198.205 245.77 198.38 245.986 198.511C246.111 198.589 246.295 198.658 246.539 198.717L247.097 198.853C247.703 199 248.109 199.142 248.315 199.28C248.643 199.495 248.807 199.834 248.807 200.297C248.807 200.744 248.638 201.13 248.299 201.455C247.96 201.78 247.443 201.942 246.75 201.942C246.003 201.942 245.474 201.773 245.163 201.434C244.852 201.095 244.686 200.675 244.664 200.175L245.475 200.175Z"/>
<path d="M249.942 195.328L250.795 195.328L250.795 196.73L251.597 196.73L251.597 197.419L250.795 197.419L250.795 200.695C250.795 200.87 250.854 200.987 250.973 201.047C251.039 201.081 251.148 201.098 251.301 201.098C251.342 201.098 251.386 201.098 251.432 201.096C251.479 201.095 251.534 201.091 251.597 201.084L251.597 201.75C251.5 201.778 251.399 201.798 251.294 201.811C251.19 201.823 251.076 201.83 250.954 201.83C250.561 201.83 250.293 201.729 250.153 201.527C250.012 201.326 249.942 201.064 249.942 200.742L249.942 197.419L249.262 197.419L249.262 196.73L249.942 196.73L249.942 195.328Z"/>
</g>
<g fill="#000000" opacity="1" stroke="none" vectornator:layerName="tspan">
<path d="M223.641 213.028C223.663 213.419 223.755 213.736 223.917 213.98C224.227 214.436 224.772 214.664 225.553 214.664C225.903 214.664 226.222 214.614 226.509 214.514C227.066 214.32 227.344 213.973 227.344 213.473C227.344 213.098 227.227 212.831 226.992 212.672C226.755 212.516 226.383 212.38 225.877 212.264L224.944 212.053C224.334 211.916 223.903 211.764 223.65 211.598C223.213 211.311 222.994 210.881 222.994 210.309C222.994 209.691 223.208 209.183 223.636 208.786C224.064 208.389 224.67 208.191 225.455 208.191C226.177 208.191 226.79 208.365 227.295 208.713C227.799 209.062 228.052 209.619 228.052 210.384L227.175 210.384C227.128 210.016 227.028 209.733 226.875 209.536C226.591 209.177 226.108 208.997 225.427 208.997C224.877 208.997 224.481 209.112 224.241 209.344C224 209.575 223.88 209.844 223.88 210.15C223.88 210.487 224.02 210.734 224.302 210.891C224.486 210.991 224.903 211.116 225.553 211.266L226.519 211.486C226.984 211.592 227.344 211.737 227.597 211.922C228.034 212.244 228.253 212.711 228.253 213.323C228.253 214.086 227.976 214.631 227.421 214.959C226.866 215.288 226.222 215.452 225.488 215.452C224.631 215.452 223.961 215.233 223.477 214.795C222.992 214.361 222.755 213.772 222.764 213.028L223.641 213.028Z"/>
<path d="M232.458 210.23L233.391 210.23C233.272 210.552 233.008 211.286 232.598 212.433C232.292 213.295 232.036 213.998 231.83 214.542C231.342 215.823 230.998 216.605 230.798 216.886C230.598 217.167 230.255 217.308 229.767 217.308C229.648 217.308 229.557 217.303 229.493 217.294C229.429 217.284 229.35 217.267 229.256 217.242L229.256 216.473C229.403 216.514 229.509 216.539 229.575 216.548C229.641 216.558 229.698 216.563 229.748 216.563C229.905 216.563 230.02 216.537 230.093 216.485C230.166 216.434 230.228 216.37 230.278 216.295C230.294 216.27 230.35 216.142 230.447 215.911C230.544 215.68 230.614 215.508 230.658 215.395L228.802 210.23L229.758 210.23L231.103 214.317L232.458 210.23Z"/>
<path d="M234.623 213.675C234.648 213.956 234.719 214.172 234.834 214.322C235.047 214.594 235.416 214.73 235.941 214.73C236.253 214.73 236.528 214.662 236.766 214.526C237.003 214.39 237.122 214.18 237.122 213.895C237.122 213.68 237.027 213.516 236.836 213.403C236.714 213.334 236.473 213.255 236.114 213.164L235.444 212.995C235.016 212.889 234.7 212.77 234.497 212.639C234.134 212.411 233.953 212.095 233.953 211.692C233.953 211.217 234.124 210.833 234.466 210.539C234.809 210.245 235.269 210.098 235.847 210.098C236.603 210.098 237.148 210.32 237.483 210.764C237.692 211.045 237.794 211.348 237.788 211.673L236.991 211.673C236.975 211.483 236.908 211.309 236.789 211.153C236.595 210.931 236.259 210.82 235.781 210.82C235.463 210.82 235.221 210.881 235.057 211.003C234.893 211.125 234.811 211.286 234.811 211.486C234.811 211.705 234.919 211.88 235.134 212.011C235.259 212.089 235.444 212.158 235.688 212.217L236.245 212.353C236.852 212.5 237.258 212.642 237.464 212.78C237.792 212.995 237.956 213.334 237.956 213.797C237.956 214.244 237.787 214.63 237.448 214.955C237.109 215.28 236.592 215.442 235.898 215.442C235.152 215.442 234.623 215.273 234.312 214.934C234.001 214.595 233.834 214.175 233.813 213.675L234.623 213.675Z"/>
<path d="M239.091 208.828L239.944 208.828L239.944 210.23L240.745 210.23L240.745 210.919L239.944 210.919L239.944 214.195C239.944 214.37 240.003 214.487 240.122 214.547C240.188 214.581 240.297 214.598 240.45 214.598C240.491 214.598 240.534 214.598 240.581 214.596C240.628 214.595 240.683 214.591 240.745 214.584L240.745 215.25C240.648 215.278 240.548 215.298 240.443 215.311C240.338 215.323 240.225 215.33 240.103 215.33C239.709 215.33 239.442 215.229 239.302 215.027C239.161 214.826 239.091 214.564 239.091 214.242L239.091 210.919L238.411 210.919L238.411 210.23L239.091 210.23L239.091 208.828Z"/>
<path d="M243.68 210.117C244.036 210.117 244.381 210.201 244.716 210.368C245.05 210.535 245.305 210.752 245.48 211.017C245.648 211.27 245.761 211.566 245.817 211.903C245.867 212.134 245.892 212.503 245.892 213.009L242.213 213.009C242.228 213.519 242.348 213.927 242.573 214.235C242.798 214.543 243.147 214.697 243.619 214.697C244.059 214.697 244.411 214.552 244.673 214.261C244.823 214.092 244.93 213.897 244.992 213.675L245.822 213.675C245.8 213.859 245.727 214.065 245.604 214.291C245.48 214.518 245.342 214.703 245.189 214.847C244.933 215.097 244.616 215.266 244.238 215.353C244.034 215.403 243.805 215.428 243.548 215.428C242.923 215.428 242.394 215.201 241.959 214.746C241.525 214.291 241.308 213.655 241.308 212.836C241.308 212.03 241.527 211.375 241.964 210.872C242.402 210.369 242.973 210.117 243.68 210.117ZM245.025 212.339C244.991 211.973 244.911 211.681 244.786 211.462C244.555 211.056 244.169 210.853 243.628 210.853C243.241 210.853 242.916 210.993 242.653 211.273C242.391 211.552 242.252 211.908 242.236 212.339L245.025 212.339Z"/>
<path d="M246.928 210.23L247.763 210.23L247.763 210.942C247.963 210.695 248.144 210.516 248.306 210.403C248.584 210.212 248.9 210.117 249.253 210.117C249.653 210.117 249.975 210.216 250.219 210.412C250.356 210.525 250.481 210.691 250.594 210.909C250.781 210.641 251.002 210.441 251.255 210.312C251.508 210.182 251.792 210.117 252.108 210.117C252.783 210.117 253.242 210.361 253.486 210.848C253.617 211.111 253.683 211.464 253.683 211.908L253.683 215.25L252.806 215.25L252.806 211.762C252.806 211.428 252.723 211.198 252.555 211.073C252.388 210.948 252.184 210.886 251.944 210.886C251.613 210.886 251.327 210.997 251.088 211.219C250.849 211.441 250.73 211.811 250.73 212.33L250.73 215.25L249.872 215.25L249.872 211.973C249.872 211.633 249.831 211.384 249.75 211.228C249.622 210.994 249.383 210.877 249.033 210.877C248.714 210.877 248.424 211 248.163 211.247C247.902 211.494 247.772 211.941 247.772 212.587L247.772 215.25L246.928 215.25L246.928 210.23Z"/>
</g>
</g>
<path d="M371.54 191.8C363.59 179.45 373.13 159.5 382.67 168.05C384.26 152.85 408.11 144.3 420.83 163.3C424.01 150 454.22 141.45 468.53 161.4C476.48 150.95 493.97 151.9 501.92 169C513.05 159.5 527.36 179.45 517.82 193.7C525.77 200.35 516.23 225.05 505.1 218.4C500.33 235.5 487.61 247.85 463.76 235.5C457.4 248.8 411.29 247.85 408.11 233.6C404.93 243.1 373.13 253.55 373.13 219.35C362 224.1 355.64 193.7 371.54 191.8Z" fill="#000000" fill-rule="nonzero" opacity="1" stroke="none" vectornator:layerName="path"/>
<g opacity="1" vectornator:layerName="g">
<path d="M372.04 192.3C364.09 179.95 373.63 160 383.17 168.55C384.76 153.35 408.61 144.8 421.33 163.8C424.51 150.5 454.72 141.95 469.03 161.9C476.98 151.45 494.47 152.4 502.42 169.5C513.55 160 527.86 179.95 518.32 194.2C526.27 200.85 516.73 225.55 505.6 218.9C500.83 236 488.11 248.35 464.26 236C457.9 249.3 411.79 248.35 408.61 234.1C405.43 243.6 373.63 254.05 373.63 219.85C362.5 224.6 356.14 194.2 372.04 192.3Z" fill="url(#LinearGradient)" fill-rule="nonzero" opacity="1" stroke="#fc8e47" stroke-linecap="round" stroke-linejoin="round" stroke-width="3" vectornator:layerName="path"/>
<g fill="#000000" opacity="1" stroke="none" vectornator:layerName="tspan">
<path d="M407.545 194.364L409.523 200.228L411.478 194.364L412.523 194.364L410.011 201.25L409.022 201.25L406.514 194.364L407.545 194.364Z"/>
<path d="M413.123 196.253L413.981 196.253L413.981 201.25L413.123 201.25L413.123 196.253ZM413.123 194.364L413.981 194.364L413.981 195.32L413.123 195.32L413.123 194.364Z"/>
<path d="M415.79 198.798C415.79 199.336 415.904 199.786 416.132 200.148C416.361 200.511 416.726 200.692 417.229 200.692C417.62 200.692 417.941 200.524 418.193 200.188C418.444 199.852 418.57 199.37 418.57 198.742C418.57 198.108 418.44 197.638 418.181 197.334C417.922 197.029 417.601 196.877 417.22 196.877C416.795 196.877 416.45 197.039 416.186 197.364C415.922 197.689 415.79 198.167 415.79 198.798ZM417.061 196.141C417.445 196.141 417.767 196.222 418.026 196.384C418.176 196.478 418.347 196.642 418.537 196.877L418.537 194.341L419.348 194.341L419.348 201.25L418.589 201.25L418.589 200.552C418.392 200.861 418.159 201.084 417.89 201.222C417.622 201.359 417.314 201.428 416.967 201.428C416.407 201.428 415.923 201.193 415.514 200.723C415.104 200.252 414.9 199.627 414.9 198.845C414.9 198.114 415.086 197.48 415.46 196.945C415.833 196.409 416.367 196.141 417.061 196.141Z"/>
<path d="M422.686 196.117C423.042 196.117 423.387 196.201 423.722 196.368C424.056 196.535 424.311 196.752 424.486 197.017C424.654 197.27 424.767 197.566 424.823 197.903C424.873 198.134 424.898 198.503 424.898 199.009L421.218 199.009C421.234 199.519 421.354 199.927 421.579 200.235C421.804 200.543 422.153 200.697 422.625 200.697C423.065 200.697 423.417 200.552 423.679 200.261C423.829 200.092 423.936 199.897 423.998 199.675L424.828 199.675C424.806 199.859 424.733 200.065 424.61 200.291C424.486 200.518 424.348 200.703 424.195 200.847C423.939 201.097 423.622 201.266 423.243 201.353C423.04 201.403 422.811 201.428 422.554 201.428C421.929 201.428 421.4 201.201 420.965 200.746C420.531 200.291 420.314 199.655 420.314 198.836C420.314 198.03 420.532 197.375 420.97 196.872C421.407 196.369 421.979 196.117 422.686 196.117ZM424.031 198.339C423.997 197.973 423.917 197.681 423.792 197.462C423.561 197.056 423.175 196.853 422.634 196.853C422.247 196.853 421.922 196.993 421.659 197.273C421.397 197.552 421.257 197.908 421.242 198.339L424.031 198.339Z"/>
<path d="M427.926 200.706C428.486 200.706 428.869 200.495 429.077 200.071C429.285 199.648 429.389 199.177 429.389 198.658C429.389 198.189 429.314 197.808 429.164 197.514C428.926 197.052 428.517 196.82 427.936 196.82C427.42 196.82 427.045 197.017 426.811 197.411C426.576 197.805 426.459 198.28 426.459 198.836C426.459 199.37 426.576 199.816 426.811 200.172C427.045 200.528 427.417 200.706 427.926 200.706ZM427.959 196.084C428.606 196.084 429.153 196.3 429.6 196.731C430.047 197.162 430.27 197.797 430.27 198.634C430.27 199.444 430.073 200.112 429.679 200.641C429.286 201.169 428.675 201.433 427.847 201.433C427.156 201.433 426.607 201.199 426.201 200.732C425.795 200.265 425.592 199.637 425.592 198.85C425.592 198.006 425.806 197.334 426.234 196.834C426.662 196.334 427.237 196.084 427.959 196.084Z"/>
<path d="M436.954 194.177C437.826 194.177 438.503 194.406 438.984 194.866C439.465 195.325 439.732 195.847 439.786 196.431L438.876 196.431C438.773 195.987 438.568 195.636 438.26 195.377C437.952 195.117 437.52 194.987 436.964 194.987C436.286 194.987 435.738 195.226 435.321 195.702C434.904 196.179 434.695 196.909 434.695 197.894C434.695 198.7 434.883 199.354 435.26 199.855C435.636 200.357 436.198 200.608 436.945 200.608C437.632 200.608 438.156 200.344 438.515 199.816C438.706 199.537 438.848 199.172 438.942 198.719L439.851 198.719C439.77 199.444 439.501 200.052 439.045 200.542C438.498 201.133 437.761 201.428 436.832 201.428C436.032 201.428 435.361 201.186 434.817 200.702C434.101 200.061 433.743 199.072 433.743 197.734C433.743 196.719 434.012 195.886 434.55 195.236C435.131 194.53 435.932 194.177 436.954 194.177Z"/>
<path d="M440.897 194.364L441.74 194.364L441.74 201.25L440.897 201.25L440.897 194.364Z"/>
<path d="M444.998 200.706C445.557 200.706 445.941 200.495 446.149 200.071C446.357 199.648 446.461 199.177 446.461 198.658C446.461 198.189 446.386 197.808 446.236 197.514C445.998 197.052 445.589 196.82 445.007 196.82C444.492 196.82 444.117 197.017 443.882 197.411C443.648 197.805 443.531 198.28 443.531 198.836C443.531 199.37 443.648 199.816 443.882 200.172C444.117 200.528 444.489 200.706 444.998 200.706ZM445.031 196.084C445.678 196.084 446.225 196.3 446.672 196.731C447.118 197.162 447.342 197.797 447.342 198.634C447.342 199.444 447.145 200.112 446.751 200.641C446.357 201.169 445.747 201.433 444.918 201.433C444.228 201.433 443.679 201.199 443.273 200.732C442.867 200.265 442.664 199.637 442.664 198.85C442.664 198.006 442.878 197.334 443.306 196.834C443.734 196.334 444.309 196.084 445.031 196.084Z"/>
<path d="M449.189 196.23L449.189 199.562C449.189 199.819 449.229 200.028 449.311 200.191C449.461 200.491 449.74 200.641 450.15 200.641C450.737 200.641 451.137 200.378 451.35 199.853C451.465 199.572 451.523 199.186 451.523 198.695L451.523 196.23L452.367 196.23L452.367 201.25L451.57 201.25L451.579 200.509C451.47 200.7 451.334 200.861 451.172 200.992C450.85 201.255 450.459 201.386 450 201.386C449.284 201.386 448.797 201.147 448.537 200.669C448.397 200.412 448.326 200.07 448.326 199.642L448.326 196.23L449.189 196.23Z"/>
<path d="M454.218 198.798C454.218 199.336 454.332 199.786 454.561 200.148C454.789 200.511 455.154 200.692 455.657 200.692C456.048 200.692 456.369 200.524 456.621 200.188C456.872 199.852 456.998 199.37 456.998 198.742C456.998 198.108 456.868 197.638 456.609 197.334C456.35 197.029 456.029 196.877 455.648 196.877C455.223 196.877 454.879 197.039 454.615 197.364C454.35 197.689 454.218 198.167 454.218 198.798ZM455.489 196.141C455.873 196.141 456.195 196.222 456.454 196.384C456.604 196.478 456.775 196.642 456.965 196.877L456.965 194.341L457.776 194.341L457.776 201.25L457.017 201.25L457.017 200.552C456.82 200.861 456.587 201.084 456.318 201.222C456.05 201.359 455.742 201.428 455.395 201.428C454.836 201.428 454.351 201.193 453.942 200.723C453.532 200.252 453.328 199.627 453.328 198.845C453.328 198.114 453.515 197.48 453.888 196.945C454.261 196.409 454.795 196.141 455.489 196.141Z"/>
</g>
</g>
<g opacity="1" vectornator:layerName="g">
<g opacity="1" vectornator:layerName="path">
<clipPath id="ClipPath">
<path d="M-9999.5-9999.5L90000.5-9999.5L90000.5 90000.5L-9999.5 90000.5L-9999.5-9999.5M61 135L66 135L66 157L56 157L56 135L61 135Z"/>
</clipPath>
<g clip-path="url(#ClipPath)">
<path d="M60.5 109.5L60.5 146.5" fill="none" opacity="1" stroke="#6b6b6b" stroke-linecap="round" stroke-linejoin="round" stroke-width="4" vectornator:layerName="path"/>
</g>
</g>
<path d="M60.5 134.5L65.5 134.5L60.5 145.5L55.5 134.5L60.5 134.5Z" fill="#6b6b6b" fill-rule="nonzero" opacity="1" stroke="#6b6b6b" stroke-linecap="butt" stroke-linejoin="miter" stroke-width="2" vectornator:layerName="path"/>
</g>
<g opacity="1" vectornator:layerName="g">
<g opacity="1" vectornator:layerName="path">
<clipPath id="ClipPath_2">
<path d="M-9999.5-9999.5L90000.5-9999.5L90000.5 90000.5L-9999.5 90000.5L-9999.5-9999.5M182 199L182 194L204 194L204 204L182 204L182 199Z"/>
</clipPath>
<g clip-path="url(#ClipPath_2)">
<path d="M109.5 198.5L193.5 198.5" fill="none" opacity="1" stroke="#6b6b6b" stroke-linecap="round" stroke-linejoin="round" stroke-width="4" vectornator:layerName="path"/>
</g>
</g>
<path d="M181.5 198.5L181.5 193.5L192.5 198.5L181.5 203.5L181.5 198.5Z" fill="#6b6b6b" fill-rule="nonzero" opacity="1" stroke="#6b6b6b" stroke-linecap="butt" stroke-linejoin="miter" stroke-width="2" vectornator:layerName="path"/>
</g>
<g opacity="1" vectornator:layerName="g">
<g opacity="1" vectornator:layerName="path">
<clipPath id="ClipPath_3">
<path d="M-9999.5-9999.5L90000.5-9999.5L90000.5 90000.5L-9999.5 90000.5L-9999.5-9999.5M350 199L350 194L372 194L372 204L350 204L350 199Z"/>
</clipPath>
<g clip-path="url(#ClipPath_3)">
<path d="M291.5 198.5L361.5 198.5" fill="none" opacity="1" stroke="#6b6b6b" stroke-linecap="round" stroke-linejoin="round" stroke-width="4" vectornator:layerName="path"/>
</g>
</g>
<path d="M349.5 198.5L349.5 193.5L360.5 198.5L349.5 203.5L349.5 198.5Z" fill="#6b6b6b" fill-rule="nonzero" opacity="1" stroke="#6b6b6b" stroke-linecap="butt" stroke-linejoin="miter" stroke-width="2" vectornator:layerName="path"/>
</g>
</g>
</svg>
